<?xml version="1.0" encoding="utf-8"?>
<!-- Generator: Adobe Illustrator 15.0.0, SVG Export Plug-In . SVG Version: 6.00 Build 0)  -->
<!DOCTYPE svg PUBLIC "-//W3C//DTD SVG 1.1//EN" "http://www.w3.org/Graphics/SVG/1.1/DTD/svg11.dtd">
<svg version="1.1" xmlns="http://www.w3.org/2000/svg" xmlns:xlink="http://www.w3.org/1999/xlink" x="0px" y="0px" width="128px"
	 height="112px" viewBox="0 0 128 112" enable-background="new 0 0 128 112" xml:space="preserve">
<g id="图层_2">
</g>
<g id="图层_1">
	<g>
		<path fill-rule="evenodd" clip-rule="evenodd" fill="#DA7B7F" d="M81.486,55.641v7.149h7.3v3.65h3.65v7.549h-3.65v3.65H77.837
			V55.641H81.486z M81.486,66.44v7.549h7.3V66.44H81.486z"/>
		<path fill-rule="evenodd" clip-rule="evenodd" fill="#DA7B7F" d="M99.535,62.891v15.799h-3.648V62.891H99.535z M95.887,59.29
			v-3.649h3.648v3.649H95.887z"/>
		<polygon fill-rule="evenodd" clip-rule="evenodd" fill="#DA7B7F" points="118.785,67.091 111.386,67.091 111.386,74.539 
			118.785,74.539 118.785,78.189 107.735,78.189 107.735,67.091 102.985,67.091 102.985,63.44 107.735,63.44 107.735,55.641 
			111.386,55.641 111.386,63.44 118.785,63.44 		"/>
		<path fill-rule="evenodd" clip-rule="evenodd" fill="#FFFFFF" d="M18.839,23.492c0.963-1.451,1.956-2.784,2.975-4
			c5.371-6.366,11.596-9.549,18.674-9.549c8.466,0,15.666,4.517,21.599,13.549c5.958,8.955,8.942,19.787,8.95,32.499
			c0,12.7-2.983,23.532-8.95,32.499c-5.933,9.032-13.132,13.549-21.599,13.549c-7.066,0-13.283-3.183-18.65-9.549
			c-1.033-1.2-2.033-2.533-3-4c-0.767-1.166-1.483-2.383-2.149-3.649c-4.467-8.2-6.7-17.816-6.7-28.849
			c0.007-11.044,2.231-20.669,6.675-28.874C17.342,25.875,18.067,24.666,18.839,23.492z M60.138,31.842
			c3.859,6.654,5.792,14.704,5.799,24.148c0,9.433-1.934,17.483-5.799,24.149c-3.834,6.7-8.483,10.05-13.95,10.05
			s-10.133-3.35-14-10.05c-3.833-6.666-5.75-14.716-5.75-24.149c0.007-9.445,1.923-17.495,5.75-24.148
			c3.866-6.7,8.533-10.05,14-10.05S56.304,25.143,60.138,31.842c-3.834-6.7-8.483-10.05-13.95-10.05s-10.133,3.351-14,10.05
			c-3.827,6.654-5.743,14.704-5.75,24.148c0,9.433,1.916,17.483,5.75,24.149c3.866,6.7,8.533,10.05,14,10.05
			s10.116-3.35,13.95-10.05c3.866-6.666,5.799-14.716,5.799-24.149C65.931,46.546,63.997,38.496,60.138,31.842z"/>
		
			<path fill-rule="evenodd" clip-rule="evenodd" fill="none" stroke="#5BA8D2" stroke-width="3" stroke-linecap="round" stroke-linejoin="round" stroke-miterlimit="3" d="
			M18.839,23.492c0.963-1.451,1.956-2.784,2.975-4c5.371-6.366,11.596-9.549,18.674-9.549c8.466,0,15.666,4.517,21.599,13.549
			c5.958,8.955,8.942,19.787,8.95,32.499c0,12.7-2.983,23.532-8.95,32.499c-5.933,9.032-13.132,13.549-21.599,13.549
			c-7.066,0-13.283-3.183-18.65-9.549c-1.033-1.2-2.033-2.533-3-4c-0.767-1.166-1.483-2.383-2.149-3.649
			c-4.467-8.2-6.7-17.816-6.7-28.849c0.007-11.044,2.231-20.669,6.675-28.874C17.342,25.875,18.067,24.666,18.839,23.492z
			 M60.138,31.842c3.859,6.654,5.792,14.704,5.799,24.148c0,9.433-1.934,17.483-5.799,24.149c-3.834,6.7-8.483,10.05-13.95,10.05
			s-10.133-3.35-14-10.05c-3.833-6.666-5.75-14.716-5.75-24.149c0.007-9.445,1.923-17.495,5.75-24.148
			c3.866-6.7,8.533-10.05,14-10.05S56.304,25.143,60.138,31.842z"/>
		<path fill-rule="evenodd" clip-rule="evenodd" fill="#DA7B7F" d="M57.138,44.542c0,4.632-1.617,8.166-4.851,10.599
			c3.834,2.566,5.75,6.4,5.75,11.5c0,4.566-1.184,8.184-3.55,10.849c-2.2,2.434-4.9,3.65-8.099,3.65c-3.301,0-6.016-1.217-8.15-3.65
			c-2.366-2.599-3.55-6.215-3.55-10.849c0-5.1,1.916-8.934,5.75-11.5c-3.233-2.434-4.851-5.967-4.851-10.599
			c0-4,1.017-7.3,3.051-9.9c1.966-2.5,4.549-3.75,7.75-3.75c3.199,0,5.766,1.25,7.699,3.75
			C56.122,37.242,57.138,40.542,57.138,44.542z M41.389,44.542c0,2.699,0.517,4.666,1.55,5.899c1,1.101,2.149,1.65,3.45,1.65
			c1.267,0,2.399-0.55,3.399-1.65c1.033-1.233,1.55-3.2,1.55-5.899c0-2.7-0.517-4.667-1.55-5.9c-1-1.099-2.133-1.65-3.399-1.65
			c-1.301,0-2.45,0.551-3.45,1.65C41.905,39.875,41.389,41.842,41.389,44.542z M46.389,58.19c-1.7,0-3.101,0.7-4.2,2.101
			c-1.167,1.433-1.75,3.55-1.75,6.35s0.583,4.917,1.75,6.35c1.1,1.4,2.5,2.101,4.2,2.101c1.666,0,3.05-0.7,4.149-2.101
			c1.167-1.433,1.75-3.55,1.75-6.35s-0.583-4.917-1.75-6.35C49.438,58.891,48.055,58.19,46.389,58.19z"/>
		<path fill-rule="evenodd" clip-rule="evenodd" fill="#5BA8D2" d="M27.239,21.042c0.4-0.399,0.884-0.6,1.45-0.6s1.05,0.2,1.45,0.6
			c0.399,0.4,0.599,0.884,0.599,1.45s-0.2,1.05-0.599,1.45c-0.4,0.4-0.884,0.6-1.45,0.6s-1.05-0.199-1.45-0.6s-0.6-0.884-0.6-1.45
			S26.839,21.442,27.239,21.042z"/>
		
			<path fill-rule="evenodd" clip-rule="evenodd" fill="none" stroke="#5BA8D2" stroke-linecap="round" stroke-linejoin="round" stroke-miterlimit="3" d="
			M27.239,21.042c0.4-0.399,0.884-0.6,1.45-0.6s1.05,0.2,1.45,0.6c0.399,0.4,0.599,0.884,0.599,1.45s-0.2,1.05-0.599,1.45
			c-0.4,0.4-0.884,0.6-1.45,0.6s-1.05-0.199-1.45-0.6s-0.6-0.884-0.6-1.45S26.839,21.442,27.239,21.042z"/>
		<path fill-rule="evenodd" clip-rule="evenodd" fill="#5BA8D2" d="M28.689,91.539c-0.566,0-1.05-0.199-1.45-0.6
			s-0.6-0.884-0.6-1.45s0.199-1.05,0.6-1.45c0.4-0.399,0.884-0.6,1.45-0.6s1.05,0.2,1.45,0.6c0.399,0.4,0.599,0.884,0.599,1.45
			s-0.2,1.05-0.599,1.45C29.739,91.34,29.256,91.539,28.689,91.539z"/>
		
			<path fill-rule="evenodd" clip-rule="evenodd" fill="none" stroke="#5BA8D2" stroke-linecap="round" stroke-linejoin="round" stroke-miterlimit="3" d="
			M28.689,91.539c0.566,0,1.05-0.199,1.45-0.6c0.399-0.4,0.599-0.884,0.599-1.45s-0.2-1.05-0.599-1.45
			c-0.4-0.399-0.884-0.6-1.45-0.6s-1.05,0.2-1.45,0.6c-0.4,0.4-0.6,0.884-0.6,1.45s0.199,1.05,0.6,1.45S28.123,91.539,28.689,91.539
			z"/>
		<path fill-rule="evenodd" clip-rule="evenodd" fill="#FFFFFF" d="M20.089,85.289c1.101,0.301,1.75,1.217,1.95,2.75
			c0.233,1.567,0.167,3.051-0.2,4.45c-0.699,2.565-2.449,4.482-5.25,5.749c-3.933-2.866-6.383-6.266-7.35-10.199
			c2.167-1.533,4.233-2.449,6.2-2.75C17.407,84.989,18.957,84.989,20.089,85.289z"/>
		
			<path fill-rule="evenodd" clip-rule="evenodd" fill="none" stroke="#5BA8D2" stroke-width="3" stroke-linecap="round" stroke-linejoin="round" stroke-miterlimit="3" d="
			M20.089,85.289c1.101,0.301,1.75,1.217,1.95,2.75c0.233,1.567,0.167,3.051-0.2,4.45c-0.699,2.565-2.449,4.482-5.25,5.749
			c-3.933-2.866-6.383-6.266-7.35-10.199c2.167-1.533,4.233-2.449,6.2-2.75C17.407,84.989,18.957,84.989,20.089,85.289z"/>
		<path fill-rule="evenodd" clip-rule="evenodd" fill="#FFFFFF" d="M16.589,13.743c2.811,1.251,4.552,3.167,5.225,5.75
			c0.37,1.404,0.445,2.879,0.225,4.425c-0.211,1.546-0.869,2.47-1.975,2.775C18.95,27,17.408,27,15.44,26.692
			c-1.965-0.313-4.031-1.23-6.2-2.75C10.203,20,12.653,16.6,16.589,13.743z"/>
		
			<path fill-rule="evenodd" clip-rule="evenodd" fill="none" stroke="#5BA8D2" stroke-width="3" stroke-linecap="round" stroke-linejoin="round" stroke-miterlimit="3" d="
			M16.589,13.743C12.653,16.6,10.203,20,9.24,23.942c2.169,1.52,4.235,2.436,6.2,2.75c1.968,0.308,3.51,0.308,4.625,0
			c1.105-0.305,1.764-1.229,1.975-2.775c0.221-1.546,0.146-3.021-0.225-4.425C21.142,16.909,19.4,14.994,16.589,13.743z"/>
	</g>
</g>
</svg>
