<?xml version="1.0" encoding="UTF-8" standalone="no"?>
<!-- Generator: Adobe Illustrator 15.0.0, SVG Export Plug-In . SVG Version: 6.00 Build 0)  -->

<svg
   xmlns:dc="http://purl.org/dc/elements/1.1/"
   xmlns:cc="http://creativecommons.org/ns#"
   xmlns:rdf="http://www.w3.org/1999/02/22-rdf-syntax-ns#"
   xmlns:svg="http://www.w3.org/2000/svg"
   xmlns="http://www.w3.org/2000/svg"
   xmlns:sodipodi="http://sodipodi.sourceforge.net/DTD/sodipodi-0.dtd"
   xmlns:inkscape="http://www.inkscape.org/namespaces/inkscape"
   version="1.1"
   id="图层_1"
   x="0px"
   y="0px"
   width="768"
   height="288"
   viewBox="0 0 768 288"
   enable-background="new 0 0 550 400"
   xml:space="preserve"
   sodipodi:docname="AICLogo.svg"
   inkscape:version="0.92.2 (5c3e80d, 2017-08-06)"><title
     id="title4547">AIC Logo</title><metadata
     id="metadata4538"><rdf:RDF><cc:Work
         rdf:about=""><dc:format>image/svg+xml</dc:format><dc:type
           rdf:resource="http://purl.org/dc/dcmitype/StillImage" /><dc:title>AIC Logo</dc:title></cc:Work></rdf:RDF></metadata><defs
     id="defs4536" /><sodipodi:namedview
     pagecolor="#ffffff"
     bordercolor="#666666"
     borderopacity="1"
     objecttolerance="10"
     gridtolerance="10"
     guidetolerance="10"
     inkscape:pageopacity="0"
     inkscape:pageshadow="2"
     inkscape:window-width="1920"
     inkscape:window-height="1001"
     id="namedview4534"
     showgrid="false"
     inkscape:zoom="0.5"
     inkscape:cx="71.002495"
     inkscape:cy="304.405"
     inkscape:window-x="-9"
     inkscape:window-y="-9"
     inkscape:window-maximized="1"
     inkscape:current-layer="图层_1" /><g
     id="g4545"
     transform="matrix(4.2109046,0,0,4.2109046,-774.23247,-698.82308)"><path
       style="fill:#000000"
       id="path4529"
       d="m 350.946,184.979 13.164,-14.824 h -41.4 c -9.278,0 -17.2,3.266 -23.765,9.799 -3.697,3.718 -6.009,8.81 -6.934,15.276 l -0.703,35.075 h 53.809 l 13.164,-14.824 h -51.348 l 0.101,-18.04 c 0.067,-0.134 0.101,-0.251 0.101,-0.352 0.067,-3.283 1.323,-6.097 3.769,-8.442 2.612,-2.445 5.71,-3.668 9.294,-3.668 z"
       inkscape:connector-curvature="0" /><path
       style="fill:#000000"
       id="path4531"
       d="m 205.4,189.95 c 2.9,-2.867 6.367,-4.3 10.4,-4.3 h 30.15 v 44.5 h 15 V 170 h -43.3 c -8.733,0 -16.199,3.083 -22.399,9.25 -6.167,6.2 -9.25,13.667 -9.25,22.4 v 28.5 h 44.35 l 14.3,-15 H 201.1 V 200.4 c 0,-4.067 1.433,-7.55 4.3,-10.45 z"
       inkscape:connector-curvature="0" /><rect
       y="170.15201"
       x="268.673"
       height="59.849998"
       width="14.96"
       id="rect4540"
       style="opacity:1;vector-effect:none;fill:#c8113d;fill-opacity:1;fill-rule:evenodd;stroke:none;stroke-width:4.08185768;stroke-linecap:butt;stroke-linejoin:miter;stroke-miterlimit:4;stroke-dasharray:none;stroke-dashoffset:0;stroke-opacity:1" /></g></svg>