<?xml version="1.0" encoding="UTF-8" standalone="no"?>
<svg
   xmlns:dc="http://purl.org/dc/elements/1.1/"
   xmlns:cc="http://creativecommons.org/ns#"
   xmlns:rdf="http://www.w3.org/1999/02/22-rdf-syntax-ns#"
   xmlns:svg="http://www.w3.org/2000/svg"
   xmlns="http://www.w3.org/2000/svg"
   xmlns:sodipodi="http://sodipodi.sourceforge.net/DTD/sodipodi-0.dtd"
   xmlns:inkscape="http://www.inkscape.org/namespaces/inkscape"
   sodipodi:docname="Bandai Namco Pictures.svg"
   inkscape:version="1.0 (4035a4fb49, 2020-05-01)"
   id="svg8"
   version="1.1"
   viewBox="0 0 105.95733 29.502724"
   height="29.502724mm"
   width="105.95733mm">
  <defs
     id="defs2" />
  <sodipodi:namedview
     fit-margin-bottom="0"
     fit-margin-right="0"
     fit-margin-left="0"
     fit-margin-top="0"
     inkscape:window-maximized="1"
     inkscape:window-y="-8"
     inkscape:window-x="-8"
     inkscape:window-height="1017"
     inkscape:window-width="1920"
     showgrid="false"
     inkscape:document-rotation="0"
     inkscape:current-layer="layer1"
     inkscape:document-units="mm"
     inkscape:cy="75.393222"
     inkscape:cx="341.99131"
     inkscape:zoom="1.4142136"
     inkscape:pageshadow="2"
     inkscape:pageopacity="0.0"
     borderopacity="1.0"
     bordercolor="#666666"
     pagecolor="#ffffff"
     id="base" />
  <metadata
     id="metadata5">
    <rdf:RDF>
      <cc:Work
         rdf:about="">
        <dc:format>image/svg+xml</dc:format>
        <dc:type
           rdf:resource="http://purl.org/dc/dcmitype/StillImage" />
        <dc:title></dc:title>
      </cc:Work>
    </rdf:RDF>
  </metadata>
  <g
     transform="translate(-38.353213,-127.94494)"
     id="layer1"
     inkscape:groupmode="layer"
     inkscape:label="Layer 1">
    <g
       transform="matrix(0.57711238,0,0,0.57711238,16.219099,54.106331)"
       id="g4661">
      <g
         id="g4634">
        <rect
           y="131.52333"
           x="84.28344"
           height="43.965836"
           width="43.778748"
           id="rect1867"
           style="fill:#ed6d00;fill-opacity:1;stroke:none;stroke-width:0.307999;stroke-linecap:round;stroke-linejoin:round;stroke-miterlimit:4;stroke-dasharray:none" />
        <path
           style="fill:#ffffff;fill-opacity:1;stroke:none;stroke-width:0.264583px;stroke-linecap:butt;stroke-linejoin:miter;stroke-opacity:1"
           d="m 112.92137,168.21378 h 7.42893 v -29.78486 h -8.63164 v 16.52059 L 99.825168,138.74527 h -7.428927 v 29.78486 h 8.631639 l -1e-5,-16.52059 z"
           id="path1756-8"
           sodipodi:nodetypes="ccccccccccc" />
      </g>
      <g
         id="g4621">
        <path
           sodipodi:nodetypes="cccccccccccc"
           id="path1788"
           d="m 132.19717,179.06622 v -10.67783 h 8.88244 v -9.26042 h 8.50447 c 7.8276,0 13.30021,-6.22717 9.54389,-15.59151 l 17.38691,10.11086 -10.48884,5.95313 v 8.59895 h -3.87426 v -6.42559 z"
           style="fill:#e60012;fill-opacity:1;stroke:none;stroke-width:0.264583px;stroke-linecap:butt;stroke-linejoin:miter;stroke-opacity:1" />
        <path
           sodipodi:nodetypes="cccccc"
           id="path1724-2-8"
           d="m 145.95533,144.78661 h -4.74059 v 8.25141 h 4.74059 c 4.67613,0 4.99608,-1.754 4.99608,-4.01568 0,-2.42672 -0.31995,-4.23573 -4.99608,-4.23573 z"
           style="fill:#e60012;fill-opacity:1;stroke:none;stroke-width:0.308;stroke-linecap:butt;stroke-linejoin:miter;stroke-miterlimit:4;stroke-dasharray:none;stroke-opacity:1" />
        <path
           sodipodi:nodetypes="cccc"
           id="path1805"
           d="m 132.19717,127.94494 v 10.77232 h 18.61533 z"
           style="fill:#e60012;fill-opacity:1;stroke:none;stroke-width:0.264583px;stroke-linecap:butt;stroke-linejoin:miter;stroke-opacity:1" />
        <circle
           r="2.5631511"
           cy="155.29388"
           cx="164.12434"
           id="path1809"
           style="fill:#ffffff;stroke:none;stroke-width:0.307999;stroke-linecap:round;stroke-linejoin:round;stroke-miterlimit:4;stroke-dasharray:none" />
      </g>
      <g
         id="g4639">
        <path
           id="path1902"
           style="opacity:1;fill:#fabe00;fill-opacity:1;stroke:none;stroke-width:1.21669;stroke-linecap:round;stroke-linejoin:round;stroke-miterlimit:4;stroke-dasharray:none"
           d="m 239.86328,486.42969 c -8.82459,-0.0512 -17.77814,1.13853 -26.61914,3.65625 -40.41598,11.50957 -68.29127,48.43416 -68.28711,90.45703 0.004,42.02286 27.8865,78.94349 68.30469,90.44531 40.41819,11.50182 83.16041,-4.93561 105.28906,-40.66016 v -0.0469 -99.72461 -0.0234 c -17.29336,-27.90649 -47.17109,-43.92053 -78.6875,-44.10351 z"
           transform="scale(0.26458333)" />
        <path
           transform="scale(0.26458333)"
           d="m 196.42773,524.39062 v 112.57422 h 66.78711 c 18.60822,0 37.67774,-10.06628 37.67774,-31.42968 0,-20.15604 -12.91051,-26.13921 -23.92774,-30.35743 8.34809,-3.14914 16.40625,-10.95858 16.40625,-23.92773 0,-19.86399 -20.93947,-26.85937 -35.59179,-26.85938 z M 230,543.21484 h 12.32227 c 15.17963,0 19.28515,5.87241 19.28515,13.75 0,7.34189 -4.10552,13.03516 -19.28515,13.03516 H 230 Z m 0,45.89258 h 16.78516 c 15.17963,0 20.17968,6.40756 20.17968,14.28516 0,7.34188 -5.00005,13.75 -20.17968,13.75 H 230 Z"
           style="fill:#ffffff;fill-opacity:1;stroke:none;stroke-width:0.854585px;stroke-linecap:butt;stroke-linejoin:miter;stroke-opacity:1"
           id="path1707-0" />
        <path
           sodipodi:nodetypes="cccc"
           d="m 84.283226,140.37024 v 26.40407 c 2.483286,-3.95206 3.800727,-8.54347 3.8008,-13.21108 2.3e-5,-4.66778 -1.317422,-9.24078 -3.8008,-13.19299 z"
           style="opacity:1;fill:#e60012;fill-opacity:1;stroke:none;stroke-width:0.32077;stroke-linecap:round;stroke-linejoin:round;stroke-miterlimit:4;stroke-dasharray:none"
           id="path1902-6-0-6" />
      </g>
      <g
         id="g4630">
        <path
           style="fill:#e60012;fill-opacity:1;stroke:none;stroke-width:0.1;stroke-linecap:butt;stroke-linejoin:miter;stroke-miterlimit:4;stroke-dasharray:none;stroke-opacity:1"
           d="m 174.41341,157.99638 c -3.16368,-0.53128 -6.9886,0.72384 -7.10937,5.14494 0.12077,4.4211 3.94569,5.67622 7.10937,5.14494 l 0.11576,-2.71279 c -1.13152,0.28456 -2.57816,-0.0548 -3.25007,-0.95547 -0.6719,-0.90063 -0.6719,-2.0995 0,-3.00013 0.67191,-0.90063 2.11855,-1.19326 3.25007,-0.9087 z"
           id="path4507-6"
           sodipodi:nodetypes="ccccsscc" />
        <path
           sodipodi:nodetypes="cccccc"
           id="path4532"
           d="m 175.26992,160.58554 h 7.59023 v -2.46393 h -2.19934 v -2.71197 z"
           style="fill:#e60012;fill-opacity:1;stroke:none;stroke-width:0.264583px;stroke-linecap:butt;stroke-linejoin:miter;stroke-opacity:1" />
        <path
           sodipodi:nodetypes="ccccccc"
           id="path4534"
           d="m 182.95936,165.52995 -0.0992,2.61276 c -2.78928,0.60927 -5.62239,-0.12511 -5.62239,-3.20807 v -4.86172 l 3.40651,0.23151 v 4.10104 c 0,0.88283 0.91017,1.50093 2.31509,1.12448 z"
           style="fill:#e60012;fill-opacity:1;stroke:none;stroke-width:0.264583px;stroke-linecap:butt;stroke-linejoin:miter;stroke-opacity:1" />
        <path
           transform="scale(0.26458333)"
           d="m 695.0957,597.625 v 22.33008 c 0,9.74358 5.54443,16.08789 13.25977,16.08789 6.86406,0.32278 11.25043,-2.58263 14.30859,-7.53711 v 7.00586 h 13.00391 V 597.625 h -13.00391 v 19.0918 c 0,10.94789 -14.5625,12.9923 -14.5625,2.35547 V 597.625 Z"
           style="fill:#e60012;fill-opacity:1;stroke:none;stroke-width:0.999999px;stroke-linecap:butt;stroke-linejoin:miter;stroke-opacity:1"
           id="path4538" />
        <path
           sodipodi:nodetypes="ccccccccc"
           transform="scale(0.26458333)"
           d="m 763.76367,597.0625 c -4.7189,1.62029 -7.69379,4.8722 -10.06445,8.37305 V 597.625 h -13.00391 v 37.88672 h 13.00391 v -15.8457 c 0,-4.59715 4.14334,-9.74726 9.44531,-10.14063 z"
           style="fill:#e60012;fill-opacity:1;stroke:none;stroke-width:0.502345;stroke-linecap:round;stroke-linejoin:round;stroke-miterlimit:4;stroke-dasharray:none"
           id="rect4536-1-4" />
        <path
           style="fill:#e60012;fill-opacity:1;stroke:none;stroke-width:0.264583px;stroke-linecap:butt;stroke-linejoin:miter;stroke-opacity:1"
           d="m 218.08281,157.92318 c 1.34993,0 2.40535,0.14288 3.38077,0.84219 v 2.2837 c -1.71962,-1.32457 -4.0753,-1.28224 -4.0753,-0.21548 0,1.33776 4.56406,1.15698 4.56406,4.46485 0,2.32731 -2.01191,3.07578 -4.10104,3.07578 -1.34993,0 -2.6626,-0.25981 -3.63802,-0.95912 v -2.4474 c 1.62608,1.48827 4.33255,1.56287 4.33255,0.49611 0,-1.45469 -4.56406,-1.53116 -4.56406,-4.46485 0,-2.32731 2.01191,-3.07578 4.10104,-3.07578 z"
           id="path4591-8"
           sodipodi:nodetypes="ccccccccccc" />
        <path
           transform="scale(0.26458333)"
           d="m 787.625,596.75 c -14.06234,0 -21.25,8.94417 -21.25,20.5 0,10.28383 7.29115,18.875 21.75,18.875 8.79708,0 11.95833,-1.2115 16.875,-4 l 0.375,-7.375 c -15.105,6.46908 -24.60311,3.73894 -25.875,-6 h 26.625 c 2.01551,-15.79669 -8.67856,-22 -18.5,-22 z M 787.25,604 c 4.95145,0 7.75,3.39195 7.75,9.125 h -16 c 0,-5.48341 3.30566,-9.125 8.25,-9.125 z"
           style="fill:#e60012;fill-opacity:1;stroke:none;stroke-width:0.999999px;stroke-linecap:butt;stroke-linejoin:miter;stroke-opacity:1"
           id="path4608" />
      </g>
    </g>
  </g>
</svg>
