<?xml version="1.0" encoding="UTF-8" standalone="no"?>
<!-- Created with Inkscape (http://www.inkscape.org/) -->

<svg
   xmlns:dc="http://purl.org/dc/elements/1.1/"
   xmlns:cc="http://creativecommons.org/ns#"
   xmlns:rdf="http://www.w3.org/1999/02/22-rdf-syntax-ns#"
   xmlns:svg="http://www.w3.org/2000/svg"
   xmlns="http://www.w3.org/2000/svg"
   xmlns:sodipodi="http://sodipodi.sourceforge.net/DTD/sodipodi-0.dtd"
   xmlns:inkscape="http://www.inkscape.org/namespaces/inkscape"
   version="1.1"
   id="svg10"
   width="226"
   height="30"
   viewBox="0 0 226 30"
   sodipodi:docname="Brain's_Base_logo.svg"
   inkscape:version="0.92.3 (2405546, 2018-03-11)">
  <metadata
     id="metadata16">
    <rdf:RDF>
      <cc:Work
         rdf:about="">
        <dc:format>image/svg+xml</dc:format>
        <dc:type
           rdf:resource="http://purl.org/dc/dcmitype/StillImage" />
        <dc:title></dc:title>
      </cc:Work>
    </rdf:RDF>
  </metadata>
  <defs
     id="defs14" />
  <sodipodi:namedview
     pagecolor="#ffffff"
     bordercolor="#666666"
     borderopacity="1"
     objecttolerance="10"
     gridtolerance="10"
     guidetolerance="10"
     inkscape:pageopacity="0"
     inkscape:pageshadow="2"
     inkscape:window-width="1366"
     inkscape:window-height="706"
     id="namedview12"
     showgrid="false"
     inkscape:zoom="2.6792035"
     inkscape:cx="168.6806"
     inkscape:cy="31.210585"
     inkscape:window-x="-8"
     inkscape:window-y="-8"
     inkscape:window-maximized="1"
     inkscape:current-layer="svg10" />
  <path
     style="fill:#550000"
     d="M 2.75,28.547289 C 0.04581761,27.763363 0.62086861,25.186623 3.5,25.186623 c 2.2790698,0 2.5,-0.38 2.5,-4.3 0,-2.365 0.54,-4.84 1.2,-5.5 0.9333333,-0.933333 0.9333333,-1.2 0,-1.2 -0.7527647,0 -1.2,-1.651211 -1.2,-4.4304491 0,-3.833192 -0.3033169,-4.473527 -2.25,-4.75 C 2.5125,4.8304209 1.5,4.0503789 1.5,3.2727489 c 0,-1.064035 1.917568,-1.508327 7.749849,-1.795606 7.189911,-0.354151 9.050225,-0.57433699 11.369736,1.745175 2.597061,2.59706 1.972999,7.6710531 0.127261,8.8117821 -1.420679,0.878028 -2.04643,-1.362198 -2.241803,-4.0979661 -0.134412,-1.882147 -0.824878,-2.298892 -4.227986,-2.551885 l -4.067339,-0.302375 -0.3548588,4.40421 c -0.3691381,4.5814271 0.3200618,5.1132931 4.2921828,3.3123431 4.574278,-2.073965 7.776211,0.989614 7.821155,7.483208 0.04509,6.515311 -2.187819,8.286562 -10.79165,8.56044 C 7.5044461,28.958966 3.7125,28.826313 2.75,28.547289 Z M 19.067697,23.06013 c 0.826111,-1.543602 0.841632,-2.777093 0.05662,-4.5 -0.877202,-1.925254 -1.840915,-2.373507 -5.102878,-2.373507 H 10 v 4.5 4.5 h 3.964816 c 3.019976,0 4.236025,-0.506757 5.102881,-2.126493 z m 7.54128,4.927541 c -2.011888,-1.125908 -1.185006,-2.801048 1.382652,-2.801048 1.030478,0 2.159245,-0.9 2.508371,-2 0.83264,-2.623416 3.119478,-2.56312 3.816061,0.100616 0.302127,1.155338 0.963317,1.844753 1.469309,1.532033 0.505992,-0.312721 1.773781,0.05986 2.817308,0.827964 1.575087,1.159362 1.642567,1.480201 0.397322,1.889106 -3.205221,1.052508 -10.821091,1.329908 -12.391023,0.451329 z m 21.553991,-0.399454 c -2.628981,-1.84141 -2.837356,-5.998922 -0.433782,-8.654842 1.638916,-1.810981 1.638916,-1.961248 0,-2.878431 C 45.482503,14.797637 45.546915,13.639708 48,11.186623 c 2.111416,-2.1114161 8.302402,-2.7276701 10.897175,-1.084712 0.88785,0.56217 1.565016,3.381764 1.857596,7.734688 0.509979,7.587309 0.929484,8.665614 2.369922,6.091694 C 64.320678,21.791186 66,21.650039 66,23.686623 c 0,0.825 -0.6375,1.5 -1.416667,1.5 -0.779166,0 -1.579638,0.488914 -1.778825,1.086475 -0.199187,0.597562 -2.629901,1.195458 -5.401587,1.328658 -2.771686,0.1332 -2.885162,-0.780839 -3.44549,-0.434537 -0.560329,0.346302 -4.604831,1.254249 -5.794463,0.420998 z m 8.826463,-3.888859 c 2.285217,-2.753518 0.459562,-4.683446 -3.726374,-3.939206 -4.770205,0.848119 -5.94032,1.905492 -4.298231,3.884089 1.630034,1.964071 6.413049,1.996923 8.024605,0.05512 z m 0.823677,-9.262735 c -0.401725,-2.107754 -4.762952,-2.949188 -5.884035,-1.135238 -1.19896,1.939958 -0.149484,2.885238 3.203268,2.885238 2.331165,0 2.938716,-0.396608 2.680767,-1.75 z m 50.085572,14 c -0.33161,-2.454748 0.43146,-7.924555 1.24313,-8.910972 0.61404,-0.746231 0.58072,-1.392478 -0.0933,-1.809017 -1.85835,-1.14852 -1.11754,-5.116576 1.39608,-7.478 1.93948,-1.8220471 3.02433,-2.1351801 5.25,-1.5153641 1.54295,0.429689 5.17641,-1.297992 6.13891,-1.419987 1.25977,-0.159674 0.16645,2.459022 0.16645,4.2614651 0,3.309896 -1.68595,4.216064 -3.98055,2.139479 -2.00533,-1.8148 -6.12747,-1.732896 -6.74164,0.133952 -0.459,1.395179 5.15682,4.348444 8.26884,4.348444 3.47898,0 4.83011,5.612502 1.93046,8.018999 -1.28893,1.069717 -1.43002,0.973306 -0.91837,-0.627555 0.57843,-1.809784 0.53625,-1.807639 -0.9771,0.04969 -0.8699,1.067621 -1.58164,2.305121 -1.58164,2.75 0,1.521352 -3.78482,0.811997 -4.41386,-0.827249 -0.58129,-1.514826 -0.76187,-1.514826 -2.43573,0 -1.95213,1.766654 -3.09086,2.076965 -3.25173,0.886119 z m 11.74458,-4.762735 c 0.95746,-2.495091 -1.6023,-4.487265 -5.7657,-4.487265 -4.29033,0 -4.60639,0.514434 -2.32086,3.777494 1.82962,2.612147 7.17646,3.081449 8.08656,0.709771 z M 144.75,28.106524 c -2.54928,-1.484819 -1.35252,-3.929347 1.79177,-4.291138 2.42139,-0.278611 1.99701,0.394767 2.28274,-3.116083 0.17849,-2.193026 0.79609,-4.555526 1.37245,-5.25 0.7381,-0.889358 1.6398,-1.658566 0.84923,-1.658566 -0.64525,0 -2.04617,-1.326771 -2.04617,-3.656134 0,-3.6253561 -2.03938,-4.4288441 -4.79127,-5.3881601 -4.67872,-1.631011 -0.39043,-2.841741 7.87791,-3.268207 9.02694,-0.465592 11.91336,1.06438 11.91336,6.314773 0,1.645509 -0.34173,2.6605481 -0.81051,3.0223881 -0.68831,0.531299 -1.91445,0.841972 -2.20699,-2.7029131 -0.48686,-2.062363 -1.16529,-2.425861 -4.52758,-2.425861 -3.95227,0 -3.95499,0.0028 -4.06392,4.140821 -0.058,2.2041351 0.62573,3.5270861 0.62573,3.5270861 0.37332,0.450938 1.4056,0.324473 2.53852,-0.384681 1.42699,-0.893225 7.75675,-1.461806 7.18525,-0.537105 -0.25001,0.404521 -2.20693,0.988565 0.66584,2.676146 0.85356,0.708396 1.2609,2.573002 1.06241,4.863307 -0.17704,2.042934 -0.35494,4.26537 -0.39532,4.938746 -0.20751,3.459982 -14.74256,5.863693 -19.32343,3.195581 z m 16.87866,-5.169901 c 1.62344,-4.784598 -0.058,-6.710919 -5.87866,-6.734687 L 152,16.186626 v 4.5 4.5 h 4.43261 c 3.70392,0 4.55812,-0.369889 5.19605,-2.25 z m 8.02633,4.421259 c -2.14218,-2.367078 -2.11009,-6.010902 0.0742,-8.424507 1.63891,-1.810981 2.29872,-3.280869 0.65981,-4.198052 -4.11233,-2.301376 -1.98755,-6.2085111 4.25948,-6.2085111 3.13373,0 6.98745,-0.932611 7.97733,1.6072021 0.18354,0.470916 -1.51534,1.443484 -1.40097,2.148963 0.22057,1.360631 1.99315,4.159979 1.52644,6.393919 -1.30517,6.247351 1.42954,8.086868 2.63467,4.946345 0.3348,-0.87248 1.11192,-1.24695 1.75848,-0.847357 0.81417,0.503185 0.63787,1.096754 -0.59308,1.996847 -0.96339,0.704452 -1.52195,1.652451 -1.24123,2.106663 0.28072,0.454212 -2.15658,0.764042 -5.41623,0.68851 -3.25964,-0.07553 -6.17082,0.25778 -6.46927,0.740694 -0.82934,1.341899 -1.95081,1.059061 -3.76963,-0.950716 z m 9.25982,-4.421259 c 0.4677,-1.2375 0.64311,-2.601308 0.3898,-3.030684 -0.53714,-0.910479 -7.39036,0.14247 -8.68739,1.334758 -1.87412,1.72277 0.31393,3.945926 3.88362,3.945926 2.77697,0 3.75132,-0.496671 4.41397,-2.25 z m 0.8983,-8.5 c -0.37587,-1.972069 -4.51655,-2.946561 -6.04131,-1.421797 -1.59018,1.590176 0.0856,3.171797 3.36054,3.171797 2.33117,0 2.93872,-0.396608 2.68077,-1.75 z M 190,24.769956 c 0,-2.429166 0.453,-4.567666 1.00666,-4.75222 0.64868,-0.216227 0.56994,-1.492577 -0.22144,-3.589167 -1.13584,-3.009191 -1.02409,-3.457618 1.48751,-5.969219 2.48225,-2.4822531 2.98539,-2.6137741 5.85517,-1.5305531 1.97053,0.743793 3.76657,0.849485 4.82348,0.283847 1.43594,-0.768491 1.62016,-0.466807 1.25097,2.0486271 -0.53944,3.675444 -1.95625,4.644169 -3.5682,2.439702 C 199.13868,11.65579 193.5,11.966182 193.5,14.093686 c 0,1.077063 0.86211,2.277181 5.96401,3.5611 0.44795,0.112731 3.41654,-0.297672 3.8901,-0.174823 1.48657,0.385638 2.0919,8.312974 0.64589,9.20666 -0.55,0.339919 -1.01497,-1.950452 -1.03327,-2.670415 -0.0194,-0.762602 -0.81678,1.609618 -1.91029,2.920415 -2.20846,2.647289 -4.58756,2.914273 -5.4703,0.613881 -0.58129,-1.514826 -0.76187,-1.514826 -2.43573,0 C 190.44428,29.999522 190,29.607405 190,24.769956 Z m 11.8402,-1.963506 c 0.44454,-2.343918 -1.42232,-3.584643 -5.42353,-3.604514 -4.07971,-0.02026 -4.63339,0.724298 -2.71539,3.651534 1.98847,3.034796 7.56055,3.002606 8.13892,-0.04702 z M 68.201326,26.436623 c 0.23198,-1.166647 1.092226,-1.645296 2.580653,-1.4359 2.957696,0.416097 0.700051,-2.016559 4.1302,-2.74864 C 77.389149,21.723434 73.332566,20.578026 73.75,19.723098 74.727302,19.054792 74,17.337839 74,15.078215 c 0,-3.882958 -0.137188,-4.073976 -2.5,-3.480948 -1.797165,0.45106 -2.5,0.223831 -2.5,-0.808259 0,-2.0201981 1.576159,-2.0954831 5.541949,-0.8744331 3.383133,1.0416531 3.508108,-4.586003 3.411272,6.2720481 -0.07462,8.367205 -0.146981,9 2.046779,9 1.1,0 2,0.397516 2,0.883369 0,1.251929 -3.702483,2.087064 -9.323324,2.102976 -4.063406,0.0115 -4.768501,-0.262059 -4.47535,-1.736345 z M 85,27.366566 c 0,-0.51428 0.675,-1.495254 1.5,-2.179943 2.049798,-1.701181 2.049798,-11.298819 0,-13 C 85.675,11.501934 85,10.321834 85,9.5641779 c 0,-1.935918 5.224697,-2.401485 4.618252,0.372073 -0.362579,1.6582421 2.315349,1.3399841 4.730064,-0.242198 3.453639,-2.262911 7.410604,-1.316157 8.235484,1.9704451 0.33785,1.346079 0.4572,4.709597 0.26523,7.474486 -0.23427,3.374265 0.0619,5.184522 0.90097,5.505969 0.6875,0.263395 1.25,1.168024 1.25,2.010285 0,1.12366 -1.0807,1.531385 -4.05902,1.531385 -2.451364,0 -3.81423,-0.396069 -3.44098,-1 0.339919,-0.55 3.34536,-2.319621 4.09816,-2.319621 1.05882,0 -0.85829,0.0177 -1.25333,-4.430379 -0.28087,-3.1625 -0.684233,-6.3125 -0.896365,-7 -0.691973,-2.242615 -4.265202,-1.31611 -6.380371,1.65437 -2.535726,3.5611 -2.849494,10.09563 -0.484761,10.09563 0.870834,0 1.398359,0.5625 1.17228,1.25 C 93.27913,27.885591 85,28.764926 85,27.366566 Z m 127.97505,-0.678895 c -0.98232,-0.188907 -0.92514,-0.886238 -1.64897,-1.706647 -1.19007,-1.348865 -3.36661,-3.360777 -3.86939,-5.519676 -0.62185,-2.670213 0.68758,-5.565282 2.09206,-7.70878 1.60286,-2.4462811 5.66411,-4.4655811 8.68351,-4.3175431 0.64731,0.03174 1.04524,0.798602 1.77179,0.818032 3.63348,0.09717 2.04466,2.8728411 2.88189,4.8567001 0.28475,0.674722 1.43493,1.114752 1.58555,1.826866 0.68417,3.234651 0.66874,3.25 -3.26703,3.25 -9.2702,0 -12.20934,1.87563 -8.37572,5.345012 2.60651,2.358861 5.14632,2.053061 8.33699,-1.003796 2.45132,-2.348506 2.85174,-2.459267 3.43124,-0.949119 0.4166,1.085644 -0.18374,2.603584 -1.64477,4.158784 -2.22962,2.373318 -4.66707,1.971337 -9.97715,0.950167 z M 221,14.293612 c 0,-3.245288 -5.68961,-4.274524 -8.43776,-1.526369 -2.31524,2.315239 -1.02465,3.41938 3.99678,3.41938 3.69065,0 4.44098,-0.319836 4.44098,-1.893011 z M 31,17.26841 c 0,-3.214308 -1.120083,-5.081787 -3.047972,-5.081787 -2.408101,0 -3.582308,-1.986688 -1.830143,-3.0964911 1.867447,-1.182822 6.437199,1.2950461 7.656482,2.5143241 0.655658,0.655658 1.900965,-1.8479851 4.038815,-2.6549331 5.338227,-2.014956 8.917957,1.5849181 5.724227,5.7564381 -1.496046,1.954073 -1.542384,1.947448 -3.452363,-0.493599 C 38.185363,11.779361 38.118459,11.76944 36.076541,13.61735 34.934444,14.650934 34,16.32685 34,17.341607 c 0,1.014756 -0.675,1.845012 -1.5,1.845012 -0.825,0 -1.5,-0.863196 -1.5,-1.918213 z m 99.38404,-0.523374 c -1.06518,-2.775824 0.0723,-5.058413 2.52067,-5.058413 3.15441,0 4.9413,2.775691 3.16486,4.916177 -1.64171,1.978134 -4.94928,2.06088 -5.68553,0.142236 z M 74.842129,6.6967289 c -0.460218,-0.55453 -0.635035,-1.362543 -1.101393,-1.898384 0,0 -0.179915,-1.601115 0.499205,-2.280235 1.833222,-1.83322199 4.50655,-0.816155 4.50655,1.807164 0,2.426339 -2.345533,4.249728 -3.904362,2.371455 z"
     id="path30"
     inkscape:connector-curvature="0"
     sodipodi:nodetypes="csssssssssssscsssscscscccssssssccsssssscsssssssscssccsssscccssssscssccscsccsscscscssssssscscsscccccccscccscccccsssscccsscccccscccscsscsscccssccccssscsccssscssssssssssssssscccsssscsssssssscsssssscccsscsscsscssssssccsscssssss" />
</svg>
