<?xml version="1.0" encoding="utf-8"?>
<!-- Generator: Adobe Illustrator 25.4.1, SVG Export Plug-In . SVG Version: 6.00 Build 0)  -->
<svg version="1.1" id="groupLogo-01-sp-a" xmlns="http://www.w3.org/2000/svg" xmlns:xlink="http://www.w3.org/1999/xlink" x="0px"
	 y="0px" viewBox="0 0 120 72" style="enable-background:new 0 0 120 72;" xml:space="preserve" width="120" height="72">
<style type="text/css">
	.st0{fill:#e60000;}
</style>
<path id="speechballoon" class="st0" d="M113.5,0H6.5C2.9,0,0,2.9,0,6.5c0,0,0,0,0,0v44c0,1.9,0.8,3.8,2.1,5.2l15.8,15.8v-8h95.6
	c3.6,0,6.5-2.9,6.5-6.5V6.5C120,2.9,117.1,0,113.5,0z M114.4,58.2H17.9v5.3L5.6,51.3v-46h108.7V58.2z"/>
<path id="bandainamco" d="M68.5,36.2v15.1h-3.7V40.2l-4.2,6c-0.7,0.9-1.9,1.2-2.9,0.5c-0.2-0.1-0.4-0.3-0.5-0.5c-1-1.5-4.2-6-4.2-6
	v11.1h-3.7V36.2c0-0.8,0.4-1.5,1-1.9c1-0.7,2.5-0.5,3.2,0.6l5.4,7.7l5.4-7.7c0.7-1,2.1-1.3,3.2-0.6C68.2,34.7,68.5,35.4,68.5,36.2z
	 M25.6,45.2l-7.2-10.4c-0.7-1-2.2-1.3-3.2-0.6c0,0,0,0,0,0c-0.6,0.4-1,1.1-1,1.9v15.1h3.7V40.2l7.2,10.3c0.7,1,2.1,1.3,3.2,0.6
	c0,0,0,0,0,0l0,0c0.6-0.4,1-1.1,1-1.9V34h-3.7L25.6,45.2z M81,36.8c1.7,0,3.3,0.7,4.5,2l2.1-2.8c-1.9-1.5-4.2-2.3-6.6-2.3
	c-5.3,0-9.9,3.6-9.9,9s4.6,9,9.9,9c2.4,0,4.7-0.7,6.6-2.2l-2.1-2.9c-1.2,1.3-2.8,2-4.5,2c-3.1,0-5.7-2.5-5.7-5.6c0-0.1,0-0.2,0-0.3
	c-0.2-3.1,2.2-5.8,5.3-5.9C80.8,36.8,80.9,36.8,81,36.8z M107.5,42.6c0,5.4-4.4,9-9.6,9s-9.6-3.6-9.6-9s4.4-9,9.6-9
	S107.5,37.2,107.5,42.6L107.5,42.6z M103.5,42.6c0.2-3.1-2.1-5.7-5.2-5.9c-3.1-0.2-5.7,2.1-5.9,5.2c0,0.2,0,0.4,0,0.7
	c-0.2,3.1,2.1,5.7,5.2,5.9c3.1,0.2,5.7-2.1,5.9-5.2C103.5,43.1,103.5,42.9,103.5,42.6z M42,35.5l6.4,15.7h-4l-1.5-3.9h-7l-1.5,3.9
	h-3.9l6.3-15.7c0.5-1.4,2-2.2,3.5-1.7C41,34.1,41.6,34.7,42,35.5L42,35.5z M41.7,44.4l-2.4-6l-2.4,6H41.7z M29.9,24.9
	c0,2.5-2,4.6-4.5,4.7c-0.1,0-0.2,0-0.3,0h-9.4c-0.8,0-1.4-0.6-1.5-1.4c0,0,0-0.1,0-0.1V13.7c0-0.8,0.6-1.4,1.4-1.5c0,0,0.1,0,0.1,0
	h8.4c2.9,0,4.8,1.9,4.8,4.3c0,1.9-1.3,3.6-3.1,4.1C28,20.7,29.9,22.6,29.9,24.9z M17.9,19.3h4.8c1.1,0.1,2.1-0.7,2.2-1.8
	c0,0,0-0.1,0-0.1l0,0c0-1.1-0.9-2-2-2c-0.1,0-0.1,0-0.2,0h-4.8L17.9,19.3z M25.9,24.3c0-1.2-1-2.2-2.2-2.1c0,0-0.1,0-0.1,0h-5.6v4.2
	h5.6c1.2,0.1,2.2-0.8,2.3-2C25.9,24.4,25.9,24.3,25.9,24.3L25.9,24.3z M53.1,18.4l7.2,10.3c0.7,1,2.2,1.3,3.2,0.6c0,0,0,0,0,0l0,0
	c0.6-0.4,1-1.1,1-1.9V12.3h-3.7v11.1l-7.2-10.3c-0.7-1-2.1-1.3-3.2-0.6c0,0,0,0,0,0c-0.6,0.4-1,1.1-1,1.9v15.1h3.7L53.1,18.4z
	 M105.8,12.2H102v17.3h3.8L105.8,12.2z M74.4,29.5h-4.9c-0.8,0-1.4-0.5-1.5-1.3c0,0,0-0.1,0-0.1V13.7c0-0.8,0.6-1.4,1.4-1.5
	c0,0,0.1,0,0.1,0h4.9c4.8,0,8.9,2.7,8.9,8.5S79.1,29.5,74.4,29.5z M73.5,26.4c3.1,0,5.8-1.6,5.8-5.6s-3.1-5.4-5.7-5.4h-1.9v11.1
	H73.5z M41.9,13.8l6.4,15.7h-3.9l-1.5-3.9h-7l-1.5,3.9h-3.9l6.3-15.7c0.5-1.4,2.1-2.2,3.5-1.7C41,12.4,41.6,13,41.9,13.8z
	 M41.6,22.6l-2.4-6l-2.4,6H41.6z M82.9,29.5l6.4-15.7c0.5-1.4,2-2.2,3.5-1.7c0.8,0.3,1.4,0.9,1.7,1.7l6.4,15.7h-3.9l-1.6-3.9h-7
	l-1.6,3.9H82.9z M89.5,22.6h4.7l-2.4-6L89.5,22.6z"/>
</svg>
