<svg xmlns="http://www.w3.org/2000/svg" viewBox="0 0 447.96 65"><defs><style>.cls-1{fill:#1b1b1b;}.cls-2{fill:#666;}.cls-3{fill:#ffbf00;}.cls-4{fill:#e60000;}.cls-5{fill:#ff5c00;}.cls-6{fill:#fff;}</style></defs><title>logo</title><g id="レイヤー_2" data-name="レイヤー 2"><g id="レイヤー_3" data-name="レイヤー 3"><polygon class="cls-1" points="179.98 29.36 179.98 20.24 183.5 20.24 183.5 18.4 179.98 18.4 179.98 14.32 177.61 14.32 177.61 18.4 174.51 18.4 174.51 20.24 177.61 20.24 177.61 29.36 173.21 29.36 173.21 31.2 183.84 31.2 183.84 29.36 179.98 29.36"/><path class="cls-1" d="M174.68,26.71V24.8a10.43,10.43,0,0,1-2.58-2.29A9.82,9.82,0,0,0,174,17.28h-2.85v-3h-2.08v3h-2.64V19h5c-.93,3.24-3.45,4.89-5.32,6V27a18.86,18.86,0,0,0,3-1.62v6.26h2.08V24.35A10.28,10.28,0,0,0,174.68,26.71Z"/><path class="cls-1" d="M141.27,14.29h-2.33c0,1.08,0,2.11.06,3.08h-9.16v1.82h9.31c.72,7.29,3.34,11,6.75,12.32V29.13c-2-1.21-3.8-3.86-4.41-9.91h4.41V17.37h-4.55C141.3,16.42,141.27,15.39,141.27,14.29Z"/><rect class="cls-1" x="142.53" y="14.68" width="2.78" height="1.42"/><path class="cls-1" d="M135.53,23.7h2.82V21.85h-7.89V23.7h2.74v4.58c-1.11.25-2.23.48-3.36.71v2a69.7,69.7,0,0,0,9.84-2.65V26.5c-1.31.47-2.71.86-4.15,1.23Z"/><path class="cls-1" d="M151.16,21.29h9.91V19.72a29.37,29.37,0,0,0,3.34,1.5v-1.8a17.34,17.34,0,0,1-6.74-4.93h-3.11a17.27,17.27,0,0,1-6.74,4.93v1.77a29.37,29.37,0,0,0,3.34-1.5Zm5-5.35a17.12,17.12,0,0,0,4.64,3.61h-9.27a16.74,16.74,0,0,0,4.58-3.61Z"/><path class="cls-1" d="M158.29,26.19c.59.72,1.21,1.53,1.81,2.34a53.58,53.58,0,0,1-7.59.73,34.45,34.45,0,0,0,2.28-4.07h9.62V23.42H147.82v1.77h4.44c-.73,1.54-1.37,2.74-2.17,4.15H148v1.85a70.78,70.78,0,0,0,13.23-1.28l1,1.46h2.55a50.56,50.56,0,0,0-4.06-5.18Z"/><path class="cls-1" d="M127.45,23.19V21.47h-4.24v-3.1H127V16.63h-3.85V14.32h-2v2.31h-1.52a16,16,0,0,0,.14-1.95h-1.86c-.1,2.26-.32,3.11-1,4v2.06a4.31,4.31,0,0,0,2.27-2.4h2v3.1H117v1.75H120a17.22,17.22,0,0,1-3.67,5.8v2a13.85,13.85,0,0,0,4.83-6.2v6.8h2V24.85A14.34,14.34,0,0,0,127.92,31V29a18.55,18.55,0,0,1-3.69-5.79Z"/><path class="cls-1" d="M114.74,20.1v-.91h1.52V17.5h-1.52V14.32h-1.93V17.5h-2.07v1.69h2.07a16.4,16.4,0,0,1-2.55,5.27v2.4a13.83,13.83,0,0,0,2.55-3.29v8h1.93v-9a10.67,10.67,0,0,0,1.62,1.21V21.85A14.12,14.12,0,0,1,114.74,20.1Z"/><path class="cls-1" d="M267.36,14.47h-3v4.3h-7v2.68h7v1.39c0,3.6-2.55,4.86-6,5.66v2.58c4.88-.88,9-2.35,9-7.93v-1.7h6.35V18.77h-6.35Z"/><path class="cls-1" d="M240.07,21.72v2.47a38.85,38.85,0,0,0,7.23-1.57v8.31h3V21.36A12.27,12.27,0,0,0,256.23,15h-3.5C250.76,18.57,246.2,20.86,240.07,21.72Z"/><polygon class="cls-1" points="292.09 15.92 292.09 18.51 302.83 18.51 302.83 27.57 292.09 27.57 292.09 30.2 305.91 30.2 305.91 15.92 292.09 15.92"/><path class="cls-1" d="M214,17.12a59.1,59.1,0,0,0-7.31-1.93V18A65.78,65.78,0,0,1,214,20.08Z"/><path class="cls-1" d="M206.67,28v2.76c10.13-.42,13.19-2.45,15-12.68h-2.94C216.89,26.33,215,27.66,206.67,28Z"/><polygon class="cls-1" points="197.7 15.67 201.56 30.6 204.55 30.6 200.55 15.67 197.7 15.67"/><path class="cls-1" d="M188.14,27.43V30.8c3.1-2,5.29-5,6.13-15.22h-2.84C190.75,23,189.68,25.6,188.14,27.43Z"/><rect class="cls-1" x="201.64" y="14.1" width="1.06" height="2.57"/><rect class="cls-1" x="203.45" y="14.1" width="1.06" height="2.57"/><rect class="cls-1" x="238.77" y="14.1" width="1.06" height="2.57"/><rect class="cls-1" x="240.58" y="14.1" width="1.06" height="2.57"/><path class="cls-1" d="M223.21,21v2.88a9.49,9.49,0,0,0,5.29-6.13h6.58a13.23,13.23,0,0,1-.65,3.9l-6.17-1v2.65l4.9.76a12.38,12.38,0,0,1-6.79,4.23V31c7.65-2.18,11.72-4.83,11.72-15.83H226.42C225.68,18,224.61,19.92,223.21,21Z"/><polygon class="cls-1" points="284.04 19.71 286.08 27.57 277.19 27.57 280.95 15.45 277.93 15.45 274.15 27.57 274.15 30.22 289.78 30.22 287.05 19.71 284.04 19.71"/><rect class="cls-1" x="330.01" y="21.21" width="13.73" height="2.77"/><path class="cls-1" d="M441.84,23.31a15.29,15.29,0,0,0,2.6-7.9H432.59v2.65h8.57c-.55,4-5.28,8-9.6,10.08v2.79a28,28,0,0,0,8.64-5.61,27.19,27.19,0,0,1,4.41,5.28H448A31.92,31.92,0,0,0,441.84,23.31Z"/><polygon class="cls-1" points="327.76 20.12 327.76 17.47 321.79 17.47 321.79 14.84 319.04 14.84 319.04 17.47 313.06 17.47 313.06 20.12 319.04 20.12 319.04 31.07 321.79 31.07 321.79 20.12 327.76 20.12"/><path class="cls-1" d="M312.6,27.4v2.79c2.61-1.25,4.15-3.65,5-8.29H315C314.37,24.61,313.81,26.19,312.6,27.4Z"/><path class="cls-1" d="M323,21.88a63.18,63.18,0,0,1,2.91,8h2.83a66,66,0,0,0-3.13-8Z"/><rect class="cls-1" x="365.11" y="15.45" width="11.53" height="2.65"/><path class="cls-1" d="M363.32,22.76H371c0,4.23-2.09,4.79-5.41,5.67v2.7c5.3-1.19,8.33-2.28,8.3-8.37h5.73V20.12H363.32Z"/><rect class="cls-1" x="377.43" y="14.76" width="1.07" height="2.57"/><rect class="cls-1" x="379.24" y="14.76" width="1.07" height="2.57"/><rect class="cls-1" x="428.56" y="14.1" width="1.07" height="2.57"/><rect class="cls-1" x="430.38" y="14.1" width="1.07" height="2.57"/><path class="cls-1" d="M413,21v2.88a9.49,9.49,0,0,0,5.29-6.13h6.57c-.12,5.88-3.22,9-8.7,10.58v2.7c7.67-2.22,11.71-4.87,11.71-15.87H416.21C415.48,18,414.41,19.92,413,21Z"/><path class="cls-1" d="M381.29,23.42v2.22A33.07,33.07,0,0,0,387,24.47v6.47h2.73V23.35a9.88,9.88,0,0,0,4.72-5.16h-3.14C389.56,21.19,385.73,22.8,381.29,23.42Z"/><path class="cls-1" d="M396.48,28v2.76c10.14-.42,13.2-2.45,15-12.68h-2.94C406.71,26.33,404.84,27.66,396.48,28Z"/><path class="cls-1" d="M403.76,17.12a59.42,59.42,0,0,0-7.3-1.93V18a66.25,66.25,0,0,1,7.3,2.13Z"/><path class="cls-1" d="M354.16,28V15.19h-2.68V30.94c5.7-.33,8.64-2.84,9.79-9.36h-2.55C358,25.51,356.45,27.55,354.16,28Z"/><path class="cls-1" d="M346.87,15.37c.22,7.39-.53,11.08-2.34,12.81v3c3.88-2.47,5.25-5.58,5-15.83Z"/><path class="cls-2" d="M167.18,40.79h2.48l3.82,7.5h0v-7.5h1.92v10H173l-3.84-7.5h0v7.5h-1.93Z"/><path class="cls-2" d="M180.32,40.79h2.27l3.94,10H184.3l-.86-2.3h-4.07l-.87,2.3h-2.09Zm1.11,2h0L180,46.94h2.93Z"/><path class="cls-2" d="M187.54,40.79h3.22l2.38,7.6h0l2.39-7.6h3.22v10h-1.93V42.54h0l-2.7,8.28H192.2l-2.71-8.28,0,0v8.25h-1.92Z"/><path class="cls-2" d="M208,50.68a10.27,10.27,0,0,1-2.29.31c-3.25,0-5.5-1.62-5.5-5s2.1-5.36,5.5-5.36A6.84,6.84,0,0,1,208,41l-.15,1.7a4.14,4.14,0,0,0-2.17-.53,3.35,3.35,0,0,0-3.36,3.63,3.3,3.3,0,0,0,3.4,3.58,5.68,5.68,0,0,0,2.2-.41Z"/><path class="cls-2" d="M213.74,40.62c3.15,0,4.92,2.12,4.92,5.16S216.92,51,213.74,51s-4.91-2.14-4.91-5.21S210.55,40.62,213.74,40.62Zm0,8.79c2.06,0,2.82-1.82,2.82-3.63s-.82-3.58-2.82-3.58-2.81,1.81-2.81,3.58S211.69,49.41,213.74,49.41Z"/><path class="cls-2" d="M110.34,40.79h3.51c1.29,0,3.23.37,3.23,2.57a2.22,2.22,0,0,1-2,2.24v0a2.33,2.33,0,0,1,2.3,2.29c0,2.53-2.27,2.9-3.53,2.9h-3.51Zm2,4.05h.82c.85,0,1.9-.18,1.9-1.22s-1-1.25-1.94-1.25h-.78Zm0,4.4h1c.94,0,2.07-.23,2.07-1.39,0-1.31-1.06-1.51-2.07-1.51h-1Z"/><path class="cls-2" d="M121.57,40.79h2.27l3.94,10h-2.23l-.86-2.3h-4.07l-.88,2.3h-2.08Zm1.1,2h0l-1.46,4.14h2.94Z"/><path class="cls-2" d="M128.68,40.79h2.48l3.82,7.5h0v-7.5h1.93v10h-2.46l-3.84-7.5h0v7.5h-1.93Z"/><path class="cls-2" d="M139.16,40.79h2.75c3.08,0,5.79,1,5.79,5s-2.71,5-5.79,5h-2.75Zm2,8.45h1.13a3.44,3.44,0,0,0,0-6.87h-1.13Z"/><path class="cls-2" d="M151.55,40.79h2.27l3.94,10h-2.22l-.87-2.3h-4.06l-.88,2.3h-2.09Zm1.11,2h0l-1.45,4.14h2.93Z"/><path class="cls-2" d="M158.88,40.79h2v10h-2Z"/><path class="cls-2" d="M223.5,40.79h2v4.05h4V40.79h2v10h-2v-4.4h-4v4.4h-2Z"/><path class="cls-2" d="M236.59,43.25a3.71,3.71,0,0,1,3.88,3.92,3.87,3.87,0,0,1-7.74,0A3.7,3.7,0,0,1,236.59,43.25Zm0,6.25c1.48,0,1.87-1.32,1.87-2.56a1.89,1.89,0,1,0-3.72,0C234.74,48.16,235.13,49.5,236.59,49.5Z"/><path class="cls-2" d="M241.74,40h1.93V50.82h-1.93Z"/><path class="cls-2" d="M250.34,50h0A2.75,2.75,0,0,1,248,51c-2.28,0-3.11-1.86-3.11-3.89s.83-3.85,3.11-3.85a2.63,2.63,0,0,1,2.21,1h0V40h1.93V50.82h-1.87Zm-1.77-.49c1.28,0,1.69-1.35,1.69-2.4s-.49-2.36-1.72-2.36-1.6,1.37-1.6,2.36S247.3,49.5,248.57,49.5Z"/><path class="cls-2" d="M254.23,40.23h1.93v1.84h-1.93Zm0,3.19h1.93v7.4h-1.93Z"/><path class="cls-2" d="M258.19,43.42H260v1h0a2.75,2.75,0,0,1,2.43-1.18c1.75,0,2.51,1.23,2.51,2.9v4.67h-1.92v-4c0-.91,0-2.13-1.25-2.13-1.4,0-1.7,1.51-1.7,2.46v3.62h-1.92Z"/><path class="cls-2" d="M273.48,43.42V50.1c0,2-.81,3.92-3.91,3.92a6.5,6.5,0,0,1-2.56-.51l.16-1.64a5.49,5.49,0,0,0,2.15.65c2.13,0,2.23-1.6,2.23-2.87h0a2.63,2.63,0,0,1-2.3,1.17c-2.18,0-3-1.75-3-3.73,0-1.79.92-3.84,3.13-3.84a2.45,2.45,0,0,1,2.27,1.18h0v-1ZM271.55,47c0-1.26-.48-2.3-1.61-2.3-1.31,0-1.72,1.21-1.72,2.35s.53,2.24,1.64,2.24S271.55,48.28,271.55,47Z"/><path class="cls-2" d="M279.58,45a4.8,4.8,0,0,0-1.73-.31c-.52,0-1.14.18-1.14.82,0,1.17,3.35.43,3.35,3.1,0,1.73-1.54,2.41-3.1,2.41a8.58,8.58,0,0,1-2.19-.31l.12-1.58a4.22,4.22,0,0,0,1.9.49c.49,0,1.26-.19,1.26-.91,0-1.45-3.35-.46-3.35-3.13,0-1.6,1.4-2.3,2.91-2.3a8.79,8.79,0,0,1,2.09.27Z"/><path class="cls-2" d="M284.58,40.79h2v10h-2Z"/><path class="cls-2" d="M288.58,43.42h1.83v1h0a2.78,2.78,0,0,1,2.44-1.18c1.75,0,2.51,1.23,2.51,2.9v4.67h-1.93v-4c0-.91,0-2.13-1.25-2.13s-1.69,1.51-1.69,2.46v3.62h-1.93Z"/><path class="cls-2" d="M302,45a2.9,2.9,0,0,0-1.31-.28c-1.19,0-1.95.95-1.95,2.35s.64,2.41,2,2.41a4.25,4.25,0,0,0,1.48-.34l.08,1.59a6.32,6.32,0,0,1-1.92.24c-2.43,0-3.66-1.65-3.66-3.9s1.27-3.84,3.58-3.84a6.2,6.2,0,0,1,1.87.24Z"/><path class="cls-2" d="M303.53,48.81h2v2h-2Z"/><path class="cls-3" d="M96.45,37.62c1.66-5.24-.58-10.34-4.7-14.84l-1.26-1.37c-.1.39-.21.78-.35,1.18a17.16,17.16,0,0,0-.93,5.1c.09,4.56,2.28,8.49,4.6,12.49.27.45.52.9.76,1.36.08-.17.16-.34.25-.5A33,33,0,0,0,96.45,37.62Z"/><path class="cls-3" d="M45,57.32c-6.21-1-15.62-1.85-23.28-3.57a43.28,43.28,0,0,1-4.5-1.27c1.42,1.36,3.09,2.91,4,3.62a40.66,40.66,0,0,0,19.22,8.08c9.67,1.3,21.58,1.28,30.31-1.7.59-.2,1.17-.41,1.74-.65-.91,0-1.83-.12-2.75-.21C60.51,60.73,50.88,58.29,45,57.32Z"/><path class="cls-4" d="M83.31,14c2.66,2.49,5.24,5.28,7.18,7.41,1.3-4.83.66-8.89-2-12.47C84.94,4.19,77.42,3.11,70.79,4.32l-.33.07c.45.25.9.52,1.34.79A71.88,71.88,0,0,1,83.31,14Z"/><path class="cls-4" d="M74.44,60.91a15.18,15.18,0,0,1-2,.92c1.18.08,2.36.13,3.51.13,10.27.06,19-2.75,20.35-12.84a10.23,10.23,0,0,0-.45-4.48,19,19,0,0,0-1.33-3.1,31.64,31.64,0,0,1-2.27,3.74C87.91,51.57,81.12,57.09,74.44,60.91Z"/><path class="cls-4" d="M15.08,50.4c-7.3-7.53-9-16.53-6.26-24.7a19.31,19.31,0,0,1,1.27-2.94,33.83,33.83,0,0,0-3,2c-9.48,7.12-9.85,15.38,1.24,23.32A38.38,38.38,0,0,0,17,52.4l.22.08C16.31,51.64,15.53,50.87,15.08,50.4Z"/><path class="cls-3" d="M43.63,11.4C55.37,8,67,5.15,67.55,5s2.11-.48,2.91-.64a34.15,34.15,0,0,0-12.34-4C46.24-1.29,37.36,3,27.9,8c-7.81,4.16-14.42,8.3-17.81,14.74a52.39,52.39,0,0,1,8.2-3.94C22.5,17.19,37.88,13.09,43.63,11.4Z"/><path class="cls-5" d="M93.81,40.18c-2.32-4-4.51-7.93-4.6-12.49a17.16,17.16,0,0,1,.93-5.1c.14-.4.25-.79.35-1.18C88.55,19.28,86,16.49,83.31,14A71.88,71.88,0,0,0,71.8,5.18c-.44-.27-.89-.54-1.34-.79-.8.16-2.53.55-2.91.64S55.37,8,43.63,11.4c-5.75,1.69-21.13,5.79-25.34,7.42a52.39,52.39,0,0,0-8.2,3.94A19.31,19.31,0,0,0,8.82,25.7c-2.76,8.17-1,17.17,6.26,24.7.45.47,1.23,1.24,2.1,2.08a43.28,43.28,0,0,0,4.5,1.27C29.34,55.47,38.75,56.3,45,57.32c5.92,1,15.55,3.41,24.78,4.3.92.09,1.84.16,2.75.21a15.18,15.18,0,0,0,2-.92c6.68-3.82,13.47-9.34,17.86-15.63a31.64,31.64,0,0,0,2.27-3.74C94.33,41.08,94.08,40.63,93.81,40.18Z"/><path class="cls-6" d="M21.57,29h1c1.14,0,2.44.12,2.44,1.5S23.77,32,22.56,32h-1Zm-3.32,5.37h5.26c2.22,0,4.84-.64,4.84-3.67,0-1.54-.85-2.45-2.51-2.79v0a2.87,2.87,0,0,0,2.19-3c0-2.18-1.73-3.21-4-3.21H18.25Zm3.32-10.28h1c1.11,0,2.18.11,2.18,1.27s-1.13,1.35-2.22,1.35h-.93Z"/><path class="cls-6" d="M36.39,29.25H33.27l1.61-5h0Zm-8.24,5.1h3.37l1-2.71h4.67l.93,2.71h3.64L37,21.68H32.88Z"/><path class="cls-6" d="M42.4,21.68h4.24l4.21,8.6h0l-.05-8.6h3V34.35H49.74l-4.36-8.66h0l.1,8.66H42.4Z"/><path class="cls-6" d="M59.07,24.18h1.29c2.43,0,3.87,1.31,3.87,3.83s-1.39,3.83-3.87,3.83H59.07ZM55.75,34.35h4.54c4.24,0,7.37-1.66,7.37-6.39,0-4.91-3-6.28-7.37-6.28H55.75Z"/><path class="cls-6" d="M75.16,29.25H72l1.61-5h0Zm-8.25,5.1h3.37l1-2.71h4.68l.93,2.71h3.64l-4.8-12.67H71.64Z"/><path class="cls-6" d="M81,21.68h3.32V34.35H81Z"/><path class="cls-6" d="M18.25,37.1h4.28l4.25,8.61h0l-.05-8.61h3.06V49.77H25.66l-4.39-8.66h0l.11,8.66H18.25Z"/><path class="cls-6" d="M38.84,44.67H35.68l1.62-5h0Zm-8.34,5.1h3.42l1-2.7h4.73l.93,2.7h3.69L39.39,37.1H35.28Z"/><path class="cls-6" d="M44.92,37.1h5.29l2.18,8.42h0l2.31-8.42h5.08V49.77H56.53l0-9.73h0l-2.72,9.73H50.74L48.16,40h0l.07,9.73H44.92Z"/><path class="cls-6" d="M71.9,49.48a13.64,13.64,0,0,1-3.73.52c-3.36,0-7.24-1.71-7.24-6.51,0-4.4,3.07-6.61,7.22-6.61a13.11,13.11,0,0,1,3.73.66l-.27,2.74a6.55,6.55,0,0,0-3.28-.89,4.05,4.05,0,1,0,.27,8.1,8.92,8.92,0,0,0,3.14-.65Z"/><path class="cls-6" d="M75.88,43.44c0-2.2.81-4,2.85-4s2.85,1.85,2.85,4-.81,4.05-2.85,4.05S75.88,45.52,75.88,43.44Zm-3.47,0c0,4,2.2,6.56,6.32,6.56S85,47.47,85,43.44s-2.16-6.56-6.31-6.56S72.41,39.38,72.41,43.44Z"/></g></g></svg>