<?xml version="1.0" encoding="UTF-8" standalone="no"?>
<!-- Generator: Adobe Illustrator 22.0.1, SVG Export Plug-In . SVG Version: 6.00 Build 0)  -->

<svg
   xmlns:dc="http://purl.org/dc/elements/1.1/"
   xmlns:cc="http://creativecommons.org/ns#"
   xmlns:rdf="http://www.w3.org/1999/02/22-rdf-syntax-ns#"
   xmlns:svg="http://www.w3.org/2000/svg"
   xmlns="http://www.w3.org/2000/svg"
   xmlns:xlink="http://www.w3.org/1999/xlink"
   xmlns:sodipodi="http://sodipodi.sourceforge.net/DTD/sodipodi-0.dtd"
   xmlns:inkscape="http://www.inkscape.org/namespaces/inkscape"
   version="1.1"
   id="logo"
   x="0px"
   y="0px"
   viewBox="0 0 724 252"
   style="enable-background:new 0 0 724 252;"
   xml:space="preserve"
   sodipodi:docname="cloverworks.svg"
   inkscape:version="0.92.2 (5c3e80d, 2017-08-06)"><metadata
     id="metadata8"><rdf:RDF><cc:Work
         rdf:about=""><dc:format>image/svg+xml</dc:format><dc:type
           rdf:resource="http://purl.org/dc/dcmitype/StillImage" /><dc:title></dc:title></cc:Work></rdf:RDF></metadata><defs
     id="defs6"><linearGradient
       inkscape:collect="always"
       id="linearGradient25"><stop
         style="stop-color:#c85f8c;stop-opacity:1"
         offset="0"
         id="stop21" /><stop
         style="stop-color:#875aa0;stop-opacity:0.8622449"
         offset="1"
         id="stop23" /></linearGradient><linearGradient
       inkscape:collect="always"
       xlink:href="#linearGradient25"
       id="linearGradient27"
       x1="0"
       y1="126"
       x2="724"
       y2="126"
       gradientUnits="userSpaceOnUse" /></defs><sodipodi:namedview
     pagecolor="#ffffff"
     bordercolor="#666666"
     borderopacity="1"
     objecttolerance="10"
     gridtolerance="10"
     guidetolerance="10"
     inkscape:pageopacity="0"
     inkscape:pageshadow="2"
     inkscape:window-width="1600"
     inkscape:window-height="837"
     id="namedview4"
     showgrid="false"
     inkscape:zoom="1"
     inkscape:cx="479.96893"
     inkscape:cy="179.05253"
     inkscape:window-x="-8"
     inkscape:window-y="-8"
     inkscape:window-maximized="1"
     inkscape:current-layer="logo" /><path
     id="object"
     d="M722.233,54.865c-1.365-7.272-4.326-14.128-9.053-20.96c-5.315-7.684-12.001-14.582-19.869-20.504  c-4.11-3.093-8.473-5.625-12.968-7.527C674.267,3.303,668.052,2,661.867,2c-2.246,0-4.529,0.172-6.786,0.512  c-5.739,0.86-11.263,2.765-16.891,5.823c-5.662,3.076-10.931,6.996-16.108,11.986c-11.472,11.051-20.162,23.541-25.83,37.121  c-0.312,0.747-0.639,1.496-1.036,2.204c-0.164,0.291-0.361,0.564-0.592,0.8c-0.317-0.233-0.632-0.539-0.918-0.892  c-0.55-0.677-1.032-1.409-1.516-2.136l-0.204-0.307c-3.96-5.935-8.621-11.659-13.851-17.014c-3.269-3.347-6.705-6.383-10.214-9.027  c-4.535-3.416-9.015-6.024-13.693-7.973c-6.083-2.534-12.267-3.818-18.378-3.818c-5.679,0-11.43,1.11-17.091,3.299  c-3.723,1.439-7.332,3.309-10.728,5.559c-8.917,5.908-16.708,13.482-23.16,22.511c-2.481,3.473-4.585,7.213-6.251,11.119  c-2.135,5.003-3.416,10.11-3.808,15.178c-0.63,8.115,0.945,16.247,4.678,24.169c2.68,5.688,6.361,11.137,11.253,16.66  c4.015,4.533,8.639,8.874,14.14,13.272l0.878,0.691c0.57,0.444,1.139,0.887,1.689,1.362c0.538,0.464,0.913,0.845,1.179,1.203  c0.328,0.441,0.327,0.596-0.006,1.032c-0.396,0.516-0.942,0.998-1.32,1.315c-0.654,0.55-1.326,1.08-1.999,1.609  c-0.51,0.402-1.019,0.803-1.522,1.214c-6.129,5.001-11.173,9.966-15.418,15.182c-4.586,5.636-7.93,11.184-10.221,16.963  c-4.742,11.957-4.621,24.056,0.36,35.96c1.574,3.76,3.59,7.417,5.993,10.869c5.419,7.777,12.151,14.708,20.005,20.596  c3.999,2.996,8.262,5.471,12.67,7.355c4.992,2.133,10.098,3.412,15.179,3.804c1.176,0.092,2.342,0.137,3.501,0.137  c6.495-0.001,13.019-1.428,19.392-4.245c5.602-2.474,10.955-5.905,16.365-10.485c5.17-4.375,10.092-9.532,15.048-15.765l0.541-0.687  c0.425-0.544,0.849-1.087,1.298-1.61c0.302-0.351,0.7-0.792,1.107-1.109c0.24-0.185,0.453-0.293,0.586-0.293  c0.132,0,0.34,0.101,0.576,0.275c0.296,0.22,0.618,0.532,0.989,0.955c0.303,0.344,0.584,0.705,0.866,1.065  c0.263,0.334,0.525,0.667,0.799,0.993l1.669,1.996c1.473,1.768,2.946,3.535,4.483,5.246c4.263,4.735,8.849,8.917,13.635,12.426  c5.77,4.231,11.481,7.199,17.46,9.075c4.596,1.439,9.265,2.17,13.877,2.17c4.136,0,8.327-0.588,12.46-1.747  c5.304-1.489,10.481-3.89,15.389-7.137c8.926-5.901,16.75-13.524,23.254-22.657c1.974-2.773,3.751-5.823,5.28-9.062  c2.651-5.613,4.218-11.368,4.658-17.101c0.597-7.73-0.814-15.487-4.19-23.053c-2.683-6.013-6.426-11.699-11.439-17.382  c-6.091-6.902-13.336-13.238-21.536-18.832l-0.75-0.506c-0.738-0.495-1.475-0.989-2.174-1.533c-0.365-0.282-0.682-0.6-0.941-0.952  c0.236-0.231,0.522-0.437,0.814-0.59c0.94-0.492,1.917-0.916,2.897-1.333c6.585-2.804,12.811-6.244,18.504-10.224  c8.979-6.277,16.351-12.996,22.537-20.543c3.988-4.867,7.043-9.73,9.34-14.864c2.896-6.475,4.362-13.097,4.354-19.683  C722.993,60.328,722.734,57.544,722.233,54.865z M676.523,163.853c2.839,3.22,5.097,6.349,6.906,9.567  c2.242,3.998,3.6,7.766,4.152,11.526c0.143,0.984,0.225,1.976,0.307,2.969l0.117,1.181c-0.077,3.715-0.849,7.428-2.295,11.036  c-1.336,3.332-3.146,6.51-5.53,9.719c-4.082,5.491-8.943,10.395-14.447,14.574c-3.337,2.535-6.64,4.449-10.099,5.854  c-3.689,1.499-7.421,2.257-11.091,2.257c-3.548,0-7.157-0.708-10.728-2.107c-3.366-1.318-6.651-3.162-10.044-5.639  c-2.482-1.813-4.904-3.869-7.198-6.11c-7.611-7.432-13.792-15.686-18.374-24.531c0,0-1.817-3.531-2.327-4.497  c-0.393-0.747-0.8-1.49-1.254-2.208c-0.386-0.61-0.817-1.145-1.275-1.589c-1.191-1.153-2.373-1.395-3.153-1.395  c-0.81,0-2.027,0.258-3.237,1.484c-0.469,0.473-0.904,1.04-1.335,1.739c-0.446,0.731-0.849,1.49-1.293,2.336l-1.145,2.203  c-0.595,1.153-1.191,2.306-1.809,3.446c-4.736,8.755-11.024,16.857-18.69,24.079c-3.23,3.044-6.466,5.527-9.893,7.594  c-2.177,1.312-4.393,2.4-6.584,3.229c-3.448,1.305-6.933,1.967-10.359,1.967c-3.55,0-7.157-0.71-10.721-2.111  c-2.734-1.075-5.337-2.448-7.739-4.08c-7.388-5.018-13.683-11.308-18.71-18.696c-1.604-2.359-2.959-4.913-4.029-7.591  c-2.888-7.231-2.926-14.273-0.115-21.523c1.358-3.504,3.288-6.921,5.899-10.448c2.232-3.012,4.777-5.891,7.783-8.801  c7.084-6.866,14.814-12.468,22.972-16.648l0.719-0.368c1.477-0.757,2.954-1.513,4.408-2.307c1.036-0.565,1.829-1.101,2.495-1.684  c1.443-1.269,1.747-2.588,1.747-3.473c-0.001-0.884-0.305-2.208-1.752-3.474c-0.665-0.585-1.436-1.104-2.5-1.684  c-1.394-0.757-2.805-1.482-4.216-2.208l-1.054-0.542c-8.725-4.497-16.875-10.544-24.223-17.97c-3.799-3.843-6.8-7.625-9.172-11.566  c-1.45-2.408-2.575-4.755-3.436-7.179c-2.437-6.839-2.329-13.492,0.334-20.34c1.123-2.887,2.61-5.675,4.416-8.288  c4.847-7.009,10.87-13.04,17.9-17.928c2.45-1.702,5.087-3.135,7.84-4.261c3.708-1.515,7.459-2.283,11.153-2.283  c3.622,0,7.31,0.74,10.961,2.197c3.275,1.309,6.464,3.11,9.752,5.509c2.977,2.171,5.913,4.729,8.725,7.604  c7.566,7.73,13.324,15.736,17.598,24.474c2.607,5.328,4.585,10.864,5.885,16.458l0.276,1.193c0.327,1.424,0.657,2.849,1.021,4.263  c1.325,5.156,3.323,9.946,5.933,14.238c5.515,9.066,13.481,15.724,23.674,19.793c2.404,0.959,4.918,1.75,7.938,2.48  c0.81,0.196,1.617,0.391,2.431,0.564c11.192,2.386,21.839,7.273,31.643,14.527C667.41,154.62,672.265,159.025,676.523,163.853z   M702.985,74.197c-1.35,3.361-3.22,6.637-5.714,10.009c-2.114,2.86-4.572,5.666-7.304,8.342  c-8.235,8.069-16.767,14.087-26.084,18.397c-8.157,3.773-15.997,5.912-23.969,6.539c-1.451,0.115-3.039,0.167-5.003,0.167  l-1.86-0.012c-2.616-0.033-5.212-0.631-7.932-1.83c-7.137-3.144-12.221-8.076-15.546-15.08c-1.465-3.086-2.199-6.13-2.241-9.308  c-0.007-0.56-0.001-2.463-0.001-2.463c0.087-6.069,1.091-12.088,3.071-18.4c2.059-6.565,5.034-12.942,8.845-18.953  c4.775-7.535,10.507-14.327,17.038-20.191c3.032-2.723,6.057-4.948,9.246-6.802c2.146-1.247,4.328-2.271,6.484-3.046  c3.265-1.172,6.565-1.768,9.812-1.768c3.533,0,7.124,0.705,10.676,2.094c2.798,1.093,5.495,2.524,8.017,4.25  c7.165,4.909,13.313,11.043,18.269,18.232c1.657,2.401,3.056,4.997,4.159,7.711C705.965,59.508,705.978,66.743,702.985,74.197z   M415.315,241.51c-4.674,0-9.275-0.582-13.675-1.731c-4.369-1.14-8.278-2.953-11.615-5.391c-3.322-2.419-5.999-5.552-7.956-9.308  c-1.551-2.977-2.473-6.455-2.74-10.339c-0.043-0.622,0.171-1.218,0.598-1.678c0.426-0.457,1.001-0.706,1.621-0.706h12.61  c1.1,0,2.038,0.844,2.178,1.965c0.236,1.881,0.739,3.571,1.499,5.024c1.096,2.112,2.575,3.849,4.399,5.16  c1.797,1.299,3.94,2.275,6.36,2.9c2.387,0.619,4.893,0.933,7.449,0.933c1.732,0,3.599-0.146,5.554-0.433  c2-0.292,3.904-0.863,5.66-1.697c1.784-0.85,3.297-2.039,4.496-3.534c1.231-1.542,1.856-3.511,1.856-5.85  c0-2.537-0.829-4.629-2.463-6.219c-1.555-1.515-3.611-2.789-6.11-3.79c-2.445-0.977-5.251-1.842-8.339-2.574  c-3.071-0.727-6.197-1.54-9.293-2.415c-3.21-0.802-6.36-1.791-9.379-2.945c-2.981-1.136-5.69-2.628-8.047-4.437  c-2.328-1.782-4.234-4.044-5.67-6.723c-1.431-2.663-2.155-5.948-2.155-9.761c0-4.287,0.925-8.053,2.745-11.194  c1.84-3.166,4.273-5.838,7.237-7.941c2.976-2.115,6.403-3.708,10.179-4.732c3.803-1.026,7.646-1.548,11.428-1.548  c4.435,0,8.756,0.501,12.844,1.493c4.046,0.982,7.688,2.594,10.828,4.791c3.118,2.182,5.63,5.01,7.465,8.403  c1.413,2.618,2.292,5.723,2.615,9.226c0.056,0.632-0.155,1.263-0.584,1.733c-0.427,0.467-1.006,0.723-1.632,0.723h-12.711  c-1.06,0-1.973-0.782-2.169-1.861c-0.295-1.588-0.773-2.991-1.42-4.17c-0.979-1.794-2.306-3.229-3.943-4.265  c-1.601-1.011-3.457-1.737-5.515-2.159c-2.026-0.411-4.252-0.62-6.621-0.62c-1.569,0-3.17,0.168-4.756,0.502  c-1.614,0.339-3.1,0.944-4.423,1.795c-1.332,0.858-2.444,1.948-3.304,3.238c-0.884,1.325-1.332,3.012-1.332,5.01  c0,1.829,0.36,3.345,1.075,4.503c0.73,1.19,2.081,2.232,4.133,3.189c1.918,0.901,4.608,1.813,7.994,2.708  c3.347,0.89,7.729,2.019,13.14,3.393c1.603,0.32,3.843,0.905,6.692,1.748c2.77,0.819,5.579,2.152,8.342,3.964  c2.725,1.796,5.118,4.231,7.111,7.238c1.968,2.97,2.966,6.846,2.966,11.518c0,3.829-0.752,7.432-2.234,10.713  c-1.479,3.27-3.711,6.133-6.633,8.51c-2.941,2.392-6.647,4.282-11.011,5.617C426.266,240.829,421.104,241.51,415.315,241.51z   M160.224,241.51c-6.486,0-12.396-1.138-17.565-3.387c-5.165-2.25-9.58-5.385-13.123-9.322c-3.55-3.945-6.313-8.647-8.209-13.981  c-1.899-5.344-2.862-11.187-2.862-17.368c0-6.343,0.964-12.31,2.865-17.736c1.897-5.41,4.659-10.196,8.213-14.224  c3.54-4.013,7.956-7.209,13.123-9.499c5.17-2.289,11.077-3.448,17.56-3.448c6.56,0,12.488,1.159,17.617,3.446  c5.126,2.291,9.524,5.488,13.067,9.501c3.551,4.027,6.311,8.813,8.207,14.224c1.901,5.416,2.867,11.384,2.867,17.736  c0,6.19-0.966,12.034-2.865,17.368c-1.899,5.334-4.656,10.038-8.205,13.981c-3.546,3.936-7.943,7.075-13.069,9.322  C172.716,240.372,166.787,241.51,160.224,241.51z M160.224,167.052c-4.384,0-8.171,0.866-11.257,2.574  c-3.078,1.708-5.607,4.029-7.518,6.896c-1.896,2.845-3.297,6.122-4.158,9.742c-0.859,3.592-1.293,7.356-1.293,11.189  c0,3.675,0.434,7.3,1.293,10.772c0.864,3.497,2.265,6.693,4.164,9.498c1.911,2.828,4.44,5.126,7.513,6.83  c3.083,1.709,6.87,2.576,11.257,2.576c4.385,0,8.169-0.867,11.252-2.576c3.073-1.702,5.604-3.999,7.518-6.83  c1.899-2.807,3.297-6.003,4.161-9.499c0.856-3.465,1.291-7.089,1.291-10.771c0-3.839-0.435-7.603-1.291-11.189  c-0.862-3.618-2.26-6.896-4.156-9.742c-1.917-2.87-4.448-5.189-7.523-6.896C168.391,167.918,164.603,167.052,160.224,167.052z   M358.304,239.573c-1.957,0-3.777-0.971-4.867-2.597l-22.064-32.941c-0.684-1.023-1.83-1.634-3.063-1.634  c-0.991,0-1.921,0.387-2.618,1.094l-7.506,7.591c-0.686,0.692-1.065,1.612-1.065,2.59v23.688c0,1.219-0.991,2.209-2.211,2.209  h-13.113c-1.22,0-2.211-0.99-2.211-2.209v-80.549c0-1.219,0.991-2.211,2.211-2.211h13.113c1.22,0,2.211,0.992,2.211,2.211v27.692  c0,1.755,1.431,2.805,2.816,2.805c0.765,0,1.484-0.314,2.021-0.884l28.594-30.337c0.892-0.943,2.148-1.485,3.444-1.485h14.307  c1.085,0,1.764,0.702,2.038,1.359c0.275,0.657,0.298,1.634-0.464,2.406l-27.072,27.364c-1.263,1.274-1.426,3.259-0.389,4.721  l32.323,45.634c0.488,0.686,0.546,1.544,0.16,2.293c-0.386,0.747-1.12,1.193-1.962,1.193H358.304z M270.117,239.573  c-1.009,0-1.873-0.66-2.148-1.644c-0.615-2.177-1.016-4.69-1.194-7.469c-0.242-3.781-0.61-7.465-1.093-10.953  c-0.671-4.663-2.125-8.143-4.326-10.346c-2.237-2.233-5.874-3.366-10.812-3.366h-16.061c-2.033,0-3.686,1.653-3.686,3.686v27.884  c0,1.219-0.991,2.209-2.211,2.209h-13.113c-1.22,0-2.211-0.99-2.211-2.209v-80.549c0-1.219,0.991-2.211,2.211-2.211h43.667  c3.759,0,7.188,0.613,10.194,1.824c3.002,1.209,5.612,2.887,7.753,4.986c2.138,2.102,3.792,4.566,4.916,7.32  c1.128,2.768,1.703,5.789,1.703,8.983c0,4.931-1.047,9.246-3.111,12.828c-1.82,3.16-4.715,5.687-8.606,7.508  c-0.544,0.256-0.882,0.779-0.885,1.368c-0.003,0.57,0.315,1.078,0.834,1.326c2,0.966,3.475,1.821,4.153,2.409  c1.464,1.273,2.669,2.791,3.584,4.51c0.928,1.738,1.617,3.688,2.049,5.794c0.432,2.138,0.735,4.307,0.895,6.445  c0.079,1.36,0.16,2.969,0.242,4.82c0.078,1.874,0.224,3.805,0.424,5.736c0.203,1.967,0.536,3.854,0.989,5.613  c0.058,0.231,0.119,0.454,0.185,0.673c0.201,0.672,0.076,1.382-0.341,1.944c-0.42,0.56-1.062,0.881-1.767,0.881H270.117z   M234.482,167.898c-2.033,0-3.686,1.654-3.686,3.686v18.441c0,2.033,1.652,3.685,3.686,3.685h17.876  c4.524,0,7.988-1.039,10.296-3.092c2.333-2.073,3.515-5.435,3.515-9.995c0-4.402-1.184-7.664-3.52-9.697  c-2.308-2.008-5.77-3.028-10.291-3.028H234.482z M76.445,239.573c-1.016,0-1.899-0.687-2.143-1.675l-13.31-52.96  c-0.193-0.757-0.846-1.265-1.627-1.265c-0.785,0-1.439,0.512-1.627,1.273l-13.062,52.943c-0.244,0.993-1.128,1.684-2.148,1.684  H27.86c-1.001,0-1.878-0.676-2.135-1.644L4.402,157.379c-0.178-0.667-0.038-1.365,0.384-1.913c0.422-0.548,1.06-0.862,1.751-0.862  h12.838c1.034,0,1.919,0.703,2.153,1.71l12.258,52.408c0.193,0.826,0.892,1.38,1.741,1.38c0.826,0,1.52-0.537,1.729-1.339  l13.547-52.493c0.252-0.981,1.131-1.665,2.14-1.665h13.202c1.02,0,1.901,0.691,2.146,1.678l13.257,53.176  c0.203,0.811,0.902,1.355,1.736,1.355c0.841,0,1.54-0.551,1.736-1.369l12.787-53.14c0.239-1.001,1.126-1.7,2.153-1.7h12.469  c0.692,0,1.332,0.316,1.754,0.865c0.42,0.551,0.559,1.25,0.378,1.918l-21.66,80.55c-0.26,0.963-1.136,1.635-2.133,1.635H76.445z   M181.626,127.368c-6.487,0-12.398-1.14-17.566-3.388c-5.165-2.249-9.58-5.384-13.123-9.322c-3.551-3.946-6.314-8.649-8.21-13.979  c-1.899-5.351-2.865-11.194-2.865-17.37c0-6.338,0.966-12.304,2.867-17.735c1.896-5.41,4.659-10.196,8.213-14.224  c3.54-4.014,7.955-7.21,13.123-9.5c5.17-2.288,11.079-3.447,17.56-3.447c6.558,0,12.482,1.159,17.617,3.445  c5.129,2.291,9.524,5.487,13.064,9.501c3.551,4.025,6.313,8.811,8.21,14.224c1.901,5.423,2.867,11.39,2.867,17.735  c0,6.184-0.966,12.028-2.865,17.369c-1.899,5.335-4.659,10.039-8.207,13.981c-3.541,3.936-7.938,7.072-13.067,9.322  C194.116,126.229,188.189,127.368,181.626,127.368z M181.626,52.909c-4.387,0-8.174,0.866-11.257,2.576  c-3.073,1.703-5.604,4.023-7.518,6.894c-1.896,2.84-3.297,6.118-4.161,9.743c-0.856,3.596-1.291,7.36-1.291,11.188  c0,3.671,0.435,7.296,1.291,10.771c0.867,3.506,2.267,6.702,4.164,9.501c1.916,2.83,4.445,5.128,7.516,6.829  c3.08,1.709,6.868,2.576,11.257,2.576c4.385,0,8.169-0.867,11.252-2.576c3.073-1.702,5.604-3.999,7.518-6.829  c1.899-2.806,3.297-6.002,4.16-9.501c0.857-3.475,1.291-7.099,1.291-10.771c0-3.828-0.434-7.592-1.291-11.187  c-0.862-3.617-2.259-6.896-4.155-9.744c-1.917-2.869-4.448-5.188-7.523-6.894C189.793,53.775,186.008,52.909,181.626,52.909z   M42.672,127.368c-6.489,0-12.398-1.14-17.563-3.388c-5.167-2.248-9.582-5.384-13.125-9.322c-3.551-3.946-6.314-8.649-8.21-13.979  c-1.899-5.345-2.862-11.189-2.862-17.37c0-6.343,0.963-12.309,2.865-17.735c1.896-5.41,4.659-10.196,8.212-14.224  c3.541-4.015,7.958-7.211,13.126-9.5c5.167-2.288,11.074-3.447,17.558-3.447c4.662,0,9.125,0.68,13.273,2.022  c4.13,1.338,7.885,3.315,11.153,5.873c3.256,2.552,5.983,5.757,8.106,9.526c1.604,2.854,2.773,6.068,3.477,9.552  c0.135,0.653-0.033,1.326-0.46,1.847c-0.425,0.521-1.052,0.82-1.721,0.82H63.91c-0.971,0-1.832-0.639-2.094-1.554  c-0.41-1.441-1.02-2.816-1.81-4.089c-1.169-1.878-2.651-3.548-4.399-4.966c-1.751-1.417-3.759-2.537-5.965-3.328  c-2.214-0.793-4.559-1.196-6.969-1.196c-4.384,0-8.171,0.866-11.257,2.576c-3.076,1.707-5.607,4.026-7.518,6.894  C22,65.225,20.6,68.503,19.738,72.121c-0.859,3.593-1.294,7.357-1.294,11.188c0,3.676,0.435,7.299,1.294,10.771  c0.864,3.5,2.264,6.696,4.163,9.501c1.911,2.827,4.441,5.124,7.514,6.829c3.083,1.709,6.87,2.576,11.257,2.576  c6.001,0,10.767-1.873,14.162-5.566c2.903-3.152,4.857-7.22,5.808-12.094c0.193-0.993,1.095-1.712,2.148-1.712h12.554  c0.645,0,1.258,0.282,1.68,0.775c0.427,0.502,0.615,1.165,0.511,1.817c-0.625,3.968-1.726,7.671-3.269,11.008  c-1.97,4.252-4.603,7.923-7.823,10.908c-3.22,2.986-7.046,5.297-11.372,6.869C52.729,126.569,47.885,127.368,42.672,127.368z   M436.953,125.431c-0.994,0-1.878-0.676-2.148-1.644c-0.615-2.19-1.017-4.704-1.193-7.47c-0.241-3.793-0.61-7.479-1.098-10.951  c-0.663-4.66-2.119-8.141-4.323-10.349c-2.237-2.233-5.874-3.365-10.813-3.365h-16.061c-2.031,0-3.683,1.655-3.683,3.687v27.884  c0,1.219-0.992,2.209-2.212,2.209h-13.112c-1.22,0-2.212-0.99-2.212-2.209v-80.55c0-1.219,0.992-2.209,2.212-2.209h43.663  c3.763,0,7.193,0.613,10.198,1.822c3.001,1.21,5.609,2.888,7.749,4.987c2.135,2.1,3.792,4.563,4.918,7.321  c1.129,2.767,1.702,5.789,1.702,8.981c0,4.927-1.046,9.244-3.113,12.829c-1.817,3.158-4.712,5.683-8.604,7.507  c-0.543,0.254-0.884,0.779-0.886,1.369c-0.003,0.568,0.315,1.076,0.834,1.326c1.997,0.96,3.472,1.815,4.155,2.407  c1.459,1.27,2.663,2.788,3.584,4.512c0.931,1.745,1.619,3.694,2.049,5.794c0.43,2.125,0.73,4.294,0.893,6.444  c0.078,1.36,0.16,2.969,0.241,4.82c0.079,1.848,0.221,3.777,0.427,5.735c0.203,1.965,0.536,3.855,0.989,5.615  c0.053,0.22,0.117,0.443,0.18,0.663c0.206,0.681,0.081,1.39-0.336,1.951c-0.419,0.562-1.062,0.883-1.769,0.883H436.953z   M401.318,53.756c-2.031,0-3.683,1.655-3.683,3.687v18.44c0,2.032,1.652,3.687,3.683,3.687h17.878c4.527,0,7.991-1.042,10.297-3.095  c2.333-2.073,3.515-5.434,3.515-9.994c0-4.401-1.184-7.664-3.52-9.697c-2.308-2.009-5.77-3.028-10.292-3.028H401.318z   M309.301,125.431c-1.22,0-2.211-0.99-2.211-2.209v-80.55c0-1.219,0.991-2.209,2.211-2.209h58.756c1.22,0,2.211,0.99,2.211,2.209  v10.087c0,1.219-0.991,2.209-2.211,2.209H328.31c-2.033,0-3.685,1.653-3.685,3.686v12.629c0,2.032,1.652,3.686,3.685,3.686h35.995  c1.22,0,2.212,0.99,2.212,2.209v8.876c0,1.219-0.992,2.21-2.212,2.21H328.31c-2.033,0-3.685,1.653-3.685,3.686v15.293  c0,2.032,1.652,3.685,3.685,3.685h40.718c1.218,0,2.209,0.99,2.209,2.209v10.087c0,1.219-0.991,2.209-2.209,2.209H309.301z   M252.562,125.431c-0.961,0-1.804-0.614-2.102-1.529l-26.06-80.55c-0.218-0.68-0.104-1.402,0.317-1.98  c0.42-0.578,1.07-0.909,1.784-0.909h13.286c0.968,0,1.814,0.619,2.104,1.542l17.782,55.904c0.229,0.714,0.859,1.176,1.609,1.176  c0.744,0,1.375-0.458,1.603-1.167l18.089-55.919c0.295-0.921,1.139-1.536,2.104-1.536h13.379c0.717,0,1.37,0.333,1.79,0.915  c0.422,0.583,0.531,1.308,0.305,1.99l-26.734,80.55c-0.3,0.905-1.144,1.512-2.099,1.512H252.562z M91.998,125.431  c-1.22,0-2.211-0.99-2.211-2.209v-80.55c0-1.219,0.991-2.209,2.211-2.209h13.115c1.218,0,2.209,0.99,2.209,2.209v64.57  c0,2.032,1.652,3.685,3.686,3.685h25.585c1.217,0,2.209,0.99,2.209,2.209v10.087c0,1.219-0.991,2.209-2.209,2.209H91.998z"
     style="fill-opacity:1;fill:url(#linearGradient27)" /></svg>