<svg xmlns="http://www.w3.org/2000/svg" width="117.457" height="27.288" viewBox="0 0 117.457 27.288">
  <path id="パス_32" data-name="パス 32" d="M20.186-12.7l8.093.209q-.8,6.284-4.351,9.712A12.781,12.781,0,0,1,14.663.647,13.232,13.232,0,0,1,4.942-3.247a13.089,13.089,0,0,1-3.913-9.664,13.225,13.225,0,0,1,3.99-9.769,13.415,13.415,0,0,1,9.836-3.961,12.958,12.958,0,0,1,9.6,3.885,15.191,15.191,0,0,1,3.771,7.484l-8.284.552q-1.39-4.266-5.275-4.266a5.36,5.36,0,0,0-4.085,1.714,6.117,6.117,0,0,0-1.609,4.361A5.884,5.884,0,0,0,10.55-8.693a5.276,5.276,0,0,0,4,1.666,5.269,5.269,0,0,0,3.913-1.466A6.683,6.683,0,0,0,20.186-12.7ZM31.4-25.994h7.731V-10.55a3.576,3.576,0,0,0,.581,2.409,3.233,3.233,0,0,0,2.295.6h.4V0H40.352a8.69,8.69,0,0,1-6.589-2.466A9.494,9.494,0,0,1,31.4-9.312ZM54.444-13.044v6.855H52.216V0H44.484V-16.529q0-4.8,2.618-7.455t7.36-2.656q4.57,0,6.76,2.409t2.19,7.436V0H55.682V-16.282A4.363,4.363,0,0,0,55.32-18.4a1.394,1.394,0,0,0-1.295-.59q-1.809,0-1.809,2.7v3.237ZM67.564,0V-18.738a7.9,7.9,0,0,1,2.114-5.694,7.25,7.25,0,0,1,5.484-2.209,6.768,6.768,0,0,1,6.151,3.675,8.585,8.585,0,0,1,2.818-2.828,7.472,7.472,0,0,1,3.713-.847,6.638,6.638,0,0,1,5.37,2.209,9.6,9.6,0,0,1,1.866,6.36V0H87.35V-16.91a4.465,4.465,0,0,0-.2-1.666.81.81,0,0,0-.809-.409q-1.143,0-1.143,1.942V0H77.467V-16.91a4.285,4.285,0,0,0-.209-1.657.826.826,0,0,0-.819-.419q-1.143,0-1.143,2.076V0Zm40.657-8.988v-6.817q2.342,0,2.342-1.79,0-1.638-1.79-1.638-1.809,0-1.809,2.247V0H99.233V-16.187a14.057,14.057,0,0,1,.5-4.123,8.3,8.3,0,0,1,1.723-3,9.674,9.674,0,0,1,3.428-2.437,10.538,10.538,0,0,1,4.247-.9,9.092,9.092,0,0,1,6.656,2.666,8.925,8.925,0,0,1,2.695,6.608,8.325,8.325,0,0,1-2.418,6.208q-2.209,2.19-6.665,2.19Z" transform="translate(-1.028 26.641)" fill="#0b0b0b"/>
</svg>
