<?xml version="1.0" encoding="UTF-8" standalone="no"?>
<svg xmlns:rdf="http://www.w3.org/1999/02/22-rdf-syntax-ns#" xmlns="http://www.w3.org/2000/svg" height="54.334" viewBox="0 0 150 54.334397" width="150" version="1.1" xmlns:cc="http://creativecommons.org/ns#" xmlns:dc="http://purl.org/dc/elements/1.1/">
 <g>
  <g>
   <path d="m108.9 42.563c-0.52465 0-1.0493 0.03279-1.5903 0.06558-0.55744 0.03279-1.0985 0.08198-1.6231 0.14756-0.52465 0.06558-1.0493 0.14756-1.5412 0.24593-0.49186 0.09837-0.95093 0.19674-1.3608 0.29511-0.77058 0.22953-1.4592 0.47546-2.0494 0.75418-0.60663 0.27872-1.1477 0.59023-1.6395 0.95092-1.3116 1.0001-1.9674 2.1478-1.9674 3.443 0 1.2624 0.63941 2.3937 1.951 3.3938 0.49186 0.39348 1.0985 0.73778 1.8035 1.0329 0.705 0.31151 1.4756 0.57383 2.3281 0.78697 0.83616 0.21314 1.7379 0.37709 2.7052 0.49186 0.95092 0.11477 1.951 0.16395 2.9675 0.16395 1.0821 0 2.1478-0.06558 3.1971-0.19674s2.0166-0.3279 2.9184-0.59023c0.78697-0.21314 1.4756-0.45906 2.0658-0.72139 0.59022-0.26232 1.1149-0.59023 1.6067-0.95092 0.65581-0.49186 1.1477-1.0165 1.492-1.6067 0.3279-0.57383 0.50825-1.1968 0.50825-1.8527 0-1.246-0.65581-2.3773-1.9674-3.3774-0.52465-0.37709-1.1313-0.72139-1.8199-1.0329-0.705-0.29511-1.4756-0.55744-2.3117-0.77057-0.85256-0.21314-1.7543-0.37709-2.7052-0.49186-0.95093-0.11477-1.951-0.18035-2.9675-0.18035zm0 0.59023c0.98371 0 1.951 0.06558 2.8856 0.16395 0.91813 0.11477 1.7871 0.27872 2.6068 0.47546 0.80336 0.19674 1.5411 0.44267 2.2134 0.73778 0.6722 0.29511 1.246 0.63941 1.7379 1.0001 1.1313 0.88534 1.7051 1.8363 1.7051 2.8856 0 0.78697-0.27872 1.492-0.83616 2.1478-0.55743 0.65581-1.3444 1.2132-2.3281 1.6723-1.0001 0.47546-2.1806 0.85255-3.5414 1.1149-1.3608 0.26232-2.8528 0.39348-4.4595 0.39348-0.98371 0-1.951-0.04919-2.8692-0.16395-0.93452-0.09837-1.8035-0.26232-2.6232-0.45907-0.81976-0.19674-1.5575-0.45906-2.2298-0.75418-0.6886-0.29511-1.2624-0.62302-1.7215-1.0001-0.55744-0.42628-0.98372-0.88534-1.2624-1.3772-0.29511-0.49186-0.42628-1.0001-0.42628-1.5248 0-0.90174 0.37709-1.7215 1.1477-2.4757 0.77058-0.75418 1.8691-1.3772 3.3118-1.8691 0.42628-0.14756 0.91814-0.27872 1.4592-0.40988 0.52465-0.11477 1.0821-0.21314 1.6559-0.29511 0.57383-0.08198 1.1641-0.14756 1.7707-0.19674 0.60663-0.03279 1.2132-0.06558 1.8035-0.06558zm-34.494-0.18035v10.936h12.149c0.85255 0 1.6723-0.0164 2.4593-0.08198 0.78697-0.06558 1.492-0.14756 2.115-0.27872 0.62301-0.11477 1.1477-0.24593 1.5903-0.39348 0.42627-0.14756 0.85255-0.3443 1.2788-0.59023 0.59023-0.3443 1.0493-0.75418 1.3608-1.2132 0.31151-0.45906 0.47546-0.95092 0.47546-1.492 0-0.49186-0.16395-0.98371-0.47546-1.4428-0.326-0.46-0.769-0.87-1.359-1.231-0.738-0.443-1.738-0.77-2.984-1-1.262-0.23-2.754-0.344-4.476-0.344h-2.2297c0.18034-0.09837 0.3279-0.26232 0.44267-0.45906 0.09837-0.19674 0.16395-0.40988 0.16395-0.6722 0-0.27872-0.08197-0.54104-0.21314-0.80336-0.14756-0.24593-0.3443-0.44267-0.59023-0.60662-0.11476-0.06558-0.22953-0.11477-0.3443-0.14756-0.13116-0.03279-0.26232-0.06558-0.42628-0.09837-0.16395-0.03279-0.36069-0.04919-0.57383-0.06558-0.22953 0-0.49186-0.0164-0.78697-0.0164h-7.5746zm12.149 10.329h-11.526v-6.8532h11.509c0.81976 0 1.6231 0.03279 2.3937 0.09837 0.77058 0.06558 1.4592 0.14756 2.0822 0.24593 0.59023 0.13116 1.0821 0.26232 1.492 0.39348 0.40988 0.13116 0.80337 0.31151 1.1805 0.52465 0.49186 0.29511 0.86894 0.63941 1.1313 1.0001 0.26232 0.36069 0.39348 0.75418 0.39348 1.1641 0 0.29511-0.08197 0.57383-0.21314 0.83616-0.13116 0.27872-0.3279 0.54104-0.57383 0.77058-0.24593 0.24593-0.54104 0.45906-0.88534 0.65581-0.36069 0.19674-0.73778 0.36069-1.1641 0.49186-0.72139 0.22953-1.5739 0.39348-2.5577 0.50825-0.98371 0.11477-2.0822 0.16395-3.2626 0.16395zm-4.5743-7.4598h-6.9516v-2.2625h6.9516c0.50825 0 0.88534 0.0164 1.1313 0.04919 0.22953 0.03279 0.42628 0.08198 0.57383 0.14756 0.18035 0.09837 0.32791 0.22953 0.44267 0.39348 0.09837 0.16395 0.16395 0.3443 0.16395 0.54104s-0.0492 0.36069-0.14756 0.52465c-0.09837 0.16395-0.21314 0.27872-0.3607 0.3607-0.08198 0.04919-0.16395 0.08198-0.26232 0.11477s-0.21314 0.06558-0.3443 0.08198-0.29511 0.03279-0.49186 0.03279c-0.19674 0.0164-0.44267 0.0164-0.70499 0.0164zm-21.44-3.279c-0.52465 0-1.0493 0.03279-1.5903 0.06558-0.55744 0.03279-1.0985 0.08198-1.6231 0.14756-0.52465 0.06558-1.0493 0.14756-1.5411 0.24593-0.49186 0.09837-0.95092 0.19674-1.3608 0.29511-0.77057 0.22953-1.4592 0.47546-2.0494 0.75418-0.60662 0.27872-1.1477 0.59023-1.6395 0.95092-1.3116 1.0001-1.9674 2.1478-1.9674 3.443 0 1.2624 0.63941 2.3937 1.951 3.3938 0.49186 0.39348 1.0985 0.73778 1.8035 1.0329 0.70499 0.31151 1.4756 0.57383 2.3281 0.78697 0.83616 0.21314 1.7379 0.37709 2.7052 0.49186 0.95092 0.11477 1.951 0.16395 2.9675 0.16395 1.0821 0 2.1478-0.06558 3.1971-0.19674s2.0166-0.3279 2.9183-0.59023c0.78697-0.21314 1.4756-0.45906 2.0658-0.72139 0.59023-0.26232 1.1149-0.59023 1.6067-0.95092 0.65581-0.49186 1.1477-1.0165 1.492-1.6067 0.3279-0.57383 0.50825-1.1968 0.50825-1.8527 0-1.246-0.65581-2.3773-1.9674-3.3774-0.52465-0.37709-1.1313-0.72139-1.8199-1.0329-0.70499-0.29511-1.4756-0.55744-2.3117-0.77057-0.85255-0.21314-1.7543-0.37709-2.7052-0.49186-0.95092-0.11477-1.951-0.18035-2.9675-0.18035zm0 0.59023c0.98371 0 1.951 0.06558 2.8856 0.16395 0.91813 0.11477 1.7871 0.27872 2.6068 0.47546 0.80336 0.19674 1.5411 0.44267 2.2134 0.73778 0.6722 0.29511 1.246 0.63941 1.7379 1.0001 1.1313 0.88534 1.7051 1.8363 1.7051 2.8856 0 0.78697-0.27872 1.492-0.83616 2.1478-0.55744 0.65581-1.3444 1.2132-2.3281 1.6723-1.0001 0.47546-2.1806 0.85255-3.5414 1.1149-1.3608 0.26232-2.8528 0.39348-4.4595 0.39348-0.98371 0-1.951-0.04919-2.8692-0.16395-0.93453-0.09837-1.8035-0.26232-2.6232-0.45907-0.81976-0.19674-1.5575-0.45906-2.2297-0.75418-0.6886-0.29511-1.2624-0.62302-1.7215-1.0001-0.55744-0.42628-0.98371-0.88534-1.2624-1.3772-0.29511-0.49186-0.42628-1.0001-0.42628-1.5248 0-0.90174 0.37709-1.7215 1.1477-2.4757 0.77057-0.75418 1.8691-1.3772 3.3118-1.8691 0.42628-0.14756 0.91813-0.27872 1.4592-0.40988 0.52465-0.11477 1.0821-0.21314 1.6559-0.29511 0.57383-0.08198 1.1641-0.14756 1.7707-0.19674 0.60662-0.03279 1.2132-0.06558 1.8035-0.06558zm-32.333 3.5905 20.428 7.2631v-0.65581l-16.067-5.7219c-0.06558-0.0164-0.14756-0.03279-0.21314-0.06558s-0.19674-0.06558-0.3607-0.13116c-0.09837-0.03279-0.18035-0.06558-0.27872-0.09837l-0.29511-0.09837-0.39348-0.13116c-0.09837-0.03279-0.19674-0.04919-0.26232-0.08198-0.06558-0.0164-0.13116-0.03279-0.19674-0.04919s-0.14756-0.04919-0.24593-0.08198c-0.26232-0.06558-0.45907-0.13116-0.62302-0.18035-0.16395-0.03279-0.29511-0.08198-0.39348-0.11477-0.11477-0.03279-0.21314-0.04919-0.29511-0.06558l-0.27872-0.06558h0.27872 0.26232c0.08198 0 0.18035-0.0164 0.31151-0.03279 0.11477 0 0.26232-0.0164 0.44267-0.03279 0.27872-0.0164 0.49186-0.03279 0.62302-0.04919s0.26232-0.03279 0.42628-0.06558c0.27872-0.03279 0.57383-0.06558 0.86895-0.09837 0.29511-0.03279 0.54104-0.08198 0.73778-0.11477l15.953-2.5577v-0.63941l-20.428 3.2626v-3.1643h-0.62302v10.936h0.62302v-7.1647z"/>
   <path d="m119.81 1.1362e-7c-0.18514 0-0.37028 0.011571-0.5612 0.023142-0.19671 0.011571-0.38764 0.028928-0.57277 0.05207-0.18514 0.023142-0.37028 0.05207-0.54385 0.086783-0.17356 0.034713-0.33556 0.069427-0.4802 0.10414-0.27192 0.080998-0.51491 0.16778-0.72319 0.26614-0.21407 0.098354-0.40499 0.20828-0.57856 0.33556-0.46284 0.35292-0.69426 0.75791-0.69426 1.215 0 0.44549 0.22563 0.84469 0.68848 1.1976 0.17357 0.13885 0.38763 0.26035 0.63641 0.36449 0.24878 0.10993 0.5207 0.20249 0.82155 0.27771 0.29506 0.075212 0.61327 0.13307 0.95461 0.17357 0.33557 0.040499 0.68849 0.057856 1.0472 0.057856 0.38185 0 0.75791-0.023142 1.1282-0.069427 0.37028-0.046284 0.71163-0.11571 1.0298-0.20828 0.27771-0.075212 0.5207-0.162 0.72898-0.25456 0.20828-0.092569 0.39342-0.20828 0.56698-0.33556 0.23143-0.17357 0.40499-0.3587 0.52649-0.56698 0.11571-0.20249 0.17935-0.42235 0.17935-0.65377 0-0.4397-0.23142-0.83891-0.69426-1.1918-0.18514-0.13307-0.39921-0.25456-0.6422-0.36449-0.24878-0.10414-0.5207-0.19671-0.81576-0.27192-0.3-0.07519-0.62-0.13305-0.95-0.17355-0.34-0.040498-0.69-0.06364-1.05-0.06364zm0 0.20828c0.34713 0 0.68848 0.023142 1.0182 0.057856 0.32399 0.040499 0.63063 0.098354 0.91991 0.16778 0.28349 0.069427 0.54384 0.15621 0.78105 0.26035 0.2372 0.10414 0.4397 0.22564 0.61326 0.35292 0.39921 0.31242 0.6017 0.64798 0.6017 1.0183 0 0.27771-0.0983 0.52649-0.29506 0.75791-0.19671 0.23142-0.47442 0.42813-0.82155 0.59013-0.35292 0.16778-0.76948 0.30085-1.2497 0.39342-0.4802 0.092569-1.0067 0.13885-1.5737 0.13885-0.34713 0-0.68848-0.017357-1.0125-0.057856-0.32978-0.034713-0.63641-0.092569-0.92569-0.162-0.28928-0.069427-0.54963-0.162-0.78684-0.26614-0.24299-0.10414-0.44548-0.21985-0.60748-0.35292-0.19671-0.15042-0.34713-0.31242-0.44549-0.48599-0.10414-0.17357-0.15042-0.35292-0.15042-0.53806 0-0.31821 0.13307-0.60748 0.40499-0.87362s0.65955-0.48599 1.1687-0.65955c0.15042-0.05207 0.32399-0.098354 0.51491-0.14464 0.18514-0.040499 0.38185-0.075212 0.58434-0.10414 0.2025-0.028928 0.41078-0.05207 0.62484-0.069427 0.21407-0.011571 0.42814-0.023142 0.63642-0.023142zm-5.0465-0.063641v3.859h0.21985v-3.859h-0.21985zm-8.2376 0v3.859h4.2871c0.30085 0 0.58434-0.011571 0.83891-0.034713 0.25456-0.023142 0.48598-0.063641 0.70005-0.1215 0.20828-0.057856 0.40499-0.12728 0.57855-0.21407 0.17357-0.080998 0.33557-0.18514 0.48599-0.30085 0.21985-0.17357 0.38763-0.36449 0.50334-0.58434 0.11571-0.21407 0.17357-0.4397 0.17357-0.67112s-0.0579-0.45127-0.17357-0.67112c-0.11571-0.21985-0.28349-0.41656-0.50334-0.59013-0.15042-0.11571-0.31242-0.21407-0.48599-0.30085-0.17356-0.080998-0.37027-0.15042-0.57855-0.20828-0.21407-0.057856-0.44549-0.098354-0.70005-0.1215-0.25457-0.023142-0.53806-0.040499-0.84469-0.040499h-4.2813zm4.2871 3.6449h-4.0672v-3.425l4.0615-0.005786c0.29506 0 0.56698 0.017357 0.80997 0.040499 0.23721 0.023142 0.46285 0.063641 0.66534 0.10993 0.19671 0.05207 0.38185 0.11571 0.54384 0.19671 0.162 0.080998 0.31821 0.17357 0.45706 0.27771 0.18514 0.15042 0.32978 0.32399 0.43392 0.50913 0.10414 0.19092 0.15621 0.38763 0.15621 0.58434s-0.0521 0.39342-0.15621 0.57856c-0.10414 0.19092-0.24878 0.3587-0.4397 0.50913-0.13886 0.10993-0.28928 0.20249-0.45128 0.28349-0.16199 0.080998-0.34713 0.14464-0.54384 0.19092-0.20249 0.05207-0.42234 0.092569-0.66534 0.11571-0.24299 0.023142-0.51491 0.034713-0.80419 0.034713zm-12.22-3.6449v1.5447c0 0.17357 0.0058 0.32399 0.01736 0.45706 0.01157 0.13307 0.03471 0.25456 0.06364 0.3587s0.06943 0.20249 0.11571 0.29506c0.04628 0.092569 0.10993 0.17935 0.18514 0.26614 0.13885 0.17357 0.31242 0.32399 0.52648 0.45706 0.20828 0.13885 0.45127 0.24878 0.72319 0.34135 0.26614 0.092569 0.5612 0.16778 0.8794 0.21407 0.31821 0.05207 0.65377 0.075212 1.0125 0.075212 0.33556 0 0.65955-0.017357 0.96618-0.063641 0.30664-0.046284 0.59013-0.10993 0.85627-0.19671 0.26035-0.086783 0.49755-0.19092 0.70583-0.31821 0.20828-0.12728 0.38764-0.27192 0.53806-0.43392 0.081-0.092569 0.15621-0.18514 0.21407-0.27771 0.0579-0.092569 0.10414-0.19671 0.13885-0.31242 0.0347-0.11571 0.0579-0.24299 0.0752-0.38185 0.0116-0.13885 0.0231-0.30085 0.0231-0.48599v-1.539h-0.21985v1.539c0 0.162-0.006 0.30085-0.0173 0.42235-0.0116 0.1215-0.0347 0.23142-0.0579 0.32399-0.0231 0.092569-0.0579 0.17935-0.0983 0.26035-0.0463 0.080998-0.0984 0.162-0.15621 0.23721-0.12729 0.162-0.29507 0.30085-0.49178 0.42813-0.20249 0.12728-0.42813 0.23142-0.68269 0.31821-0.25457 0.086783-0.53806 0.15042-0.83891 0.19671-0.30663 0.046284-0.62484 0.069427-0.9604 0.069427-0.32399 0-0.63062-0.017357-0.9199-0.063641-0.29507-0.040499-0.56699-0.10414-0.81577-0.18514-0.25-0.081-0.476-0.1794-0.673-0.2951-0.196-0.1157-0.364-0.2488-0.497-0.3992-0.075-0.081-0.139-0.162-0.185-0.2488-0.052-0.081-0.093-0.1735-0.122-0.2777-0.02893-0.098354-0.05207-0.21407-0.06364-0.34135s-0.01736-0.27192-0.01736-0.4397v-1.5447h-0.21985zm-4.2312 0.21407v3.6449h0.21985v-3.6449h3.4655v-0.21407h-7.1567v0.21407h3.4713zm-11.064 3.4308v0.21407h0.10414c0.15042 0 0.28349 0 0.41078-0.011571 0.12728-0.00579 0.24299-0.017357 0.35292-0.034713 0.10992-0.011571 0.21985-0.034713 0.32399-0.057856 0.10414-0.023142 0.20828-0.057856 0.3182-0.092569 0.23142-0.069427 0.44549-0.162 0.65377-0.27771 0.20828-0.10993 0.41656-0.24878 0.62484-0.41077 0.06943-0.057855 0.14464-0.11571 0.21985-0.18514 0.07521-0.063641 0.15621-0.13885 0.24878-0.22564 0.09257-0.080998 0.19092-0.17935 0.30085-0.28928 0.10993-0.10414 0.23721-0.23142 0.38185-0.37606l0.58434-0.58434c0.23142-0.23142 0.43392-0.42235 0.60748-0.56698 0.17357-0.13885 0.34713-0.24878 0.5207-0.32978 0.17357-0.080998 0.3587-0.13307 0.55541-0.162 0.19671-0.023142 0.4397-0.040499 0.72898-0.040499h0.4802v-0.21407h-0.49756c-0.24299 0-0.45706 0.011571-0.63641 0.034713s-0.34713 0.05207-0.50334 0.098354c-0.11571 0.034713-0.21985 0.075212-0.31242 0.1215-0.09835 0.046284-0.19671 0.10993-0.30085 0.17935-0.10414 0.075212-0.21985 0.16778-0.34713 0.28349s-0.27192 0.25456-0.4397 0.41656l-0.585 0.5786-0.578 0.5843c-0.22 0.2199-0.446 0.4166-0.677 0.5843-0.238 0.1736-0.475 0.3125-0.718 0.4224-0.266 0.1273-0.526 0.2141-0.775 0.2661-0.255 0.0521-0.532 0.0752-0.845 0.0752h-0.2025zm-14.097-3.3151 6.8154 3.5639v-3.8937h-0.21985v3.5292l-6.8154-3.5639v3.8937h0.21985v-3.5292zm-5.05-0.4744c-0.18514 0-0.37028 0.011571-0.5612 0.023142-0.19671 0.011571-0.38763 0.028928-0.57277 0.05207s-0.37028 0.05207-0.54384 0.086783c-0.17357 0.034713-0.33556 0.069427-0.4802 0.10414-0.27192 0.080998-0.51492 0.16778-0.72319 0.26614-0.21407 0.098354-0.40499 0.20828-0.57856 0.33556-0.462 0.35296-0.694 0.75786-0.694 1.215 0 0.44549 0.22564 0.84469 0.68848 1.1976 0.17357 0.13885 0.38763 0.26035 0.63641 0.36449 0.24878 0.10993 0.5207 0.20249 0.82155 0.27771 0.29506 0.075212 0.61327 0.13307 0.95462 0.17357 0.33556 0.040499 0.68848 0.057856 1.0472 0.057856 0.38185 0 0.75791-0.023142 1.1282-0.069427 0.37028-0.046284 0.71162-0.11571 1.0298-0.20828 0.27771-0.075212 0.5207-0.162 0.72898-0.25456 0.20828-0.092569 0.39342-0.20828 0.56698-0.33556 0.23142-0.17357 0.40499-0.3587 0.52648-0.56698 0.11571-0.20249 0.17935-0.42235 0.17935-0.65377 0-0.4397-0.23142-0.83891-0.69427-1.1918-0.185-0.13305-0.399-0.25455-0.642-0.36447-0.249-0.10414-0.521-0.19671-0.816-0.27192-0.301-0.07521-0.619-0.13307-0.955-0.17357-0.335-0.040498-0.688-0.06364-1.047-0.06364zm0 0.20828c0.34713 0 0.68848 0.023142 1.0183 0.057856 0.32399 0.040499 0.63063 0.098354 0.9199 0.16778 0.28349 0.069427 0.54384 0.15621 0.78105 0.26035s0.4397 0.22564 0.61327 0.35292c0.3992 0.31242 0.6017 0.64798 0.6017 1.0183 0 0.27771-0.09835 0.52649-0.29506 0.75791s-0.47442 0.42813-0.82155 0.59013c-0.35292 0.16778-0.76948 0.30085-1.2497 0.39342-0.4802 0.092569-1.0067 0.13885-1.5737 0.13885-0.34713 0-0.68848-0.017357-1.0125-0.057856-0.33-0.0346-0.637-0.0925-0.926-0.1619s-0.549-0.162-0.787-0.2661c-0.243-0.1042-0.445-0.2199-0.607-0.353-0.197-0.1504-0.347-0.3124-0.446-0.4859-0.104-0.1736-0.15-0.353-0.15-0.5381 0-0.31821 0.13307-0.60748 0.40499-0.87362s0.65955-0.48599 1.1687-0.65955c0.15042-0.05207 0.32399-0.098354 0.51492-0.14464 0.18514-0.040499 0.38185-0.075212 0.58434-0.10414 0.2025-0.028928 0.41078-0.05207 0.62484-0.069427 0.21407-0.011571 0.42813-0.023142 0.63641-0.023142zm-5.0465-0.063641v3.859h0.21985v-3.859h-0.21985zm-4.2659 0.21407v3.6449h0.21985v-3.6449h3.4655v-0.21407h-7.1567v0.21407h3.4713zm-5.709-0.24878-3.929 3.8937h0.31821l2.5456-2.5283h2.158l2.5861 2.5283h0.32399l-4.0036-3.8937zm0.86783 1.1513h-1.7125l0.85048-0.83891 0.86205 0.83891zm-11.663-1.1513-2.337 3.8937h0.26614l2.1464-3.587 2.1464 1.2613 2.1638-1.2613 2.1407 3.587h0.25456l-2.32-3.8937-2.239 1.3133-2.222-1.3133zm-3.0505 0.034713v3.859h0.21985v-3.859h-0.21985zm-7.7466 0.32978 6.8154 3.5639v-3.8937h-0.21985v3.5292l-6.8154-3.5639v3.8937h0.21985v-3.5292zm-4.726-0.36449-3.928 3.8937h0.3182l2.5456-2.5283h2.158l2.5861 2.5283h0.32399l-4.0036-3.8937zm0.86783 1.1513h-1.7125l0.85048-0.83891 0.86205 0.83891z"/>
  </g>
  <g fill="#ff3d3d">
   <path fill="#ff3d3d" d="m-2.1935e-7 10.734v24.854h27.611c1.9376 0 3.7634-0.07452 5.403-0.22357 1.6395-0.14905 3.13-0.40988 4.5087-0.7825 1.3414-0.37262 2.6083-0.81976 3.7262-1.3787 1.1179-0.52166 2.1612-1.1924 3.13-1.9376 1.4159-1.1179 2.4965-2.3475 3.2418-3.7634 0.74524-1.3787 1.1179-2.8319 1.1179-4.3224s-0.37262-2.9064-1.1179-4.3224c-0.74524-1.4159-1.8258-2.6829-3.2418-3.8007-0.96881-0.74524-2.0121-1.3787-3.13-1.9376-1.1179-0.52166-2.3848-0.96881-3.7262-1.3414-1.3787-0.37262-2.8692-0.63345-4.5087-0.7825s-3.4653-0.26083-5.4402-0.26083h-27.574zm27.611 23.475h-26.195v-22.059l26.158-0.03726c1.9004 0 3.6517 0.11179 5.2167 0.26083 1.5277 0.14905 2.9809 0.40988 4.2851 0.70797 1.2669 0.33536 2.4593 0.74524 3.5026 1.2669s2.0494 1.1179 2.9437 1.7886c1.1924 0.96881 2.1239 2.0867 2.7946 3.279 0.67071 1.2296 1.0061 2.4965 1.0061 3.7634s-0.33536 2.5338-1.0061 3.7262c-0.67071 1.2296-1.6023 2.3102-2.8319 3.279-0.89428 0.70798-1.8631 1.3042-2.9064 1.8258-1.0433 0.52166-2.2357 0.93154-3.5026 1.2296-1.3042 0.33536-2.7201 0.59619-4.2851 0.74524s-3.3163 0.22357-5.1794 0.22357z"/>
  </g>
  <g>
   <path d="m60.43 9.8021c-1.1924 0-2.3848 0.074524-3.6144 0.14905-1.2669 0.074524-2.4965 0.18631-3.6889 0.33536s-2.3848 0.33536-3.5026 0.55893c-1.1179 0.22357-2.1612 0.44714-3.0927 0.67071-1.7513 0.52167-3.3163 1.0806-4.6577 1.714-1.3787 0.63345-2.6083 1.3414-3.7262 2.1612-2.9809 2.273-4.4714 4.8813-4.4714 7.825 0 2.8692 1.4532 5.4402 4.4342 7.7132 1.1179 0.89428 2.4965 1.6768 4.0988 2.3475 1.6023 0.70797 3.3536 1.3042 5.2912 1.7886 1.9004 0.4844 3.9498 0.85702 6.1482 1.1179 2.1612 0.26083 4.4342 0.37262 6.7444 0.37262 2.4593 0 4.8813-0.14905 7.2661-0.44714s4.5832-0.74524 6.6326-1.3414c1.7886-0.4844 3.3536-1.0433 4.695-1.6395 1.3414-0.59619 2.5338-1.3414 3.6517-2.1612 1.4905-1.1179 2.6083-2.3102 3.3908-3.6517 0.74524-1.3042 1.1551-2.7201 1.1551-4.2106 0-2.8319-1.4905-5.403-4.4714-7.6759-1.1924-0.85702-2.5711-1.6395-4.1361-2.3475-1.603-0.671-3.354-1.267-5.255-1.751-1.937-0.485-3.987-0.857-6.148-1.118-2.161-0.2608-4.434-0.4099-6.744-0.4099zm0 1.3414c2.2357 0 4.4342 0.14905 6.5581 0.37262 2.0867 0.26083 4.0615 0.63345 5.9246 1.0806 1.8258 0.44714 3.5026 1.0061 5.0303 1.6768 1.5277 0.67071 2.8319 1.4532 3.9498 2.273 2.5711 2.0121 3.8752 4.1733 3.8752 6.5581 0 1.7886-0.63345 3.3908-1.9004 4.8813-1.2669 1.4905-3.0555 2.7574-5.2912 3.8007-2.273 1.0806-4.9558 1.9376-8.0486 2.5338-3.0927 0.59619-6.4836 0.89428-10.135 0.89428-2.2357 0-4.4342-0.11178-6.5208-0.37262-2.1239-0.22357-4.0988-0.59619-5.9619-1.0433-1.8631-0.44714-3.5399-1.0433-5.0676-1.714-1.565-0.67071-2.8692-1.4159-3.9125-2.273-1.2669-0.96881-2.2357-2.0121-2.8692-3.13-0.67071-1.1179-0.96881-2.273-0.96881-3.4653 0-2.0494 0.85702-3.9125 2.6083-5.6265s4.2478-3.13 7.5269-4.2478c0.96881-0.33536 2.0867-0.63345 3.3163-0.93154 1.1924-0.26083 2.4593-0.4844 3.7634-0.67071 1.3042-0.18631 2.6456-0.33536 4.0243-0.44714 1.3787-0.07452 2.7574-0.14905 4.0988-0.14905z"/>
  </g>
  <path d="m147.93 35.587h2.0745l-25.635-25.077-25.153 25.077h2.0374c7.7042-7.702 15.414-15.398 23.153-23.065"/>
  <path d="m123.15 29.066v6.5208h1.416v-8.5702h-25.971v1.3787h23.251c-0.48441 0.4844-0.93155 0.89428-1.3414 1.2296-0.40988 0.33536-0.89428 0.67071-1.4532 1.0433-1.1178 0.70798-2.3848 1.3414-3.8752 1.9004-1.4905 0.55893-3.0927 1.0433-4.844 1.4159-1.7513 0.40988-3.6144 0.70797-5.552 0.93154-1.9749 0.22357-3.987 0.29809-5.9992 0.29809-2.2357 0-4.4342-0.11178-6.5208-0.37262-2.1239-0.22357-4.0988-0.59619-5.9619-1.0433-1.8631-0.44714-3.5399-1.0433-5.0676-1.714-1.565-0.67071-2.8692-1.4159-3.9125-2.273-1.2669-0.96881-2.2357-2.0121-2.8692-3.13-0.67071-1.1179-0.96881-2.273-0.96881-3.4653 0-1.714 0.63345-3.3163 1.9004-4.8068 1.2669-1.4905 3.0182-2.7574 5.2539-3.838s4.9186-1.9376 8.0486-2.5338c3.0927-0.59619 6.4836-0.89428 10.135-0.89428 2.0494 0 4.0988 0.11178 6.1109 0.33536 2.0121 0.22357 6.5208 1.1179 6.5208 1.1179l0.29748-1.461s-3.119-0.59166-4.6944-0.77468c-2.7329-0.3175-5.3284-0.55893-8.2349-0.55893-2.4965 0-4.9186 0.14905-7.3033 0.44714-2.3848 0.2981-4.5832 0.74524-6.5953 1.3042-1.8258 0.52166-3.3908 1.0806-4.7322 1.6768-1.3414 0.63345-2.5338 1.3414-3.6517 2.1612-2.9809 2.273-4.4714 4.8813-4.4714 7.825 0 2.8692 1.4532 5.4402 4.4342 7.7132 1.1179 0.89428 2.4965 1.6768 4.0988 2.3475 1.6023 0.70798 3.3536 1.3042 5.2912 1.7886 1.9004 0.4844 3.9498 0.85702 6.1482 1.1179 2.1612 0.26083 4.4342 0.37262 6.7444 0.37262 2.7574 0 5.3657-0.14905 7.8622-0.52167 2.4593-0.33536 4.7695-0.81976 6.8562-1.4905 2.0867-0.63345 3.987-1.4159 5.6265-2.3475 1.6395-0.89428 2.981-1.9376 4.0243-3.13z" fill="#ff3d3d"/>
 </g>
</svg>
