<?xml version="1.0" encoding="UTF-8"?>
<svg style="enable-background:new 0 0 976.7 396.7" version="1.1" viewBox="0 0 977 397" xml:space="preserve" xmlns="http://www.w3.org/2000/svg">
<title>GoHands logo</title>
<style type="text/css">
	.st0{fill:#7E7E7E;}
</style>

	
		<path class="st0" d="m132 338h-28.8l-7.8-15.1c-13.2 11.7-27.2 17.6-42 17.6-14.4 0-26.9-3.7-37.7-11.2-10.7-7.5-16.1-19.3-16.1-35.6v-179c0-35.5 22.6-53.2 67.9-53.2 43 0 64.5 16.2 64.5 48.5v50.7h-54.6v-55.3c0-4.4-3-6.7-8.9-6.7s-8.9 2.2-8.9 6.7v190c0 4.5 3 6.7 8.9 6.7s8.9-2.2 8.9-6.7v-51.1h-12.2v-42h66.8v136z"/>
		<path class="st0" d="m144 295v-133c0-31.2 21.6-46.7 64.7-46.7 16.7 0 31.3 3.6 44 10.9s19 18.6 19 34v136c0 29.9-21 44.8-63 44.8-43.2-0.1-64.7-15.7-64.7-46.8zm73.2 1.5v-136c0-7.2-3.1-10.9-9.3-10.9-6.4 0-9.5 3.6-9.5 10.9v136c0 7.5 3.2 11.3 9.5 11.3 6.2 0 9.3-3.8 9.3-11.3z"/>
		<path class="st0" d="m419 338h-60.1v-131h-16.8v131h-60.1v-274h60.1v109h16.8v-109h60.1v274z"/>
		<path class="st0" d="m559 338h-48.1v-8.6c-4.1 7.8-15.7 11.6-34.9 11.6-29.6 0-44.4-11.6-44.4-34.7v-44.5c0-9.9 3.6-18.6 10.8-25.9 7.2-7.4 21.7-16.6 43.4-27.7 12.6-6.4 18.9-11.4 18.9-15.3v-32.8c0-7.2-3.1-10.9-9.3-10.9-7.1 0-10.7 8.8-10.7 26.5 0 3.2 0.2 7.9 0.6 14.1 0.5 6.2 0.8 10.9 0.8 14.1h-52.5v-44.3c0-29.9 21.6-44.8 64.9-44.8 40.5 0 60.7 15.6 60.7 46.7v176zm-54.4-41.4v-57c-12.5 3.1-18.7 8.7-18.7 16.8v40.2c0 6.7 3.2 10.1 9.7 10.1 6 0 9-3.4 9-10.1z"/>
		<path class="st0" d="m699 338h-54.4v-178c0-6.7-3.1-10.1-9.4-10.1s-9.4 3.2-9.4 9.7v178h-54.4v-222h54.4v7.4c7.3-6 18.5-9 33.7-9 9.8 0 18.9 2.7 27.2 8s12.4 13.2 12.4 23.5v192z"/>
		<path class="st0" d="m838 338h-41.2l-4.6-7.4c-9.3 7-19.9 10.5-31.8 10.5-13.9 0-25.7-3.2-35.5-9.7s-14.6-15.3-14.6-26.5v-159c0-9.4 3.9-16.9 11.6-22.4s17.1-8.3 28-8.3c15 0 26.3 2.7 33.7 8.2v-58.8h54.4v274zm-54.4-41.4v-138c0-6.5-3.1-9.7-9.3-9.7-6.4 0-9.5 3.4-9.5 10.1v137c0 6.7 3.2 10.1 9.5 10.1 6.2 0 9.3-3.4 9.3-10.1z"/>
		<path class="st0" d="m849 249h54.4v46.9c0 7.5 3 11.3 9.2 11.3 6.1 0 9.1-7.2 9.1-21.6 0-18.7-3.7-30.8-11.3-36.2-28.4-14.9-45.5-25.3-51.3-31.2-5.9-5.9-8.8-14.8-8.8-26.6v-29.8c0-31.2 21.1-46.7 63.3-46.7 41.1 0 61.6 14.9 61.6 44.8v43.7h-53l1.1-26.5c0-18.4-3.4-27.7-10.1-27.7s-10.1 5.8-10.1 17.4c0 12 1.5 21 4.5 27.1s19.6 16.6 49.9 31.5c12.6 9 18.9 21 18.9 35.9v33.2c0 31.2-21.5 46.7-64.4 46.7-42 0-63.1-14.9-63.1-44.8v-47.4z"/>
	
	
		<path class="st0" d="m57.6 392c-1.9 1.6-3.6 2.7-5.4 3.3-1.7 0.7-3.6 1-5.5 1-3.3 0-5.7-0.8-7.5-2.4-1.7-1.6-2.6-3.6-2.6-6.1 0-1.5 0.3-2.8 1-4s1.5-2.2 2.6-2.9 2.3-1.3 3.6-1.6c1-0.3 2.5-0.5 4.5-0.8 4.1-0.5 7-1.1 9-1.7v-1.3c0-2-0.5-3.5-1.4-4.3-1.3-1.1-3.2-1.7-5.7-1.7-2.4 0-4.1 0.4-5.2 1.2s-2 2.3-2.5 4.4l-4.9-0.7c0.4-2.1 1.2-3.8 2.2-5.1s2.5-2.3 4.4-3 4.2-1.1 6.7-1.1 4.6 0.3 6.2 0.9 2.7 1.3 3.5 2.2c0.7 0.9 1.3 2 1.6 3.4 0.2 0.9 0.2 2.4 0.2 4.6v6.7c0 4.7 0.1 7.6 0.3 8.9 0.2 1.2 0.6 2.4 1.3 3.6h-5.2c-0.8-0.9-1.1-2.1-1.2-3.5zm-0.5-11.2c-1.8 0.7-4.6 1.4-8.2 1.9-2.1 0.3-3.5 0.6-4.4 1s-1.5 0.9-2 1.6-0.7 1.5-0.7 2.4c0 1.3 0.5 2.5 1.5 3.4s2.5 1.3 4.4 1.3 3.7-0.4 5.2-1.3c1.5-0.8 2.6-2 3.3-3.5 0.5-1.1 0.8-2.8 0.8-5v-1.8z"/>
		<path class="st0" d="m70 396v-29.6h4.5v4.2c2.2-3.3 5.3-4.9 9.4-4.9 1.8 0 3.4 0.3 4.9 1 1.5 0.6 2.6 1.5 3.4 2.5 0.7 1 1.3 2.3 1.6 3.7 0.2 0.9 0.3 2.6 0.3 4.9v18.2h-5v-18c0-2-0.2-3.6-0.6-4.6s-1.1-1.8-2.1-2.4-2.2-0.9-3.5-0.9c-2.1 0-4 0.7-5.5 2-1.6 1.4-2.3 3.9-2.3 7.7v16.2h-5.1z"/>
		<path class="st0" d="m102 361v-5.8h5v5.8h-5zm0 35.1v-29.6h5v29.6h-5z"/>
		<path class="st0" d="m114 396v-29.6h4.5v4.2c0.9-1.4 2.2-2.6 3.7-3.5s3.3-1.3 5.3-1.3c2.2 0 4 0.5 5.4 1.4s2.4 2.2 3 3.8c2.3-3.5 5.4-5.2 9.2-5.2 2.9 0 5.2 0.8 6.8 2.4s2.4 4.1 2.4 7.5v20.3h-5v-18.7c0-2-0.2-3.4-0.5-4.3s-0.9-1.6-1.8-2.1-1.9-0.8-3-0.8c-2.1 0-3.8 0.7-5.2 2.1s-2.1 3.6-2.1 6.7v17.2h-5v-19.2c0-2.2-0.4-3.9-1.2-5s-2.2-1.7-4-1.7c-1.4 0-2.7 0.4-3.9 1.1s-2.1 1.8-2.6 3.3c-0.5 1.4-0.8 3.5-0.8 6.2v15.4h-5.2z"/>
		<path class="st0" d="m181 392c-1.9 1.6-3.6 2.7-5.4 3.3-1.7 0.7-3.6 1-5.5 1-3.3 0-5.7-0.8-7.5-2.4-1.7-1.6-2.6-3.6-2.6-6.1 0-1.5 0.3-2.8 1-4s1.5-2.2 2.6-2.9 2.3-1.3 3.6-1.6c1-0.3 2.5-0.5 4.5-0.8 4.1-0.5 7-1.1 9-1.7v-1.3c0-2-0.5-3.5-1.4-4.3-1.3-1.1-3.2-1.7-5.7-1.7-2.4 0-4.1 0.4-5.2 1.2s-2 2.3-2.5 4.4l-4.9-0.7c0.4-2.1 1.2-3.8 2.2-5.1s2.5-2.3 4.4-3 4.2-1.1 6.7-1.1 4.6 0.3 6.2 0.9 2.7 1.3 3.5 2.2c0.7 0.9 1.3 2 1.6 3.4 0.2 0.9 0.2 2.4 0.2 4.6v6.7c0 4.7 0.1 7.6 0.3 8.9 0.2 1.2 0.6 2.4 1.3 3.6h-5.2c-0.8-0.9-1.1-2.1-1.2-3.5zm-0.5-11.2c-1.8 0.7-4.6 1.4-8.2 1.9-2.1 0.3-3.5 0.6-4.4 1s-1.5 0.9-2 1.6-0.7 1.5-0.7 2.4c0 1.3 0.5 2.5 1.5 3.4s2.5 1.3 4.4 1.3 3.7-0.4 5.2-1.3c1.5-0.8 2.6-2 3.3-3.5 0.5-1.1 0.8-2.8 0.8-5v-1.8z"/>
		<path class="st0" d="m205 392 0.7 4.4c-1.4 0.3-2.7 0.4-3.8 0.4-1.8 0-3.2-0.3-4.2-0.9s-1.7-1.3-2.1-2.3c-0.4-0.9-0.6-2.9-0.6-5.9v-17h-3.8v-3.9h3.7v-7.3l5-3v10.3h5v3.9h-5v17.3c0 1.4 0.1 2.4 0.3 2.8s0.5 0.7 0.9 1 1 0.4 1.7 0.4c0.5 0 1.2-0.1 2.2-0.2z"/>
		<path class="st0" d="m210 361v-5.8h5v5.8h-5zm0 35.1v-29.6h5v29.6h-5z"/>
		<path class="st0" d="m220 381c0-5.5 1.5-9.5 4.6-12.2 2.5-2.2 5.7-3.3 9.3-3.3 4.1 0 7.4 1.3 10 4s3.9 6.4 3.9 11.1c0 3.8-0.6 6.8-1.7 9s-2.8 3.9-5 5.1-4.6 1.8-7.2 1.8c-4.1 0-7.5-1.3-10.1-4-2.5-2.7-3.8-6.5-3.8-11.5zm5.1 0c0 3.8 0.8 6.6 2.5 8.5s3.7 2.8 6.2 2.8 4.6-1 6.2-2.8c1.7-1.9 2.5-4.8 2.5-8.7 0-3.7-0.8-6.4-2.5-8.3s-3.7-2.8-6.2-2.8-4.6 0.9-6.2 2.8c-1.6 1.8-2.5 4.7-2.5 8.5z"/>
		<path class="st0" d="m254 396v-29.6h4.5v4.2c2.2-3.3 5.3-4.9 9.4-4.9 1.8 0 3.4 0.3 4.9 1 1.5 0.6 2.6 1.5 3.4 2.5 0.7 1 1.3 2.3 1.6 3.7 0.2 0.9 0.3 2.6 0.3 4.9v18.2h-5v-18c0-2-0.2-3.6-0.6-4.6s-1.1-1.8-2.1-2.4-2.2-0.9-3.5-0.9c-2.1 0-4 0.7-5.5 2-1.6 1.4-2.3 3.9-2.3 7.7v16.2h-5.1z"/>
		<path class="st0" d="m322 386 5.2 0.6c-0.8 3-2.3 5.4-4.5 7.1s-5 2.5-8.5 2.5c-4.3 0-7.8-1.3-10.3-4s-3.8-6.4-3.8-11.2c0-5 1.3-8.8 3.8-11.6 2.6-2.8 5.9-4.1 10-4.1 4 0 7.2 1.4 9.7 4 2.5 2.7 3.8 6.5 3.8 11.4v1.3h-22.1c0.2 3.3 1.1 5.7 2.8 7.5 1.7 1.7 3.7 2.6 6.2 2.6 1.8 0 3.4-0.5 4.7-1.5 1.2-0.9 2.3-2.4 3-4.6zm-16.5-8.1h16.5c-0.2-2.5-0.9-4.4-1.9-5.6-1.6-1.9-3.7-2.9-6.2-2.9-2.3 0-4.2 0.8-5.8 2.3-1.5 1.6-2.4 3.6-2.6 6.2z"/>
		<path class="st0" d="m334 396v-29.6h4.5v4.2c2.2-3.3 5.3-4.9 9.4-4.9 1.8 0 3.4 0.3 4.9 1 1.5 0.6 2.6 1.5 3.4 2.5 0.7 1 1.3 2.3 1.6 3.7 0.2 0.9 0.3 2.6 0.3 4.9v18.2h-5v-18c0-2-0.2-3.6-0.6-4.6s-1.1-1.8-2.1-2.4-2.2-0.9-3.5-0.9c-2.1 0-4 0.7-5.5 2-1.6 1.4-2.3 3.9-2.3 7.7v16.2h-5.1z"/>
		<path class="st0" d="m376 392 0.7 4.4c-1.4 0.3-2.7 0.4-3.8 0.4-1.8 0-3.2-0.3-4.2-0.9s-1.7-1.3-2.1-2.3c-0.4-0.9-0.6-2.9-0.6-5.9v-17h-3.7v-3.9h3.7v-7.3l5-3v10.3h5v3.9h-5v17.3c0 1.4 0.1 2.4 0.3 2.8s0.5 0.7 0.9 1c0.4 0.2 1 0.4 1.7 0.4 0.5 0 1.2-0.1 2.1-0.2z"/>
		<path class="st0" d="m401 386 5.2 0.6c-0.8 3-2.3 5.4-4.5 7.1s-5 2.5-8.5 2.5c-4.3 0-7.8-1.3-10.3-4s-3.8-6.4-3.8-11.2c0-5 1.3-8.8 3.8-11.6 2.6-2.8 5.9-4.1 10-4.1 4 0 7.2 1.4 9.7 4 2.5 2.7 3.8 6.5 3.8 11.4v1.3h-22.1c0.2 3.3 1.1 5.7 2.8 7.5 1.7 1.7 3.7 2.6 6.2 2.6 1.8 0 3.4-0.5 4.7-1.5 1.2-0.9 2.3-2.4 3-4.6zm-16.5-8.1h16.5c-0.2-2.5-0.9-4.4-1.9-5.6-1.6-1.9-3.7-2.9-6.2-2.9-2.3 0-4.2 0.8-5.8 2.3-1.5 1.6-2.4 3.6-2.6 6.2z"/>
		<path class="st0" d="m413 396v-29.6h4.5v4.5c1.1-2.1 2.2-3.5 3.2-4.2s2-1 3.2-1c1.7 0 3.4 0.5 5.2 1.6l-1.7 4.7c-1.2-0.7-2.5-1.1-3.7-1.1-1.1 0-2.1 0.3-3 1s-1.5 1.6-1.9 2.7c-0.6 1.8-0.8 3.7-0.8 5.9v15.5h-5z"/>
		<path class="st0" d="m443 392 0.7 4.4c-1.4 0.3-2.7 0.4-3.8 0.4-1.8 0-3.2-0.3-4.2-0.9s-1.7-1.3-2.1-2.3c-0.4-0.9-0.6-2.9-0.6-5.9v-17h-3.7v-3.9h3.7v-7.3l5-3v10.3h5v3.9h-5v17.3c0 1.4 0.1 2.4 0.3 2.8s0.5 0.7 0.9 1c0.4 0.2 1 0.4 1.7 0.4 0.5 0 1.2-0.1 2.1-0.2z"/>
		<path class="st0" d="m467 392c-1.9 1.6-3.6 2.7-5.4 3.3-1.7 0.7-3.6 1-5.5 1-3.3 0-5.7-0.8-7.5-2.4-1.7-1.6-2.6-3.6-2.6-6.1 0-1.5 0.3-2.8 1-4s1.5-2.2 2.6-2.9 2.3-1.3 3.6-1.6c1-0.3 2.5-0.5 4.5-0.8 4.1-0.5 7-1.1 9-1.7v-1.3c0-2-0.5-3.5-1.4-4.3-1.3-1.1-3.2-1.7-5.7-1.7-2.4 0-4.1 0.4-5.2 1.2s-2 2.3-2.5 4.4l-4.9-0.7c0.4-2.1 1.2-3.8 2.2-5.1s2.5-2.3 4.4-3 4.2-1.1 6.7-1.1 4.6 0.3 6.2 0.9 2.7 1.3 3.5 2.2c0.7 0.9 1.3 2 1.6 3.4 0.2 0.9 0.2 2.4 0.2 4.6v6.7c0 4.7 0.1 7.6 0.3 8.9 0.2 1.2 0.6 2.4 1.3 3.6h-5.2c-0.7-0.9-1-2.1-1.2-3.5zm-0.4-11.2c-1.8 0.7-4.6 1.4-8.2 1.9-2.1 0.3-3.5 0.6-4.4 1s-1.5 0.9-2 1.6-0.7 1.5-0.7 2.4c0 1.3 0.5 2.5 1.5 3.4s2.5 1.3 4.4 1.3 3.7-0.4 5.2-1.3c1.5-0.8 2.6-2 3.3-3.5 0.5-1.1 0.8-2.8 0.8-5v-1.8z"/>
		<path class="st0" d="m480 361v-5.8h5v5.8h-5zm0 35.1v-29.6h5v29.6h-5z"/>
		<path class="st0" d="m492 396v-29.6h4.5v4.2c2.2-3.3 5.3-4.9 9.4-4.9 1.8 0 3.4 0.3 4.9 1 1.5 0.6 2.6 1.5 3.4 2.5 0.7 1 1.3 2.3 1.6 3.7 0.2 0.9 0.3 2.6 0.3 4.9v18.2h-5v-18c0-2-0.2-3.6-0.6-4.6s-1.1-1.8-2.1-2.4-2.2-0.9-3.5-0.9c-2.1 0-4 0.7-5.5 2-1.5 1.4-2.3 3.9-2.3 7.7v16.2h-5.1z"/>
		<path class="st0" d="m524 396v-29.6h4.5v4.2c0.9-1.4 2.2-2.6 3.7-3.5s3.3-1.3 5.3-1.3c2.2 0 4 0.5 5.4 1.4s2.4 2.2 3 3.8c2.3-3.5 5.4-5.2 9.1-5.2 2.9 0 5.2 0.8 6.8 2.4s2.4 4.1 2.4 7.5v20.3h-5v-18.7c0-2-0.2-3.4-0.5-4.3s-0.9-1.6-1.8-2.1-1.9-0.8-3-0.8c-2.1 0-3.8 0.7-5.2 2.1s-2.1 3.6-2.1 6.7v17.2h-5v-19.2c0-2.2-0.4-3.9-1.2-5s-2.1-1.7-4-1.7c-1.4 0-2.7 0.4-3.9 1.1s-2.1 1.8-2.6 3.3c-0.5 1.4-0.8 3.5-0.8 6.2v15.4h-5.1z"/>
		<path class="st0" d="m592 386 5.2 0.6c-0.8 3-2.3 5.4-4.5 7.1s-5 2.5-8.5 2.5c-4.3 0-7.8-1.3-10.3-4s-3.8-6.4-3.8-11.2c0-5 1.3-8.8 3.9-11.6s5.9-4.1 10-4.1c4 0 7.2 1.4 9.7 4 2.5 2.7 3.8 6.5 3.8 11.4v1.3h-22.1c0.2 3.3 1.1 5.7 2.8 7.5 1.6 1.7 3.7 2.6 6.2 2.6 1.8 0 3.4-0.5 4.7-1.5 1.1-0.9 2.1-2.4 2.9-4.6zm-16.5-8.1h16.6c-0.2-2.5-0.9-4.4-1.9-5.6-1.6-1.9-3.7-2.9-6.2-2.9-2.3 0-4.2 0.8-5.8 2.3-1.7 1.6-2.5 3.6-2.7 6.2z"/>
		<path class="st0" d="m603 396v-29.6h4.5v4.2c2.2-3.3 5.3-4.9 9.4-4.9 1.8 0 3.4 0.3 4.9 1 1.5 0.6 2.6 1.5 3.4 2.5 0.7 1 1.3 2.3 1.6 3.7 0.2 0.9 0.3 2.6 0.3 4.9v18.2h-5v-18c0-2-0.2-3.6-0.6-4.6s-1.1-1.8-2.1-2.4-2.2-0.9-3.5-0.9c-2.1 0-4 0.7-5.5 2-1.6 1.4-2.3 3.9-2.3 7.7v16.2h-5.1z"/>
		<path class="st0" d="m646 392 0.7 4.4c-1.4 0.3-2.7 0.4-3.8 0.4-1.8 0-3.2-0.3-4.3-0.9-1-0.6-1.7-1.3-2.1-2.3-0.4-0.9-0.6-2.9-0.6-5.9v-17h-3.7v-3.9h3.7v-7.3l5-3v10.3h5v3.9h-5v17.3c0 1.4 0.1 2.4 0.3 2.8s0.5 0.7 0.9 1c0.4 0.2 1 0.4 1.7 0.4 0.6 0 1.3-0.1 2.2-0.2z"/>
		<path class="st0" d="m678 392 0.7 4.4c-1.4 0.3-2.7 0.4-3.8 0.4-1.8 0-3.2-0.3-4.3-0.9-1-0.6-1.7-1.3-2.1-2.3-0.4-0.9-0.6-2.9-0.6-5.9v-17h-3.7v-3.9h3.7v-7.3l5-3v10.3h5v3.9h-5v17.3c0 1.4 0.1 2.4 0.3 2.8s0.5 0.7 0.9 1c0.4 0.2 1 0.4 1.7 0.4 0.6 0 1.3-0.1 2.2-0.2z"/>
		<path class="st0" d="m681 381c0-5.5 1.5-9.5 4.6-12.2 2.5-2.2 5.6-3.3 9.3-3.3 4.1 0 7.4 1.3 10 4s3.9 6.4 3.9 11.1c0 3.8-0.6 6.8-1.7 9s-2.8 3.9-5 5.1-4.6 1.8-7.1 1.8c-4.2 0-7.5-1.3-10.1-4s-3.9-6.5-3.9-11.5zm5.1 0c0 3.8 0.8 6.6 2.5 8.5 1.6 1.9 3.7 2.8 6.2 2.8s4.6-1 6.2-2.8c1.6-1.9 2.5-4.8 2.5-8.7 0-3.7-0.8-6.4-2.5-8.3s-3.7-2.8-6.2-2.8-4.6 0.9-6.2 2.8c-1.6 1.8-2.5 4.7-2.5 8.5z"/>
		<path class="st0" d="m750 392c-1.9 1.6-3.7 2.7-5.4 3.3-1.7 0.7-3.6 1-5.5 1-3.3 0-5.8-0.8-7.5-2.4-1.8-1.6-2.6-3.6-2.6-6.1 0-1.5 0.3-2.8 1-4s1.5-2.2 2.6-2.9 2.3-1.3 3.6-1.6c1-0.3 2.5-0.5 4.5-0.8 4.1-0.5 7-1.1 9-1.7v-1.3c0-2-0.5-3.5-1.4-4.3-1.3-1.1-3.2-1.7-5.7-1.7-2.4 0-4.1 0.4-5.2 1.2s-2 2.3-2.5 4.4l-4.9-0.7c0.4-2.1 1.2-3.8 2.2-5.1s2.5-2.3 4.4-3 4.2-1.1 6.7-1.1 4.6 0.3 6.2 0.9 2.7 1.3 3.5 2.2c0.7 0.9 1.3 2 1.6 3.4 0.2 0.9 0.2 2.4 0.2 4.6v6.7c0 4.7 0.1 7.6 0.3 8.9 0.2 1.2 0.6 2.4 1.3 3.6h-5.2c-0.7-0.9-1-2.1-1.2-3.5zm-0.4-11.2c-1.8 0.7-4.6 1.4-8.2 1.9-2.1 0.3-3.5 0.6-4.4 1-0.8 0.4-1.5 0.9-2 1.6s-0.7 1.5-0.7 2.4c0 1.3 0.5 2.5 1.5 3.4s2.5 1.3 4.4 1.3 3.7-0.4 5.2-1.3c1.5-0.8 2.6-2 3.3-3.5 0.5-1.1 0.8-2.8 0.8-5v-1.8z"/>
		<path class="st0" d="m781 396v-3.7c-1.9 2.9-4.6 4.4-8.3 4.4-2.4 0-4.5-0.7-6.5-2s-3.5-3.1-4.6-5.5c-1.1-2.3-1.6-5-1.6-8s0.5-5.6 1.5-8 2.5-4.3 4.4-5.5c2-1.3 4.2-1.9 6.6-1.9 1.8 0 3.4 0.4 4.8 1.1s2.5 1.7 3.4 2.9v-14.7h5v40.9h-4.7zm-15.9-14.8c0 3.8 0.8 6.6 2.4 8.5s3.5 2.8 5.7 2.8 4.1-0.9 5.6-2.7 2.3-4.5 2.3-8.2c0-4.1-0.8-7-2.3-8.9s-3.5-2.8-5.8-2.8c-2.2 0-4.1 0.9-5.6 2.7s-2.3 4.7-2.3 8.6z"/>
		<path class="st0" d="m802 396-11.3-29.6h5.3l6.4 17.7c0.7 1.9 1.3 3.9 1.9 6 0.4-1.6 1.1-3.4 1.9-5.6l6.6-18.1h5.2l-11.2 29.6h-4.8z"/>
		<path class="st0" d="m842 392c-1.9 1.6-3.7 2.7-5.4 3.3-1.7 0.7-3.6 1-5.5 1-3.3 0-5.8-0.8-7.5-2.4-1.8-1.6-2.6-3.6-2.6-6.1 0-1.5 0.3-2.8 1-4s1.5-2.2 2.6-2.9 2.3-1.3 3.6-1.6c1-0.3 2.5-0.5 4.5-0.8 4.1-0.5 7-1.1 9-1.7v-1.3c0-2-0.5-3.5-1.4-4.3-1.3-1.1-3.2-1.7-5.7-1.7-2.4 0-4.1 0.4-5.2 1.2s-2 2.3-2.5 4.4l-4.9-0.7c0.4-2.1 1.2-3.8 2.2-5.1s2.5-2.3 4.4-3 4.2-1.1 6.7-1.1 4.6 0.3 6.2 0.9 2.7 1.3 3.5 2.2c0.7 0.9 1.3 2 1.6 3.4 0.2 0.9 0.2 2.4 0.2 4.6v6.7c0 4.7 0.1 7.6 0.3 8.9 0.2 1.2 0.6 2.4 1.3 3.6h-5.2c-0.7-0.9-1-2.1-1.2-3.5zm-0.4-11.2c-1.8 0.7-4.6 1.4-8.2 1.9-2.1 0.3-3.5 0.6-4.4 1-0.8 0.4-1.5 0.9-2 1.6s-0.7 1.5-0.7 2.4c0 1.3 0.5 2.5 1.5 3.4s2.5 1.3 4.4 1.3 3.7-0.4 5.2-1.3c1.5-0.8 2.6-2 3.3-3.5 0.5-1.1 0.8-2.8 0.8-5v-1.8z"/>
		<path class="st0" d="m854 396v-29.6h4.5v4.2c2.2-3.3 5.3-4.9 9.4-4.9 1.8 0 3.4 0.3 4.9 1 1.5 0.6 2.6 1.5 3.4 2.5 0.7 1 1.3 2.3 1.6 3.7 0.2 0.9 0.3 2.6 0.3 4.9v18.2h-5v-18c0-2-0.2-3.6-0.6-4.6s-1.1-1.8-2.1-2.4-2.2-0.9-3.5-0.9c-2.1 0-4 0.7-5.5 2-1.6 1.4-2.3 3.9-2.3 7.7v16.2h-5.1z"/>
		<path class="st0" d="m905 385 4.9 0.6c-0.5 3.4-1.9 6.1-4.1 8s-4.9 2.9-8.2 2.9c-4.1 0-7.3-1.3-9.8-4s-3.7-6.4-3.7-11.4c0-3.2 0.5-6 1.6-8.4s2.7-4.2 4.8-5.4c2.2-1.2 4.5-1.8 7.1-1.8 3.2 0 5.8 0.8 7.9 2.4 2 1.6 3.3 3.9 3.9 6.9l-4.9 0.8c-0.5-2-1.3-3.5-2.5-4.5s-2.6-1.5-4.3-1.5c-2.5 0-4.6 0.9-6.2 2.7s-2.4 4.7-2.4 8.6c0 4 0.8 6.9 2.3 8.7s3.5 2.7 6 2.7c2 0 3.6-0.6 4.9-1.8 1.5-1.1 2.3-3 2.7-5.5z"/>
		<path class="st0" d="m935 386 5.2 0.6c-0.8 3-2.3 5.4-4.5 7.1s-5 2.5-8.5 2.5c-4.3 0-7.8-1.3-10.3-4s-3.8-6.4-3.8-11.2c0-5 1.3-8.8 3.9-11.6s5.9-4.1 10-4.1c4 0 7.2 1.4 9.7 4 2.5 2.7 3.8 6.5 3.8 11.4v1.3h-22.1c0.2 3.3 1.1 5.7 2.8 7.5 1.6 1.7 3.7 2.6 6.2 2.6 1.8 0 3.4-0.5 4.7-1.5 1.1-0.9 2.1-2.4 2.9-4.6zm-16.5-8.1h16.5c-0.2-2.5-0.9-4.4-1.9-5.6-1.6-1.9-3.7-2.9-6.2-2.9-2.3 0-4.2 0.8-5.8 2.3-1.6 1.6-2.5 3.6-2.6 6.2z"/>
	
	
		<path class="st0" d="m287 46.5v9h-18.7v-46.5h14.1l1.6 1.6c3.1-1.2 6.7-1.8 10.9-1.8s8.2 0.5 11.8 1.6 5.4 2.6 5.4 4.7v27.6c0 1.6-1.3 2.9-3.9 3.9s-5.8 1.5-9.6 1.5c-5.2-0.2-9.1-0.7-11.6-1.6zm6.5-6.3v-23.7c0-1.2-1.1-1.8-3.2-1.8-2.2 0-3.3 0.6-3.3 1.8v23.8c0 1.1 1.1 1.7 3.3 1.7 2.1 0 3.2-0.6 3.2-1.8z"/>
		<path class="st0" d="m361 24.9h-18.7v-8.3c0-1.2-1.1-1.8-3.2-1.8s-3.2 0.6-3.2 1.7v30.9h-18.7v-38.4h18.7v1.3c2.5-1 6.3-1.6 11.5-1.6 3.7 0 6.9 0.5 9.6 1.5s4 2.3 4 4v10.7z"/>
		<path class="st0" d="m364 39.8v-23c0-5.4 7.4-8.1 22.2-8.1 5.7 0 10.7 0.6 15.1 1.9 4.3 1.3 6.5 3.2 6.5 5.9v23.6c0 5.2-7.2 7.8-21.6 7.8-14.8 0-22.2-2.7-22.2-8.1zm25.1 0.3v-23.5c0-1.3-1.1-1.9-3.2-1.9-2.2 0-3.3 0.6-3.3 1.9v23.5c0 1.3 1.1 2 3.3 2 2.2-0.1 3.2-0.7 3.2-2z"/>
		<path class="st0" d="m455 47.4h-14.1l-1.6-1.3c-3.2 1.2-6.8 1.8-10.9 1.8-4.8 0-8.8-0.6-12.2-1.7-3.3-1.1-5-2.7-5-4.6v-27.5c0-1.6 1.3-2.9 4-3.9 2.6-1 5.8-1.4 9.6-1.4 5.2 0 9 0.5 11.6 1.4v-10.2h18.7v47.4zm-18.7-7.2v-23.8c0-1.1-1.1-1.7-3.2-1.7-2.2 0-3.3 0.6-3.3 1.8v23.8c0 1.2 1.1 1.8 3.3 1.8 2.1-0.1 3.2-0.7 3.2-1.9z"/>
		<path class="st0" d="m503 47.4h-18.7v-1.3c-2.4 1.2-6.3 1.8-11.6 1.8-3.7 0-6.9-0.5-9.6-1.5s-4-2.3-4-3.9v-33.5h18.7v31.2c0 1.2 1.1 1.8 3.3 1.8 2.1 0 3.2-0.6 3.2-1.7v-31.3h18.7v38.4z"/>
		<path class="st0" d="m550 26h-18.7v-9.4c0-1.3-1.1-1.9-3.1-1.9-2.1 0-3.2 0.6-3.2 1.9v23.5c0 1.3 1.1 2 3.2 2s3.1-0.7 3.1-2v-9.3h18.7v9.4c0 5.2-7.2 7.8-21.5 7.8-14.8 0-22.1-2.7-22.1-8.1v-23c0-5.4 7.4-8.1 22.1-8.1 14.3 0 21.5 2.6 21.5 7.8v9.4z"/>
		<path class="st0" d="m592 47.4h-11.8c-8.4 0-13.5-0.6-15.1-1.9s-2.5-3.7-2.5-7.4v-23.4h-8.3v-5.7h8.3v-7.7h18.7v7.7h10.1v5.7h-10.1v23.3c0 1.1 0.7 1.9 2 2.3s4.2 0.6 8.7 0.6v6.5z"/>
		<path class="st0" d="m613 6.9h-18.7v-6.9h18.7v6.9zm0 40.5h-18.7v-38.4h18.7v38.4z"/>
		<path class="st0" d="m617 39.8v-23c0-5.4 7.4-8.1 22.2-8.1 5.7 0 10.7 0.6 15.1 1.9s6.5 3.2 6.5 5.9v23.6c0 5.2-7.2 7.8-21.6 7.8-14.8 0-22.2-2.7-22.2-8.1zm25.1 0.3v-23.5c0-1.3-1.1-1.9-3.2-1.9-2.2 0-3.3 0.6-3.3 1.9v23.5c0 1.3 1.1 2 3.3 2 2.1-0.1 3.2-0.7 3.2-2z"/>
		<path class="st0" d="m708 47.4h-18.7v-30.8c0-1.2-1.1-1.8-3.2-1.8-2.2 0-3.3 0.6-3.3 1.7v30.9h-18.7v-38.4h18.8v1.3c2.5-1 6.3-1.6 11.6-1.6 3.4 0 6.5 0.5 9.3 1.4s4.3 2.3 4.3 4.1v33.2z"/>
	

</svg>
