<?xml version="1.0" encoding="UTF-8" standalone="no"?>
<!-- Created with Inkscape (http://www.inkscape.org/) -->
<svg xmlns:dc="http://purl.org/dc/elements/1.1/" xmlns:cc="http://creativecommons.org/ns#" xmlns:rdf="http://www.w3.org/1999/02/22-rdf-syntax-ns#" xmlns:svg="http://www.w3.org/2000/svg" xmlns="http://www.w3.org/2000/svg" xmlns:sodipodi="http://sodipodi.sourceforge.net/DTD/sodipodi-0.dtd" xmlns:inkscape="http://www.inkscape.org/namespaces/inkscape" width="500" height="110.76524" id="svg3250" version="1.1" inkscape:version="0.48.1 " sodipodi:docname="New document 4">
  <defs id="defs3252">
    <clipPath clipPathUnits="userSpaceOnUse" id="clipPath3013">
      <path inkscape:connector-curvature="0" d="m 74,996 199,0 0,17 -199,0 0,-17 z" id="path3015"/>
    </clipPath>
  </defs>
  <sodipodi:namedview id="base" pagecolor="#ffffff" bordercolor="#666666" borderopacity="1.0" inkscape:pageopacity="0.0" inkscape:pageshadow="2" inkscape:zoom="0.98994949" inkscape:cx="672.79486" inkscape:cy="40.715672" inkscape:document-units="px" inkscape:current-layer="layer1" showgrid="false" fit-margin-top="0" fit-margin-left="0" fit-margin-right="0" fit-margin-bottom="0" inkscape:window-width="1920" inkscape:window-height="1028" inkscape:window-x="-8" inkscape:window-y="-8" inkscape:window-maximized="1"/>
  <metadata id="metadata3255">
    <rdf:RDF>
      <cc:Work rdf:about="">
        <dc:format>image/svg+xml</dc:format>
        <dc:type rdf:resource="http://purl.org/dc/dcmitype/StillImage"/>
        <dc:title/>
      </cc:Work>
    </rdf:RDF>
  </metadata>
  <g inkscape:label="Layer 1" inkscape:groupmode="layer" id="layer1" transform="translate(-132.18681,-553.27139)">
    <g transform="matrix(8.0365363,0,0,-8.0365363,-1561.7876,8681.3526)" id="g3009">
      <g id="g3011" clip-path="url(#clipPath3013)">
        <path inkscape:connector-curvature="0" d="m 260.38,1010.91 3.6186,0 8.5522,-13.1732 -4.01,0 -8.1608,13.1732 z" style="fill:#ca2b30;fill-opacity:1;fill-rule:nonzero;stroke:none" id="path3017"/>
        <path inkscape:connector-curvature="0" d="m 260.8291,997.7368 3.6187,0 8.5522,13.1732 -4.01,0 -8.1609,-13.1732 z" style="fill:#ca2b30;fill-opacity:1;fill-rule:nonzero;stroke:none" id="path3019"/>
        <path inkscape:connector-curvature="0" d="m 247.5056,997.7772 -5.0816,7.6898 0,-7.6751 -2.9078,0 0.0487,12.2971 c -0.0487,1.08 1.6451,2.014 2.6228,0.513 2.0077,-3.082 3.3029,-5.082 5.2566,-8.067 l 0.002,7.515 c 0.3571,1.794 2.4695,1.768 2.8321,-0.037 l -0.0596,-12.2193 -2.713,-0.0165 z" style="fill:#ca2b30;fill-opacity:1;fill-rule:nonzero;stroke:none" id="path3021"/>
        <path inkscape:connector-curvature="0" d="m 238.5312,997.7919 -3.5446,0 -0.0108,11.5871 c -0.0127,1.471 0.9344,1.998 1.8237,2 0.7991,0 1.748,-0.608 1.7444,-1.974 l -0.0127,-11.6131 z" style="fill:#ca2b30;fill-opacity:1;fill-rule:nonzero;stroke:none" id="path3023"/>
        <path inkscape:connector-curvature="0" d="m 230.1954,1004.257 c -0.0234,0.043 -1.1166,3.422 -1.1166,3.422 l -1.1581,-3.422 2.2747,0 z m 4.9066,-6.467 -2.9114,0 -1.3854,3.92 -3.68,0 -1.4088,-3.863 -2.9097,0 4.7244,12.576 c 0.7233,1.232 2.2801,1.314 3.0558,0 l 4.5151,-12.637 z" style="fill:#ca2b30;fill-opacity:1;fill-rule:nonzero;stroke:none" id="path3025"/>
        <path inkscape:connector-curvature="0" d="m 257.1546,1004.204 c -0.0198,0.041 -1.113,3.422 -1.113,3.422 l -1.1581,-3.422 2.2711,0 z m 4.9084,-6.4691 -2.9079,0 -1.3872,3.9221 -3.6799,0 -1.4088,-3.8633 -2.9115,0 4.728,12.5763 c 0.7197,1.231 2.2783,1.314 3.0522,0 l 4.5151,-12.6371 z" style="fill:#ca2b30;fill-opacity:1;fill-rule:nonzero;stroke:none" id="path3027"/>
        <path inkscape:connector-curvature="0" d="m 222.9203,998.1539 c -0.3878,-0.1323 -0.6151,-0.1856 -1.3078,-0.3142 -0.3553,-0.0662 -0.5772,-0.1084 -0.8731,-0.1636 -0.4329,-0.0275 -0.6836,-0.0275 -1.1545,-0.0459 -2.8465,-0.125 -5.8319,0.2076 -7.7765,3.1188 -1.297,1.939 -1.3981,5.278 -0.0974,7.274 2.7058,4.159 7.423,3.727 11.231,2.59 l 0,-2.875 c -2.3234,0.636 -5.3973,1.355 -7.0641,-1.51 -0.7792,-1.338 -0.4221,-3.564 0.6242,-4.54 0.552,-0.514 1.1581,-0.932 1.8111,-1.009 0.4708,-0.055 1.389,-0.13 1.389,-0.073 0.0144,1.251 -0.007,2.448 -0.007,3.725 l 3.2253,0 0,-6.1771 z" style="fill:#ca2b30;fill-opacity:1;fill-rule:nonzero;stroke:none" id="path3029"/>
      </g>
    </g>
  </g>
</svg>