<?xml version="1.0" encoding="UTF-8" standalone="no"?>
<svg xmlns="http://www.w3.org/2000/svg" height="11.32mm" width="52.917mm" version="1.1" viewBox="0 0 52.916664 11.320462">
 <g transform="translate(-6.6597 -233.68)">
  <g transform="matrix(1.2013 0 0 1.2013 -1.3406 -49.32)">
   <path d="m18.936 241.52h-1.6275c-0.11576 0.37483-0.14745 0.71107-0.10197 0.99908zm3.7469-2.1621 0.27699-0.99908h-1.693l-0.59944 2.1621z" fill="#cf1c30"/>
   <path d="m20.558 240.92-0.22738 0.82131c-0.11437 0.41479-0.33624 0.62976-0.89021 0.62976-0.39274 0-0.55397-0.19706-0.56086-0.48093l-1.5944 0.91915c0.21222 0.54157 0.76757 0.85301 1.6013 0.85301h0.31282c1.7294 0 2.4557-0.6215 2.8884-2.1594l0.48645-1.746zm16.525 2.1704 0.92742-3.3734h1.2085zm3.412-3.1709 0.03583 1.7928h-1.0363zm9.8819-0.3514 0.33211-1.2044h-7.7032l-0.92742 3.3666-0.27974-3.3666h-1.7212l-0.58153 0.91915 0.25218-0.91915h-4.2609l-0.07166 0.26045c-0.28387-0.24667-0.72898-0.39688-1.3767-0.39688-1.2912 0-2.3895 0.55122-2.6913 1.6495-0.54295 1.9706 2.5742 1.4332 2.3592 2.2145-0.06752 0.24391-0.38447 0.38034-0.80753 0.38034-0.16537 0-0.33211-0.0427-0.44511-0.12816-0.11989-0.0868-0.1819-0.22324-0.16674-0.40927h-1.6206c-0.22049 0.93293 0.44924 1.7281 1.8121 1.7281 1.4194 0 2.5756-0.58154 2.9049-1.7777 0.51814-1.8796-2.5824-1.3987-2.3702-2.1732 0.05099-0.18603 0.24667-0.2949 0.61874-0.2949 0.16536 0 0.3073 0.0289 0.41203 0.0937 0.07304 0.0441 0.12403 0.11162 0.14332 0.2067h2.1305l-1.0473 3.8089h3.1929l0.38034-0.68075h1.6853l0.01378 0.68075h2.7327l0.50023-1.8135h1.6481l0.3321-1.2058h-1.6481l0.25769-0.93845h1.9954l-1.09 3.9577h1.6922l0.50023-1.8135h1.6481l0.33211-1.2058h-1.6481l0.25769-0.93845zm-20.068 3.34c0 0.41203-0.33486 0.7469-0.7469 0.7469-0.41341 0-0.7469-0.33487-0.7469-0.7469 0-0.41204 0.33348-0.7469 0.7469-0.7469 0.41203 0 0.7469 0.33486 0.7469 0.7469m-6.7317 0c0 0.41203-0.33486 0.7469-0.7469 0.7469-0.41341 0-0.7469-0.33487-0.7469-0.7469 0-0.41204 0.33349-0.7469 0.7469-0.7469 0.41203 0 0.7469 0.33486 0.7469 0.7469m4.1451-2.5797c0.09784-0.53881-0.18328-0.84612-0.71382-0.84612-0.59531 0-1.1231 0.5085-1.3973 1.5048-0.19981 0.72485-0.22875 1.4056 0.63114 1.4056 0.5457 0 0.90813-0.38034 1.1093-0.87505h1.6275c-0.51814 1.3339-1.6922 2.1373-3.0551 2.1373-1.706 0-2.4515-1.0473-1.9885-2.7244 0.45889-1.6702 1.9072-2.712 3.3486-2.712 1.5779 0 2.2724 0.78135 2.0436 2.1098z" fill="#87877a"/>
   <path d="m10.826 235.6c-0.0069-0.007-0.01379-0.011-0.02205-0.0138-0.0083-0.006-0.01792-0.006-0.02618-0.006-0.0083 0-0.01655 0-0.0248 0.004-0.20257 0.0772-0.39274 0.19706-0.5581 0.35967l-2.0684 2.0698c-0.0248 0.0262-0.0248 0.0661 0.0014 0.0923 0.02618 0.0275 0.02618 0.0689 0 0.0965l-1.4483 1.4469c-0.02618 0.0275-0.02618 0.0703 0 0.0965s0.0689 0.0262 0.09508 0l4.0514-4.0514c0.02617-0.0262 0.02617-0.0689 0-0.0951m1.1093-0.006c-0.0083-0.001-0.01517-0.003-0.0248-0.003-0.0083 0-0.01654 0.001-0.0248 0.004-0.0083 0.004-0.01517 0.008-0.02205 0.0152l-0.88608 0.88608c-0.05237 0.0524-0.05099 0.13642 0.0014 0.18879v0.001c0.05237 0.0524 0.05237 0.1378 0 0.19017l-0.8778 0.87643c-0.05237 0.0524-0.1378 0.0524-0.19017 0h-0.0014c-0.051-0.0524-0.13506-0.0524-0.1888-0.001l-0.87919 0.88057c-0.05099 0.0524-0.05099 0.13642 0.0014 0.18879 0.05237 0.0524 0.05237 0.1378 0 0.19155l-2.0147 2.0133c-0.0069 0.006-0.01101 0.0152-0.01517 0.0221-0.0028 0.01-0.0041 0.0179-0.0041 0.0262 0 0.008 0.0014 0.0165 0.0041 0.0248l0.0014 0.001c0.02893 0.0482 0.06201 0.0937 0.09784 0.13781 0.02618 0.022 0.06477 0.0207 0.08957-0.004l5.322-5.322c0.0248-0.0248 0.02617-0.0634 0.0028-0.0909-0.12127-0.0951-0.25356-0.17088-0.39136-0.22738m3.638 3.5512-0.78135 0.78135c-0.15847 0.15847-0.15847 0.41341 0 0.57189 0.1571 0.15847 0.1571 0.41479 0 0.57188l-0.49609 0.49747c-0.15848 0.15572-0.41479 0.15572-0.57189 0v-0.001c-0.15847-0.15709-0.41479-0.15709-0.57188 0.001l-0.49609 0.49334c-0.15848 0.15985-0.15848 0.41617 0 0.57189 0.15848 0.15985 0.15848 0.41617 0 0.57326l-0.49609 0.49609c-0.1571 0.15848-0.41341 0.15848-0.57189 0-0.1571-0.15847-0.41341-0.15847-0.57188 0l-0.78135 0.78135c-0.02342 0.0234-0.02617 0.0579-0.0083 0.0854 0.6339 0.59256 1.6288 0.58153 2.249-0.0386l3.1461-3.1461c0.61874-0.61874 0.63114-1.6151 0.03583-2.249-0.02618-0.0152-0.06063-0.0138-0.08406 0.01m-1.0487-1.0487-0.82958 0.82958c-0.13091 0.13091-0.13091 0.34451 0 0.47542 0.13229 0.13229 0.13229 0.34727 0 0.47818l-0.59118 0.59118c-0.13091 0.13229-0.34451 0.13229-0.4768 0-0.13092-0.13229-0.34451-0.13229-0.4768 0l-0.59118 0.5898c-0.13091 0.13229-0.13091 0.34589 0 0.4768 0.13229 0.13229 0.13229 0.34589 0 0.47818l-0.5898 0.5898c-0.13229 0.13092-0.34589 0.13092-0.4768 0-0.13229-0.13229-0.34589-0.13229-0.4768 0l-0.82958 0.82958c-0.02618 0.0262-0.02618 0.0689 0 0.0951l0.42857 0.42856 0.42857 0.42995c0.02755 0.0262 0.07028 0.0262 0.09646 0l5.3383-5.3385c0.02618-0.0262 0.02618-0.0689 0-0.0951l-0.85852-0.85852c-0.02618-0.0262-0.0689-0.0262-0.09508 0m-0.57188-0.57188-1.9444 1.9444c-0.10611 0.10611-0.27699 0.10611-0.38172 0-0.10473-0.10473-0.27561-0.10473-0.38172 0l-0.68626 0.68626c-0.10473 0.10611-0.10473 0.27561 0 0.38172 0.10611 0.10611 0.10611 0.27561 0 0.38171l-1.9444 1.9444c-0.02618 0.0262-0.02618 0.0689 0 0.0951l0.28663 0.28663c0.02618 0.0262 0.06752 0.0262 0.09508 0l5.3385-5.3385c0.02617-0.0262 0.02617-0.0689 0-0.0951l-0.28663-0.28663c-0.02618-0.0262-0.0689-0.0262-0.09508 0m-1.1438-1.2402 0.2384 0.23978 0.2384 0.2384c0.02617 0.0262 0.02617 0.0689 0 0.0951l-5.3385 5.3385c-0.02618 0.0262-0.0689 0.0262-0.09508 0l-0.19155-0.19155c-0.02618-0.0248-0.02618-0.0689 0-0.0951l1.9926-1.9913c0.07855-0.0799 0.07855-0.20808 0-0.28663-0.07855-0.0786-0.07855-0.20671-0.0014-0.28526l0.78413-0.7841c0.07855-0.0772 0.20533-0.0772 0.28388 0.001h0.0014c0.07855 0.0799 0.20671 0.0799 0.28526 0l0.78273-0.78134c0.07855-0.0786 0.07855-0.20671 0-0.28526v-0.001c-0.07855-0.0785-0.07993-0.20533-0.0014-0.28526l0.92604-0.92604c0.02618-0.0248 0.0689-0.0248 0.09508 0" fill="#cf1c30"/>
  </g>
 </g>
</svg>
