<?xml version="1.0" encoding="UTF-8"?>
<svg version="1.1" viewBox="0 0 250 31.407" xmlns="http://www.w3.org/2000/svg">
<g transform="translate(-712.14 -530.94)">
<g transform="matrix(.85222 0 0 .85222 726.28 595.67)" fill="#e6521e">
<path d="m267.88-57.932c2.1016-4.2578 4.2383-6.3867 6.4102-6.3867 1.6484 1.7e-5 2.4726 0.83595 2.4727 2.5078-2e-5 1.2188-0.28713 3.0137-0.86133 5.3848-0.57423 2.3711-0.86134 4.166-0.86133 5.3848-1e-5 0.96094 0.23436 1.7461 0.70313 2.3555-0.89845 0.57031-1.7852 0.85547-2.6602 0.85547-1.4688-1e-6 -2.2031-0.70703-2.2031-2.1211-1e-5 -1.0469 0.15624-2.3437 0.46875-3.8906 0.78905-3.8984 1.1836-6.043 1.1836-6.4336-1e-5 -0.42968-0.13282-0.64452-0.39844-0.64453-0.78126 1.3e-5 -1.9766 1.7031-3.5859 5.1094-1.5469 3.2734-2.3203 5.4688-2.3203 6.5859 0 0.29688 0.0664 0.65234 0.19922 1.0664-0.79688 0.21875-1.5664 0.32812-2.3086 0.32812-1.3438-1e-6 -2.0156-0.48438-2.0156-1.4531 0-0.48437 0.0977-1.1172 0.29297-1.8984l0.46875-1.875c1.1016-4.4062 1.6523-7.5156 1.6523-9.3281 0-0.42967-0.0781-0.83592-0.23437-1.2188 1.0391-0.36717 1.9375-0.55076 2.6953-0.55078 1.1953 1.6e-5 1.793 0.49611 1.793 1.4883-1e-5 0.54689-0.29688 2.125-0.89062 4.7344zm-18.574 10.254c-1.6719 0-3.002-0.51562-3.9902-1.5469-0.98828-1.0312-1.4824-2.3867-1.4824-4.0664 0-2.6641 0.82031-5.1133 2.4609-7.3477 1.789-2.4531 3.9687-3.6797 6.5391-3.6797 1.625 1.7e-5 2.9336 0.53127 3.9258 1.5938 0.96874 1.0313 1.4531 2.3672 1.4531 4.0078-2e-5 2.625-0.81252 5.0664-2.4375 7.3242-1.7813 2.4766-3.9375 3.7148-6.4688 3.7148zm0.80859-2.3672c1.2266 2e-6 2.1953-1.2266 2.9062-3.6797 0.52343-1.8047 0.78515-3.5351 0.78516-5.1914-1e-5 -2.0156-0.60158-3.0234-1.8047-3.0234-1.2656 1.4e-5 -2.2578 1.2227-2.9766 3.668-0.52345 1.7813-0.78517 3.5156-0.78516 5.2031-1e-5 2.0156 0.62499 3.0234 1.875 3.0234zm-15.012-13.512c1.0781-0.39842 2.0586-0.59764 2.9414-0.59766 1.1875 1.6e-5 1.7812 0.45314 1.7812 1.3594-1e-5 0.41408-0.0742 0.91017-0.22266 1.4883-1.2969 5.0781-1.9453 8.5352-1.9453 10.371-1e-5 0.89063 0.23437 1.6406 0.70312 2.25-0.90625 0.57031-1.7852 0.85547-2.6367 0.85547-1.5313-1e-6 -2.2969-0.70703-2.2969-2.1211 0-1.3672 0.33594-3.3906 1.0078-6.0703 0.67187-2.6797 1.0078-4.7031 1.0078-6.0703-1e-5 -0.49217-0.11329-0.98045-0.33985-1.4648zm5.2852-3.0352c-0.83595 0.39846-1.6016 0.59767-2.2969 0.59766-1.0469 1.8e-5 -1.5703-0.28904-1.5703-0.86719 0-0.19529 0.0391-0.48826 0.11719-0.87891 0.0781-0.3906 0.11718-0.68357 0.11719-0.87891-1e-5 -0.13279-0.0508-0.29295-0.15235-0.48047 1.0078-0.36717 1.8594-0.55076 2.5547-0.55078 1.1406 2.2e-5 1.7109 0.43362 1.7109 1.3008-1e-5 0.38283-0.16017 0.96877-0.48047 1.7578zm-19.688 7.1016h-0.52735c-0.89062 1.2e-5 -1.7656 0.17189-2.625 0.51562-0.0391-0.37499-0.0586-0.64842-0.0586-0.82031 0-1.0156 0.38281-1.6601 1.1484-1.9336 0.38281-0.14061 1.2305-0.21092 2.543-0.21094 0.42187-2.1484 0.6328-3.5312 0.63281-4.1484-1e-5 -0.49217-0.11329-0.98045-0.33984-1.4648 1.0625-0.39842 2.043-0.59764 2.9414-0.59766 1.1875 2e-5 1.7812 0.45314 1.7812 1.3594-1e-5 0.57033-0.13282 1.3789-0.39844 2.4258l-0.60937 2.4258h1.2891c1.039 1.4e-5 2.168-0.11717 3.3867-0.35156-0.10158 1.8906-1.1914 2.8359-3.2695 2.8359-0.21095 1.1e-5 -0.52735-0.0058-0.94922-0.01758-0.42188-0.01171-0.73829-0.01757-0.94922-0.01758-0.71876 3.4219-1.0781 5.7227-1.0781 6.9023-1e-5 1.2344 0.45311 1.8516 1.3594 1.8516 0.79687 2e-6 1.7422-0.39844 2.8359-1.1953 0.2578 0.5 0.38671 0.94141 0.38672 1.3242-1e-5 0.90625-0.59376 1.6445-1.7812 2.2148-0.96876 0.46094-1.961 0.69141-2.9766 0.69141-2.5938 0-3.8906-1.2773-3.8906-3.832 0-1.6797 0.38281-4.332 1.1484-7.957zm-12.48 5.4141c-2.3438 4.2656-4.5078 6.3984-6.4922 6.3984-2.0547 0-3.082-1.4453-3.082-4.3359 0-2.6641 0.72656-5.2773 2.1797-7.8398 1.6953-2.9765 3.7773-4.4648 6.2461-4.4648 1.1406 1.7e-5 2.1484 0.28908 3.0234 0.86719 0.42967-0.47655 1.0195-0.71483 1.7695-0.71484 0.90624 1.6e-5 1.793 0.20705 2.6602 0.62109-0.59377 1.2031-1.1485 3.1406-1.6641 5.8125-0.47657 2.5156-0.71485 4.5391-0.71484 6.0703-1e-5 1.1172 0.1992 2.0977 0.59766 2.9414-0.68752 0.59375-1.4766 0.89062-2.3672 0.89062-1.6484-1e-6 -2.4727-0.91016-2.4727-2.7305-1e-5 -0.9375 0.10546-2.1094 0.31641-3.5156zm1.1953-5.9531c-0.90626-1.2187-1.8047-1.8281-2.6953-1.8281-1.1172 1.4e-5 -2.0586 1.25-2.8242 3.75-0.60938 1.9766-0.91407 3.707-0.91406 5.1914-1e-5 1.1406 0.2578 1.7109 0.77344 1.7109 0.54686 3e-6 1.5742-1.3047 3.082-3.9141 1.1094-1.9062 1.9687-3.543 2.5781-4.9102zm-25.043 11.871c-0.76563 0.21875-1.5078 0.32812-2.2266 0.32812-1.1719-1e-6 -1.7578-0.46094-1.7578-1.3828-1e-5 -0.375 0.12889-1.1406 0.38672-2.2969 1.125-5.0547 1.6875-8.0156 1.6875-8.8828-1e-5 -0.28905-0.0977-0.43358-0.29297-0.43359-0.6797 1.3e-5 -1.8672 1.6152-3.5625 4.8457s-2.543 5.4629-2.543 6.6973c-1e-5 0.34375 0.0664 0.71875 0.19922 1.125-0.79688 0.21875-1.5274 0.32812-2.1914 0.32812-1.2812-1e-6 -1.9219-0.48438-1.9219-1.4531 0-0.50781 0.0937-1.1406 0.28125-1.8984 1.4219-5.75 2.1328-9.4961 2.1328-11.238 0-0.40624-0.082-0.80077-0.24609-1.1836 1.039-0.36717 1.9102-0.55076 2.6133-0.55078 1.1172 1.6e-5 1.6758 0.4922 1.6758 1.4766-1e-5 0.63283-0.11329 1.4258-0.33985 2.3789l-0.5625 2.3672c2.4297-4.2578 4.625-6.3867 6.5859-6.3867 1.4062 1.7e-5 2.1094 0.83986 2.1094 2.5195-2e-5 0.46095-0.086 1.1055-0.25782 1.9336-0.18751 0.89845-0.29298 1.543-0.3164 1.9336 2.4453-4.2578 4.668-6.3867 6.668-6.3867 1.4297 1.7e-5 2.1445 0.78517 2.1445 2.3555-3e-5 0.46876-0.13674 1.3711-0.41016 2.707-0.91408 4.4688-1.3711 7.1992-1.3711 8.1914-2e-5 0.96875 0.23044 1.7617 0.6914 2.3789-0.89064 0.57031-1.7422 0.85547-2.5547 0.85547-1.3906-1e-6 -2.086-0.70703-2.0859-2.1211-2e-5 -1.1328 0.17186-2.543 0.51562-4.2305 0.76561-3.75 1.1484-5.8203 1.1484-6.2109-2e-5 -0.28905-0.0977-0.43358-0.29297-0.43359-0.67189 1.3e-5 -1.8555 1.6152-3.5508 4.8457s-2.543 5.4629-2.543 6.6973c-1e-5 0.34375 0.0625 0.71875 0.1875 1.125zm-20.988-15.398c1.0781-0.39842 2.0586-0.59764 2.9414-0.59766 1.1875 1.6e-5 1.7812 0.45314 1.7812 1.3594-1e-5 0.41408-0.0742 0.91017-0.22266 1.4883-1.2969 5.0781-1.9453 8.5352-1.9453 10.371-1e-5 0.89063 0.23437 1.6406 0.70312 2.25-0.90625 0.57031-1.7852 0.85547-2.6367 0.85547-1.5313-1e-6 -2.2969-0.70703-2.2969-2.1211 0-1.3672 0.33594-3.3906 1.0078-6.0703 0.67187-2.6797 1.0078-4.7031 1.0078-6.0703-1e-5 -0.49217-0.11329-0.98045-0.33985-1.4648zm5.2852-3.0352c-0.83595 0.39846-1.6016 0.59767-2.2969 0.59766-1.0469 1.8e-5 -1.5703-0.28904-1.5703-0.86719 0-0.19529 0.0391-0.48826 0.11719-0.87891 0.0781-0.3906 0.11718-0.68357 0.11719-0.87891-1e-5 -0.13279-0.0508-0.29295-0.15235-0.48047 1.0078-0.36717 1.8594-0.55076 2.5547-0.55078 1.1406 2.2e-5 1.7109 0.43362 1.7109 1.3008-1e-5 0.38283-0.16017 0.96877-0.48047 1.7578zm-20.695 8.6602c2.1016-4.2578 4.2383-6.3867 6.4102-6.3867 1.6484 1.7e-5 2.4726 0.83595 2.4727 2.5078-2e-5 1.2188-0.28713 3.0137-0.86133 5.3848-0.57423 2.3711-0.86134 4.166-0.86133 5.3848-1e-5 0.96094 0.23436 1.7461 0.70313 2.3555-0.89845 0.57031-1.7852 0.85547-2.6602 0.85547-1.4688-1e-6 -2.2031-0.70703-2.2031-2.1211-1e-5 -1.0469 0.15624-2.3437 0.46875-3.8906 0.78905-3.8984 1.1836-6.043 1.1836-6.4336-1e-5 -0.42968-0.13282-0.64452-0.39844-0.64453-0.78126 1.3e-5 -1.9766 1.7031-3.5859 5.1094-1.5469 3.2734-2.3203 5.4688-2.3203 6.5859 0 0.29688 0.0664 0.65234 0.19922 1.0664-0.79688 0.21875-1.5664 0.32812-2.3086 0.32812-1.3438-1e-6 -2.0156-0.48438-2.0156-1.4531 0-0.48437 0.0977-1.1172 0.29297-1.8984l0.46875-1.875c1.1016-4.4062 1.6523-7.5156 1.6523-9.3281 0-0.42967-0.0781-0.83592-0.23437-1.2188 1.0391-0.36717 1.9375-0.55076 2.6953-0.55078 1.1953 1.6e-5 1.793 0.49611 1.793 1.4883-1e-5 0.54689-0.29688 2.125-0.89062 4.7344zm-20.859 3.3867c-0.28125 0.59376-0.69141 1.4922-1.2305 2.6953-0.50781 1.1797-0.76172 2.168-0.76172 2.9648 0 0.17188 0.0117 0.32813 0.0352 0.46875-1.1406 0.39062-2.0664 0.58594-2.7773 0.58594-0.77344-1e-6 -1.1602-0.28906-1.1602-0.86719 0-0.35937 0.14062-0.79297 0.42188-1.3008 1.4375-2.6875 3.6211-6.7734 6.5508-12.258 0.55468-0.99998 1.5195-2.8164 2.8945-5.4492l1.8281-0.49219c0.6953-0.18748 1.3164-0.28123 1.8633-0.28125 0.96093 2.1e-5 1.4414 0.72268 1.4414 2.168-2e-5 0.44533-0.0117 1.1172-0.0352 2.0156-0.0234 0.89845-0.0352 1.5703-0.0352 2.0156v6.5742c-2e-5 3.25 0.49217 5.5469 1.4766 6.8906-1.1641 0.65625-2.2344 0.98437-3.2109 0.98438-1.336-1e-6 -2.0547-1.3359-2.1562-4.0078l-0.10547-2.707zm0.92578-2.168h4.1719l-0.0234-1.7227v-1.3125c-1e-5 -0.49999 0.0195-1.2812 0.0586-2.3438 0.0312-0.84374 0.0469-1.5 0.0469-1.9688v-0.375l-0.0234-1.1953c-1.3828 2.6563-2.793 5.6289-4.2305 8.918zm-25.641 9.0352c-1.6719 0-3.002-0.51562-3.9902-1.5469-0.98828-1.0312-1.4824-2.3867-1.4824-4.0664-2e-6 -2.6641 0.82031-5.1133 2.4609-7.3477 1.7891-2.4531 3.9687-3.6797 6.5391-3.6797 1.625 1.7e-5 2.9336 0.53127 3.9258 1.5938 0.96874 1.0313 1.4531 2.3672 1.4531 4.0078-2e-5 2.625-0.81252 5.0664-2.4375 7.3242-1.7813 2.4766-3.9375 3.7148-6.4688 3.7148zm0.80859-2.3672c1.2266 2e-6 2.1953-1.2266 2.9062-3.6797 0.52343-1.8047 0.78515-3.5351 0.78516-5.1914-1e-5 -2.0156-0.60158-3.0234-1.8047-3.0234-1.2656 1.4e-5 -2.2578 1.2227-2.9766 3.668-0.52345 1.7813-0.78517 3.5156-0.78516 5.2031-1e-5 2.0156 0.62499 3.0234 1.875 3.0234zm-18.445-9.4453h-0.52734c-0.89063 1.2e-5 -1.7656 0.17189-2.625 0.51562-0.03906-0.37499-0.05859-0.64842-0.05859-0.82031-1e-6 -1.0156 0.38281-1.6601 1.1484-1.9336 0.38281-0.14061 1.2305-0.21092 2.543-0.21094 0.42187-2.1484 0.63281-3.5312 0.63281-4.1484-6e-6 -0.49217-0.11329-0.98045-0.33984-1.4648 1.0625-0.39842 2.043-0.59764 2.9414-0.59766 1.1875 2e-5 1.7812 0.45314 1.7812 1.3594-1e-5 0.57033-0.13282 1.3789-0.39844 2.4258l-0.60938 2.4258h1.2891c1.0391 1.4e-5 2.168-0.11717 3.3867-0.35156-0.10158 1.8906-1.1914 2.8359-3.2695 2.8359-0.21095 1.1e-5 -0.52735-0.0058-0.94922-0.01758-0.42188-0.01171-0.73829-0.01757-0.94922-0.01758-0.71876 3.4219-1.0781 5.7227-1.0781 6.9023-7e-6 1.2344 0.45312 1.8516 1.3594 1.8516 0.79687 2e-6 1.7422-0.39844 2.8359-1.1953 0.2578 0.5 0.38671 0.94141 0.38672 1.3242-1.3e-5 0.90625-0.59376 1.6445-1.7812 2.2148-0.96876 0.46094-1.9609 0.69141-2.9766 0.69141-2.5938 0-3.8906-1.2773-3.8906-3.832-3e-6 -1.6797 0.38281-4.332 1.1484-7.957zm-15.598 11.812c-1.6719 0-3.002-0.51562-3.9902-1.5469-0.98828-1.0312-1.4824-2.3867-1.4824-4.0664-2e-6 -2.6641 0.82031-5.1133 2.4609-7.3477 1.7891-2.4531 3.9687-3.6797 6.5391-3.6797 1.625 1.7e-5 2.9336 0.53127 3.9258 1.5938 0.96874 1.0313 1.4531 2.3672 1.4531 4.0078-1.6e-5 2.625-0.81252 5.0664-2.4375 7.3242-1.7813 2.4766-3.9375 3.7148-6.4688 3.7148zm0.80859-2.3672c1.2266 2e-6 2.1953-1.2266 2.9062-3.6797 0.52343-1.8047 0.78514-3.5351 0.78516-5.1914-1.1e-5 -2.0156-0.60157-3.0234-1.8047-3.0234-1.2656 1.4e-5 -2.2578 1.2227-2.9766 3.668-0.52344 1.7813-0.78516 3.5156-0.78516 5.2031-6e-6 2.0156 0.62499 3.0234 1.875 3.0234zm-23.166-12.915c1.0937-0.79686 2.2109-1.1953 3.3516-1.1953 1.125 1.6e-5 1.7812 0.90626 1.9688 2.7188 0.1953 2.0625 0.5078 4.9531 0.9375 8.6719l2.7656-4.7812c1.2422-2.1484 1.8633-3.8398 1.8633-5.0742-1.3e-5 -0.3203-0.07423-0.77733-0.22266-1.3711 2.4609 0.07814 3.6914 0.66408 3.6914 1.7578-1.6e-5 1.1406-0.97658 3.2305-2.9297 6.2695-1.9063 2.9844-3.9609 5.6563-6.1641 8.0156-2.4531 2.6328-4.2773 3.9492-5.4727 3.9492-1.2734-4e-6 -1.9102-0.4336-1.9102-1.3008 0-0.63282 0.35156-1.4297 1.0547-2.3906 0.45312 0.32812 0.91797 0.49219 1.3945 0.49219 1.1719-1e-6 2.1641-0.75 2.9766-2.25-1.1953-7.6094-2.2969-12.113-3.3047-13.512zm-16.84 14.414c-1.0625 0.47656-2.0156 0.71484-2.8594 0.71484-1.0938-1e-6 -1.6406-0.375-1.6406-1.125-2e-6 -0.5 0.10547-1.1484 0.31641-1.9453 1.8828-7.1094 2.8242-12.02 2.8242-14.73-5e-6 -0.54686-0.15235-1.0586-0.45703-1.5352 1.2812-0.65623 2.4609-0.98436 3.5391-0.98438 0.99218 2e-5 1.4883 0.3633 1.4883 1.0898-9e-6 1.9e-5 -0.21095 1.0625-0.63281 3.1875l-1.0195 5.1445c4.789-6.289 8.2383-9.4336 10.348-9.4336 1.0859 2.1e-5 1.6289 0.51174 1.6289 1.5352-2e-5 0.12502-0.05861 0.60939-0.17578 1.4531l-0.62109-0.02344c-1.9e-5 1.7e-5 -0.06252 1.7e-5 -0.1875 0-0.98439 1.7e-5 -2.0156 0.38674-3.0938 1.1602-0.82033 0.59377-1.7227 1.4531-2.707 2.5781-0.72658 0.88282-1.4531 1.7617-2.1797 2.6367 2.4609 5.3047 4.664 7.957 6.6094 7.957h0.12891c-0.35939 2.1328-1.3125 3.1992-2.8594 3.1992-1.4375 0-2.9375-1.293-4.5-3.8789-1.0703-1.7578-1.9609-3.6836-2.6719-5.7773-0.92188 4.2969-1.3828 6.9023-1.3828 7.8164-6e-6 0.24219 0.03515 0.5625 0.10547 0.96094z"/>
<path d="m1.9737-63.966c-2.2306-0.03093-4.3817 1.4027-5.2268 3.4645-0.88216 2.0255-0.42569 4.5416 1.1206 6.1217 1.4878 1.6011 3.9388 2.1854 5.9912 1.438 2.1273-0.72265 3.6958-2.8124 3.78-5.0599 0.14122-2.1848-1.1252-4.3686-3.0827-5.3438-0.79528-0.40868-1.6885-0.62192-2.5825-0.62057zm-2.719 3.4223c1.3228-0.03758 2.4935 1.1948 2.3878 2.5139-0.030689 1.3224-1.3205 2.4279-2.6322 2.2555-1.3187-0.09835-2.3569-1.4414-2.1189-2.7427 0.15486-1.1388 1.2133-2.0483 2.3634-2.0268zm2.1976-5.0122c-0.13214-0.04724-0.44424-0.48877-0.69371-0.98108-0.27791-0.54845-1.1398-1.5404-2.2252-2.5609-2.0981-1.9727-2.6325-2.786-2.6325-4.0068 0-1.8268 1.4323-2.8454 4.0014-2.8454 2.4342 0 4.4552 1.2557 5.0831 3.158 0.57499 1.7423-0.16976 4.2152-1.8233 6.0545-0.92928 1.0336-1.3368 1.3151-1.7098 1.1816zm5.7252 2.5594c-0.53221-0.30997-0.39793-0.63235 0.97733-2.3464 0.74361-0.92684 1.7359-2.483 2.3054-3.6157 1.0908-2.1695 1.6365-2.7077 2.9743-2.9338 2.3249-0.39278 4.4837 1.5282 4.4744 3.9811-0.01088 2.9019-1.7262 4.0639-7.1331 4.8323-2.2918 0.32572-3.1472 0.34536-3.5984 0.08264zm-18.829 0.67519c-2.176-0.39487-3.2162-0.81974-4.1148-1.6808-0.79623-0.76292-0.8248-0.8295-0.8248-1.9214 0-2.201 1.7517-3.7954 4.1798-3.8046 1.4397-6e-3 2.1666 0.39531 3.7941 2.092 0.72429 0.75514 2.1417 1.9542 3.1498 2.6645 1.9445 1.3701 2.1283 1.6963 1.2051 2.1388-1.5508 0.7433-4.8525 0.97183-7.3892 0.51153zm-0.90791 17.813c-2.0873-0.74428-3.022-3.8078-1.7766-5.8229 0.65308-1.0567 1.3247-1.3156 3.1829-1.2273 4.062 0.19311 5.1381 0.13411 6.1433-0.33725 0.52485-0.24605 1.0872-0.39638 1.2497-0.33406 0.49531 0.1901 0.36173 1.4326-0.29542 2.7476-1.6202 3.2424-6.0665 5.8431-8.5039 4.9739zm23.768 0.90724c-0.92633-0.20056-1.6504-1.1947-2.0963-2.878-0.54725-2.0662-0.98156-3.0405-1.8944-4.2496-0.40902-0.54174-0.74366-1.113-0.74366-1.2695 0-1.043 4.5584-1.2062 6.6439-0.23776 2.3401 1.0866 3.4822 2.5348 3.4822 4.4156 0 1.2137-0.32098 2.0021-1.1443 2.811-1.1564 1.1362-2.8739 1.7055-4.2475 1.4082zm-11.485 4.4425c-3.6039-0.7014-4.2899-5.0728-1.1983-7.6361 1.91-1.5835 2.3607-2.0791 2.9546-3.2475 0.34072-0.67038 0.73895-1.2189 0.88495-1.2189 0.34742 0 1.7766 2.8771 2.1386 4.3055 0.40219 1.5866 0.36779 4.3044-0.066452 5.2581-0.78821 1.7307-2.9321 2.8855-4.7133 2.5388z"/>
</g>
</g>
</svg>
