<?xml version="1.0" encoding="UTF-8"?>
<svg version="1.1" viewBox="0 0 300 74.99" xmlns="http://www.w3.org/2000/svg" xmlns:cc="http://creativecommons.org/ns#" xmlns:dc="http://purl.org/dc/elements/1.1/" xmlns:rdf="http://www.w3.org/1999/02/22-rdf-syntax-ns#">
<title>Madhouse Studio logo</title>
 <g transform="translate(-225 -494.87)" style="fill:#040404">
  <g transform="matrix(4.3814 0 0 4.3814 1580.2 -4023.1)" style="fill:#040404">
   <path d="m-267.29 1035.8v-3.1113h21.785l4.6738 4.675-4.6738 4.67h-12.448v-3.1162h10.896l0.77125-0.7725c0.39375-0.3925 0.39375-1.1738 0-1.5638l-0.77125-0.7812h-13.232c-0.38625 0-0.77875 0.395-0.77875 0.7812v5.4525h-7.775l-5.4512-5.4525c-0.3875-0.3862-1.1688-0.3862-1.5525 0l-1.5588 1.5638c-0.39 0.3875-0.39 0.7725 0 0.7725h2.3338v3.1162h-12.448v-5.4525c0-0.3862-0.38875-0.7812-0.78375-0.7812h-0.77375l-7.7788 7.7862-7.7812-7.7862h-0.7775c-0.38625 0-0.77375 0.395-0.77375 0.7812v5.4525h-3.115v-9.345h6.2175l5.4538 5.4563c0.3825 0.3875 1.1688 0.3812 1.5525 0l5.4438-5.4563h6.2275v5.4563c0 0.3875 0.3875 0.7725 0.775 0.7725h0.77875l7.7825-7.78 7.7812 7.78h2.34c0.3825 0 0.77625-0.385 0.77625-0.7725v-2.345h-3.1162" style="fill:#040404"/>
   <path d="m-258.03 1043.6c0.8 0 1.4562 0.6613 1.4562 1.4638h-1.4562c0-0.175-0.12875-0.2963-0.2875-0.2963h-1.1712c-0.1625 0-0.29375 0.1213-0.29375 0.2963 0 0.1625 0.13125 0.2862 0.29375 0.2862h1.4588c0.8 0 1.4562 0.6588 1.4562 1.46 0 0.8038-0.65625 1.4538-1.4562 1.4538h-1.7525c-0.8075 0-1.4575-0.65-1.4575-1.4538h1.4575c0 0.1625 0.13125 0.2938 0.29375 0.2938h1.1712c0.15875 0 0.2875-0.1313 0.2875-0.2938s-0.12875-0.2937-0.2875-0.2937h-1.465c-0.8075 0-1.4575-0.6438-1.4575-1.4525 0-0.8025 0.65-1.4638 1.4575-1.4638h1.7525" style="fill:#040404"/>
   <path d="m-290.15 1046.8c0 0.1625-0.13125 0.2937-0.29 0.2937h-1.1662c-0.16375 0-0.2925-0.1312-0.2925-0.2937v-1.7475c0-0.1725 0.12875-0.2988 0.2925-0.2988h1.1662c0.15875 0 0.29 0.1263 0.29 0.2988zm1.4575-1.7475c0-0.8038-0.65375-1.4625-1.4575-1.4625h-1.7488c-0.81125 0-1.4625 0.6587-1.4625 1.4625v1.7475c0 0.8037 0.65125 1.4562 1.4625 1.4562h1.7488c0.80375 0 1.4575-0.6525 1.4575-1.4562v-1.7475" style="fill:#040404"/>
   <path d="m-272.74 1046.8c0 0.8037-0.65875 1.4562-1.4625 1.4562h-1.7488c-0.8075 0-1.4562-0.6525-1.4562-1.4562v-3.21h1.4562v3.21c0 0.1625 0.13375 0.2937 0.2925 0.2937h1.17c0.15875 0 0.28625-0.1312 0.28625-0.2937v-3.21h1.4625v3.21" style="fill:#040404"/>
   <path d="m-245.69 1043.6h4.0788v1.1675h-2.625v0.5825h2.625v1.1663h-2.625v0.5875h2.625v1.16h-4.0788z" style="fill:#040404"/>
   <path d="m-309.31 1043.6h1.4612v1.75h1.7475v-1.75h1.4562v4.6638h-1.4562v-1.7475h-1.7475v1.7475h-1.4612z" style="fill:#040404"/>
   <path d="m-243.28 1041.3h-0.28375v-0.1813h0.7775v0.1813h-0.28625v0.7812h-0.2075z" style="fill:#040404"/>
   <path d="m-242.64 1041.1h0.29875l0.22 0.6613 0.21-0.6613h0.29375v0.96h-0.1925v-0.6762h-6e-3l-0.23125 0.6762h-0.16l-0.22375-0.6737h-0.01v0.6737h-0.19875z" style="fill:#040404"/>
   <path d="m-267.29 1035.8v-3.1113h21.785l4.6738 4.675-4.6738 4.67h-12.448v-3.1162h10.896l0.77125-0.7725c0.39375-0.3925 0.39375-1.1738 0-1.5638l-0.77125-0.7812h-13.232c-0.38625 0-0.77875 0.395-0.77875 0.7812v5.4525h-7.775l-5.4512-5.4525c-0.3875-0.3862-1.1688-0.3862-1.5525 0l-1.5588 1.5638c-0.39 0.3875-0.39 0.7725 0 0.7725h2.3338v3.1162h-12.448v-5.4525c0-0.3862-0.38875-0.7812-0.78375-0.7812h-0.77375l-7.7788 7.7862-7.7812-7.7862h-0.7775c-0.38625 0-0.77375 0.395-0.77375 0.7812v5.4525h-3.115v-9.345h6.2175l5.4538 5.4563c0.3825 0.3875 1.1688 0.3812 1.5525 0l5.4438-5.4563h6.2275v5.4563c0 0.3875 0.3875 0.7725 0.775 0.7725h0.77875l7.7825-7.78 7.7812 7.78h2.34c0.3825 0 0.77625-0.385 0.77625-0.7725v-2.345h-3.1162" style="fill:#040404"/>
   <path d="m-258.03 1043.6c0.8 0 1.4562 0.6613 1.4562 1.4638h-1.4562c0-0.175-0.12875-0.2963-0.2875-0.2963h-1.1712c-0.1625 0-0.29375 0.1213-0.29375 0.2963 0 0.1625 0.13125 0.2862 0.29375 0.2862h1.4588c0.8 0 1.4562 0.6588 1.4562 1.46 0 0.8038-0.65625 1.4538-1.4562 1.4538h-1.7525c-0.8075 0-1.4575-0.65-1.4575-1.4538h1.4575c0 0.1625 0.13125 0.2938 0.29375 0.2938h1.1712c0.15875 0 0.2875-0.1313 0.2875-0.2938s-0.12875-0.2937-0.2875-0.2937h-1.465c-0.8075 0-1.4575-0.6438-1.4575-1.4525 0-0.8025 0.65-1.4638 1.4575-1.4638h1.7525" style="fill:#040404"/>
   <path d="m-290.15 1046.8c0 0.1625-0.13125 0.2937-0.29 0.2937h-1.1662c-0.16375 0-0.2925-0.1312-0.2925-0.2937v-1.7475c0-0.1725 0.12875-0.2988 0.2925-0.2988h1.1662c0.15875 0 0.29 0.1263 0.29 0.2988zm1.4575-1.7475c0-0.8038-0.65375-1.4625-1.4575-1.4625h-1.7488c-0.81125 0-1.4625 0.6587-1.4625 1.4625v1.7475c0 0.8037 0.65125 1.4562 1.4625 1.4562h1.7488c0.80375 0 1.4575-0.6525 1.4575-1.4562v-1.7475" style="fill:#040404"/>
   <path d="m-272.74 1046.8c0 0.8037-0.65875 1.4562-1.4625 1.4562h-1.7488c-0.8075 0-1.4562-0.6525-1.4562-1.4562v-3.21h1.4562v3.21c0 0.1625 0.13375 0.2937 0.2925 0.2937h1.17c0.15875 0 0.28625-0.1312 0.28625-0.2937v-3.21h1.4625v3.21" style="fill:#040404"/>
   <path d="m-245.69 1043.6h4.0788v1.1675h-2.625v0.5825h2.625v1.1663h-2.625v0.5875h2.625v1.16h-4.0788z" style="fill:#040404"/>
   <path d="m-309.31 1043.6h1.4612v1.75h1.7475v-1.75h1.4562v4.6638h-1.4562v-1.7475h-1.7475v1.7475h-1.4612z" style="fill:#040404"/>
   <path d="m-243.28 1041.3h-0.28375v-0.1813h0.7775v0.1813h-0.28625v0.7812h-0.2075z" style="fill:#040404"/>
   <path d="m-242.64 1041.1h0.29875l0.22 0.6613 0.21-0.6613h0.29375v0.96h-0.1925v-0.6762h-6e-3l-0.23125 0.6762h-0.16l-0.22375-0.6737h-0.01v0.6737h-0.19875z" style="fill:#040404"/>
  </g>
 </g>
</svg>
