<?xml version="1.0" encoding="utf-8"?>
<!-- Generator: Adobe Illustrator 12.0.0, SVG Export Plug-In . SVG Version: 6.00 Build 51448)  -->
<!DOCTYPE svg PUBLIC "-//W3C//DTD SVG 1.1//EN" "http://www.w3.org/Graphics/SVG/1.1/DTD/svg11.dtd" [
	<!ENTITY ns_svg "http://www.w3.org/2000/svg">
	<!ENTITY ns_xlink "http://www.w3.org/1999/xlink">
]>
<svg  version="1.1" id="レイヤー_1" xmlns="&ns_svg;" xmlns:xlink="&ns_xlink;" width="210" height="78.841"
	 viewBox="0 0 210 78.841" overflow="visible" enable-background="new 0 0 210 78.841" xml:space="preserve">
<path fill="#CBCCCC" d="M160.436,63.129c-0.242,7.682-25.686,2.852-56.816-10.791C72.48,38.698,47.439,21.413,47.684,13.731
	c0.243-7.68,25.684-2.849,56.817,10.793C135.639,38.165,160.682,55.452,160.436,63.129 M104.457,25.915
	C76.436,13.639,53.542,9.29,53.321,16.203c-0.221,6.913,22.317,22.469,50.338,34.745c28.024,12.277,50.918,16.626,51.138,9.712
	C155.02,53.749,132.479,38.189,104.457,25.915"/>
<path fill="#CBCCCC" d="M25.279,45.764c-1.073-3.639,32.355-9.729,74.666-13.605c40.983-3.756,75.262-4.056,78.355-0.764
	c2.794-0.236,5.419-0.68,8.099-1.127c-5.271-3.325-42.461-2.893-86.667,1.158c-47.013,4.31-84.155,11.078-82.963,15.121
	c0.047,0.161,0.161,0.313,0.327,0.462c2.895-0.117,5.824-0.277,8.606-0.723C25.478,46.12,25.334,45.948,25.279,45.764"/>
<path fill="#CBCCCC" d="M186.398,30.266c-2.682,0.447-5.308,0.89-8.101,1.126c0.103,0.107,0.167,0.216,0.2,0.331
	c1.07,3.639-32.354,9.732-74.666,13.609c-40.187,3.683-73.926,4.043-78.135,0.953c-2.782,0.44-5.712,0.603-8.606,0.722
	c3.998,3.557,41.816,3.194,86.956-0.943c47.016-4.308,84.156-11.077,82.967-15.12C186.943,30.702,186.732,30.476,186.398,30.266"/>
<path fill="#CBCCCC" d="M133.096,0c8.268-0.087-3.863,16.259-27.098,36.504c-23.232,20.248-48.769,36.73-57.037,36.814
	c-8.264,0.088,3.867-16.256,27.1-36.502C99.294,16.568,124.83,0.084,133.096,0 M77.558,36.799
	C56.649,55.024,45.729,69.731,53.169,69.653c7.439-0.073,30.42-14.906,51.332-33.13c20.911-18.221,31.83-32.931,24.39-32.854
	C121.45,3.743,98.468,18.579,77.558,36.799"/>
<path fill="#E6211A" d="M179.813,13.472c-28.813,1.99-44.146,9.435-48.736,14.357c-1.188,1.267-1.654,2.37-1.455,3.165
	c2.068,6.669,29.513,5.234,30.496,15.11c0,8.334-19.424,12.963-37.635,15.471c2.707-2.113,4.557-5.494,4.744-9.348l-0.008-22.325
	h-2.922h-5.1v1.525v20.124h-6.518V33.334v-3.432h-8.021v5.706v16.61h0.016c0.235,4.787,2.991,8.855,6.84,10.653
	c-4.496,0.454-6.959,0.615-8.305,0.646c1.768,0.189,5.326,0.426,11.732,0.295c0.33,0.028,0.658,0.049,0.994,0.049
	c0.477,0,0.941-0.035,1.402-0.098c2.549-0.054,4.777-0.093,6.374-0.113c7.231-0.096,22.524-0.488,29.749-0.846
	c7.26-0.363,31.787-4.521,34.004-12.046c2.822-9.569-20.527-15.874-28.997-17.843c-6.075-1.866-25.577-9.264,16.485-15.458
	C209.629,13.143,210,20.356,210,20.356S210.436,12.45,179.813,13.472"/>
<path fill="#E6211A" d="M0,78.841C0.209,43.067,18.389,0.838,32.996,2.273c9.96,0.979,13.062,30.333,13.427,36.236
	c2.495,21.257,27.39-34.934,27.39-34.934s-25.849,66.737-36.158,58.05c-4.396-1.926-0.625-34.932-8.034-37.531
	C19.096,19.026,1.423,53.202,0,78.841"/>
<path fill="#E6211A" d="M102.91,53.479l-4.004-6.791l4.004-6.79v-3.807v-6.241h-6.512l-3.713,6.295l-3.708-6.295h-6.513v10.045
	l0.854,1.446l3.152,5.346l-4.006,6.791v10.047h6.513l3.708-6.293l3.713,6.293h6.512v-0.01c0.093,0,0.193-0.002,0.302-0.006
	c-0.108-0.012-0.205-0.021-0.302-0.033V53.479z"/>
<path fill="#E6211A" d="M57.724,46.688c0,0.679,0.038,1.338,0.101,1.992c0.827,8.354,6.776,14.836,13.999,14.836h8.985v-9.983
	h-8.985v-1.955h8.985v-9.611v-0.379h-8.985v-1.736h8.985V29.86h-8.985C64.036,29.859,57.724,37.394,57.724,46.688"/>
<g>
	<path fill="#CBCCCC" d="M187.014,30.942c-0.07-0.241-0.281-0.467-0.615-0.677c-2.678,0.447-5.305,0.89-8.098,1.127
		c0.1,0.106,0.167,0.216,0.2,0.33c1.073,3.639-32.354,9.733-74.666,13.61c-3.185,0.292-6.327,0.563-9.418,0.813
		c3.865-3.074,7.753-6.305,11.581-9.641c23.232-20.244,35.363-36.59,27.098-36.503c-0.595,0.005-1.281,0.099-2.049,0.272
		c-1.793,1.25-2.958,2.547-4.671,3.803c0.965-0.261,1.813-0.404,2.515-0.409c7.44-0.078-3.479,14.632-24.39,32.853
		c-3.786,3.299-7.641,6.487-11.457,9.498C70.162,34.77,53.128,22.215,53.321,16.206l-5.638-2.47
		c-0.212,6.602,18.268,20.305,43.243,32.688C56.63,49.053,29.45,49.038,25.7,46.286c-2.783,0.441-5.713,0.604-8.607,0.722
		c3.626,3.228,35.054,3.229,74.538,0.116c-16.749,13.044-32.538,22.47-38.463,22.529l-4.208,3.666
		c6.725-0.066,24.869-10.98,43.908-25.945c3.477,1.691,7.069,3.354,10.748,4.966c21.924,9.606,41.026,14.845,50.493,14.419
		l-3.801-2.927c-8.022,0.935-25.938-3.81-46.649-12.883c-3.028-1.327-5.992-2.691-8.871-4.079c3.049-0.25,6.137-0.52,9.261-0.807
		C151.063,41.755,188.206,34.985,187.014,30.942"/>
</g>
</svg>
