<?xml version="1.0" encoding="UTF-8" standalone="no"?>
<svg
   xmlns:dc="http://purl.org/dc/elements/1.1/"
   xmlns:cc="http://creativecommons.org/ns#"
   xmlns:rdf="http://www.w3.org/1999/02/22-rdf-syntax-ns#"
   xmlns:svg="http://www.w3.org/2000/svg"
   xmlns="http://www.w3.org/2000/svg"
   xmlns:sodipodi="http://sodipodi.sourceforge.net/DTD/sodipodi-0.dtd"
   xmlns:inkscape="http://www.inkscape.org/namespaces/inkscape"
   inkscape:version="1.0 (4035a4fb49, 2020-05-01)"
   sodipodi:docname="Orange (estudio) logo.svg"
   viewBox="0 0 1676 656"
   height="656"
   width="1676"
   id="svg42"
   version="1.1">
  <metadata
     id="metadata48">
    <rdf:RDF>
      <cc:Work
         rdf:about="">
        <dc:format>image/svg+xml</dc:format>
        <dc:type
           rdf:resource="http://purl.org/dc/dcmitype/StillImage" />
        <dc:title></dc:title>
      </cc:Work>
    </rdf:RDF>
  </metadata>
  <defs
     id="defs46" />
  <sodipodi:namedview
     inkscape:current-layer="g50"
     inkscape:window-maximized="1"
     inkscape:window-y="-8"
     inkscape:window-x="-8"
     inkscape:cy="328"
     inkscape:cx="838"
     inkscape:zoom="0.63842482"
     showgrid="false"
     id="namedview44"
     inkscape:window-height="1017"
     inkscape:window-width="1920"
     inkscape:pageshadow="2"
     inkscape:pageopacity="0"
     guidetolerance="10"
     gridtolerance="10"
     objecttolerance="10"
     borderopacity="1"
     bordercolor="#666666"
     pagecolor="#ffffff" />
  <g
     id="g50"
     inkscape:label="Image"
     inkscape:groupmode="layer">
    <path
       id="path56"
       d="M 431.86476,631.66667 C 431.79036,630.75 431.53523,575.1 431.29776,508 c -0.39876,-112.67969 -1.034,-133.83933 -3.80268,-126.66667 -0.4246,1.1 -2.58375,7.60119 -4.79809,14.4471 -14.074,43.51132 -48.83378,88.69625 -89.4505,116.27854 -18.81798,12.77906 -45.20761,22.90992 -71.8973,27.60108 -18.32371,3.22071 -71.76764,3.18263 -89.21523,-0.0636 C 114.70815,528.91219 62.484752,489.99728 31.31922,434.66667 17.721857,410.5262 10.735261,389.76203 4.6369836,355.36703 0.630738,332.77132 0.51167088,322.40453 4.0225265,301.86824 13.423511,246.87837 30.740355,211.31203 65.832911,174.91845 88.433956,151.47951 108.3355,137.49361 134,127.01376 c 27.88055,-11.38476 53.55379,-16.33763 84.66667,-16.33387 30.98246,0.004 55.06028,4.58304 83.33333,15.84894 55.44788,22.09421 105.26985,79.10728 123.41096,141.22358 l 4.93981,16.91426 0.97254,-15.47552 c 0.53489,-8.51155 0.55829,-17.36155 0.052,-19.66667 l -0.92052,-4.19115 h 24.66356 c 13.56494,0 25.61262,-0.36418 26.7726,-0.80932 1.85516,-0.71189 2.1115,1.25432 2.12946,16.33334 0.0107,9.42846 0.54415,17.96952 1.18427,18.98014 1.4064,2.22043 1.16392,2.36075 18.12865,-10.49133 15.275,-11.57197 31.96904,-20.56168 49.53887,-26.67659 14.33928,-4.99056 17.81337,-7.9524 28.15432,-24.0029 14.86179,-23.06747 33.30253,-44.36802 52.30681,-60.41859 21.91288,-18.50711 38.72171,-27.93837 66.66667,-37.406 12.31013,-4.17062 21.93019,-6.16992 55.33333,-11.49971 5.20176,-0.82999 8.75547,-2.19747 10.15983,-3.90953 1.18791,-1.44819 4.04172,-8.446635 6.3418,-15.552109 11.35447,-35.076519 31.76655,-54.191552 75.18836,-70.410627 15.03881,-5.617357 32.06235,-9.836628 41.64335,-10.3212757 5.60629,-0.2835902 6.60533,0.018096 6.28106,1.8967257 -1.0031,5.81139 -15.77597,43.108345 -22.27346,56.233634 -8.86159,17.900913 -17.71266,29.871787 -30.74508,41.582042 -5.41842,4.8687 -9.5472,9.34482 -9.17508,9.94692 0.37212,0.6021 8.90468,5.31561 18.96124,10.47447 22.73408,11.66223 37.17529,22.42755 60.43353,45.05071 C 922.13832,184.05 930.69141,192 931.15575,192 931.62009,192 932,176.1 932,156.66667 v -35.33334 h 26 26 v 206 206 h -25.79376 -25.79376 l -0.77431,-32.79029 c -0.42588,-18.03467 -1.10384,-33.11981 -1.50657,-33.52255 -0.40273,-0.40273 -6.38511,4.67192 -13.29415,11.277 -36.41578,34.81372 -71.96822,54.13683 -113.98862,61.95392 -20.53558,3.82027 -54.59239,4.06276 -74.18216,0.52822 -32.34778,-5.83644 -59.60864,-17.71959 -86,-37.4878 -51.30451,-38.4292 -77.78119,-83.46794 -87.37144,-148.62516 -2.22904,-15.14424 -2.16444,-35.78784 0.20958,-66.98619 0.95728,-12.58023 -0.10946,-13.43189 -10.36984,-8.27868 -23.52877,11.81723 -43.06989,33.06 -50.22461,54.5982 -7.42532,22.35284 -9.06585,53.77797 -10.38868,199 l -0.91393,100.33333 h -25.80388 c -19.68208,0 -25.83595,-0.3954 -25.93911,-1.66666 z M 239.33333,494.62491 c 44.94286,-5.0681 85.95571,-30.47564 112.5852,-69.74672 6.64475,-9.79916 18.14668,-33.6551 21.63763,-44.87819 2.96711,-9.53899 3.11051,-11.84407 3.11051,-50 0,-45.442 -0.38908,-47.99049 -10.56295,-69.18811 -8.62288,-17.96609 -18.31188,-31.63805 -33.73273,-47.5996 -16.55916,-17.13977 -32.14256,-28.57129 -51.70432,-37.92878 -21.34134,-10.20876 -23.8482,-10.62307 -64,-10.57746 -34.27348,0.0389 -34.78452,0.0807 -45.05778,3.67664 -23.00386,8.05215 -43.59856,21.03347 -62.69116,39.51571 -19.456243,18.83425 -29.649785,33.50127 -39.944351,57.47409 -9.207683,21.4418 -10.904643,31.46307 -10.830875,63.96084 0.06951,30.62235 1.054657,37.86102 7.946968,58.39286 4.520048,13.46498 14.989373,33.53204 23.12044,44.31604 20.320348,26.95029 52.025158,48.91424 83.657078,57.95461 20.57865,5.88136 42.07758,7.37833 66.46634,4.62807 z M 228.4254,386.8592 c -13.08095,-4.52021 -25.50021,-18.08155 -30.46807,-33.26991 -3.31444,-10.13329 -2.27064,-26.43669 2.33616,-36.48949 7.04244,-15.36775 21.59254,-26.31257 38.5898,-29.02791 40.73854,-6.50801 71.79166,36.26658 53.14502,73.20538 -7.30315,14.46742 -16.61891,22.32509 -31.00966,26.156 -9.68498,2.57821 -24.21134,2.32236 -32.59325,-0.57407 z m 566.64591,107.15484 c 31.96345,-4.81787 65.17941,-21.39416 89.33016,-44.57983 43.66828,-41.92329 60.27584,-104.35 44.2102,-166.18325 -12.64948,-48.68523 -50.16115,-92.10609 -95.56196,-110.61583 -20.86452,-8.50637 -23.72774,-8.87153 -65.44252,-8.3461 L 730,164.76271 l -12,4.43645 c -25.54265,9.4432 -42.90647,20.6216 -62.05359,39.94857 -24.15436,24.38127 -39.12276,51.39422 -46.113,83.21854 -3.28072,14.93602 -3.92782,46.97101 -1.25846,62.3004 10.70164,61.45666 54.31534,113.9191 110.75838,133.22998 23.20418,7.93887 49.54088,10.06608 75.73798,6.11739 z M 782.40428,387.5418 c -8.84576,-2.48632 -16.09764,-7.6884 -23.07732,-16.55432 -9.15709,-11.63176 -11.68216,-19.61308 -11.08311,-35.03192 0.40622,-10.45532 1.13059,-14.01252 4.08174,-20.04444 9.60338,-19.62861 32.99564,-31.84664 53.65921,-28.02677 17.37159,3.2113 31.26855,13.53636 38.76237,28.79933 3.55706,7.24479 3.91563,9.21593 3.87768,21.31632 -0.038,12.11901 -0.42349,14.14701 -4.23253,22.26761 -5.16109,11.00307 -14.05853,20.1384 -24.13032,24.77548 -9.09379,4.18682 -27.52405,5.40326 -37.85772,2.49871 z m 523.22032,208.39572 c -12.8102,-1.59319 -32.1676,-8.15083 -43.032,-14.57784 -10.0383,-5.93828 -25.2326,-21.41196 -31.5279,-32.10743 -7.3381,-12.46732 -7.5617,-11.91892 4.8589,-11.91892 13.1061,0 16.0996,1.33506 28.3194,12.6301 10.817,9.99837 21.5344,15.90289 35.2183,19.40265 34.6407,8.85959 75.3232,-5.11625 86.5678,-29.73896 5.8306,-12.76785 10.5192,-38.13385 8.1768,-44.23811 -1.0575,-2.75584 -3.7563,-1.41493 -14.0862,6.99888 -8.5626,6.97438 -19.7201,12.49776 -32.1197,15.90046 -6.6181,1.81614 -13.3943,2.35817 -28.6667,2.29309 -18.2009,-0.0776 -20.9595,-0.41432 -30.6666,-3.74368 -29.7271,-10.19584 -52.7726,-33.33743 -60.7154,-60.96849 -1.7949,-6.244 -3.106,-15.55556 -3.5695,-25.3494 -1.469,-31.0443 7.5998,-53.68618 29.8533,-74.53422 11.2292,-10.52012 22.926,-17.54769 37.0982,-22.28926 9.5012,-3.17876 12.7064,-3.57335 29.3334,-3.61115 16.844,-0.0383 19.7081,0.31016 29.3333,3.56871 12.3417,4.17825 24.0301,10.79928 34.9325,19.78801 4.2259,3.48411 8.0579,6.10335 8.5155,5.82052 0.4576,-0.28283 1.1637,-5.35456 1.5693,-11.27052 0.4055,-5.91596 1.4659,-11.63432 2.3566,-12.70745 1.1782,-1.41968 4.5712,-1.95136 12.456,-1.95188 l 10.8368,-7.1e-4 -0.3298,43.00071 c -0.1814,23.65038 -0.936,69.23118 -1.6768,101.29066 l -1.347,58.28995 -6.6656,11.58377 c -3.666,6.37107 -8.7576,14.13679 -11.3146,17.25715 -6.0297,7.35864 -18.7149,16.84501 -29.2456,21.8708 -16.7926,8.01441 -43.6748,11.89792 -64.4627,9.31256 z m 40.7009,-101.8228 c 29.036,-7.76216 48.3017,-34.39875 48.3017,-66.78139 0,-40.96324 -30.9147,-72.80805 -70.6272,-72.75222 -20.006,0.0281 -36.0132,6.25628 -49.7617,19.36154 -31.1807,29.72198 -32.7403,74.31396 -3.6176,103.43666 10.4487,10.44872 22.0479,16.63609 34.7126,18.51676 10.8013,1.60394 31.731,0.69442 40.9922,-1.78135 z m 195.0078,32.38121 c -19.5858,-2.39313 -36.201,-10.50365 -51.1202,-24.95382 -13.655,-13.22567 -24.1582,-31.37331 -28.286,-48.87287 -2.4726,-10.48221 -2.4446,-35.36824 0.053,-47.24196 6.9704,-33.13644 31.3328,-61.70651 61.1432,-71.70337 9.9293,-3.32976 12.6184,-3.64714 30.8765,-3.64403 29.0906,0.005 42.4463,3.77301 60.253,16.99943 20.8176,15.46289 37.5032,45.82805 41.129,74.84842 l 0.9252,7.4056 -68.4869,0.10107 c -73.2485,0.10813 -98.8096,1.02151 -101.4117,3.62364 -2.599,2.59903 0.866,16.6868 7.2825,29.60857 12.5791,25.33242 36.2323,40.69924 62.3405,40.50102 21.036,-0.15972 35.6491,-7.11688 55.9555,-26.64003 7.7071,-7.40979 15.2411,-14.11565 16.742,-14.90192 3.2175,-1.6854 8.3353,0.39603 15.3281,6.23381 l 4.4548,3.71907 -3.048,5.16612 c -4.9624,8.41053 -18.9177,24.27628 -26.7973,30.46565 -11.1269,8.74016 -22.152,13.70658 -36.8524,16.60078 -16.2889,3.20694 -29.1996,4.0632 -40.4809,2.68477 z m 79.3126,-120.3597 c 3.8405,-2.51642 3.6358,-5.47979 -1.0224,-14.8029 -3.7746,-7.55448 -21.6562,-24.97477 -29.9312,-29.15906 -14.443,-7.30306 -35.9168,-9.56056 -51.7395,-5.43927 -18.3044,4.76767 -35.0969,18.51281 -43.7697,35.82665 -2.6674,5.325 -4.8498,10.31286 -4.8498,11.08411 0,4.29007 19.7111,5.54828 79.6307,5.08305 42.3807,-0.32905 48.712,-0.64666 51.6819,-2.59258 z M 1020,427.33333 v -94 h 10.588 c 7.0125,0 10.9482,0.56282 11.6547,1.66667 0.5867,0.91667 1.4064,6.60095 1.8215,12.63172 0.4152,6.03079 1.1733,11.38351 1.6847,11.89495 0.5114,0.51142 3.1771,-0.99022 5.9238,-3.33699 25.4411,-21.737 40.9727,-27.86171 66.994,-26.41825 20.4186,1.13266 35.2785,7.76904 47.2763,21.11344 13.8993,15.45938 16.6484,27.48886 17.4709,76.44846 0.3326,19.8 0.8599,49.05 1.1716,65 l 0.5668,29 h -12.3629 -12.3629 l -0.8799,-32.2159 c -0.484,-17.71875 -0.8804,-41.26875 -0.8811,-52.33334 0,-38.29262 -3.4268,-58.30418 -11.7639,-68.73958 -4.8883,-6.11864 -17.763,-13.01246 -26.3342,-14.10082 -10.1743,-1.29192 -26.9821,1.19531 -36.2825,5.36908 -9.3986,4.21787 -24.6917,19.00664 -29.5814,28.606 -5.3208,10.44555 -7.9369,27.65062 -9.3384,61.41456 -0.7154,17.23334 -1.3151,40.48334 -1.3329,51.66667 L 1044,521.33333 h -12 -12 z"
       style="fill:#000000;stroke-width:1.33333" />
  </g>
</svg>
