<?xml version="1.0" encoding="UTF-8" standalone="no"?>
<!-- Created with Inkscape (http://www.inkscape.org/) -->

<svg
   xmlns:dc="http://purl.org/dc/elements/1.1/"
   xmlns:cc="http://creativecommons.org/ns#"
   xmlns:rdf="http://www.w3.org/1999/02/22-rdf-syntax-ns#"
   xmlns:svg="http://www.w3.org/2000/svg"
   xmlns="http://www.w3.org/2000/svg"
   xmlns:sodipodi="http://sodipodi.sourceforge.net/DTD/sodipodi-0.dtd"
   xmlns:inkscape="http://www.inkscape.org/namespaces/inkscape"
   version="1.1"
   id="svg3713"
   width="200"
   height="95"
   viewBox="0 0 200 95"
   sodipodi:docname="Production_I.G_Logo.svg"
   inkscape:version="0.92.3 (2405546, 2018-03-11)">
  <metadata
     id="metadata3719">
    <rdf:RDF>
      <cc:Work
         rdf:about="">
        <dc:format>image/svg+xml</dc:format>
        <dc:type
           rdf:resource="http://purl.org/dc/dcmitype/StillImage" />
        <dc:title></dc:title>
      </cc:Work>
    </rdf:RDF>
  </metadata>
  <defs
     id="defs3717" />
  <sodipodi:namedview
     pagecolor="#ffffff"
     bordercolor="#666666"
     borderopacity="1"
     objecttolerance="10"
     gridtolerance="10"
     guidetolerance="10"
     inkscape:pageopacity="0"
     inkscape:pageshadow="2"
     inkscape:window-width="1366"
     inkscape:window-height="706"
     id="namedview3715"
     showgrid="false"
     inkscape:zoom="1.9352396"
     inkscape:cx="100"
     inkscape:cy="99.840321"
     inkscape:window-x="-8"
     inkscape:window-y="-8"
     inkscape:window-maximized="1"
     inkscape:current-layer="svg3713" />
  <path
     style="fill:#000000;stroke-width:1.27758491"
     d="m 114.75622,90.166515 -3.33834,-3.684851 V 62.16102 c 0,-13.376355 0.58564,-27.670838 1.30143,-31.765517 1.35712,-7.763532 6.87392,-21.9414051 8.53769,-21.9414051 2.34701,0 9.05091,4.4447331 10.68727,7.0857381 0.9894,1.596823 1.85209,4.942063 1.91711,7.433869 0.23445,8.985262 -3.40464,29.527019 -6.27221,35.404951 -6.09573,12.495012 -7.83213,25.27824 -3.74765,27.589886 3.36344,1.903565 3.1802,6.065461 -0.31059,7.054753 -4.49339,1.273429 -5.25856,1.024311 -8.77471,-2.85678 z m 30.34421,2.584305 c -4.13734,-0.618603 -9.31936,-7.571208 -10.16938,-13.644029 -0.86712,-6.19503 0.1078,-7.014348 5.09901,-4.284908 2.52005,1.378099 4.68473,4.188009 6.30415,8.183196 3.07795,7.593473 2.73045,10.338459 -1.23378,9.745741 z m 41.47756,-2.32238 c -0.41892,-2.091648 -1.27601,-6.22958 -1.90468,-9.195403 -0.62864,-2.965824 -1.25242,-9.874709 -1.38618,-15.353079 l -0.24316,-9.960673 -3.54806,1.940278 c -1.95143,1.067153 -4.03566,1.621598 -4.6316,1.2321 -0.99847,-0.652562 -4.09903,-8.595832 -3.35531,-8.595832 0.77791,0 15.67627,2.771988 22.29682,4.148543 7.83673,1.629423 7.4851,4.35239 -0.3919,3.034873 l -4.34827,-0.727299 -0.41988,11.432139 c -0.23092,6.287676 -0.6241,12.553618 -0.87371,13.924316 -0.24961,1.370699 0.17574,3.953432 0.94523,5.739405 1.03082,2.392471 1.03363,3.633695 0.0111,4.715426 -1.02291,1.081733 -1.58886,0.467153 -2.15001,-2.334794 z M 23.084312,85.720159 C 20.698387,81.00566 21.28285,72.970766 24.239117,69.844503 c 2.541429,-2.687568 2.677003,-2.696551 5.138871,-0.340477 3.393687,3.247853 3.553183,13.762889 0.256613,16.917795 -3.056323,2.924985 -4.809975,2.737134 -6.550289,-0.701662 z m 5.716341,-7.743925 c 0,-4.282029 -0.488351,-5.802635 -1.863546,-5.802635 -1.971434,0 -3.264504,7.123416 -1.950429,10.744755 1.427666,3.934374 3.813975,0.842211 3.813975,-4.94212 z m 5.176519,9.744047 c -0.455534,-0.481728 -0.828244,-4.915817 -0.828244,-9.853532 v -8.97766 h 3.683382 c 4.351865,0 6.255532,2.972315 6.255532,9.767159 0,6.505177 -5.9411,12.415865 -9.11067,9.064033 z m 6.00476,-9.634564 c 0,-3.30053 -0.6013,-4.684788 -2.174138,-5.005106 -1.788381,-0.364216 -2.174137,0.523838 -2.174137,5.005106 0,4.481268 0.385756,5.369322 2.174137,5.005106 1.572838,-0.320318 2.174138,-1.704576 2.174138,-5.005106 z m 6.282268,7.590496 c -2.155285,-3.254044 -2.712848,-16.787124 -0.691629,-16.787124 0.6833,0 1.250925,2.808255 1.261389,6.240568 0.01048,3.432315 0.569527,7.127388 1.242364,8.211277 1.927783,3.105508 3.666343,-0.764273 3.689045,-8.211277 0.01048,-3.432313 0.578088,-6.240568 1.261388,-6.240568 2.021219,0 1.463656,13.53308 -0.691629,16.787124 -1.063696,1.605965 -2.429655,2.919937 -3.035463,2.919937 -0.60581,0 -1.971769,-1.313972 -3.035465,-2.919937 z m 11.229127,0.07224 c -4.451229,-6.720454 -0.317181,-20.854909 5.083919,-17.382092 1.238585,0.796389 2.430621,2.717827 2.64897,4.269863 0.462065,3.284366 -1.633397,3.817584 -2.763509,0.703211 -0.622617,-1.715818 -1.120352,-1.810138 -2.617648,-0.496037 -2.10825,1.850306 -2.415529,7.571093 -0.563847,10.497531 1.083949,1.713099 1.47717,1.652225 3.00815,-0.465689 2.587719,-3.579775 4.682062,-2.249201 2.782633,1.767855 -2.052237,4.340224 -5.13799,4.790282 -7.578668,1.105355 z m 26.041802,-0.07224 c -5.380481,-8.123435 1.367332,-22.845529 7.062269,-15.408163 4.061601,5.304295 1.641592,18.3281 -3.405623,18.3281 -0.947459,0 -2.59295,-1.313972 -3.656646,-2.919937 z m 6.762557,-7.488603 c 0,-4.547455 -2.303127,-7.152034 -4.567187,-5.164981 -2.038199,1.788823 -2.150779,7.94373 -0.183359,10.024283 2.105254,2.226312 4.750546,-0.479541 4.750546,-4.859302 z M 0.84745675,78.002477 v -9.27987 l 4.03768395,0.411692 c 3.8175047,0.389241 4.037684,0.698265 4.037684,5.666908 0,4.449592 -0.4285225,5.319576 -2.7953198,5.675044 -2.0232039,0.303863 -2.7953196,1.301826 -2.7953196,3.612961 0,1.756223 -0.5590639,3.193134 -1.2423642,3.193134 -0.710984,0 -1.24236435,-3.969159 -1.24236435,-9.279869 z M 6.8227681,74.472756 C 6.5924834,73.20822 5.8603159,72.173599 5.1957318,72.173599 c -0.6645842,0 -1.3967517,1.034621 -1.6270363,2.299157 -0.2618917,1.438094 0.3474532,2.299158 1.6270363,2.299158 1.279583,0 1.8889279,-0.861064 1.6270363,-2.299158 z m 4.4266549,4.598314 c 0.332316,-4.516201 0.643611,-8.654685 0.691761,-9.196629 0.04815,-0.541945 1.72707,-0.985352 3.730924,-0.985352 4.431018,0 5.967504,3.690513 3.819565,9.174282 -1.084529,2.768847 -1.102265,4.430626 -0.06908,6.472168 1.108303,2.189968 1.030768,2.746807 -0.382466,2.746807 -0.974916,0 -2.123366,-1.478029 -2.552109,-3.284511 -0.428744,-1.80648 -1.327947,-3.28451 -1.998229,-3.28451 -0.670281,0 -1.218695,1.47803 -1.218695,3.28451 0,1.806482 -0.590825,3.284511 -1.312945,3.284511 -0.846753,0 -1.098405,-2.91561 -0.708731,-8.211276 z m 6.369952,-4.926765 c 0,-0.963456 -0.69883,-1.998077 -1.552956,-2.299158 -0.923809,-0.325643 -1.552956,0.60581 -1.552956,2.299158 0,1.693347 0.629147,2.6248 1.552956,2.299157 0.854126,-0.301081 1.552956,-1.335702 1.552956,-2.299157 z m 52.800482,5.870885 c 0,-5.247723 -0.517853,-7.477301 -1.863546,-8.023388 -3.527396,-1.431424 -1.854383,-3.102713 3.10591,-3.102713 4.915044,0 6.710345,2.003619 3.105911,3.466306 -1.337721,0.542849 -1.863546,2.755464 -1.863546,7.841591 0,3.896948 -0.559064,7.08536 -1.242365,7.08536 -0.6833,0 -1.242364,-3.27022 -1.242364,-7.267156 z m 7.454185,-1.929473 c 0,-5.255216 0.532442,-9.196628 1.242365,-9.196628 0.709923,0 1.242364,3.941412 1.242364,9.196628 0,5.255217 -0.532441,9.196629 -1.242364,9.196629 -0.709923,0 -1.242365,-3.941412 -1.242365,-9.196629 z m 16.150736,0 c 0,-10.643316 2.155211,-12.379194 5.301318,-4.269863 l 1.911404,4.926765 0.12076,-4.926765 c 0.22214,-9.066415 2.60543,-5.160657 2.60543,4.269863 0,10.643317 -2.1552,12.379195 -5.301321,4.269863 l -1.911397,-4.926765 -0.120734,4.926765 c -0.222175,9.066415 -2.60546,5.160657 -2.60546,-4.269863 z m 64.850012,-0.171566 c -10.45566,-5.473045 -16.07239,-24.323745 -12.123,-40.686938 2.84456,-11.785659 8.56641,-21.194333 16.14935,-26.555085 16.18278,-11.44036749 20.04625,-12.3824623 25.49303,-6.2163735 6.21599,7.0368725 8.2608,17.0553385 3.04943,14.9405585 -1.2671,-0.514193 -2.50861,0.0017 -3.21466,1.335952 -0.64543,1.219624 -2.68554,2.173678 -4.64812,2.173678 -3.52168,0 -8.92559,3.623236 -12.70974,8.52167 -1.12411,1.455116 -3.23452,4.08332 -4.68979,5.840452 -6.00658,7.252492 -7.81787,24.513695 -3.5622,33.94731 1.8407,4.080306 6.42741,5.238869 12.24702,3.093484 4.5105,-1.662786 4.54893,-1.162707 0.23563,3.066788 -4.20573,4.124026 -9.06887,4.285413 -16.22695,0.538504 z"
     id="path3725"
     inkscape:connector-curvature="0" />
</svg>
