<?xml version="1.0" encoding="UTF-8" standalone="no"?>
<svg
   xmlns:dc="http://purl.org/dc/elements/1.1/"
   xmlns:cc="http://creativecommons.org/ns#"
   xmlns:rdf="http://www.w3.org/1999/02/22-rdf-syntax-ns#"
   xmlns:svg="http://www.w3.org/2000/svg"
   xmlns="http://www.w3.org/2000/svg"
   xmlns:sodipodi="http://sodipodi.sourceforge.net/DTD/sodipodi-0.dtd"
   xmlns:inkscape="http://www.inkscape.org/namespaces/inkscape"
   inkscape:version="1.0 (4035a4f, 2020-05-01)"
   sodipodi:docname="Untitled.svg"
   id="svg80"
   viewBox="0 0 129.14815 25.120001"
   version="1.1"
   height="21.198313"
   width="109.44759">
  <metadata
     id="metadata86">
    <rdf:RDF>
      <cc:Work
         rdf:about="">
        <dc:format>image/svg+xml</dc:format>
        <dc:type
           rdf:resource="http://purl.org/dc/dcmitype/StillImage" />
        <dc:title></dc:title>
      </cc:Work>
    </rdf:RDF>
  </metadata>
  <defs
     id="defs84" />
  <sodipodi:namedview
     inkscape:current-layer="svg80"
     inkscape:window-maximized="0"
     inkscape:window-y="23"
     inkscape:window-x="0"
     inkscape:cy="11.277838"
     inkscape:cx="47.945052"
     inkscape:zoom="5.4504555"
     fit-margin-bottom="0"
     fit-margin-right="0"
     fit-margin-left="0"
     fit-margin-top="0"
     showgrid="false"
     id="namedview82"
     inkscape:window-height="534"
     inkscape:window-width="853"
     inkscape:pageshadow="2"
     inkscape:pageopacity="0"
     guidetolerance="10"
     gridtolerance="10"
     objecttolerance="10"
     borderopacity="1"
     bordercolor="#666666"
     pagecolor="#ffffff" />
  <g
     style="fill:#eb6303;fill-opacity:1"
     transform="translate(-1.2846078)"
     id="g78">
    <path
       style="fill:#eb6303;fill-opacity:1"
       id="path10"
       d="m 56.72,0.93 h 1.11 c 0.45,0 0.8,0.16 0.8,0.67 0,0.51 -0.33,0.73 -0.82,0.73 h -1.09 z m 0,1.87 H 58 A 1.12,1.12 0 0 0 59.19,1.6 1.11,1.11 0 0 0 58,0.46 h -1.82 v 4 h 0.54 z" />
    <path
       style="fill:#eb6303;fill-opacity:1"
       id="path12"
       d="M 60.37,4.5 H 59.88 V 1.56 h 0.47 v 0.49 0 A 1,1 0 0 1 61.18,1.48 H 61.3 V 2 h -0.18 a 0.75,0.75 0 0 0 -0.76,0.78 z" />
    <path
       style="fill:#eb6303;fill-opacity:1"
       id="path14"
       d="m 62,3 c 0,-0.4 0.14,-1.13 0.85,-1.13 0.71,0 0.86,0.73 0.86,1.13 0,0.4 -0.15,1.12 -0.86,1.12 C 62.14,4.12 62,3.42 62,3 Z m -0.51,0 a 1.38,1.38 0 1 0 2.73,0 1.38,1.38 0 1 0 -2.73,0 z" />
    <path
       style="fill:#eb6303;fill-opacity:1"
       id="path16"
       d="m 65.19,3 c 0,-0.37 0,-1.1 0.8,-1.1 0.8,0 0.79,0.77 0.79,1.25 0,0.78 -0.49,1 -0.8,1 C 65.44,4.16 65.19,3.67 65.19,3 Z M 67.26,1.54 H 66.79 V 2 A 1,1 0 0 0 65.9,1.49 c -0.78,0 -1.23,0.64 -1.23,1.46 0,0.82 0.33,1.64 1.33,1.64 a 0.87,0.87 0 0 0 0.79,-0.42 v 0.12 c 0,0.35 0,1 -0.84,1 A 0.61,0.61 0 0 1 65.29,4.82 h -0.5 a 1,1 0 0 0 1.13,0.88 1.26,1.26 0 0 0 1.37,-1.48 z" />
    <path
       style="fill:#eb6303;fill-opacity:1"
       id="path18"
       d="M 68.45,4.5 H 68 V 1.56 h 0.47 v 0.49 0 A 1,1 0 0 1 69.3,1.48 h 0.13 V 2 H 69.2 a 0.74,0.74 0 0 0 -0.75,0.78 z" />
    <path
       style="fill:#eb6303;fill-opacity:1"
       id="path20"
       d="M 70.15,2.8 A 0.86,0.86 0 0 1 71,1.92 c 0.61,0 0.8,0.42 0.83,0.88 z m 1.61,0.78 A 0.74,0.74 0 0 1 71,4.16 c -0.57,0 -0.85,-0.36 -0.85,-1 h 2.15 c 0,-1 -0.42,-1.71 -1.27,-1.71 -0.85,0 -1.41,0.72 -1.41,1.63 a 1.33,1.33 0 0 0 1.32,1.48 1.28,1.28 0 0 0 0.8,-0.21 1.26,1.26 0 0 0 0.52,-0.8 z" />
    <path
       style="fill:#eb6303;fill-opacity:1"
       id="path22"
       d="m 74.56,2.4 c 0,-0.19 -0.08,-0.5 -0.7,-0.5 -0.15,0 -0.58,0.05 -0.58,0.42 0,0.37 0.15,0.3 0.53,0.39 l 0.5,0.13 c 0.61,0.15 0.82,0.37 0.82,0.77 a 1,1 0 0 1 -1.16,1 c -1.17,0 -1.25,-0.68 -1.27,-1 h 0.48 c 0,0.23 0.09,0.6 0.78,0.6 0.36,0 0.68,-0.14 0.68,-0.47 0,-0.33 -0.16,-0.31 -0.59,-0.42 L 73.48,3.18 C 73.07,3.08 72.8,2.87 72.8,2.47 c 0,-0.65 0.53,-0.94 1.11,-0.94 1,0 1.13,0.77 1.13,0.92 z" />
    <path
       style="fill:#eb6303;fill-opacity:1"
       id="path24"
       d="m 77.37,2.4 c 0,-0.19 -0.07,-0.5 -0.7,-0.5 -0.15,0 -0.58,0.05 -0.58,0.42 0,0.37 0.15,0.3 0.53,0.39 l 0.5,0.13 c 0.61,0.15 0.83,0.37 0.83,0.77 0,0.61 -0.5,1 -1.17,1 -1.16,0 -1.25,-0.68 -1.26,-1 H 76 c 0,0.23 0.09,0.6 0.79,0.6 0.35,0 0.67,-0.14 0.67,-0.47 0,-0.33 -0.16,-0.31 -0.58,-0.42 L 76.3,3.18 c -0.41,-0.1 -0.68,-0.31 -0.68,-0.71 0,-0.65 0.54,-0.94 1.12,-0.94 1,0 1.12,0.77 1.12,0.92 z" />
    <path
       style="fill:#eb6303;fill-opacity:1"
       id="path26"
       d="M 79,4.5 H 78.51 V 1.56 H 79 Z M 78.53,1 V 0.46 H 79 V 1 Z" />
    <path
       style="fill:#eb6303;fill-opacity:1"
       id="path28"
       d="m 81.63,1.56 h 0.54 L 81.05,4.5 H 80.52 L 79.44,1.56 H 80 L 80.78,4 v 0 z" />
    <path
       style="fill:#eb6303;fill-opacity:1"
       id="path30"
       d="m 82.82,2.8 a 0.87,0.87 0 0 1 0.82,-0.88 c 0.6,0 0.79,0.42 0.82,0.88 z m 1.62,0.78 a 0.75,0.75 0 0 1 -0.76,0.58 c -0.57,0 -0.86,-0.36 -0.86,-1 H 85 c 0,-1 -0.41,-1.71 -1.26,-1.71 -0.85,0 -1.44,0.75 -1.44,1.66 a 1.33,1.33 0 0 0 1.31,1.48 1.23,1.23 0 0 0 0.8,-0.21 1.29,1.29 0 0 0 0.53,-0.8 z" />
    <path
       style="fill:#eb6303;fill-opacity:1"
       id="path32"
       d="m 88,2.84 0.65,-1.77 v 0 l 0.6,1.77 z m 1.46,0.49 0.4,1.17 h 0.59 L 89,0.46 h -0.62 l -1.52,4 h 0.56 l 0.43,-1.17 z" />
    <path
       style="fill:#eb6303;fill-opacity:1"
       id="path34"
       d="m 93.28,4.5 h -0.5 V 2.69 c 0,-0.51 -0.14,-0.77 -0.63,-0.77 -0.28,0 -0.77,0.18 -0.77,1 V 4.5 h -0.5 V 1.56 h 0.47 V 2 2 a 1.06,1.06 0 0 1 0.89,-0.5 0.93,0.93 0 0 1 1,1 z" />
    <path
       style="fill:#eb6303;fill-opacity:1"
       id="path36"
       d="M 94.52,4.5 H 94 V 1.56 h 0.5 z M 94,1 V 0.46 h 0.5 V 1 Z" />
    <path
       style="fill:#eb6303;fill-opacity:1"
       id="path38"
       d="m 95.26,1.56 h 0.47 V 2 2 a 1,1 0 0 1 0.89,-0.5 0.82,0.82 0 0 1 0.78,0.47 1.07,1.07 0 0 1 0.9,-0.47 0.89,0.89 0 0 1 0.91,1 v 2 H 98.72 V 2.6 c 0,-0.4 -0.13,-0.68 -0.55,-0.68 a 0.75,0.75 0 0 0 -0.7,0.79 V 4.5 H 97 v -2 c 0,-0.25 -0.09,-0.55 -0.46,-0.55 -0.37,0 -0.78,0.18 -0.78,1 V 4.5 h -0.49 z" />
    <path
       style="fill:#eb6303;fill-opacity:1"
       id="path40"
       d="m 101.74,3.48 c 0,0.4 -0.45,0.7 -0.91,0.7 -0.46,0 -0.54,-0.19 -0.54,-0.51 0,-0.32 0.39,-0.45 0.63,-0.48 0.62,-0.08 0.74,-0.13 0.82,-0.19 z m -1.36,-1 a 0.59,0.59 0 0 1 0.68,-0.57 c 0.47,0 0.69,0.16 0.69,0.47 0,0.31 -0.14,0.34 -0.26,0.35 l -0.81,0.1 a 0.89,0.89 0 0 0 -0.9,0.93 0.84,0.84 0 0 0 0.92,0.85 1.34,1.34 0 0 0 1.07,-0.48 c 0,0.23 0.08,0.45 0.52,0.45 a 1,1 0 0 0 0.27,-0.06 V 4.14 H 102.4 A 0.16,0.16 0 0 1 102.23,3.96 V 2.3 c 0,-0.76 -0.85,-0.82 -1.09,-0.82 -0.72,0 -1.19,0.27 -1.21,1 z" />
    <path
       style="fill:#eb6303;fill-opacity:1"
       id="path42"
       d="m 103.68,2 v 1.88 c 0,0.23 0.2,0.23 0.3,0.23 h 0.17 V 4.5 h -0.37 c -0.49,0 -0.59,-0.27 -0.59,-0.63 V 2 h -0.4 V 1.56 h 0.4 V 0.74 h 0.49 v 0.82 h 0.47 V 2 Z" />
    <path
       style="fill:#eb6303;fill-opacity:1"
       id="path44"
       d="m 105.14,4.5 h -0.49 V 1.56 h 0.49 z M 104.65,1 V 0.46 h 0.49 V 1 Z" />
    <path
       style="fill:#eb6303;fill-opacity:1"
       id="path46"
       d="m 106.23,3 c 0,-0.4 0.15,-1.13 0.85,-1.13 0.7,0 0.86,0.73 0.86,1.13 0,0.4 -0.15,1.12 -0.86,1.12 -0.71,0 -0.85,-0.7 -0.85,-1.12 z m -0.51,0 a 1.38,1.38 0 1 0 2.73,0 1.38,1.38 0 1 0 -2.73,0 z" />
    <path
       style="fill:#eb6303;fill-opacity:1"
       id="path48"
       d="m 111.41,4.5 h -0.49 V 2.69 c 0,-0.51 -0.15,-0.77 -0.64,-0.77 -0.28,0 -0.77,0.18 -0.77,1 V 4.5 H 109 V 1.56 h 0.47 V 2 2 a 1.08,1.08 0 0 1 0.89,-0.5 0.92,0.92 0 0 1 1,1 z" />
    <path
       style="fill:#eb6303;fill-opacity:1"
       id="path50"
       d="m 114.83,4.5 h -0.57 l -1.05,-4 h 0.59 l 0.75,3.29 v 0 l 0.91,-3.29 h 0.59 L 117,3.75 v 0 l 0.76,-3.29 h 0.6 l -1.07,4 h -0.57 L 115.8,1.12 v 0 z" />
    <path
       style="fill:#eb6303;fill-opacity:1"
       id="path52"
       d="m 119,3 c 0,-0.4 0.15,-1.13 0.85,-1.13 0.7,0 0.86,0.73 0.86,1.13 0,0.4 -0.15,1.12 -0.86,1.12 C 119.14,4.12 119,3.42 119,3 Z m -0.51,0 a 1.38,1.38 0 1 0 2.73,0 1.38,1.38 0 1 0 -2.73,0 z" />
    <path
       style="fill:#eb6303;fill-opacity:1"
       id="path54"
       d="m 122.32,4.5 h -0.5 V 1.56 h 0.47 v 0.49 0 a 1,1 0 0 1 0.83,-0.57 h 0.13 V 2 h -0.19 a 0.74,0.74 0 0 0 -0.75,0.78 z" />
    <path
       style="fill:#eb6303;fill-opacity:1"
       id="path56"
       d="m 126.16,4.5 h -0.63 L 124.61,3 124.2,3.37 V 4.5 h -0.48 v -4 h 0.48 v 2.3 l 1.27,-1.24 h 0.63 l -1.1,1.1 z" />
    <path
       style="fill:#eb6303;fill-opacity:1"
       id="path58"
       d="m 128.19,2.4 c 0,-0.19 -0.07,-0.5 -0.69,-0.5 -0.16,0 -0.59,0.05 -0.59,0.42 0,0.37 0.16,0.3 0.54,0.39 l 0.49,0.13 c 0.62,0.15 0.83,0.37 0.83,0.77 0,0.61 -0.5,1 -1.17,1 -1.16,0 -1.24,-0.68 -1.26,-1 h 0.48 c 0,0.23 0.08,0.6 0.78,0.6 0.35,0 0.67,-0.14 0.67,-0.47 0,-0.33 -0.16,-0.31 -0.58,-0.42 l -0.58,-0.14 c -0.41,-0.1 -0.68,-0.31 -0.68,-0.71 0,-0.65 0.54,-0.94 1.12,-0.94 1,0 1.12,0.77 1.12,0.92 z" />
    <path
       style="fill:#eb6303;fill-opacity:1"
       id="path60"
       d="m 11.23,23.61 a 1.14,1.14 0 1 1 1.14,1.07 1.08,1.08 0 0 1 -1.14,-1.07 z" />
    <path
       style="fill:#eb6303;fill-opacity:1"
       id="path62"
       d="m 40.1,23.59 a 1.14,1.14 0 1 1 1.14,1.09 1.09,1.09 0 0 1 -1.14,-1.09 z" />
    <path
       style="fill:#eb6303;fill-opacity:1"
       id="path64"
       d="m 8.53,16.48 c -0.59,-0.09 -0.59,-0.68 0,-0.62 2.89,0.28 5.93,-0.44 5.93,-5.12 0,-3.61 -2.31,-4.92 -4.59,-4.92 A 11.25,11.25 0 0 0 7.35,6.16 v 16.16 c 0,0.74 1.66,1.74 3.11,1.74 0.31,0 0.31,0.6 0,0.6 -1.11,0 -4,-0.26 -5.25,-0.26 -1.25,0 -3.93,0.26 -4.94,0.26 -0.24,0 -0.38,-0.6 0,-0.6 1.55,0 2.52,-1 2.52,-1.74 V 6.91 C 2.79,6.07 2.2,5.57 0.58,5.38 c -0.28,0 -0.24,-0.59 0,-0.59 3.9,0 6.38,-0.25 10.42,-0.25 4.38,0 8.11,1.87 8.11,6.17 -0.06,5.65 -4.27,6.87 -10.58,5.77 z" />
    <path
       style="fill:#eb6303;fill-opacity:1"
       id="path66"
       d="m 29.59,16.72 h -6.8 L 26.14,8.08 Z M 27.69,0 c 0,0 -8.35,21.75 -8.35,21.75 a 3.81,3.81 0 0 1 -3.34,2.3 0.31,0.31 0 0 0 0,0.61 c 1.65,0 2.41,-0.26 3.59,-0.26 1.18,0 2.55,0.26 4.07,0.26 0.27,0 0.38,-0.58 0,-0.61 -2.11,-0.13 -3.21,-1.21 -2.8,-2.33 L 22.34,18 h 7.77 l 1.83,4.53 c 0.37,0.86 -0.76,1.53 -2.07,1.53 -0.39,0 -0.35,0.64 0,0.64 1.07,0 3.62,-0.26 4.9,-0.26 1.28,0 3.62,0.26 4.56,0.26 0.3,0 0.41,-0.64 0,-0.64 a 2.88,2.88 0 0 1 -2.55,-1.79 z" />
    <path
       style="fill:#eb6303;fill-opacity:1"
       id="path68"
       d="m 64,10.94 -4,13.38 c -0.13,0.45 -0.38,0.77 -0.81,0.77 -0.43,0 -0.7,-0.35 -0.86,-0.72 L 54.2,13.2 50.93,24.32 c -0.16,0.47 -0.35,0.77 -0.81,0.77 -0.46,0 -0.7,-0.3 -0.86,-0.72 L 44,10.06 C 43.81,9.48 43.1,9.13 42.16,9.13 c -0.33,0 -0.24,-0.5 0,-0.5 0.76,0 2.84,0.2 3.9,0.2 1.06,0 2.86,-0.2 3.7,-0.2 0.27,0 0.29,0.5 0,0.5 -1.08,0 -1.86,0.45 -1.7,1 l 3.33,9.22 2.18,-7.92 L 53,10.06 A 1.87,1.87 0 0 0 51.16,9.13 c -0.32,0 -0.24,-0.5 0,-0.5 0.75,0 2.83,0.2 3.89,0.2 1.06,0 2.86,-0.2 3.7,-0.2 0.27,0 0.3,0.5 0,0.5 -1.08,0 -1.87,0.43 -1.71,1 l 3.32,9.22 2.38,-8.35 c 0.27,-1 -1,-1.69 -2,-1.86 a 0.25,0.25 0 0 1 0,-0.48 c 1.06,0 2,0.2 3,0.2 1,0 1.76,-0.2 2.7,-0.2 a 0.24,0.24 0 0 1 0,0.48 3.24,3.24 0 0 0 -2.44,1.8 z" />
    <path
       style="fill:#eb6303;fill-opacity:1"
       id="path70"
       d="m 78.32,17.23 c 0,4 -2.19,6.94 -4.89,6.94 -3.25,0 -5.17,-3.67 -5.17,-8.1 0,-4.12 2.06,-6.76 4.92,-6.76 3.25,0 5.14,3.39 5.14,7.92 z m 3.76,-0.55 c 0,-5.21 -3.76,-8.33 -8.76,-8.33 -4.84,0 -8.76,3.1 -8.76,8.33 0,5.23 3.92,8.44 8.76,8.44 5.08,0 8.76,-3.22 8.76,-8.44 z" />
    <path
       style="fill:#eb6303;fill-opacity:1"
       id="path72"
       d="m 93,13.1 c 0,2.09 -1.08,3.47 -3.3,3.47 -1.73,0 -2,-0.13 -2,-0.52 V 9.8 a 6.53,6.53 0 0 1 1.62,-0.27 c 2.43,0 3.68,1.25 3.68,3.57 z m 6.19,11.43 a 4.47,4.47 0 0 1 -3.08,-1.87 c -1.27,-1.57 -2.6,-4.47 -3.38,-5.34 a 4.05,4.05 0 0 0 3.81,-4 C 96.53,10 94,8.63 91,8.63 c -3.13,0 -5,0.2 -8.75,0.2 -0.19,0 -0.22,0.45 0,0.47 1.27,0.15 1.73,0.45 1.73,1.13 V 23.1 c 0,0.6 -0.76,1.33 -2,1.4 -0.28,0 -0.17,0.47 0,0.47 0.78,0 2.84,-0.19 3.92,-0.19 1.08,0 3.28,0.22 4.1,0.22 0.27,0 0.27,-0.44 0,-0.47 -1.13,-0.1 -2.43,-0.8 -2.43,-1.4 v -5.79 a 8.21,8.21 0 0 0 1.35,0.18 c 0.51,0.42 2.51,4.41 3.27,5.39 C 93.56,24.56 95,25 99.15,25 a 0.23547824,0.23547824 0 1 0 0.03,-0.47 z" />
    <path
       style="fill:#eb6303;fill-opacity:1"
       id="path74"
       d="m 116.88,24.92 c -0.68,0 -2.52,-0.21 -3.63,-0.21 -0.91,0 -2.94,0.21 -3.89,0.21 -0.11,0 -0.19,-0.48 0,-0.48 1,0 1.54,-0.63 1.13,-1.13 L 105.66,17 v 6.06 c 0,0.55 0.86,1.36 1.89,1.36 0.33,0 0.25,0.48 0,0.48 -0.81,0 -2.62,-0.21 -3.56,-0.21 -0.94,0 -2.89,0.21 -3.89,0.21 -0.22,0 -0.22,-0.48 0,-0.48 1.05,0 2,-0.81 2,-1.36 V 10.15 c 0,-0.57 -0.51,-1 -1.76,-1 -0.24,0 -0.27,-0.5 0,-0.5 0.92,0 2.79,0.2 3.6,0.2 1.05,0 2.89,-0.2 3.64,-0.2 0.3,0 0.3,0.5 0,0.5 -1.3,0 -1.89,0.47 -1.89,1 v 5.27 l 5.51,-4.77 c 0.6,-0.52 0,-1.32 -1.35,-1.52 -0.27,-0.05 -0.24,-0.5 0,-0.5 0.79,0 2.38,0.2 3.19,0.2 0.81,0 2.16,-0.2 2.89,-0.2 0.22,0 0.27,0.47 0,0.5 a 6.77,6.77 0 0 0 -2.81,1.12 l -5,4.35 6.64,8.63 a 4,4 0 0 0 2.19,1.24 c 0.25,0.02 0.14,0.45 -0.07,0.45 z" />
    <path
       style="fill:#eb6303;fill-opacity:1"
       id="path76"
       d="m 123.35,25.12 a 19.16,19.16 0 0 1 -6,-1.16 0.33,0.33 0 0 1 -0.24,-0.32 v -4.12 a 0.27294688,0.27294688 0 0 1 0.54,-0.08 c 0.78,3.14 2.51,4.7 4.92,4.7 2.73,0 3.91,-1.11 3.91,-3 0,-1.46 -1.35,-2.42 -5.08,-3.7 -3.13,-1.08 -4.4,-2.53 -4.4,-4.75 0,-2.79 2.59,-4.35 5.84,-4.35 a 39.55,39.55 0 0 1 4.21,0.61 c 0.35,0 0.68,0.07 1,-0.18 0.32,-0.25 0.49,0 0.49,0.1 0,1.49 0.14,3 0.3,4.45 0,0.25 -0.46,0.3 -0.54,0 -0.76,-2.49 -2.46,-4 -4.6,-4 -2.62,0 -3.62,1.11 -3.62,2.52 0,1.41 0.76,1.83 4.33,3.09 3.27,1.16 5.32,2.69 5.32,5.48 -0.03,3.33 -2.38,4.71 -6.38,4.71 z" />
  </g>
</svg>
