<svg
   version="1.1"
   id="Layer_1"
   x="0px"
   y="0px"
   width="200.366"
   height="90.269997"
   viewBox="0 0 200.36599 90.269999"
   enable-background="new 0 0 1000.366 450.692"
   xml:space="preserve"
   sodipodi:docname="Production_I.G.svg"
   inkscape:version="1.1.1 (3bf5ae0d25, 2021-09-20)"
   xmlns:inkscape="http://www.inkscape.org/namespaces/inkscape"
   xmlns:sodipodi="http://sodipodi.sourceforge.net/DTD/sodipodi-0.dtd"
   xmlns="http://www.w3.org/2000/svg"
   xmlns:svg="http://www.w3.org/2000/svg"><sodipodi:namedview
   id="namedview75"
   pagecolor="#ffffff"
   bordercolor="#666666"
   borderopacity="1.0"
   inkscape:pageshadow="2"
   inkscape:pageopacity="0.0"
   inkscape:pagecheckerboard="0"
   showgrid="false"
   inkscape:zoom="1"
   inkscape:cx="286.5"
   inkscape:cy="-15"
   inkscape:window-width="1120"
   inkscape:window-height="870"
   inkscape:window-x="133"
   inkscape:window-y="67"
   inkscape:window-maximized="0"
   inkscape:current-layer="Layer_1" />
<g
   transform="matrix(0.20029269,0,0,0.20029269,0,-1.5923914e-4)">
	<path
   d="m 80.903,384.063 c 0,0 16.397,32.798 17.491,37.174 H 84.186 L 68.874,386.255 h -6.557 v 34.982 H 51.381 v -91.836 h 22.965 c 12.029,0 19.68,9.84 19.68,27.333 0,24.047 -13.123,27.329 -13.123,27.329 z M 62.317,367.667 c 15.303,0 19.68,1.095 19.68,-10.933 0,-12.031 -6.557,-9.841 -19.68,-9.841 z" />
	<path
   d="m 160.712,421.237 v -91.836 h 19.681 c 18.586,0 27.333,15.302 27.333,45.918 0,19.68 -3.274,45.918 -27.333,45.918 z m 34.993,-45.918 c 0,-16.397 -3.283,-27.333 -15.312,-27.333 h -8.747 v 55.761 h 8.747 c 12.029,-1.096 15.312,-9.84 15.312,-28.428 z" />
	<path
   d="m 725.947,405.925 c -3.274,-8.744 -5.462,-18.576 -7.651,-21.862 -3.274,-9.84 -16.398,-18.585 -28.427,-28.425 -6.557,-2.188 -13.114,-6.558 -15.304,-6.558 -2.188,0 -8.746,1.096 -10.936,3.274 0,4.379 0,9.841 1.096,14.219 2.189,10.933 4.377,19.681 3.283,32.795 25.144,25.142 28.427,37.173 31.7,40.456 10.936,3.273 14.219,5.462 14.219,5.462 1.094,0 1.094,-3.274 1.094,-3.274 3.274,0 2.181,0 3.274,1.086 1.094,0 2.189,1.096 3.283,1.096 5.463,-2.182 13.114,3.283 15.303,2.188 2.188,0 -1.095,-4.369 0,-13.123 -3.281,-6.557 -9.839,-22.955 -10.934,-27.334 z" />
	<path
   d="m 548.839,365.478 c 2.188,3.283 3.273,12.028 3.273,20.776 0,14.209 -2.18,30.606 -1.086,33.89 3.275,0 5.463,1.093 7.652,3.283 12.021,4.366 15.304,18.585 17.491,19.671 2.189,0 3.274,1.096 5.463,1.096 24.059,4.375 21.87,10.933 22.965,2.188 2.18,-2.188 5.462,-2.188 10.926,-2.188 5.472,-2.182 6.565,0 7.661,-1.096 1.085,0 -1.096,-8.744 0,-14.209 2.179,-5.462 4.368,-5.462 4.368,-6.558 0,-1.095 -1.094,-2.188 -3.283,-3.283 -2.181,-2.188 -5.463,-5.462 -5.463,-5.462 -4.368,0 -6.558,1.093 -9.841,-1.095 -2.188,-1.096 -6.557,-6.566 -9.84,-12.028 0,-10.936 -2.189,-34.985 6.565,-47.013 2.181,-12.022 3.274,-24.05 6.558,-36.081 5.463,-13.114 8.746,-22.954 10.936,-28.425 2.179,-2.182 3.274,-2.182 4.368,-3.274 1.094,-5.474 4.377,-16.406 8.746,-22.963 3.283,-10.936 5.471,-6.558 5.471,-6.558 1.087,0 3.274,-13.126 3.274,-17.492 1.095,-6.558 2.188,-14.219 2.188,-20.776 2.189,-18.588 2.189,-37.173 6.558,-57.948 -1.094,-8.745 6.566,-28.418 7.652,-39.352 1.094,-10.936 -4.369,-24.059 -6.559,-33.89 -4.368,-18.586 -4.368,-6.566 -7.651,-14.218 -1.094,0 -2.188,-2.188 -2.188,-4.368 -1.094,-2.189 -8.745,-8.746 -17.491,-14.218 -3.283,-1.094 -3.283,2.188 -12.029,-3.284 -3.274,-2.18 -6.558,-4.369 -9.832,-9.831 -4.376,-1.095 -6.565,-3.283 -10.935,-3.283 -1.095,1.095 -5.473,6.557 -6.566,8.746 -3.274,8.747 -6.558,16.398 -9.831,22.955 -3.283,9.84 -8.756,16.406 -9.841,19.681 -1.094,2.189 -3.282,12.031 -9.84,26.239 -1.094,9.84 -4.377,21.869 -5.473,25.152 -1.094,5.462 -1.094,15.303 -2.18,27.333 -1.094,16.397 -2.188,37.173 -3.283,56.845 -1.094,22.963 -1.094,48.108 -2.189,63.41 5.473,3.283 5.473,10.936 5.473,24.059 1.086,20.775 -2.187,51.382 -2.187,53.569 z" />
	<path
   d="m 756.563,352.355 c -8.746,-7.652 -34.983,-62.318 -36.077,-72.158 -7.652,-59.032 -4.379,-99.488 14.208,-144.313 C 747.817,107.459 767.499,75.757 775.15,69.19 793.736,53.887 812.323,44.046 818.88,35.301 853.863,15.62 869.176,12.346 870.262,6.874 876.828,3.6 879.016,3.6 889.943,1.411 c 1.094,0 1.094,-1.094 2.188,-1.094 2.189,1.094 5.464,-1.095 15.304,0 2.189,2.189 6.567,5.463 9.842,6.558 14.217,8.746 4.377,-1.094 21.868,25.153 6.557,9.831 10.936,16.397 16.398,25.144 3.283,5.462 1.094,7.65 3.283,14.208 3.274,17.491 9.84,19.68 7.65,21.87 0,1.095 -2.188,-2.189 -7.65,-2.189 -3.283,-1.094 -2.189,2.189 -4.377,2.189 -3.274,-1.096 -7.652,-3.283 -10.936,-4.378 -6.557,-2.179 -9.831,1.095 -13.114,6.566 -1.096,2.182 0,4.37 -1.096,5.465 -1.094,1.092 -1.094,1.092 -2.188,2.188 -5.463,1.095 -5.463,2.179 -9.84,2.179 -2.181,0 -5.464,0 -7.652,0 -26.237,3.283 -51.382,16.407 -88.555,71.072 -4.378,6.557 1.094,-8.745 -8.746,9.84 -1.096,3.274 -5.472,7.652 -9.84,22.955 -6.558,20.775 -15.304,50.299 -13.125,74.346 1.096,9.84 5.472,32.798 9.842,43.73 9.84,30.615 9.84,33.89 30.616,33.89 48.106,0 66.693,-26.237 68.872,-25.143 3.282,1.093 -3.274,6.558 -13.114,13.123 -3.283,2.18 -2.188,4.37 -3.283,5.462 -10.934,6.558 -7.651,10.936 -10.934,12.031 -19.674,7.649 -17.493,13.114 -18.587,14.207 -2.181,1.095 -3.274,2.19 -5.464,2.19 -22.954,6.557 -25.144,4.378 -47.013,-4.379 -2.189,0 -2.189,1.096 -4.368,0 -12.028,-5.463 -25.152,-14.211 -39.361,-26.239 z" />
	<path
   d="m 941.332,290.037 c 0,-1.092 -4.376,-12.019 -7.65,-15.302 0,-1.095 -1.096,-4.378 -1.096,-4.378 2.181,-2.179 3.274,-2.179 5.464,-1.093 10.936,1.093 18.586,6.566 21.869,7.658 8.746,0 13.114,0 17.492,1.096 2.18,-1.096 1.094,-2.188 2.18,-3.283 2.188,-1.095 7.661,-1.095 7.661,-1.095 7.651,-3.283 13.114,-1.093 13.114,-3.283 0,-1.093 -6.558,-2.179 -15.304,-3.274 -5.472,-1.093 -10.934,-1.093 -16.397,-3.283 -9.84,-1.092 -20.775,-6.557 -40.456,-10.936 -19.68,0 -27.333,-3.273 -37.173,-5.462 -6.557,0 -9.84,0 -17.491,-2.188 -18.588,-2.19 -24.05,-8.748 -27.333,-6.557 -1.095,1.092 3.283,5.462 6.558,24.05 1.094,6.557 4.377,4.375 13.123,20.772 2.189,1.095 4.369,2.19 5.464,2.19 8.746,-6.566 13.123,-6.566 17.49,-9.84 2.189,-1.096 2.189,-2.19 3.283,-3.283 3.283,-1.096 3.283,-1.096 5.464,-1.096 -1.085,-4.369 0,-3.273 4.376,-4.369 3.285,0 5.464,0 7.653,0 1.095,1.096 2.188,2.182 2.188,3.274 -1.094,5.474 -7.652,13.123 -7.652,16.406 -1.094,4.369 1.096,5.465 1.096,13.117 0,2.188 1.094,2.188 1.094,18.585 2.181,13.123 4.369,29.521 4.369,47.013 0,0 1.094,13.114 2.188,13.114 1.096,0 1.096,-1.086 3.274,2.188 0,2.19 0,6.568 1.096,12.03 1.094,4.37 3.283,4.37 4.377,17.493 0,3.282 1.094,5.462 1.094,8.744 0,5.462 1.095,8.745 1.095,16.397 1.086,4.379 3.274,3.283 5.462,8.748 0,1.093 1.096,3.283 2.189,3.283 1.093,0 2.189,-3.283 3.274,-5.465 1.094,-4.375 2.189,-7.658 3.283,-8.754 0,-5.465 -1.094,-8.748 -1.094,-13.114 0,-2.19 -4.37,-4.378 -6.558,-9.84 -1.096,-2.191 -1.096,-5.465 -1.096,-9.841 -1.094,-1.095 1.096,0 1.096,-1.095 1.094,-2.188 -1.096,-7.652 -1.096,-13.114 0,-1.096 0,-2.191 1.096,-2.191 1.094,-1.092 2.188,2.191 3.283,2.191 1.085,0 0,-3.283 0,-18.588 0,-4.376 -1.096,-5.471 -2.189,-12.028 -1.094,-5.462 -1.094,-27.333 2.189,-44.825 5.463,-21.864 7.651,-17.489 7.651,-20.772 z" />
	<path
   d="m 43.73,360.016 c 0,18.576 -6.558,30.607 -21.861,30.607 H 10.934 v 30.613 H 0 V 329.4 h 21.87 c 14.209,0.001 21.86,13.115 21.86,30.616 z m -12.02,0 c 0,-14.218 -7.66,-13.123 -20.776,-13.123 v 25.143 c 13.116,0 20.776,1.095 20.776,-12.02 z" />
	<path
   d="m 238.34,423.427 c 13.116,0 22.956,-14.219 22.956,-33.899 V 329.401 H 250.37 v 61.223 c 0,7.649 -5.471,14.216 -12.029,14.216 -5.472,0 -10.934,-5.471 -10.934,-14.216 v -62.318 h -12.029 v 61.223 c -10e-4,18.584 10.933,33.898 22.962,33.898 z" />
	<path
   d="m 310.497,362.196 h 12.029 c -1.094,-20.768 -13.123,-36.078 -26.247,-36.078 -13.114,0 -26.239,17.49 -26.239,49.201 0,29.521 13.125,48.108 26.239,48.108 12.029,0 25.153,-10.936 27.332,-38.269 h -12.019 c 0,6.558 -5.472,20.767 -14.218,20.767 -12.021,0 -15.304,-14.209 -15.304,-31.702 0,-16.397 6.559,-29.521 14.209,-29.521 8.756,10e-4 12.03,5.474 14.218,17.494 z" />
	<polygon
   points="372.813,329.401 326.896,329.401 326.896,345.798 343.293,345.798 343.293,421.237 355.322,421.237 355.322,345.798 372.813,345.798" />
	<rect
   x="380.466"
   y="328.30499"
   width="13.123"
   height="92.931999"
   id="rect64" />
	<path
   d="m 462.463,421.237 h 10.936 v -63.411 c 0,0 20.774,57.94 22.964,63.411 h 14.209 v -92.932 h -12.03 v 63.411 c 0,0 -13.114,-42.636 -20.766,-63.411 h -15.313 z" />
	<path
   d="m 427.479,326.118 c 36.077,0 37.173,97.31 1.094,97.31 -37.173,-10e-4 -36.078,-97.31 -1.094,-97.31 z m 0,79.807 c 20.774,0 19.68,-61.223 0,-61.223 -19.681,10e-4 -19.681,61.223 0,61.223 z" />
	<path
   d="m 126.823,327.21 c 34.984,0 36.078,96.217 0,96.217 -36.079,0 -36.079,-96.217 0,-96.217 z m 0,79.811 c 19.68,0 19.68,-61.223 0,-61.223 -20.776,0 -20.776,61.223 0,61.223 z" />
</g>
</svg>