<?xml version="1.0" encoding="UTF-8"?>
<svg version="1.1" viewBox="0 0 241.2 40.23" xmlns="http://www.w3.org/2000/svg" xmlns:cc="http://creativecommons.org/ns#" xmlns:dc="http://purl.org/dc/elements/1.1/" xmlns:rdf="http://www.w3.org/1999/02/22-rdf-syntax-ns#">
<title>Seven Arcs logo</title><desc>A Japanese animation studio founded in 2002</desc>
 <metadata>
  <rdf:RDF>
   <cc:Work rdf:about="">
    <dc:format>image/svg+xml</dc:format>
    <dc:type rdf:resource="http://purl.org/dc/dcmitype/StillImage"/>
    <dc:title/>
   </cc:Work>
  </rdf:RDF>
 </metadata>
 <g transform="translate(-85.6 233.5)">
  <g transform="matrix(.4262 0 0 .4262 85.83 -162.3)">
   <path d="m-0.5432-90.26c0-10.66 0.1127-16.64 0.3138-16.64 0.1726 0 5.245-5.004 11.27-11.12 6.027-6.116 13.9-14.1 17.5-17.74 5.63-5.701 6.483-6.692 6.129-7.12-0.3635-0.438-2.474-0.4968-17.81-0.4968h-17.4v-23.68h45.92c36.52 0 45.92 0.0819 45.92 0.4-6.4e-4 0.22-2.629 3.074-5.84 6.341-3.211 3.268-12.17 12.41-19.92 20.32-7.744 7.906-18.55 18.91-24.02 24.46-8.902 9.031-14.27 14.49-34.16 34.75-3.126 3.183-5.901 6.099-6.168 6.48-0.2667 0.3808-0.7648 0.6924-1.107 0.6924-0.6078 0-0.6219-0.3752-0.6219-16.64zm173.8-4.068c-2.791-0.1637-8.188-1.137-10.56-1.905-5.248-1.699-12-5.802-11.78-7.159 0.1502-0.9225 6.956-8.948 7.588-8.948 0.2999 0 1.114 0.4174 1.808 0.9276 3.082 2.264 7.157 3.959 11.18 4.654 3.647 0.6292 4.52 0.6239 6.915-0.0419 1.575-0.4378 2.092-0.7565 2.715-1.674 0.4236-0.6234 0.7703-1.395 0.7703-1.715 0-0.7618-0.7417-2.176-1.487-2.836-0.6991-0.6187-4.147-1.997-6.193-2.476-4.924-1.152-9.388-2.492-11.52-3.457-3.243-1.468-4.104-2.012-5.816-3.669-1.23-1.191-2.201-2.521-2.844-3.893-0.9207-1.967-0.9757-2.306-0.9799-6.031-4e-3 -3.47 0.095-4.209 0.8184-6.116 1.028-2.71 2.705-4.982 4.981-6.747 2.19-1.698 3.66-2.449 6.72-3.433 2.192-0.7048 2.898-0.7686 8.16-0.7388 4.823 0.0274 6.202 0.1471 8.48 0.7364 3.95 1.022 7.918 2.719 10.37 4.436 2.013 1.41 2.068 1.686 0.7271 3.64-0.6473 0.9432-1.965 2.877-2.928 4.297s-2.036 2.841-2.385 3.156c-0.6136 0.5553-0.6859 0.5422-2.227-0.4058-4.3-2.646-9.82-4.378-13.25-4.159-5.248 0.3342-7.084 4.506-3.07 6.975 0.8914 0.5485 2.293 1.132 3.114 1.297 0.8215 0.1647 2.07 0.5124 2.774 0.7727 0.704 0.2603 1.581 0.4796 1.948 0.4873 0.7215 0.0152 5.25 1.341 7.332 2.147 3.102 1.2 4.552 1.952 6.142 3.185 3.184 2.468 4.604 4.853 5.255 8.83 0.348 2.127 0.3295 2.886-0.1348 5.506-0.9727 5.489-3.987 9.467-8.962 11.83-3.515 1.668-9.491 2.775-13.66 2.531zm46.56 0.04128c-0.352-0.08471-1.72-0.3841-3.04-0.6653-3.973-0.8464-7.445-2.736-10.24-5.573-2.318-2.353-3.214-3.768-4.846-7.655-0.682-1.624-0.739-2.217-0.739-7.68 0-6.424 0.0771-6.793 2.31-11.04 3.624-6.893 10.98-11.06 18.8-10.64 8.57 0.4567 14.35 4.559 17.64 12.53 1.356 3.282 2.239 11.39 1.338 12.29-0.2858 0.2858-3.636 0.384-13.1 0.384-11.13 0-12.78 0.0626-13.22 0.5029-0.6435 0.6435-0.6328 0.8706 0.1091 2.31 1.285 2.493 4.24 4.392 7.426 4.771 2.06 0.245 5.595-0.8962 7.719-2.492 0.9162-0.6884 1.911-1.252 2.21-1.252 0.5876 0 1.409 0.6234 4.993 3.789 1.276 1.127 2.32 2.238 2.32 2.469 0 0.6841-4.025 4.048-6.368 5.322-1.194 0.6491-3.324 1.475-4.733 1.834-2.538 0.648-7.346 1.096-8.58 0.7986zm7.967-25.27c0.8561-0.8561-0.3054-4.228-1.934-5.613-3.654-3.109-7.926-2.537-10.49 1.404-1.36 2.087-1.682 3.472-0.9727 4.181 0.7555 0.7556 12.65 0.7797 13.4 0.0272zm78.91 25.26c-5.23-0.9568-8.177-2.084-11.04-4.223-3.38-2.524-5.583-5.608-7.108-9.948-0.7812-2.224-0.8565-2.858-0.859-7.237-3e-3 -4.434 0.0666-5.006 0.9082-7.5 1.068-3.166 1.683-4.302 3.732-6.9 1.545-1.958 1.799-2.204 3.897-3.78 2.74-2.058 8.102-3.743 11.89-3.736 2.465 4e-3 7.626 1.171 9.46 2.139 5.708 3.013 8.86 7.669 10.25 15.14 0.7104 3.826 0.816 7.05 0.2495 7.616-0.2857 0.2857-3.61 0.384-12.98 0.384-8.072 0-12.82 0.119-13.22 0.3313-0.3404 0.1822-0.619 0.6376-0.619 1.012 0 1.025 1.783 3.597 3.13 4.514 1.318 0.8982 4.158 1.823 5.599 1.823 1.754 0 5.18-1.278 6.885-2.569 0.9235-0.699 1.947-1.271 2.274-1.271 0.8845 0 7.072 5.393 7.072 6.163 0 1.152-3.825 4.366-7.052 5.926-3.034 1.467-9.772 2.611-12.47 2.118zm7.578-24.96c0.9767-0.262 1.113-0.859 0.5568-2.438-0.7742-2.198-2.039-3.746-3.796-4.646-3.627-1.857-7.388-0.3935-9.423 3.668-0.7525 1.501-0.8862 3.154-0.2752 3.401 0.5655 0.2282 12.09 0.2425 12.94 0.016zm-56.39 23.41c-0.432-0.432-0.7855-1.022-0.7855-1.312s-0.2058-0.9799-0.4574-1.535c-0.2516-0.5546-1.202-2.952-2.113-5.328s-1.809-4.68-1.996-5.12c-0.4152-0.9741-1.264-3.18-1.971-5.12-0.2886-0.792-0.6135-1.656-0.7221-1.92-0.1086-0.264-0.4458-1.128-0.7493-1.92s-0.8726-2.232-1.265-3.2-0.9184-2.336-1.17-3.04c-0.2514-0.704-0.6536-1.712-0.8939-2.24-1.211-2.66-3.155-7.801-3.293-8.706-0.2096-1.378 0.01-1.416 7.579-1.305l6.228 0.0908 0.3853 0.8c0.5842 1.213 1.234 3.06 2.194 6.24 0.4783 1.584 1.06 3.384 1.292 4 0.9394 2.488 3.352 10.35 3.352 10.93 0 0.3376 0.2384 0.7054 0.5298 0.8172 0.7535 0.2891 1.617-0.9075 2.211-3.061 0.2729-0.9911 0.6916-2.306 0.9304-2.922 0.4784-1.234 1.138-3.227 2.117-6.4 2.682-8.692 3.171-9.935 4.032-10.26 0.4301-0.1635 3.409-0.2973 6.62-0.2973 6.813 0 7.277 0.1383 6.485 1.935-0.6758 1.534-2.435 5.963-2.981 7.505-0.2492 0.704-0.6627 1.734-0.9188 2.288-0.2561 0.5546-0.4657 1.163-0.4657 1.351 0 0.1887-0.2727 0.9589-0.606 1.712-0.9741 2.2-4.556 11.27-5.973 15.13-0.388 1.056-1.162 3.072-1.72 4.48s-1.381 3.496-1.828 4.64c-0.4474 1.144-0.9798 2.186-1.183 2.315-0.2034 0.1294-3.004 0.2376-6.224 0.2403-5.792 0.0049-5.863-0.0035-6.64-0.7806zm76.87 0.2583c-0.1207-0.1207-0.2195-9.324-0.2195-20.45 0-18.15 0.052-20.25 0.5062-20.43 0.8786-0.3372 12.29-0.2164 12.95 0.137 0.5063 0.271 0.619 0.6805 0.619 2.25 0 2.632 0.5271 2.773 2.665 0.7112 4.054-3.91 9.144-5.178 14.17-3.532 2.675 0.8757 4.19 1.785 5.634 3.384 1.597 1.768 3.033 4.981 3.296 7.375 0.1232 1.122 0.3158 1.892 0.4279 1.71 0.1121-0.1817 0.1622 6.092 0.1111 13.94-0.0627 9.64-0.2052 14.41-0.4392 14.69-0.4258 0.5131-12.91 0.6126-13.22 0.1054-0.106-0.1716-0.2243-5.68-0.2628-12.24-0.0677-11.54-0.0929-11.98-0.7695-13.38-1.27-2.63-2.681-3.511-5.62-3.511-1.749 0-2.215 0.1292-3.179 0.88-0.6215 0.484-1.473 1.456-1.892 2.16-0.7589 1.276-0.7621 1.323-0.9216 13.76l-0.16 12.48-6.74 0.08619c-3.707 0.0474-6.839-0.01261-6.96-0.1333z" style="fill:#ffd42a;stroke-width:.32"/>
   <path d="m27.81-73.07c0.0043-0.22 4.144-4.592 9.2-9.716 21.83-22.13 39.93-40.55 40.11-40.84 0.1091-0.1706 4.142-4.292 8.962-9.159 7.958-8.034 21.15-21.47 30.17-30.71 2.49-2.554 3.702-3.576 4.24-3.576h0.7529v94.4h-24.64v-17.44c0-9.622-0.1243-17.44-0.2773-17.44-0.3192 0-30.17 30.28-32.55 33.01l-1.576 1.814-17.2 0.0262c-13.56 0.0206-17.2-0.0584-17.19-0.3738zm478.1-20.73c-8.09-1.245-14.67-6.873-17.49-14.96-0.7828-2.245-0.862-2.9-0.862-7.113 0-4.213 0.0793-4.868 0.862-7.113 1.634-4.688 4.031-7.972 8.049-11.03 1.571-1.195 3.421-2.103 6.56-3.221 2.15-0.7651 2.85-0.8541 6.72-0.8533 3.838 8e-4 4.588 0.0946 6.72 0.8406 3.029 1.06 4.225 1.665 6.297 3.185 1.947 1.429 4.583 4.547 4.583 5.42 0 0.7384-0.0729 0.8052-5.226 4.787-4.011 3.1-4.126 3.162-4.96 2.715-0.4698-0.2521-1.343-0.9704-1.941-1.596-1.096-1.148-3.426-2.095-5.154-2.095-1.882 0-4.073 0.9456-5.276 2.277-1.816 2.01-2.215 3.205-2.231 6.683-0.0157 3.477 0.582 5.136 2.532 7.026 1.452 1.407 4.303 2.069 6.718 1.559 2.08-0.4391 2.536-0.6914 4.404-2.439 1.843-1.724 1.375-1.874 6.801 2.188 2.105 1.576 3.926 2.866 4.046 2.866 0.5135 0 0.5707 1.098 0.108 2.073-0.4784 1.008-3.433 4.15-4.782 5.085-0.5902 0.4092-2.086 1.277-3.556 2.064-2.61 1.397-9.147 2.232-12.92 1.651zm36.07-0.4549c-0.6674-0.2381-1.747-0.5289-2.4-0.6463-2.952-0.5309-10.11-4.154-10.47-5.303-0.1309-0.4123 0.1491-1.22 0.8012-2.312 2.599-4.351 3.395-5.631 3.801-6.115 0.5856-0.6974 2.015-0.663 2.958 0.0711 3.409 2.654 13 4.607 14.5 2.952 0.6391-0.7063 0.5666-1.926-0.1361-2.288-2.103-1.083-3.266-1.533-4.495-1.737-0.7839-0.1304-1.79-0.4236-2.236-0.6517-0.4461-0.2281-1.382-0.5202-2.08-0.6491-0.6979-0.1289-1.771-0.5012-2.384-0.8274-0.6134-0.3262-1.232-0.5931-1.375-0.5931-0.5529 0-3.792-2.283-4.989-3.516-4.373-4.506-3.785-13.15 1.216-17.89 2.883-2.729 6.536-4.117 11.54-4.388 5.628-0.3039 11.8 1.128 16.72 3.876 1.635 0.9137 1.936 1.795 1.113 3.255-0.2174 0.3856-0.9129 1.685-1.546 2.888-1.554 2.953-2.798 4.891-3.141 4.891-0.1557 0-1.174-0.4418-2.262-0.9818-5.966-2.96-12.09-3.647-12.42-1.392-0.1722 1.189 1.125 1.974 5.534 3.35 3.957 1.234 5.155 1.653 6.435 2.251 0.7233 0.3376 1.404 0.6138 1.514 0.6138s0.9575 0.4902 1.885 1.089c1.969 1.272 3.925 3.245 4.233 4.271 0.119 0.396 0.4227 0.72 0.6748 0.72 0.6314 0 0.6898 10.88 0.0584 10.89-0.22 5e-3 -0.6684 0.5901-0.9965 1.301-0.6715 1.455-3.229 4.154-4.587 4.84-0.493 0.249-1.184 0.6148-1.536 0.8129-0.352 0.1981-1.636 0.6566-2.854 1.019-1.821 0.5419-3.07 0.6562-7.04 0.6447-3.212-9e-3 -5.232-0.1588-6.04-0.4469zm-147-1.018c-0.1866-0.4864 0.6629-3.415 1.195-4.121 0.1327-0.176 0.749-1.616 1.37-3.2 1.048-2.676 1.88-4.679 2.924-7.04 0.2334-0.528 0.7121-1.68 1.064-2.56 0.3516-0.88 1.086-2.619 1.632-3.864 1.02-2.325 3.705-8.917 5.79-14.22 0.381-0.968 0.8258-1.897 0.9884-2.064 0.1626-0.1672 0.2957-0.5114 0.2957-0.765s0.2809-1.053 0.6243-1.776c0.3434-0.7233 1.074-2.395 1.624-3.715s1.205-2.854 1.456-3.408c0.2506-0.5546 0.4556-1.207 0.4556-1.449s0.1955-0.7245 0.4345-1.072c0.239-0.3472 0.6211-1.207 0.8491-1.911s0.7544-1.82 1.17-2.48l0.7549-1.2h6.69c3.679 0 6.914 0.0859 7.187 0.1909 0.5127 0.1967 1.426 1.945 2.911 5.569 0.4687 1.144 1.041 2.512 1.272 3.04 0.9803 2.239 1.532 3.581 2.611 6.349 0.6284 1.612 1.255 3.075 1.392 3.251 0.1373 0.176 0.3553 0.68 0.4844 1.12 0.1291 0.44 0.4222 1.232 0.6512 1.76 0.405 0.9335 1.206 2.857 2.897 6.96 0.4534 1.1 1.013 2.432 1.245 2.96 0.9803 2.239 1.532 3.581 2.611 6.349 0.6284 1.612 1.255 3.075 1.392 3.251 0.1373 0.176 0.3541 0.68 0.4819 1.12 0.1278 0.44 0.4964 1.376 0.8193 2.08 0.3228 0.704 0.9486 2.222 1.391 3.374 0.442 1.152 1.249 3.087 1.794 4.301 1.668 3.718 2.059 3.51-6.808 3.61-4.668 0.0526-7.843-0.0387-8.212-0.2363-0.3311-0.1772-0.85-1.008-1.153-1.846s-0.8197-2.109-1.148-2.825c-0.3282-0.7156-0.5967-1.479-0.5967-1.696 0-0.5421-0.9692-2.39-1.405-2.678-0.5595-0.3701-18.7-0.2948-19.41 0.0806-0.3372 0.1804-0.8247 1.054-1.094 1.961-0.2671 0.8996-0.6132 1.797-0.769 1.995-0.1558 0.1974-0.4656 0.9348-0.6883 1.639-0.2228 0.704-0.6764 1.82-1.008 2.48l-0.6032 1.2h-7.684c-6.791 0-7.707-0.0603-7.883-0.519zm34.24-22.61c-0.0339-0.4896-0.2994-1.354-0.5899-1.92-0.5677-1.107-1.11-2.538-2.728-7.202-0.5754-1.659-1.186-2.92-1.383-2.854-0.1935 0.0645-0.6904 1.042-1.104 2.172-0.4139 1.13-0.9506 2.486-1.193 3.014s-0.6734 1.608-0.9584 2.4c-1.145 3.181-1.488 4.013-1.828 4.422-0.6714 0.809 0.4938 1.019 5.205 0.9379l4.64-0.0798zm28.45 22.75c-0.2906-0.2906-0.384-5.344-0.384-20.78v-20.4l0.7112-0.4981c0.587-0.4111 1.845-0.4982 7.2-0.4982 6.168 0 6.522 0.0333 7.162 0.6728 0.5732 0.5731 0.6439 0.9167 0.4774 2.32-0.1122 0.9467-0.0554 1.851 0.1337 2.127 0.2827 0.4124 0.4134 0.3797 0.9272-0.2318 0.329-0.3915 0.9402-1.111 1.358-1.6 1.912-2.234 5.198-3.878 7.996-4 2.502-0.1089 2.514-0.0694 2.514 8.154 0 4.213-0.1319 7.246-0.3313 7.619-0.2658 0.4967-0.6787 0.619-2.09 0.619-2.243 0-5.306 1.243-6.967 2.828-2.783 2.656-3.412 5.575-3.412 15.83 0 5.633-0.0852 6.917-0.4981 7.507-0.4888 0.6979-0.6287 0.7112-7.456 0.7112-4.985 0-7.067-0.1089-7.342-0.384z" style="stroke-width:.32"/>
  </g>
 </g>
</svg>
