<?xml version="1.0" encoding="UTF-8"?><svg xmlns="http://www.w3.org/2000/svg" viewBox="0 0 238.03125 62.3125"><defs><style>.cls-1{fill:#000;}.cls-2{fill:#003a88;}.cls-3{fill:#ed1b17;}</style></defs><path class="cls-2" d="M25.5625,28.375L.59375,39.90625c-.38269,1.4538-.59375,2.95782-.59375,4.53125,0,9.85714,7.98661,17.875,17.84375,17.875s17.875-8.01786,17.875-17.875c0-7.09484-4.15781-13.18247-10.15625-16.0625Z"/><path class="cls-3" d="M23,0C13.14286,0,5.125,7.98661,5.125,17.84375c0,6.76135,3.76693,12.62501,9.3125,15.65625l26.0625-12.0625c.238-1.16211.34375-2.36161.34375-3.59375C40.84375,7.98661,32.85714,0,23,0Z"/><path class="cls-1" d="M58.5625,17.59375c-4.70879,0-9.1978,2.43723-11.625,6.75-4.0682,7.22858-.34469,13.69754,4.125,16.25,2.81333,1.60658,8,2.5,8,6,0,2.03048-2,3.5-4,3.5-2.18704,0-4.21578-1.94082-3-6.5h-10.9375c-.25161,8.39581,2.23299,17,12.73299,17,10,0,16.20451-6,16.20451-13,0-10.5-6.5-12-12.5-14.5-3.24934-1.35389-2.20375-6.5,1-6.5,3,0,3.67945,2.471,3.5,5.5h9.9375c0-10-4.4375-14.5-13.4375-14.5ZM196.9375,17.84375c-4.70879,0-9.19781,2.43723-11.625,6.75-4.06821,7.22858-.3447,13.69754,4.125,16.25,2.81332,1.60658,8,2.5,8,6,0,2.03048-2,3.5-4,3.5-2.18704,0-4.21577-1.94082-3-6.5h-10.9375c-.25162,8.39581,2.49815,17,12.99815,17,10,0,15.93935-5.74031,15.93935-13,0-10.5-6.5-12-12.5-14.5-3.24934-1.35389-2.20375-6.5,1-6.5,3,0,3.67944,2.471,3.5,5.5h9.9375c0-10-4.4375-14.5-13.4375-14.5ZM140.53125,19.15625l-5.46875,39.9375h10l1.67677-11.5c2.66682-.1836,3.09004,1.76334,3.69823,4l.34375,7.5h10.28125c-.44563-4.8578-.70604-9.97319-5-13,8-2.5,9.67677-10.03033,9.67677-16.03033,0-7.37102-5.67532-10.90717-12.09636-10.90717-4.81282,0-8.29919-.00818-13.11166,0ZM76.78125,19.15625l-3.3125,23.6875c-1.33728,9.56284.59375,17.28033,11.33931,17.28033,11.75518,0,14.34955-9.02179,15.50444-17.28033l3.3125-23.6875h-9.25l-3.40625,24.25c-.43717,3.11235-1.90625,7.4451-5.33747,7.20266-3.15633-.22301-3.12222-4.37498-2.72503-7.20266l3.40625-24.25h-9.53125ZM108.71875,19.15625l-6.4375,39.75h9.21875l3.71875-19.8125c1.89578,6.60394,2.44978,17.90535,5.6875,19.8125h8.625l6.40625-39.75h-8.59375l-4.1875,18.84375c-1.65745-6.56814.64474-15.53348-6.34375-18.84375h-8.09375ZM170.1875,19.15625l-5.5625,39.75h10.4375l5.5625-39.75h-10.4375ZM215.0625,19.15625l-6.3125,39.75h22.125l1.28125-9.375h-11.09375l1.09375-7.46875h7.25l2.625-8.09375h-8.84375l1.125-5.59375h11.65625l2.0625-9.21875h-22.96875ZM149.89017,27.59375c3.5.5,5.67233,1.5,5.17233,6-.57648,5.18822-4.13573,5.25-6.63573,4.75l1.46339-10.75Z"/><path class="cls-3" d="M183.07895,10.13795c0,4.06126-3.29229,7.35355-7.35355,7.35355s-7.35355-3.2923-7.35355-7.35355,3.29229-7.35355,7.35355-7.35355,7.35355,3.2923,7.35355,7.35355Z"/></svg>