<?xml version="1.0" encoding="UTF-8" standalone="no"?>
<svg
   xmlns:dc="http://purl.org/dc/elements/1.1/"
   xmlns:cc="http://creativecommons.org/ns#"
   xmlns:rdf="http://www.w3.org/1999/02/22-rdf-syntax-ns#"
   xmlns:svg="http://www.w3.org/2000/svg"
   xmlns="http://www.w3.org/2000/svg"
   xmlns:sodipodi="http://sodipodi.sourceforge.net/DTD/sodipodi-0.dtd"
   xmlns:inkscape="http://www.inkscape.org/namespaces/inkscape"
   height="13.731544mm"
   width="135.46666mm"
   version="1.1"
   viewBox="0 0 530.24414 53.845468"
   id="svg831"
   sodipodi:docname="Silver_Link_Logo.svg"
   inkscape:version="0.92.2 (5c3e80d, 2017-08-06)">
  <metadata
     id="metadata837">
    <rdf:RDF>
      <cc:Work
         rdf:about="">
        <dc:format>image/svg+xml</dc:format>
        <dc:type
           rdf:resource="http://purl.org/dc/dcmitype/StillImage" />
        <dc:title></dc:title>
        <cc:license
           rdf:resource="" />
      </cc:Work>
    </rdf:RDF>
  </metadata>
  <defs
     id="defs835" />
  <sodipodi:namedview
     pagecolor="#ffffff"
     bordercolor="#666666"
     borderopacity="1"
     objecttolerance="10"
     gridtolerance="10"
     guidetolerance="10"
     inkscape:pageopacity="0"
     inkscape:pageshadow="2"
     inkscape:window-width="1920"
     inkscape:window-height="1001"
     id="namedview833"
     showgrid="false"
     scale-x="1.03751"
     inkscape:pagecheckerboard="true"
     viewbox-width="165.7"
     fit-margin-top="0"
     fit-margin-left="0"
     fit-margin-right="0"
     fit-margin-bottom="0"
     inkscape:zoom="1.6230438"
     inkscape:cx="190.12305"
     inkscape:cy="-0.67458761"
     inkscape:window-x="-9"
     inkscape:window-y="-9"
     inkscape:window-maximized="1"
     inkscape:current-layer="svg831" />
  <g
     transform="matrix(3.5413839,0,0,3.5413839,-333.79702,-1364.6309)"
     id="g829">
    <path
       d="m 239.77,396.2 h 4.3628 v 4.092 H 239.77 Z m -16.849,-10.611 h 4.5433 v 5.5563 l 4.764,-5.5563 h 6.0377 l -5.3557,5.5463 5.5964,9.1569 h -5.5964 l -3.0991,-6.0477 -2.3469,2.4572 v 3.5905 h -4.5433 v -14.703 z m -17.12,0 h 4.2424 l 5.5362,8.1339 v -8.1339 h 4.2826 v 14.703 h -4.2826 l -5.5062,-8.0737 v 8.0737 h -4.2725 v -14.703 z m -7.833,0 h 4.5534 v 14.703 h -4.5534 z m -13.901,0 h 4.5433 v 11.083 h 7.0908 v 3.6206 h -11.634 v -14.703 z M 161.3,400.292 v -14.703 h 7.5722 q 2.1062,0 3.2194,0.36106 1.1133,0.36106 1.7953,1.3439 0.682,0.97285 0.682,2.377 0,1.2236 -0.52153,2.1162 -0.52153,0.88259 -1.4342,1.4342 -0.58171,0.35103 -1.5947,0.5817 0.81238,0.2708 1.1835,0.54159 0.25073,0.18054 0.72212,0.77227 0.48141,0.59173 0.64188,0.91268 l 2.1964,4.2625 h -5.1351 l -2.4271,-4.4932 q -0.46135,-0.87256 -0.82241,-1.1333 -0.49145,-0.34101 -1.1133,-0.34101 h -0.40118 v 5.9675 h -4.5634 z m 4.5634,-8.7456 h 1.9156 q 0.31092,0 1.2035,-0.20059 0.45133,-0.0903 0.73216,-0.46135 0.29085,-0.37109 0.29085,-0.8525 0,-0.7121 -0.45133,-1.0932 -0.45132,-0.38112 -1.695,-0.38112 h -1.9959 v 2.9888 z m -19.477,-5.9575 h 12.176 v 3.1392 H 150.94 v 2.3369 h 7.0707 v 2.9988 H 150.94 v 2.8985 h 7.843 v 3.3298 h -12.396 v -14.703 z m -17.411,0 h 4.7539 l 3.3097,10.581 3.2596,-10.581 h 4.6135 l -5.456,14.703 h -4.9244 z m -11.223,0 h 4.5433 v 11.083 h 7.0908 v 3.6206 h -11.634 v -14.703 z m -7.8029,0 h 4.5534 v 14.703 h -4.5534 z m -15.816,9.8389 4.3227,-0.27079 q 0.14041,1.0531 0.57167,1.6047 0.70206,0.89263 2.0059,0.89263 0.97285,0 1.4944,-0.45133 0.53156,-0.46136 0.53156,-1.0631 0,-0.57167 -0.50147,-1.023 -0.50147,-0.45132 -2.3268,-0.8525 -2.9888,-0.67197 -4.2625,-1.7852 -1.2838,-1.1133 -1.2838,-2.8383 0,-1.1333 0.65191,-2.1363 0.66194,-1.013 1.9758,-1.5846 1.3239,-0.5817 3.6206,-0.5817 2.8183,0 4.2926,1.0531 1.4844,1.0431 1.7652,3.3298 l -4.2826,0.25074 q -0.1705,-0.99291 -0.72212,-1.4442 -0.54159,-0.45132 -1.5044,-0.45132 -0.79232,0 -1.1935,0.341 -0.40117,0.33097 -0.40117,0.81238 0,0.35103 0.33097,0.63185 0.32094,0.29086 1.5245,0.54159 2.9787,0.64189 4.2625,1.3038 1.2938,0.65192 1.8755,1.6248 0.59172,0.97286 0.59172,2.1764 0,1.4142 -0.78229,2.6076 -0.78229,1.1935 -2.1864,1.8153 -1.4041,0.6118 -3.5404,0.6118 -3.751,0 -5.1952,-1.4442 -1.4442,-1.4442 -1.6348,-3.6708 z"
       id="path827"
       inkscape:connector-curvature="0" />
  </g>
</svg>
