<?xml version="1.0" encoding="UTF-8"?>
<svg id="vlpa" width="136" height="35.1" enable-background="new -523 1410.5 145 35" version="1.1" viewBox="-523 1410 136 35.1" xml:space="preserve" xmlns="http://www.w3.org/2000/svg" xmlns:dc="http://purl.org/dc/elements/1.1/" xmlns:rdf="http://www.w3.org/1999/02/22-rdf-syntax-ns#"><title>Shaft Animation Studio logo</title><metadata><rdf:RDF><dc:format>image/svg+xml</dc:format><dc:type rdf:resource="http://purl.org/dc/dcmitype/StillImage"/><dc:title/></rdf:RDF></metadata><path d="m-523 1445 1.7-3.6 0.1-0.1h0.1s0.1 0 0.1 0.1l1.7 3.6c0 0.1 0 0.1-0.1 0.1h-0.6c-0.1 0-0.2-0.1-0.2-0.1l-0.2-0.4h-1.5l-0.2 0.4c0 0.1-0.1 0.1-0.2 0.1h-0.6c-0.1 0-0.1 0-0.1-0.1zm2.2-1.2-0.4-0.9-0.4 0.9zm7.5-2.4v0l0.2-0.1c0.1 0 0.1 0 0.1 0.1l2.1 2v-1.9c0-0.1 0-0.1 0.1-0.1h0.7c0.1 0 0.1 0 0.1 0.1v3.6c0 0.1 0 0.1-0.1 0.1s-0.1 0-0.1-0.1l-2.1-2.1v2c0 0.1 0 0.1-0.1 0.1h-0.7c-0.1 0-0.1 0-0.1-0.1zm9.7 0.1c0-0.1 0-0.1 0.1-0.1h0.7c0.1 0 0.1 0 0.1 0.1v3.6c0 0.1 0 0.1-0.1 0.1h-0.6c-0.1 0-0.1 0-0.1-0.1zm7.7-0.1s0.1-0.1 0 0l0.2-0.1s0.1 0 0.1 0.1l1.3 2.3 1.3-2.3 0.1-0.1h0.1s0.1 0 0.1 0.1l0.6 3.6c0 0.1 0 0.1-0.1 0.1h-0.7s-0.1 0-0.1-0.1l-0.2-1.7-0.9 1.7-0.1 0.1h-0.1s-0.1 0-0.1-0.1l-0.9-1.7-0.2 1.7-0.1 0.1h-0.6c-0.1 0-0.1 0-0.1-0.1zm9.6 3.6 1.7-3.6 0.1-0.1h0.1s0.1 0 0.1 0.1l1.7 3.6c0 0.1 0 0.1-0.1 0.1h-0.6c-0.1 0-0.2-0.1-0.2-0.1l-0.2-0.4h-1.5l-0.2 0.4c0 0.1-0.1 0.1-0.2 0.1h-0.6c-0.1 0-0.1 0-0.1-0.1zm2.2-1.2-0.4-0.9-0.4 0.9zm8.1-1.6h-0.8c-0.1 0-0.1 0-0.1-0.1v-0.6c0-0.1 0-0.1 0.1-0.1h2.4c0.1 0 0.1 0 0.1 0.1v0.6c0 0.1 0 0.1-0.1 0.1h-0.8v2.9c0 0.1 0 0.1-0.1 0.1h-0.7c-0.1 0-0.1 0-0.1-0.1zm7.9-0.7c0-0.1 0-0.1 0.1-0.1h0.7c0.1 0 0.1 0 0.1 0.1v3.6c0 0.1 0 0.1-0.1 0.1h-0.6c-0.1 0-0.1 0-0.1-0.1zm9-0.2c1.1 0 1.9 0.9 1.9 2s-0.9 1.9-2 1.9-1.9-0.9-1.9-1.9c0.1-1.1 0.9-2 2-2zm0 3c0.6 0 1.1-0.5 1.1-1.1s-0.5-1.1-1.1-1.1-1.1 0.5-1.1 1.1 0.5 1.1 1.1 1.1zm8.2-2.9c0-0.1 0-0.1 0.1-0.1h0.1c0.1 0 0.1 0 0.1 0.1l2.1 2v-1.9c0-0.1 0-0.1 0.1-0.1h0.7c0.1 0 0.1 0 0.1 0.1v3.6c0 0.1 0 0.1-0.1 0.1h-0.1c-0.1 0-0.1 0-0.1-0.1l-2.1-2.1v2c0 0.1 0 0.1-0.1 0.1h-0.7c-0.1 0-0.1 0-0.1-0.1zm16.5 3.4s-0.1-0.1 0-0.2l0.3-0.4c0-0.1 0.1-0.1 0.2 0 0.2 0.2 0.5 0.3 0.8 0.3 0.2 0 0.4-0.1 0.4-0.3-0.1-0.3-0.3-0.5-0.6-0.5-0.6-0.1-1-0.6-1.1-1.2 0-0.6 0.6-1.1 1.2-1.1h0.1c0.4 0 0.8 0.1 1.2 0.4 0.1 0 0.1 0.1 0 0.2l-0.3 0.4c-0.1 0.1-0.2 0.1-0.2 0-0.2-0.2-0.5-0.3-0.7-0.3s-0.3 0.1-0.3 0.3c0.1 0.3 0.3 0.4 0.6 0.5 0.6 0.1 1 0.6 1.1 1.2 0 0.7-0.6 1.2-1.3 1.1-0.6 0-1.1-0.1-1.4-0.4zm9.3-2.6h-0.8c-0.1 0-0.1 0-0.1-0.1v-0.6c0-0.1 0-0.1 0.1-0.1h2.4c0.1 0 0.1 0 0.1 0.1v0.6c0 0.1 0 0.1-0.1 0.1h-0.8v2.9c0 0.1 0 0.1-0.1 0.1h-0.7c-0.1 0-0.1 0-0.1-0.1zm7.9-0.7c0-0.1 0-0.1 0.1-0.1h0.7c0.1 0 0.1 0 0.1 0.1v2.2c0 0.3 0.3 0.6 0.6 0.6h0.1c0.3 0 0.6-0.2 0.7-0.5v-2.3c0-0.1 0-0.1 0.1-0.1h0.7c0.1 0 0.1 0 0.1 0.1v2.3c-0.1 0.9-0.8 1.5-1.7 1.4-0.8-0.1-1.4-0.7-1.4-1.4zm9.5 0c0-0.1 0-0.1 0.1-0.1h1.3c1 0 1.9 0.8 1.9 1.8s-0.8 1.9-1.8 1.9h-1.4c-0.1 0-0.1 0-0.1-0.1zm1.5 2.8c0.6 0 1.1-0.6 1-1.2 0-0.5-0.5-1-1-1h-0.6v2.2zm8.1-2.8c0-0.1 0-0.1 0.1-0.1h0.7c0.1 0 0.1 0 0.1 0.1v3.6c0 0.1 0 0.1-0.1 0.1h-0.7c-0.1 0-0.1 0-0.1-0.1zm9.1-0.2c1.1 0 1.9 0.9 1.9 2s-0.9 1.9-2 1.9-1.9-0.9-1.9-1.9c0-1.1 0.9-2 2-2zm0 3c0.6 0 1.1-0.5 1.1-1.1s-0.5-1.1-1.1-1.1-1.1 0.5-1.1 1.1 0.5 1.1 1.1 1.1zm-62.4-23.1c0 0.9-0.7 1.6-1.5 1.6-0.9 0-1.6-0.7-1.6-1.5 0-0.9 0.7-1.6 1.5-1.6 0.9-0.1 1.6 0.6 1.6 1.5zm-1.5-7 7.2 16.6c0.2 0.4 0.6 0.7 1.1 0.7 0.2 0 0.3 0 0.5-0.1 0.3-0.1 0.5-0.3 0.6-0.6s0.1-0.6 0-0.9l-8.3-19.1c-0.3-0.6-1-0.8-1.5-0.6-0.3 0.1-0.5 0.3-0.6 0.6l-8.3 19.1c-0.1 0.3-0.1 0.6 0 0.9s0.3 0.5 0.6 0.6c0.1 0.1 0.3 0.1 0.5 0.1 0.5 0 0.9-0.3 1.1-0.7zm-63.4-3.7c-1.8 0-3.6 0.6-4.9 1.8-1.4 1.3-2 3.3-1.6 5.1 0.7 2.1 2.5 3.7 4.7 4.1h0.3c0.5 0 1-0.3 1.1-0.8 0.1-0.3 0-0.6-0.1-0.8-0.2-0.3-0.4-0.4-0.7-0.5-1.4-0.2-2.6-1.2-3-2.5-0.2-1.1 0.1-2.2 0.9-2.9 0.9-0.8 2.1-1.2 3.3-1.2 1.5 0 2.9 0.4 4.2 1.2 0.5 0.3 1.2 0.1 1.6-0.4 0.2-0.3 0.2-0.6 0.1-0.8-0.1-0.3-0.3-0.5-0.5-0.7-1.7-1.1-3.5-1.6-5.4-1.6zm-5.4 16.8c-0.3 0-0.7 0.1-0.9 0.4-0.2 0.2-0.3 0.5-0.2 0.8 0 0.3 0.2 0.6 0.4 0.8 1.8 1.5 4.1 2.3 6.5 2.4 1.9 0 3.7-0.7 5.1-1.9 1.4-1.3 2-3.3 1.6-5.1-0.3-1.2-1.3-3.2-4.6-4.1h-0.3c-0.5 0-1 0.3-1.1 0.8-0.2 0.6 0.2 1.2 0.8 1.4 1.4 0.2 2.6 1.2 3 2.5 0.3 1.1-0.1 2.2-0.9 3-1 0.9-2.2 1.4-3.6 1.3-1.9-0.1-3.6-0.7-5.1-1.9-0.2-0.3-0.5-0.4-0.7-0.4zm43.3-16.5c-0.6 0-1.1 0.5-1.2 1.1v18.4c0 0.6 0.6 1.1 1.2 1.1s1.1-0.5 1.1-1.1v-18.4c0-0.6-0.5-1.1-1.1-1.1zm-10 9.2c-0.6 0-1.1 0.5-1.1 1.1s0.5 1.1 1.1 1.1h5.9c0.6 0 1.1-0.5 1.1-1.1s-0.5-1.1-1.1-1.1zm-4-9.2c-0.6 0-1.1 0.5-1.2 1.1v18.4c0 0.6 0.5 1.2 1.2 1.2 0.6 0 1.2-0.5 1.2-1.2v-18.4c-0.1-0.6-0.6-1.1-1.2-1.1zm68.9 9.2c-0.6 0-1.1 0.5-1.1 1.1s0.5 1.1 1.1 1.1h5.9c0.6 0 1.1-0.5 1.1-1.1s-0.5-1.1-1.1-1.1zm-4-9.2c-0.6 0-1.1 0.5-1.2 1.1v18.4c0 0.6 0.5 1.2 1.2 1.2 0.6 0 1.2-0.5 1.2-1.2v-17.3h9.9c0.6 0 1.1-0.5 1.1-1.1s-0.5-1.1-1.1-1.1zm33.4 3.9c-0.6 0-1.1 0.5-1.2 1.1v14.5c0 0.6 0.5 1.2 1.2 1.2 0.6 0 1.2-0.5 1.2-1.2v-14.5c-0.1-0.6-0.6-1.1-1.2-1.1zm-6-3.9c-0.6 0-1.1 0.5-1.1 1.1s0.5 1.1 1.1 1.1h11.9c0.6 0 1.1-0.5 1.1-1.1s-0.5-1.1-1.1-1.1z"/></svg>
