<svg xmlns="http://www.w3.org/2000/svg" xmlns:xlink="http://www.w3.org/1999/xlink" width="160" height="45" viewBox="0 0 160 45">
  <defs>
    <clipPath id="clip-path">
      <rect id="長方形_944" data-name="長方形 944" width="160" height="45" fill="none"/>
    </clipPath>
  </defs>
  <g id="logo_basic" transform="translate(0 0)">
    <rect id="長方形_941" data-name="長方形 941" width="80" height="45" transform="translate(80 0)"/>
    <rect id="長方形_942" data-name="長方形 942" width="80" height="45" transform="translate(0 0)" fill="#007bc3"/>
    <g id="グループ_15551" data-name="グループ 15551" transform="translate(0 0)">
      <g id="グループ_15550" data-name="グループ 15550" clip-path="url(#clip-path)">
        <path id="パス_50277" data-name="パス 50277" d="M14.079,38.082V40.44c0,2.239.4,3.279,1.479,3.279S16.9,42.177,16.9,40.571c0-3.213-.436-4.144-2.945-7.052-2.768-3.248-4.192-5.172-4.192-10.186,0-4.863,1.162-9.344,5.818-9.344,4.943,0,5.673,4.67,5.673,8.567v1.959H16.793V22.475c0-2.065-.245-3.087-1.18-3.087-.872,0-1.154,1.04-1.154,2.967,0,2.051.268,3.062,2.3,5.259,3.615,3.934,4.911,6.143,4.911,11.749,0,5.33-1.315,9.722-6.2,9.722-4.688,0-6.026-3.917-6.026-8.962V38.082Z" transform="translate(-6.116 -9.054)"/>
        <path id="パス_50278" data-name="パス 50278" d="M49.776,21.319H46.2V15.53H58.1v5.789H54.5V49.572h-4.72Z" transform="translate(-29.9 -10.051)"/>
        <path id="パス_50279" data-name="パス 50279" d="M89.091,15.53V41.454c0,1.985.436,3.046,1.514,3.046,1.141,0,1.493-1.208,1.493-3.046V15.53h4.785v25.5c0,6.035-2,9.018-6.351,9.018-4.271,0-6.2-2.885-6.2-9.071V15.53Z" transform="translate(-54.582 -10.051)"/>
        <path id="パス_50280" data-name="パス 50280" d="M127.9,15.53h5.811c5.064,0,6.81,3.2,6.81,10.244v12.8c0,5.866-.9,11-6.489,11H127.9ZM132.629,44.3h.922c1.852,0,2.16-1.674,2.16-4.33V24.721c0-2.514-.407-3.882-2.2-3.882h-.885Z" transform="translate(-82.777 -10.051)"/>
        <rect id="長方形_943" data-name="長方形 943" width="4.72" height="34.042" transform="translate(59.937 5.479)"/>
        <path id="パス_50281" data-name="パス 50281" d="M203.353,23.7V39.495c0,6.755-2.3,9.652-6.592,9.652-4.077,0-6.173-2.969-6.173-9.585V23.525c0-6.573,2.608-9.442,6.392-9.442,3.809,0,6.373,2.822,6.373,9.619m-7.984-.738v17.4c0,2.1.52,3.2,1.577,3.2,1.1,0,1.6-.994,1.6-3.232V22.913c0-2.127-.425-3.214-1.614-3.214-1.006,0-1.564,1.006-1.564,3.265" transform="translate(-123.353 -9.115)"/>
        <path id="パス_50282" data-name="パス 50282" d="M302.48,46.041V18.97c.2-2.009,1.7-3.511,2.334-3.511h-17.4c.632,0,2.134,1.5,2.334,3.514V46.038a4.915,4.915,0,0,1-.582,1.855S279.14,19.309,279.157,19.35c-.916-2.192.054-3.891.732-3.891H264.741c.587,0,1.39,1.274,1,3.037L255.775,46.6,245.612,31.061l10.249-13.872a4.561,4.561,0,0,1,2.287-1.73H242.7c.579,0,1.1,1.241.37,2.968l-6.257,9.6h-.087V18.981c.2-2.015,1.7-3.522,2.335-3.522H226.771V49.552h12.292c-.6,0-1.979-1.351-2.292-3.2V35.973h.086l6.455,10.7c.6,1.68.037,2.878-.532,2.878h24.676a2.966,2.966,0,0,1-.465-.363c-3.2-3.537,6.625-14.42,16.985-12.616a14.72,14.72,0,0,0-8.3,3.239l1.889,6.76c.359,1.735-.432,2.982-1.012,2.982h28.26c-.632,0-2.133-1.5-2.334-3.511M271.817,33.292c-.6.393-1.215.848-1.838,1.337l2.17-7.276,1.467,5.005a11.362,11.362,0,0,0-1.8.933" transform="translate(-146.771 -10.005)" fill="#007bc3"/>
      </g>
    </g>
  </g>
</svg>
