<?xml version="1.0" encoding="UTF-8"?>
<svg width="135.47mm" height="47.74mm" version="1.1" viewBox="0 0 135.47 47.74" xmlns="http://www.w3.org/2000/svg">
 <g transform="matrix(3.4132 0 0 3.4132 -22.112 -429.89)">
  <g transform="matrix(1.588,0,0,1.588,-1.2879,-81.797)">
   <path d="m18.874 132.72c0.04516-0.0801 0.08043-0.16545 0.10936-0.25471 0.02716-0.0914 0.03634-0.16651 0.02575-0.22754-0.01023-0.0667-0.04375-0.11994-0.09913-0.16122-0.05503-0.0413-0.13899-0.0621-0.254-0.0621-0.11536 0-0.22437 0.0208-0.32914 0.0621-0.10372 0.0413-0.20214 0.0974-0.29633 0.16898-0.08396 0.0649-0.15875 0.1397-0.22437 0.22367-0.06632 0.0825-0.12241 0.16404-0.16581 0.24271-0.05785 0.10336-0.09772 0.19861-0.12594 0.28645-0.02575 0.0875-0.0321 0.16687-0.01905 0.2346 0.01305 0.0691 0.04727 0.12312 0.1016 0.16122 0.05503 0.0388 0.14041 0.0578 0.254 0.0578 0.18768 0 0.3743-0.0638 0.55527-0.19332 0.18133-0.12912 0.33972-0.30903 0.46778-0.53869m0.46778-3e-3c-0.06174 0.11112-0.14781 0.21978-0.25647 0.32737-0.11042 0.10901-0.23178 0.19932-0.3676 0.27305-0.15169 0.0864-0.30692 0.15205-0.46672 0.19368-0.15981 0.042-0.32808 0.0628-0.49742 0.0628-0.14041 0-0.26388-0.019-0.36971-0.0582-0.10866-0.0381-0.1905-0.0942-0.24941-0.1658-0.0575-0.0716-0.08608-0.1591-0.08537-0.26388 0-0.10336 0.03598-0.21872 0.10795-0.34713 0.13794-0.24659 0.35384-0.45015 0.64417-0.60678 0.2921-0.1591 0.60008-0.23707 0.92675-0.23707 0.31327 0 0.52705 0.0744 0.64558 0.22472 0.1203 0.14923 0.10971 0.3489-0.03175 0.59726m-1.7928-1.4415c-0.03422 0.0614-0.09172 0.11606-0.17251 0.16122-0.08467 0.0455-0.16757 0.0681-0.24871 0.0681-0.07691 0-0.13018-0.0215-0.16263-0.0653-0.0314-0.043-0.0321-0.0942-7.06e-4 -0.15028 0.03351-0.0586 0.08996-0.10972 0.17074-0.15381 0.08043-0.0441 0.15946-0.066 0.23918-0.066 0.08396 0 0.14182 0.0205 0.17357 0.0614 0.0321 0.0416 0.03281 0.09 0.0011 0.14464m-0.97402 2.2377h-1.0746l0.05962-0.10725c0.03528-1e-3 0.07126-3e-3 0.10936-5e-3 0.03775-2e-3 0.07197-6e-3 0.10266-0.0127 0.04833-0.0109 0.08961-0.0282 0.12277-0.0515 0.03316-0.0247 0.06103-0.055 0.08573-0.0938l0.5461-0.97967c0.01976-0.0342 0.02646-0.066 0.02117-0.0942-0.0056-0.0286-0.02187-0.0522-0.04974-0.0705-0.02046-0.0134-0.05468-0.0261-0.10301-0.0346-0.04798-8e-3 -0.09349-0.0141-0.13617-0.0166l0.05962-0.10653 0.80045-0.037 0.01905 0.0219-0.72743 1.2986c-0.02152 0.0374-0.02893 0.0684-0.02258 0.0931 0.0064 0.0243 0.02752 0.0427 0.06456 0.0547 0.02681 0.01 0.05503 0.0176 0.0829 0.0229 0.02858 6e-3 0.06138 0.01 0.09913 0.0113zm-2.0584-0.29564 0.52105-0.93063c0.0042-0.0275 7.05e-4 -0.0572-0.0078-0.0896-0.0092-0.0318-0.02681-0.0607-0.05186-0.0878-0.02963-0.0258-0.06809-0.0498-0.11642-0.0677-0.04833-0.018-0.11183-0.0272-0.19085-0.0272-0.09208 0-0.18415 0.0176-0.27905 0.0505-0.09419 0.0346-0.18874 0.0822-0.28187 0.14463-0.08996 0.0593-0.17639 0.13547-0.26247 0.22931-0.08502 0.0924-0.1584 0.19509-0.22119 0.30762-0.04974 0.0907-0.08396 0.17145-0.10125 0.24554-0.01658 0.0734-0.01482 0.14322 0.0074 0.20566 0.0194 0.0596 0.05856 0.10795 0.1203 0.14464 0.06209 0.036 0.14922 0.0543 0.26494 0.0543 0.11994 0 0.23036-0.0183 0.3302-0.0554 0.10019-0.0374 0.18874-0.0787 0.26882-0.12382m0.65264 0.28222-0.79269 0.0374-0.02081-0.0247 0.08326-0.14958-0.01658-2e-3c-0.11183 0.061-0.23636 0.11324-0.37324 0.1524-0.13723 0.0402-0.26952 0.0603-0.39158 0.0603-0.12524 0-0.23601-0.0201-0.3309-0.0603-0.0949-0.0392-0.16828-0.0974-0.21414-0.17074-0.04727-0.0741-0.06703-0.16299-0.05997-0.26882 0.0056-0.10372 0.04445-0.21802 0.11465-0.34431 0.06597-0.1143 0.15452-0.22331 0.26846-0.32808 0.11324-0.10266 0.23989-0.19262 0.38029-0.26988 0.13476-0.0734 0.27834-0.13088 0.43603-0.17286 0.15593-0.0423 0.30268-0.0642 0.44415-0.0642 0.10266 0 0.19861 0.01 0.28822 0.0279 0.08925 0.0187 0.16157 0.043 0.21661 0.0716l0.31397-0.55351c0.02469-0.0455 0.03704-0.0886 0.03775-0.12559 0-0.0374-0.01411-0.0656-0.04127-0.0843-0.03069-0.0198-0.07832-0.0342-0.14464-0.0441-0.06526-9e-3 -0.14111-0.0159-0.22084-0.0201l0.05715-0.10125 0.93028-0.0385 0.01975 0.0254-1.204 2.1466c-0.02081 0.0374-0.02893 0.0691-0.02434 0.096 6e-3 0.0265 0.02328 0.048 0.05221 0.0653 0.01976 0.0134 0.05715 0.0222 0.1083 0.0254 0.05186 4e-3 0.09948 6e-3 0.14323 7e-3zm-2.701-1.1e-4 -0.74224 0.0374-0.02046-0.0247 0.11324-0.20108h-0.01411c-0.05045 0.0272-0.10689 0.0561-0.16898 0.0861-0.06209 0.0307-0.12912 0.0589-0.20073 0.0829-0.08361 0.03-0.16157 0.0522-0.23319 0.0688-0.07408 0.0162-0.16828 0.0247-0.28258 0.0247-0.19579 0-0.31962-0.0462-0.36971-0.13934-0.05186-0.0921-0.02681-0.22578 0.07056-0.40217l0.42686-0.76341c0.02152-0.0388 0.02999-0.0716 0.0247-0.0981-0.0053-0.0272-0.02187-0.0498-0.05045-0.0681-0.01905-0.0138-0.04727-0.0236-0.08467-0.0303-0.03634-6e-3 -0.07655-0.01-0.121-0.0116l0.05927-0.10619 0.75706-0.037 0.02081 0.0222-0.62195 1.1091c-0.06491 0.11642-0.07655 0.20285-0.0374 0.2607 0.03916 0.0582 0.10901 0.0871 0.21272 0.0871 0.08185 0 0.16122-9e-3 0.23601-0.0275 0.07514-0.019 0.14041-0.0402 0.19791-0.0642 0.05292-0.0229 0.10195-0.0469 0.14746-0.0723 0.04692-0.0258 0.08396-0.049 0.11289-0.0702l0.50588-0.90558c0.01976-0.036 0.02752-0.0677 0.02117-0.0949-0.0049-0.0275-0.02117-0.0512-0.04727-0.0695-0.01976-0.0134-0.05503-0.0229-0.10654-0.0254-0.0508-2e-3 -0.1076-5e-3 -0.17286-6e-3l0.05927-0.10619 0.82409-0.037 0.02046 0.0222-0.70732 1.2633c-0.02046 0.036-0.02681 0.0667-0.02081 0.0924 0.0064 0.0261 0.02293 0.0476 0.05045 0.0649 0.01976 0.012 0.04727 0.0198 0.08255 0.0236 0.03492 5e-3 0.07479 7e-3 0.12065 8e-3zm-2.742-0.041c-0.1143 0.0296-0.21978 0.0533-0.31679 0.072-0.097367 0.0197-0.20884 0.0296-0.33408 0.0296-0.18874 0-0.29916-0.0335-0.33761-0.10054-0.037394-0.0677-0.023283-0.16263 0.045861-0.2854l0.60642-1.0795h-0.40181l0.087842-0.15416h0.40781l0.2794-0.49566h0.4064l-0.27622 0.49566h0.63747l-0.08608 0.15416h-0.63288l-0.50271 0.89359c-0.037747 0.0667-0.064911 0.12382-0.083961 0.16898-0.018345 0.0448-0.023636 0.0833-0.016228 0.11536 0.00635 0.0321 0.028575 0.0568 0.068086 0.0723 0.038453 0.0162 0.098072 0.0243 0.17956 0.0243 0.037394 0 0.093839-3e-3 0.16863-7e-3 0.075847-5e-3 0.13229-0.0123 0.16828-0.0205zm-1.3605-0.98478c0.037394 0.0547 0.054681 0.11359 0.051153 0.17709-0.00388 0.0632-0.029281 0.139-0.080433 0.22402-0.11218 0.20143-0.30939 0.36936-0.58984 0.50059-0.28258 0.13264-0.57714 0.19826-0.88582 0.19826-0.14182 0-0.27411-0.0159-0.39829-0.0476-0.12277-0.0321-0.22613-0.0716-0.30515-0.11607l-0.16051 0.11743h-0.18203l0.40746-0.78493h0.1838c-0.016581 0.0974-0.020461 0.18344-0.014464 0.26035 0.0067 0.078 0.03175 0.15169 0.075494 0.21942 0.043392 0.0624 0.10583 0.11219 0.18803 0.15029 0.08255 0.0374 0.19156 0.0564 0.33055 0.0564 0.10442 0 0.19897-0.01 0.28681-0.0289 0.087842-0.019 0.16581-0.0462 0.23319-0.0829 0.067381-0.0339 0.12629-0.0748 0.17674-0.12277 0.051505-0.0473 0.093133-0.10406 0.12947-0.1658 0.050094-0.0903 0.061031-0.17427 0.032808-0.25294-0.027517-0.079-0.10089-0.13864-0.2226-0.17992-0.080786-0.0279-0.17462-0.0596-0.28116-0.0942-0.10513-0.0346-0.19614-0.0663-0.27023-0.0977-0.14852-0.0582-0.24518-0.13476-0.29175-0.22895-0.046567-0.0938-0.027517-0.21731 0.056444-0.3683 0.048683-0.0878 0.11924-0.16898 0.21308-0.24412 0.090664-0.0748 0.19826-0.14217 0.3235-0.2025 0.11783-0.0557 0.24412-0.0995 0.38312-0.13159 0.13476-0.0317 0.26705-0.048 0.39617-0.048 0.1457 0 0.26988 0.0169 0.36689 0.0508 0.096308 0.0339 0.18062 0.072 0.25188 0.1143l0.15346-0.10972h0.1845l-0.41169 0.76024h-0.18203c0.016228-0.0868 0.025753-0.16933 0.029281-0.24871 0.00353-0.0811-0.00917-0.1524-0.038806-0.2166-0.029633-0.0625-0.080433-0.11219-0.15416-0.15099-0.071967-0.0374-0.17427-0.0561-0.30833-0.0561-0.14146 0-0.28081 0.0328-0.42016 0.0995-0.13723 0.066-0.23072 0.14534-0.28363 0.23848-0.055033 0.0998-0.068086 0.18097-0.040569 0.24623 0.028222 0.0649 0.091017 0.11783 0.19015 0.15911 0.087489 0.0388 0.1778 0.0713 0.26846 0.0991 0.089606 0.0282 0.17568 0.0575 0.25576 0.0882 0.074083 0.0279 0.14182 0.0596 0.20567 0.0949 0.062442 0.036 0.11112 0.0776 0.14781 0.12453m16.373 2.6462c0.0032-8e-3 0.0049-0.013 0.0049-0.013l0.0025 0.013zm3.3662-0.49989c-0.41028 0-0.47625 0.25189-0.59126 0.49954-0.12241 0.26317-1.373 3.066-1.373 3.066l-0.43215-3.5616-2.1682 4e-3 -0.26317 0.4071h0.89182s-0.0074 0.018-0.02081 0.049l-0.0254-1e-3s-1.6704 3.5338-1.7939 3.671c-0.12382 0.13617-0.80821 0.51506-0.80821 0.51506l0.20391 0.31326s0.39899-0.29915 0.70485-0.31185c0.12806-5e-3 0.58526 3e-3 1.3159 5e-3 0.03069-0.0822 0.70062-1.5215 1.2206-2.6677l0.38206 2.624 0.89606 2e-3s1.7713-4.0425 1.7826-4.0707c0.03739-0.0868 0.08467-0.11748 0.19226-0.11748h1.3409l0.32385-0.4251zm-9.0764 0.6115 1.5833 3e-3 -0.79163 1.6828 1.8944-5e-3 -0.15416 0.36654-1.8944 4e-3 -0.74189 1.5332s1.5741 0.0247 1.797-0.0307c0.23495-0.0582 0.46073-0.24024 0.46073-0.24024l0.29492 0.36371s-0.40393 0.32068-0.61313 0.32632c-0.10125 3e-3 -3.2364-0.0102-3.5288 2e-3 -0.30268 0.013-0.70591 0.31256-0.70591 0.31256l-0.20355-0.31362s0.68439-0.37924 0.80857-0.51506c0.1263-0.13723 1.7946-3.4893 1.7946-3.4893m-5.1728 6e-3 1.5819 4e-3 -0.79163 1.6828 1.8789 2e-3 -0.16298 0.36371h-1.8732l-0.7627 1.5311s1.602 0.037 1.8242-0.019c0.23248-0.0575 0.45685-0.25012 0.45685-0.25012l0.25647 0.38065s-0.36724 0.30374-0.5775 0.31009c-0.09878 3e-3 -3.2194-0.0127-3.5098 0-0.30304 0.0127-0.72214 0.31432-0.72214 0.31432l-0.2032-0.31362s0.68474-0.37888 0.80821-0.5147c0.12382-0.13723 1.7967-3.4914 1.7967-3.4914m-2.7595-0.52749c-1.9816-1.0876-5.3125 0.40287-5.5499 0.53975l-0.27869 0.37077s1.6284-0.70097 3.0917-0.86325c1.4658-0.16051 2.2871 0.30904 2.5259 1.1984 0.29951 1.1028-0.96696 2.5051-1.6852 2.7905-0.72002 0.2854-1.7494 0.17216-1.7494 0.17216l2.2564-3.8485-2.7213 0.49671-0.28504 0.42792 0.99307-0.22401s-0.99554 1.6782-1.5434 2.5894c-0.20073 0.33514-0.37289 0.55351-0.38171 0.55845-0.18662 0.11712-0.62724 0.34748-0.62724 0.34748l0.23812 0.36442s0.40428-0.29633 0.73766-0.36865c0.052564-0.0109 0.21202-0.0173 0.43568-0.0208 0.66322-0.01 1.917 6e-3 2.8321-0.0116 1.3247-0.0254 2.4712-0.96802 2.8321-1.5949 0.18098-0.3175 0.8636-1.8358-1.1208-2.9242m7.0449-0.0883s3.8682 2e-3 4.0428 0c0.70097-6e-3 0.80257 1.0319 0.80257 1.0319l-0.44274 2e-3s0.0056-0.61101-0.42298-0.60818c-0.63923 4e-3 -4.1776-2e-3 -4.1776-2e-3zm-5.1776 9e-3s3.871 3e-3 4.0442 0c0.76271-0.0123 0.7867 1.029 0.7867 1.029l-0.4258 5e-3s0.01094-0.63394-0.41698-0.63077c-0.63923 4e-3 -4.1614 0-4.1614 0z" fill="#2a3e92"/>
   <path d="m27.928 134.43c-0.41099 0-0.4759 0.25224-0.59126 0.50059-0.12277 0.26388-1.3716 3.066-1.3716 3.066l-0.43603-3.5631-2.1654 5e-3 -0.26282 0.40816h0.89218s-0.0071 0.0173-0.02222 0.0487l-0.02364-1e-3s-1.6718 3.5345-1.7981 3.67c-0.12312 0.13758-0.80751 0.51611-0.80751 0.51611l0.20602 0.31362s0.3997-0.29915 0.70556-0.31185c0.12771-6e-3 0.58173 4e-3 1.3137 4e-3 0.03175-0.0822 0.70168-1.5222 1.2196-2.6684l0.38523 2.6254 0.89641 2e-3s1.7702-4.0432 1.7822-4.0711c0.03704-0.0861 0.08431-0.11677 0.19156-0.11677h1.3413l0.32173-0.42686zm-3.3662 0.5013c0.0032-8e-3 0.0049-0.0127 0.0049-0.0127l0.0021 0.013zm3.3662-0.5013c-0.41099 0-0.4759 0.25224-0.59126 0.50059-0.12277 0.26388-1.3716 3.066-1.3716 3.066l-0.43603-3.5631-2.1654 5e-3 -0.26282 0.40816h0.89218s-0.0071 0.0173-0.02222 0.0487l-0.02364-1e-3s-1.6718 3.5345-1.7981 3.67c-0.12312 0.13758-0.80751 0.51611-0.80751 0.51611l0.20602 0.31362s0.3997-0.29915 0.70556-0.31185c0.12771-6e-3 0.58173 4e-3 1.3137 4e-3 0.03175-0.0822 0.70168-1.5222 1.2196-2.6684l0.38523 2.6254 0.89641 2e-3s1.7702-4.0432 1.7822-4.0711c0.03704-0.0861 0.08431-0.11677 0.19156-0.11677h1.3413l0.32173-0.42686zm-9.0754 0.61168 1.5829 2e-3 -0.79163 1.6828 1.8948-4e-3 -0.15734 0.36547-1.8916 4e-3 -0.7426 1.5342s1.5748 0.0254 1.797-0.0314c0.23248-0.0582 0.46038-0.23883 0.46038-0.23883l0.29598 0.36336s-0.40287 0.32067-0.61666 0.32702c-0.09842 3e-3 -3.2332-0.0102-3.526 2e-3 -0.30233 0.0134-0.70626 0.31186-0.70626 0.31186l-0.20285-0.31327s0.6851-0.37888 0.80857-0.51647c0.12312-0.13546 1.7953-3.489 1.7953-3.489zl1.5829 2e-3 -0.79163 1.6828 1.8948-4e-3 -0.15734 0.36547-1.8916 4e-3 -0.7426 1.5342s1.5748 0.0254 1.797-0.0314c0.23248-0.0582 0.46038-0.23883 0.46038-0.23883l0.29598 0.36336s-0.40287 0.32067-0.61666 0.32702c-0.09842 3e-3 -3.2332-0.0102-3.526 2e-3 -0.30233 0.0134-0.70626 0.31186-0.70626 0.31186l-0.20285-0.31327s0.6851-0.37888 0.80857-0.51647c0.12312-0.13546 1.7953-3.489 1.7953-3.489m-0.89126-0.6097s3.8714 1e-3 4.0446 0c0.70026-6e-3 0.80116 1.0315 0.80116 1.0315l-0.43991 2e-3s6e-3 -0.60925-0.42333-0.60678c-0.63853 5e-3 -4.1779-2e-3 -4.1779-2e-3zm0 0s3.8714 1e-3 4.0446 0c0.70026-6e-3 0.80116 1.0315 0.80116 1.0315l-0.43991 2e-3s6e-3 -0.60925-0.42333-0.60678c-0.63853 5e-3 -4.1779-2e-3 -4.1779-2e-3zm-4.2822 0.61633 1.5794 4e-3 -0.79234 1.6824 1.8817 2e-3 -0.16263 0.36336h-1.8729l-0.7627 1.5314s1.5988 0.0381 1.8242-0.0187c0.23213-0.0579 0.45438-0.24941 0.45438-0.24941l0.25894 0.381s-0.36759 0.30374-0.57714 0.30974c-0.09913 3e-3 -3.2202-0.012-3.5101 0-0.30586 0.0127-0.72178 0.31432-0.72178 0.31432l-0.20673-0.31362s0.68509-0.37818 0.81104-0.51576c0.12382-0.13582 1.7967-3.4914 1.7967-3.4914zl1.5794 4e-3 -0.79234 1.6824 1.8817 2e-3 -0.16263 0.36336h-1.8729l-0.7627 1.5314s1.5988 0.0381 1.8242-0.0187c0.23213-0.0579 0.45438-0.24941 0.45438-0.24941l0.25894 0.381s-0.36759 0.30374-0.57714 0.30974c-0.09913 3e-3 -3.2202-0.012-3.5101 0-0.30586 0.0127-0.72178 0.31432-0.72178 0.31432l-0.20673-0.31362s0.68509-0.37818 0.81104-0.51576c0.12382-0.13582 1.7967-3.4914 1.7967-3.4914m-0.89193-0.60717s3.8682 2e-3 4.0446 0c0.76165-0.0127 0.78564 1.029 0.78564 1.029l-0.42792 4e-3s0.01199-0.63253-0.41381-0.62901c-0.63994 4e-3 -4.1614 0-4.1614 0zm0 0s3.8682 2e-3 4.0446 0c0.76165-0.0127 0.78564 1.029 0.78564 1.029l-0.42792 4e-3s0.01199-0.63253-0.41381-0.62901c-0.63994 4e-3 -4.1614 0-4.1614 0zm-1.8673 0.0816c-1.9847-1.0894-5.3142 0.40287-5.5499 0.53869l-0.27905 0.37007s1.6291-0.70097 3.0917-0.86149c1.4637-0.16192 2.2871 0.30868 2.5255 1.1966 0.29669 1.1031-0.96873 2.5047-1.6884 2.7905-0.71896 0.28504-1.7462 0.17392-1.7462 0.17392l2.2571-3.8485-2.7231 0.4946-0.28363 0.42792 0.99095-0.22225s-0.99307 1.6782-1.5409 2.588c-0.20038 0.3355-0.37536 0.55563-0.38382 0.56022-0.18486 0.11571-0.62618 0.34748-0.62618 0.34748l0.23848 0.36407s0.40358-0.29704 0.73872-0.36865c0.052211-0.0109 0.20849-0.0169 0.43533-0.0205 0.66287-0.01 1.9131 5e-3 2.8314-0.012 1.3257-0.0247 2.4691-0.96802 2.8317-1.5967 0.18239-0.31715 0.8643-1.8344-1.1197-2.9221zc-1.9847-1.0894-5.3142 0.40287-5.5499 0.53869l-0.27905 0.37007s1.6291-0.70097 3.0917-0.86149c1.4637-0.16192 2.2871 0.30868 2.5255 1.1966 0.29669 1.1031-0.96873 2.5047-1.6884 2.7905-0.71896 0.28504-1.7462 0.17392-1.7462 0.17392l2.2571-3.8485-2.7231 0.4946-0.28363 0.42792 0.99095-0.22225s-0.99307 1.6782-1.5409 2.588c-0.20038 0.3355-0.37536 0.55563-0.38382 0.56022-0.18486 0.11571-0.62618 0.34748-0.62618 0.34748l0.23848 0.36407s0.40358-0.29704 0.73872-0.36865c0.052211-0.0109 0.20849-0.0169 0.43533-0.0205 0.66287-0.01 1.9131 5e-3 2.8314-0.012 1.3257-0.0247 2.4691-0.96802 2.8317-1.5967 0.18239-0.31715 0.8643-1.8344-1.1197-2.9221m7.8014-1.9535c0.04762-0.0801 0.08361-0.16581 0.11183-0.25576 0.02787-0.0896 0.03669-0.1651 0.02575-0.22649-0.01058-0.0681-0.04374-0.12135-0.09878-0.16227-0.0575-0.0402-0.14146-0.06-0.254-0.06-0.11501 0-0.22472 0.0198-0.32914 0.06-0.10407 0.0409-0.20461 0.097-0.29528 0.17074-0.08502 0.0649-0.16087 0.13899-0.22613 0.22225-0.06632 0.0829-0.121 0.1651-0.16545 0.24342-0.0568 0.1023-0.09878 0.1972-0.12488 0.2868-0.02787 0.0879-0.03457 0.16546-0.02328 0.23284 0.01623 0.0709 0.04939 0.12453 0.10478 0.16333 0.05574 0.0381 0.14005 0.0575 0.2547 0.0575 0.18697 0 0.37394-0.0639 0.55562-0.19474 0.18098-0.12841 0.33584-0.30762 0.46426-0.53763zm0.47061-3e-3c-0.06209 0.11006-0.14746 0.22048-0.25682 0.32737-0.11007 0.1076-0.23389 0.19826-0.36724 0.27376-0.1517 0.0864-0.30762 0.15028-0.46708 0.19191-0.16157 0.042-0.32632 0.0632-0.49636 0.0632-0.14076 0-0.2667-0.0198-0.37218-0.0586-0.10583-0.0378-0.18944-0.0924-0.2473-0.1644-0.0568-0.0716-0.08573-0.16016-0.08573-0.26352 7.05e-4 -0.10372 0.03634-0.22014 0.1076-0.34784 0.13758-0.24765 0.35489-0.44944 0.64382-0.60819 0.28998-0.15663 0.60078-0.23495 0.92745-0.23495 0.31256 0 0.5267 0.0737 0.64488 0.22295 0.11818 0.15064 0.1076 0.34925-0.03104 0.59832zm-0.47061 3e-3c0.04762-0.0801 0.08361-0.16581 0.11183-0.25576 0.02787-0.0896 0.03669-0.1651 0.02575-0.22649-0.01058-0.0681-0.04374-0.12135-0.09878-0.16227-0.0575-0.0402-0.14146-0.06-0.254-0.06-0.11501 0-0.22472 0.0198-0.32914 0.06-0.10407 0.0409-0.20461 0.097-0.29528 0.17074-0.08502 0.0649-0.16087 0.13899-0.22613 0.22225-0.06632 0.0829-0.121 0.1651-0.16545 0.24342-0.0568 0.1023-0.09878 0.1972-0.12488 0.2868-0.02787 0.0879-0.03457 0.16546-0.02328 0.23284 0.01623 0.0709 0.04939 0.12453 0.10478 0.16333 0.05574 0.0381 0.14005 0.0575 0.2547 0.0575 0.18697 0 0.37394-0.0639 0.55562-0.19474 0.18098-0.12841 0.33584-0.30762 0.46426-0.53763m0.47061-3e-3c-0.06209 0.11006-0.14746 0.22048-0.25682 0.32737-0.11007 0.1076-0.23389 0.19826-0.36724 0.27376-0.1517 0.0864-0.30762 0.15028-0.46708 0.19191-0.16157 0.042-0.32632 0.0632-0.49636 0.0632-0.14076 0-0.2667-0.0198-0.37218-0.0586-0.10583-0.0378-0.18944-0.0924-0.2473-0.1644-0.0568-0.0716-0.08573-0.16016-0.08573-0.26352 7.05e-4 -0.10372 0.03634-0.22014 0.1076-0.34784 0.13758-0.24765 0.35489-0.44944 0.64382-0.60819 0.28998-0.15663 0.60078-0.23495 0.92745-0.23495 0.31256 0 0.5267 0.0737 0.64488 0.22295 0.11818 0.15064 0.1076 0.34925-0.03104 0.59832m-1.7921-1.4412c-0.03387 0.0614-0.09454 0.1143-0.17604 0.15981-0.08184 0.0459-0.16369 0.0681-0.24589 0.0681-0.07691 0-0.13053-0.0215-0.16263-0.0649-0.0321-0.043-0.0321-0.0928-7.05e-4 -0.14887 0.03351-0.0589 0.09031-0.11148 0.17039-0.15593 0.08184-0.0434 0.15946-0.0656 0.23566-0.0656 0.08537 0 0.14781 0.0208 0.1785 0.0617 0.03175 0.042 0.03175 0.0914 7.06e-4 0.1457zm-0.97472 2.2363h-1.0749l0.05997-0.10584c0.03563-1e-3 0.07161-3e-3 0.10936-5e-3 0.0381-2e-3 0.07303-6e-3 0.10301-0.0127 0.04798-0.0109 0.0889-0.0279 0.12277-0.0519 0.03316-0.024 0.06068-0.055 0.0829-0.0956l0.54928-0.97719c0.01834-0.0349 0.02575-0.0674 0.02046-0.0963-0.0049-0.0289-0.02187-0.0515-0.04939-0.0706-0.02117-0.0131-0.05539-0.024-0.10266-0.0325-0.04833-9e-3 -0.09455-0.0145-0.13652-0.0169l0.05962-0.10653 0.8001-0.037 0.0187 0.0222-0.72813 1.2968c-0.02011 0.0381-0.02787 0.0695-0.02081 0.0942 0.0063 0.0247 0.02752 0.043 0.06421 0.055 0.02716 0.01 0.05468 0.0173 0.08255 0.0233 0.02716 6e-3 0.06068 0.01 0.09878 0.0109zm0.97472-2.2363c-0.03387 0.0614-0.09454 0.1143-0.17604 0.15981-0.08184 0.0459-0.16369 0.0681-0.24589 0.0681-0.07691 0-0.13053-0.0215-0.16263-0.0649-0.0321-0.043-0.0321-0.0928-7.05e-4 -0.14887 0.03351-0.0589 0.09031-0.11148 0.17039-0.15593 0.08184-0.0434 0.15946-0.0656 0.23566-0.0656 0.08537 0 0.14781 0.0208 0.1785 0.0617 0.03175 0.042 0.03175 0.0914 7.06e-4 0.1457m-0.97472 2.2363h-1.0749l0.05997-0.10584c0.03563-1e-3 0.07161-3e-3 0.10936-5e-3 0.0381-2e-3 0.07303-6e-3 0.10301-0.0127 0.04798-0.0109 0.0889-0.0279 0.12277-0.0519 0.03316-0.024 0.06068-0.055 0.0829-0.0956l0.54928-0.97719c0.01834-0.0349 0.02575-0.0674 0.02046-0.0963-0.0049-0.0289-0.02187-0.0515-0.04939-0.0706-0.02117-0.0131-0.05539-0.024-0.10266-0.0325-0.04833-9e-3 -0.09455-0.0145-0.13652-0.0169l0.05962-0.10653 0.8001-0.037 0.0187 0.0222-0.72813 1.2968c-0.02011 0.0381-0.02787 0.0695-0.02081 0.0942 0.0063 0.0247 0.02752 0.043 0.06421 0.055 0.02716 0.01 0.05468 0.0173 0.08255 0.0233 0.02716 6e-3 0.06068 0.01 0.09878 0.0109zm-2.0587-0.2955 0.52176-0.92886c0.0032-0.0286 7.06e-4 -0.0586-0.0085-0.091-0.0092-0.0325-0.02611-0.0614-0.05186-0.0882-0.02893-0.0261-0.06773-0.0487-0.11606-0.0663-0.04868-0.018-0.11218-0.0265-0.19297-0.0265-0.08996 0-0.18239 0.0162-0.27693 0.0494-0.09419 0.0332-0.18909 0.0808-0.28293 0.14358-0.09102 0.0607-0.1778 0.13688-0.26141 0.22896-0.08431 0.0924-0.15769 0.19649-0.22119 0.30903-0.04974 0.0892-0.08396 0.1711-0.1009 0.24589-0.01764 0.0737-0.01482 0.14146 0.0071 0.2039 0.01975 0.06 0.05962 0.10936 0.121 0.14605 0.06174 0.0363 0.14887 0.0543 0.26141 0.0543 0.11959 0 0.23213-0.018 0.33232-0.0554 0.09948-0.0374 0.18944-0.079 0.26917-0.12488zm0.65299 0.28222-0.79375 0.037-0.01976-0.0243 0.08361-0.14852-0.01693-2e-3c-0.11324 0.061-0.23707 0.11218-0.37536 0.15169-0.13829 0.0399-0.26776 0.06-0.38876 0.06-0.12594 0-0.23671-0.0201-0.33408-0.06-0.09631-0.0395-0.16581-0.0967-0.21237-0.17004-0.04657-0.0741-0.06632-0.16439-0.05997-0.26881 0.0064-0.10337 0.0448-0.21908 0.11536-0.34431 0.06315-0.1143 0.15275-0.22472 0.26846-0.32738 0.11324-0.10336 0.23918-0.19473 0.38065-0.27199 0.13123-0.072 0.2794-0.12912 0.43498-0.17145 0.15628-0.0427 0.30339-0.0635 0.44132-0.0635 0.10619 0 0.20249 9e-3 0.29175 0.0272 0.08855 0.0191 0.16157 0.0427 0.21661 0.0723l0.31256-0.55562c0.02611-0.0455 0.0388-0.0871 0.0388-0.12418 0-0.037-0.0134-0.0653-0.04092-0.084-0.03034-0.0201-0.07902-0.0346-0.14746-0.0448-0.06562-0.0102-0.13794-0.0166-0.21802-0.0205l0.0568-0.1016 0.92992-0.0377 0.02046 0.0247-1.204 2.146c-0.02081 0.0374-0.02858 0.0709-0.02399 0.0974 0.0056 0.0265 0.02258 0.0487 0.05186 0.0656 0.02046 0.0138 0.05644 0.0222 0.10795 0.0257 0.05221 3e-3 0.10019 5e-3 0.14429 7e-3zm-0.65299-0.28222 0.52176-0.92886c0.0032-0.0286 7.06e-4 -0.0586-0.0085-0.091-0.0092-0.0325-0.02611-0.0614-0.05186-0.0882-0.02893-0.0261-0.06773-0.0487-0.11606-0.0663-0.04868-0.018-0.11218-0.0265-0.19297-0.0265-0.08996 0-0.18239 0.0162-0.27693 0.0494-0.09419 0.0332-0.18909 0.0808-0.28293 0.14358-0.09102 0.0607-0.1778 0.13688-0.26141 0.22896-0.08431 0.0924-0.15769 0.19649-0.22119 0.30903-0.04974 0.0892-0.08396 0.1711-0.1009 0.24589-0.01764 0.0737-0.01482 0.14146 0.0071 0.2039 0.01975 0.06 0.05962 0.10936 0.121 0.14605 0.06174 0.0363 0.14887 0.0543 0.26141 0.0543 0.11959 0 0.23213-0.018 0.33232-0.0554 0.09948-0.0374 0.18944-0.079 0.26917-0.12488m0.65299 0.28222-0.79375 0.037-0.01976-0.0243 0.08361-0.14852-0.01693-2e-3c-0.11324 0.061-0.23707 0.11218-0.37536 0.15169-0.13829 0.0399-0.26776 0.06-0.38876 0.06-0.12594 0-0.23671-0.0201-0.33408-0.06-0.09631-0.0395-0.16581-0.0967-0.21237-0.17004-0.04657-0.0741-0.06632-0.16439-0.05997-0.26881 0.0064-0.10337 0.0448-0.21908 0.11536-0.34431 0.06315-0.1143 0.15275-0.22472 0.26846-0.32738 0.11324-0.10336 0.23918-0.19473 0.38065-0.27199 0.13123-0.072 0.2794-0.12912 0.43498-0.17145 0.15628-0.0427 0.30339-0.0635 0.44132-0.0635 0.10619 0 0.20249 9e-3 0.29175 0.0272 0.08855 0.0191 0.16157 0.0427 0.21661 0.0723l0.31256-0.55562c0.02611-0.0455 0.0388-0.0871 0.0388-0.12418 0-0.037-0.0134-0.0653-0.04092-0.084-0.03034-0.0201-0.07902-0.0346-0.14746-0.0448-0.06562-0.0102-0.13794-0.0166-0.21802-0.0205l0.0568-0.1016 0.92992-0.0377 0.02046 0.0247-1.204 2.146c-0.02081 0.0374-0.02858 0.0709-0.02399 0.0974 0.0056 0.0265 0.02258 0.0487 0.05186 0.0656 0.02046 0.0138 0.05644 0.0222 0.10795 0.0257 0.05221 3e-3 0.10019 5e-3 0.14429 7e-3zm-2.7008 1.4e-4 -0.74224 0.0367-0.01976-0.0236 0.11148-0.20037h-0.01376c-0.05009 0.0272-0.10689 0.0561-0.16898 0.0864-0.06138 0.0303-0.12841 0.0579-0.20002 0.0818-0.08396 0.0289-0.1644 0.0519-0.23601 0.0681-0.07197 0.0166-0.1651 0.025-0.28152 0.025-0.19473 0-0.31891-0.0466-0.37148-0.13864-0.05045-0.0917-0.02716-0.22683 0.07338-0.40181l0.42686-0.76377c0.02258-0.0384 0.03104-0.0723 0.0254-0.0995-6e-3 -0.0268-0.02187-0.0494-0.05115-0.0681-0.01799-0.0138-0.04551-0.0229-0.08361-0.0293-0.0374-5e-3 -0.07796-9e-3 -0.12206-0.0102l0.05962-0.10618 0.75706-0.0378 0.02081 0.0226-0.62159 1.1088c-0.06456 0.11536-0.07796 0.20108-0.0381 0.26105 0.03986 0.0582 0.11042 0.0868 0.21026 0.0868 0.08396 0 0.16404-8e-3 0.23918-0.0275 0.07479-0.0187 0.14041-0.0402 0.19791-0.0646 0.05292-0.0226 0.1016-0.0483 0.14711-0.0734 0.04516-0.0257 0.0822-0.0487 0.11007-0.0705l0.508-0.90417c0.02081-0.0374 0.02752-0.0684 0.02258-0.096-6e-3 -0.0279-0.02152-0.0508-0.04833-0.0699-0.01976-0.013-0.05433-0.0212-0.10548-0.024-0.05115-2e-3 -0.10866-4e-3 -0.17357-5e-3l0.05891-0.10618 0.82374-0.0378 0.02187 0.0226-0.70767 1.2615c-0.02081 0.0356-0.02716 0.0677-0.02152 0.0942 0.0067 0.0258 0.02364 0.0473 0.0508 0.0646 0.01976 0.012 0.04692 0.0198 0.0822 0.024 0.03563 4e-3 0.07479 6e-3 0.11818 8e-3zm0 0-0.74224 0.0367-0.01976-0.0236 0.11148-0.20037h-0.01376c-0.05009 0.0272-0.10689 0.0561-0.16898 0.0864-0.06138 0.0303-0.12841 0.0579-0.20002 0.0818-0.08396 0.0289-0.1644 0.0519-0.23601 0.0681-0.07197 0.0166-0.1651 0.025-0.28152 0.025-0.19473 0-0.31891-0.0466-0.37148-0.13864-0.05045-0.0917-0.02716-0.22683 0.07338-0.40181l0.42686-0.76377c0.02258-0.0384 0.03104-0.0723 0.0254-0.0995-6e-3 -0.0268-0.02187-0.0494-0.05115-0.0681-0.01799-0.0138-0.04551-0.0229-0.08361-0.0293-0.0374-5e-3 -0.07796-9e-3 -0.12206-0.0102l0.05962-0.10618 0.75706-0.0378 0.02081 0.0226-0.62159 1.1088c-0.06456 0.11536-0.07796 0.20108-0.0381 0.26105 0.03986 0.0582 0.11042 0.0868 0.21026 0.0868 0.08396 0 0.16404-8e-3 0.23918-0.0275 0.07479-0.0187 0.14041-0.0402 0.19791-0.0646 0.05292-0.0226 0.1016-0.0483 0.14711-0.0734 0.04516-0.0257 0.0822-0.0487 0.11007-0.0705l0.508-0.90417c0.02081-0.0374 0.02752-0.0684 0.02258-0.096-6e-3 -0.0279-0.02152-0.0508-0.04833-0.0699-0.01976-0.013-0.05433-0.0212-0.10548-0.024-0.05115-2e-3 -0.10866-4e-3 -0.17357-5e-3l0.05891-0.10618 0.82374-0.0378 0.02187 0.0226-0.70767 1.2615c-0.02081 0.0356-0.02716 0.0677-0.02152 0.0942 0.0067 0.0258 0.02364 0.0473 0.0508 0.0646 0.01976 0.012 0.04692 0.0198 0.0822 0.024 0.03563 4e-3 0.07479 6e-3 0.11818 8e-3zm-2.7433-0.0408c-0.11289 0.0289-0.21766 0.0533-0.31574 0.0723-0.097014 0.0187-0.21061 0.0286-0.33655 0.0286-0.18521 0-0.29633-0.0335-0.33479-0.10018-0.038453-0.0663-0.023283-0.16158 0.045861-0.28505l0.60537-1.0802h-0.40111l0.085372-0.1524h0.41028l0.27728-0.49672h0.40887l-0.27905 0.49672h0.63818l-0.08608 0.1524h-0.63394l-0.49953 0.89535c-0.038453 0.0667-0.065617 0.12276-0.083961 0.16757-0.020461 0.0445-0.025753 0.0833-0.018344 0.11606 0.00635 0.0328 0.029986 0.0572 0.069497 0.073 0.039158 0.0159 0.098425 0.024 0.17921 0.024 0.037394 0 0.093133-2e-3 0.16933-7e-3 0.075847-5e-3 0.13088-0.0124 0.16545-0.0208zm0 0c-0.11289 0.0289-0.21766 0.0533-0.31574 0.0723-0.097014 0.0187-0.21061 0.0286-0.33655 0.0286-0.18521 0-0.29633-0.0335-0.33479-0.10018-0.038453-0.0663-0.023283-0.16158 0.045861-0.28505l0.60537-1.0802h-0.40111l0.085372-0.1524h0.41028l0.27728-0.49672h0.40887l-0.27905 0.49672h0.63818l-0.08608 0.1524h-0.63394l-0.49953 0.89535c-0.038453 0.0667-0.065617 0.12276-0.083961 0.16757-0.020461 0.0445-0.025753 0.0833-0.018344 0.11606 0.00635 0.0328 0.029986 0.0572 0.069497 0.073 0.039158 0.0159 0.098425 0.024 0.17921 0.024 0.037394 0 0.093133-2e-3 0.16933-7e-3 0.075847-5e-3 0.13088-0.0124 0.16545-0.0208zm-1.3605-0.98531c0.035983 0.0547 0.052917 0.11501 0.049389 0.17815-0.00318 0.0635-0.029281 0.13794-0.076906 0.22296-0.11289 0.20285-0.30974 0.369-0.59267 0.502-0.28152 0.13123-0.57468 0.1972-0.88441 0.1972-0.14146 0-0.2734-0.0162-0.39829-0.0483-0.12524-0.0321-0.22578-0.0702-0.30409-0.11394l-0.16087 0.11571h-0.18168l0.4064-0.78352h0.18168c-0.015875 0.0956-0.020814 0.18309-0.014464 0.2607 6e-3 0.0776 0.03175 0.14958 0.07867 0.21766 0.042686 0.0635 0.10548 0.11395 0.18732 0.15135 0.082903 0.0381 0.19297 0.0564 0.32949 0.0564 0.10301 0 0.20108-9e-3 0.28892-0.0286 0.08643-0.019 0.16475-0.0462 0.23283-0.0825 0.066675-0.0342 0.12488-0.0766 0.17533-0.12418 0.049389-0.048 0.092075-0.10301 0.12735-0.1651 0.053269-0.0896 0.0635-0.17533 0.035278-0.2533-0.028575-0.0783-0.10301-0.13793-0.22154-0.17886-0.081139-0.0296-0.17498-0.0614-0.28046-0.0956-0.10654-0.0346-0.19756-0.0667-0.2734-0.0967-0.1464-0.0586-0.24306-0.13476-0.28928-0.23036-0.046567-0.0935-0.027869-0.2159 0.056797-0.36795 0.048683-0.0868 0.11853-0.16722 0.2099-0.24306 0.09278-0.0766 0.20249-0.14358 0.32526-0.20215 0.11712-0.0561 0.24518-0.0998 0.38135-0.13193 0.13794-0.0321 0.26988-0.0494 0.39864-0.0494 0.1457 0 0.26635 0.0183 0.36477 0.0522s0.18274 0.072 0.254 0.11465l0.15346-0.11007h0.18168l-0.40958 0.76024h-0.18309c0.016933-0.0864 0.027164-0.17074 0.031044-0.24977 0.00318-0.0794-0.010936-0.15169-0.041981-0.2166-0.028928-0.0624-0.079375-0.11254-0.15099-0.14993-0.071614-0.0374-0.17462-0.0564-0.30833-0.0564-0.14182 0-0.28363 0.0335-0.41981 0.0988-0.13688 0.0656-0.23248 0.14605-0.28399 0.23918-0.054328 0.0984-0.068439 0.17992-0.040922 0.2466 0.027164 0.0646 0.090664 0.11782 0.1905 0.15875 0.088547 0.0374 0.17639 0.0698 0.26635 0.0984 0.091722 0.0279 0.17674 0.0575 0.25823 0.0896 0.074436 0.0279 0.14252 0.0596 0.20532 0.0949 0.063147 0.0349 0.11183 0.0762 0.14676 0.12277zc0.035983 0.0547 0.052917 0.11501 0.049389 0.17815-0.00318 0.0635-0.029281 0.13794-0.076906 0.22296-0.11289 0.20285-0.30974 0.369-0.59267 0.502-0.28152 0.13123-0.57468 0.1972-0.88441 0.1972-0.14146 0-0.2734-0.0162-0.39829-0.0483-0.12524-0.0321-0.22578-0.0702-0.30409-0.11394l-0.16087 0.11571h-0.18168l0.4064-0.78352h0.18168c-0.015875 0.0956-0.020814 0.18309-0.014464 0.2607 6e-3 0.0776 0.03175 0.14958 0.07867 0.21766 0.042686 0.0635 0.10548 0.11395 0.18732 0.15135 0.082903 0.0381 0.19297 0.0564 0.32949 0.0564 0.10301 0 0.20108-9e-3 0.28892-0.0286 0.08643-0.019 0.16475-0.0462 0.23283-0.0825 0.066675-0.0342 0.12488-0.0766 0.17533-0.12418 0.049389-0.048 0.092075-0.10301 0.12735-0.1651 0.053269-0.0896 0.0635-0.17533 0.035278-0.2533-0.028575-0.0783-0.10301-0.13793-0.22154-0.17886-0.081139-0.0296-0.17498-0.0614-0.28046-0.0956-0.10654-0.0346-0.19756-0.0667-0.2734-0.0967-0.1464-0.0586-0.24306-0.13476-0.28928-0.23036-0.046567-0.0935-0.027869-0.2159 0.056797-0.36795 0.048683-0.0868 0.11853-0.16722 0.2099-0.24306 0.09278-0.0766 0.20249-0.14358 0.32526-0.20215 0.11712-0.0561 0.24518-0.0998 0.38135-0.13193 0.13794-0.0321 0.26988-0.0494 0.39864-0.0494 0.1457 0 0.26635 0.0183 0.36477 0.0522s0.18274 0.072 0.254 0.11465l0.15346-0.11007h0.18168l-0.40958 0.76024h-0.18309c0.016933-0.0864 0.027164-0.17074 0.031044-0.24977 0.00318-0.0794-0.010936-0.15169-0.041981-0.2166-0.028928-0.0624-0.079375-0.11254-0.15099-0.14993-0.071614-0.0374-0.17462-0.0564-0.30833-0.0564-0.14182 0-0.28363 0.0335-0.41981 0.0988-0.13688 0.0656-0.23248 0.14605-0.28399 0.23918-0.054328 0.0984-0.068439 0.17992-0.040922 0.2466 0.027164 0.0646 0.090664 0.11782 0.1905 0.15875 0.088547 0.0374 0.17639 0.0698 0.26635 0.0984 0.091722 0.0279 0.17674 0.0575 0.25823 0.0896 0.074436 0.0279 0.14252 0.0596 0.20532 0.0949 0.063147 0.0349 0.11183 0.0762 0.14676 0.12277" fill="#4081cb" stroke="#4081cb" stroke-width=".10195"/>
  </g>
 </g>
</svg>
