<?xml version="1.0" encoding="UTF-8"?>
<!-- Created with Inkscape by Vulphere (http://www.inkscape.org/) -->
<svg width="523.0428" height="210.4492" version="1.1" viewBox="0 0 523.0428 210.4492" xmlns="http://www.w3.org/2000/svg">
<title>Studio Bind logo</title>
<desc>Japanese animation studio</desc>
 <g transform="translate(-.1160234 246.4321)">
  <g transform="translate(0 -262.4261)" fill="#1a1a1a">
   <g transform="translate(0 287.0701)" stroke-width=".32">
    <path d="m36.25739-95.31998c-1.771347-1.08006-2.582685-2.92619-2.194762-4.994005 0.151402-0.80705 0.855338-1.81186 2.432423-3.47212 1.220649-1.28503 2.436621-2.85638 2.702157-3.4919 1.237993-2.96293-0.128807-7.01382-2.191812-6.49604-0.871849 0.21883-1.470854 1.46918-3.085181 6.43999-1.813948 5.58549-3.813549 8.552914-6.86379 10.18592-1.082345 0.57946-1.824832 0.69403-4.496421 0.69382-2.85019-2.2e-4 -3.377125-0.0937-4.820306-0.85514-4.188822-2.210081-6.620723-7.506865-6.064953-13.20974 0.469335-4.81595 2.873972-9.94186 5.486236-11.69486 2.398407-1.60949 5.44853-0.78788 6.675729 1.79826 0.840537 1.7713 0.495918 3.1718-1.479682 6.0133l-1.717024 2.46958v2.56701c0 2.31151 0.07519 2.62797 0.755451 3.17943 1.731066 1.40332 2.541321 0.46532 4.221926-4.88751 1.525036-4.85734 2.625584-7.20145 4.282061-9.12057 3.425282-3.96837 10.15099-4.21359 14.25926-0.5199 5.209117 4.68344 6.105665 13.37978 2.07225 20.10039-2.919923 4.865285-7.066762 7.066475-9.973562 5.294085zm-21.43616-30.37904c-2.485499-1.15987-2.501222-1.24558-2.501222-13.63504 0-10.33857 0.03221-10.93573 0.647321-12 0.833407-1.44197 3.12711-2.65658 4.47268-2.36847 3.017558 0.64611 3.982319 2.28147 3.992972 6.76847l7e-3 2.96h11.71643c11.41914 0 11.74769 0.0176 12.94841 0.69241 1.447146 0.81334 2.215162 2.23713 2.215162 4.10658 0 1.77623-0.8136 3.07305-2.414042 3.84781-1.229431 0.59517-2.003447 0.6332-12.88696 0.6332h-11.57897l-5.12e-4 2.96c-3.52e-4 2.18557-0.146881 3.24708-0.56 4.05725-1.171123 2.29672-3.64453 3.10419-6.058282 1.97779zm-0.288362-30.55665c-2.36528-1.06157-3.232846-3.74136-2.002498-6.18543 1.325021-2.63214 1.428236-2.65296 13.15492-2.65296 11.00521 0 11.48418-0.0641 13.03472-1.74454 0.719668-0.77996 0.800001-1.13419 0.800001-3.52765 0-2.20803-0.108868-2.78271-0.640001-3.37838-1.337356-1.49984-2.05198-1.58931-12.70972-1.59121-5.919048-9.6e-4 -10.49823-0.1373-11.20418-0.33336-3.935259-1.09291-3.933553-7.4671 0.0023-8.639 0.807794-0.24051 4.850516-0.3186 12.55159-0.24244 13.13974 0.12996 13.53109 0.20466 16.82047 3.21097 3.016247 2.75668 4.408852 6.40314 4.358861 11.41346-0.05089 5.10052-1.76303 8.80983-5.169334 11.19921-3.766164 2.64181-4.119584 2.70098-16.81 2.81433-9.017523 0.0805-11.39236 0.0137-12.18714-0.343zm1.676801-32.34515c-2.988723-1.06563-3.776507-2.71874-3.97117-8.33324-0.27538-7.94252 0.671168-12.0102 3.587547-15.41706 4.52771-5.28919 13.45403-7.09148 21.87893-4.41753 3.262179 1.03537 5.499709 2.60492 7.432439 5.21359 2.503929 3.37963 2.862592 4.95645 2.862592 12.58499 0 4.66164-0.117389 6.65752-0.43649 7.42123-0.556499 1.3319-2.128016 2.65705-3.653446 3.0807-1.916125 0.53216-26.16146 0.41603-27.7004-0.13268zm22.65145-11.53324c-0.02595-3.5159-0.331607-4.79024-1.456196-6.07107-1.438755-1.63865-3.81336-2.40932-7.416916-2.40714-3.575535 2e-3 -5.0194 0.36926-6.47329 1.64579-1.427227 1.25312-2.074706 3.40513-2.074706 6.89565v2.66706l17.44-0.1702-0.01888-2.56zm-23.09309-21.2707c-3.209951-0.76265-4.653417-3.62344-3.221988-6.38562 1.3747-2.65271 0.898701-2.58384 17.84898-2.58248 14.19872 1e-3 14.93222 0.03 15.90946 0.62585 1.495088 0.91161 2.115782 2.31977 1.942669 4.40729-0.17272 2.08277-1.3524 3.48476-3.315296 3.94004-1.504554 0.34897-27.69284 0.34441-29.16382-5e-3zm219.272-11.16757c-6.17436-1.77733-10.9506-6.40126-12.84464-12.43504-0.7356-2.34336-0.80988-3.01282-0.67456-6.08 0.17528-3.97272 0.69598-5.85843 2.39238-8.66398 3.48846-5.7693 9.34811-9.12735 15.92682-9.12735 5.21415 0 9.19219 1.68932 12.97077 5.50818 3.88239 3.92377 5.42923 7.65785 5.42923 13.10614 0 10.18455-8.32213 18.35521-18.60619 18.26753-1.50885-0.0129-3.51034-0.2636-4.59381-0.57548zm-210.331-2.60769c-6.946991-1.82011-11.79994-6.77609-12.87471-13.14806-1.365067-8.09303 2.932954-15.0171 11.20574-18.05232 3.196671-1.17284 8.360987-1.45355 11.96991-0.65064 4.69759 1.04511 9.090035 3.95266 11.39299 7.5415 3.09271 4.81957 3.09271 12.1314 0 16.95097-2.28832 3.56604-6.824819 6.55722-11.42224 7.53135-3.042278 0.64462-7.433738 0.57074-10.27169-0.1728zm9.739067-9.46737c5.466025-1.70533 6.987065-7.81828 2.80343-11.26679-4.224275-3.48201-12.90058-2.65374-15.52332 1.4819-1.052956 1.66034-1.257521 4.09199-0.49706 5.9085 0.873661 2.08691 3.62786 3.87845 6.928919 4.50708 1.293725 0.24637 4.511197-0.0763 6.288036-0.63069z" fill="#d9e259"/>
    <path d="m11.36-60.96753c-5.648538-1.38309-10.17673-6.35538-11.08176-12.16856-1.160865-7.45648 4.03668-14.90279 11.49751-16.47203 1.147317-0.24132 8.468527-0.35667 22.63707-0.35667h20.94132l0.08293-85.05664 0.08293-85.05663 1.227533-2.48371c2.223946-4.49978 6.251757-7.51004 10.959-8.19041 2.939718-0.42491 91.7324-0.43527 96.84878-0.0113 8.95594 0.74212 16.4579 3.34877 23.77979 8.26259 11.0474 7.41406 18.48463 18.63112 21.15572 31.90771 0.87821 4.36511 0.80111 14.51341-0.14349 18.88907-1.87898 8.70392-5.49326 16.07439-11.09886 22.6335l-2.13159 2.49418 1.9674 2.30582c4.41933 5.17951 7.87621 11.32284 9.85059 17.50582 2.7193 8.51577 3.03377 18.52259 0.85232 27.12212l-0.76306 3.00807 0.81328 1.22895c3.09225 4.6727 9.91161 5.08482 13.79681 0.8338 0.85137-0.93154 1.75527-2.25603 2.00866-2.94332 0.38785-1.05195 0.48734-7.32653 0.62893-39.66651l0.16819-38.41688 1.18975-2.407c1.90234-3.84868 5.39019-6.74952 9.35748-7.78259 6.9038-1.79774 13.90631 1.39617 17.06302 7.78259l1.18975 2.40701 0.16751 38.41688c0.14114 32.3693 0.24014 38.61359 0.62892 39.6665 0.25377 0.68729 1.15798 2.01178 2.00935 2.94332 1.7489 1.91358 4.10318 3.00706 6.47422 3.00706 3.28865 0 6.85364-2.32313 8.27125-5.38997l0.68875-1.49003 0.33902-100.48 0.69336-2.58855c5.72475-21.3724 26.1395-33.50065 47.34289-28.12606 3.91731 0.99295 9.36233 3.62231 12.76131 6.16232 5.18016 3.87109 9.0047 8.49259 11.84422 14.31229 2.1273 4.35997 3.26442 8.65934 3.6816 13.92 0.19338 2.43857 0.29578 22.05005 0.26231 50.24l-0.0549 46.24 0.72854 1.68942c0.92432 2.14337 3.28877 4.31551 5.49546 5.04846 3.40953 1.13247 7.5703-0.15462 9.77798-3.02473 2.14343-2.78659 2.00819 1.52709 2.00819-64.05753 0-58.16278 0.0134-59.47151 0.62852-61.46192 1.64758-5.33111 6.38172-9.40391 11.86246-10.20535 2.7176-0.39739 36.65066-0.37381 43.78679 0.0304 14.72259 0.83398 26.90112 3.93289 39.71737 10.10633 22.04176 10.61726 39.33063 27.92839 49.77111 49.83513 6.40768 13.44494 9.59174 26.89685 9.98368 42.17883 0.19206 7.48917-0.17494 13.46232-1.22528 19.94094-5.992 36.95958-31.9048 68.41803-67.16464 81.53869-7.17991 2.67174-14.95476 4.58887-23.84 5.87849-3.61511 0.52471-15.96496 0.56129-210.88 0.62461-162.4166 0.05275-207.3848-0.01719-208.64-0.32453zm417.92-29.73567c8.34771-1.46945 14.99782-3.60195 22.11753-7.09242 23.23978-11.39344 38.8552-33.50054 42.04858-59.52917 0.51491-4.1967 0.42986-13.42424-0.16502-17.90736-2.25482-16.99277-9.65853-32.05266-21.66909-44.07708-10.09562-10.10722-22.76307-17.13449-36.732-20.37704-6.71463-1.55864-8.76685-1.72043-23.76-1.87322l-14.32-0.14594-8e-3 50.83032c-5e-3 29.47132-0.13546 52.13764-0.31095 53.94148-0.54387 5.59046-2.26534 11.00024-4.96698 15.60884-8.38252 14.29938-24.37145 21.49623-40.82361 18.37531-13.25405-2.51424-25.02922-13.1427-29.07591-26.24434-1.63574-5.29592-1.61165-4.45663-1.61302-56.15289-1e-3 -55.07242 0.25165-50.33641-2.85562-53.44368-1.91138-1.91139-3.98841-2.8544-6.28693-2.8544-3.15255 0-6.79425 2.45472-8.17521 5.51058l-0.76346 1.68942-0.16175 50.24-0.16174 50.24-0.89697 3.2c-2.49953 8.91723-8.22127 16.96368-15.54716 21.86389-4.65565 3.11411-8.81409 4.87636-14.17764 6.00814-3.28445 0.69307-10.59842 0.77962-14.01474 0.16585-5.17006-0.92884-10.98928-3.32097-15.2-6.24831l-1.92-1.33481-1.76 1.24079c-2.2814 1.60836-6.92972 3.95315-9.72477 4.90553-11.9917 4.08603-26.18414 1.61844-35.93389-6.24769l-1.97865-1.59639-2.62497 1.75699c-6.40511 4.28718-13.92472 6.93783-22.13603 7.8029-1.64127 0.17291-13.44772 0.31238-26.48169 0.31283-25.63403 9.6e-4 -25.87446-0.0142-29.20755-1.82825-2.2017-1.19832-4.82344-3.92315-5.95662-6.19084-3.93128-7.8672-0.34682-17.18265 7.89224-20.51066l1.8316-0.73997 25.44001-0.16789c23.57437-0.15559 25.56907-0.21103 27.2-0.75598 5.74339-1.9191 9.87965-5.46432 12.47254-10.69032 1.2854-2.59072 1.91698-5.41897 1.92273-8.61006 6e-3 -3.58275-0.44462-5.50601-2.10127-8.95912-2.32676-4.84991-6.65234-8.61383-11.974-10.41922-2.0578-0.69812-2.35159-0.70743-27.52-0.87154l-25.44001-0.16587-1.83192-0.73997c-5.39533-2.17934-9.00897-7.04207-9.43776-12.70003-0.5053-6.66742 3.34674-12.55402 9.8219-15.0096 1.72657-0.65477 2.36095-0.67414 27.20779-0.83074l25.44-0.16034 2.4-0.91676c5.95464-2.27457 10.3573-6.67859 12.39687-12.40069 1.10348-3.09586 1.36652-8.11813 0.58574-11.18369-1.78563-7.01092-6.6715-12.32732-13.43752-14.62161l-2.58509-0.87657h-79.68001l-0.08066 75.76265-0.08067 75.76264 170.8007-0.0902c161.3898-0.0852 170.977-0.12124 174.0007-0.6535z" fill="#26b58e"/>
   </g>
  </g>
 </g>
</svg>
