<?xml version="1.0" encoding="UTF-8" standalone="no"?>
<!-- Created with Inkscape (http://www.inkscape.org/) -->
<svg
   xmlns:dc="http://purl.org/dc/elements/1.1/"
   xmlns:cc="http://creativecommons.org/ns#"
   xmlns:rdf="http://www.w3.org/1999/02/22-rdf-syntax-ns#"
   xmlns:svg="http://www.w3.org/2000/svg"
   xmlns="http://www.w3.org/2000/svg"
   xmlns:sodipodi="http://sodipodi.sourceforge.net/DTD/sodipodi-0.dtd"
   xmlns:inkscape="http://www.inkscape.org/namespaces/inkscape"
   width="410"
   height="160"
   id="svg2"
   sodipodi:version="0.32"
   inkscape:version="0.45+0.46pre0+devel"
   version="1.0"
   sodipodi:docname="Studio Deen l.svg"
   inkscape:output_extension="org.inkscape.output.svg.inkscape">
  <defs
     id="defs4">
    <inkscape:perspective
       sodipodi:type="inkscape:persp3d"
       inkscape:vp_x="-50 : 600 : 1"
       inkscape:vp_y="0 : 1000 : 0"
       inkscape:vp_z="700 : 600 : 1"
       inkscape:persp3d-origin="300 : 400 : 1"
       id="perspective18" />
    <inkscape:perspective
       sodipodi:type="inkscape:persp3d"
       inkscape:vp_x="-50 : 600 : 1"
       inkscape:vp_y="0 : 1000 : 0"
       inkscape:vp_z="700 : 600 : 1"
       inkscape:persp3d-origin="300 : 400 : 1"
       id="perspective10" />
    <inkscape:perspective
       id="perspective2395"
       inkscape:persp3d-origin="300 : 400 : 1"
       inkscape:vp_z="700 : 600 : 1"
       inkscape:vp_y="0 : 1000 : 0"
       inkscape:vp_x="-50 : 600 : 1"
       sodipodi:type="inkscape:persp3d" />
  </defs>
  <sodipodi:namedview
     id="base"
     pagecolor="#ffffff"
     bordercolor="#666666"
     borderopacity="1.0"
     inkscape:pageopacity="0.0"
     inkscape:pageshadow="2"
     inkscape:zoom="0.98994949"
     inkscape:cx="395.18304"
     inkscape:cy="49.231618"
     inkscape:document-units="px"
     inkscape:current-layer="layer2"
     showgrid="false"
     inkscape:window-width="1280"
     inkscape:window-height="748"
     inkscape:window-x="0"
     inkscape:window-y="14" />
  <metadata
     id="metadata7">
    <rdf:RDF>
      <cc:Work
         rdf:about="">
        <dc:format>image/svg+xml</dc:format>
        <dc:type
           rdf:resource="http://purl.org/dc/dcmitype/StillImage" />
        <dc:title></dc:title>
        <dc:date></dc:date>
        <dc:creator>
          <cc:Agent>
            <dc:title></dc:title>
          </cc:Agent>
        </dc:creator>
        <dc:rights>
          <cc:Agent>
            <dc:title></dc:title>
          </cc:Agent>
        </dc:rights>
        <dc:publisher>
          <cc:Agent>
            <dc:title></dc:title>
          </cc:Agent>
        </dc:publisher>
        <dc:identifier></dc:identifier>
        <dc:source></dc:source>
        <dc:relation></dc:relation>
        <dc:language></dc:language>
        <dc:subject>
          <rdf:Bag />
        </dc:subject>
        <dc:coverage></dc:coverage>
        <dc:description></dc:description>
        <dc:contributor>
          <cc:Agent>
            <dc:title></dc:title>
          </cc:Agent>
        </dc:contributor>
        <cc:license
           rdf:resource="" />
      </cc:Work>
    </rdf:RDF>
  </metadata>
  <g
     inkscape:label="1. réteg"
     inkscape:groupmode="layer"
     id="layer1"
     style="display:inline">
    <path
       style="font-size:60.13251877px;font-style:italic;font-variant:normal;font-weight:normal;font-stretch:normal;text-align:start;line-height:125%;writing-mode:lr-tb;text-anchor:start;fill:#0967a8;fill-opacity:1;stroke:none;stroke-width:1px;stroke-linecap:butt;stroke-linejoin:miter;stroke-opacity:1;font-family:Vani;-inkscape-font-specification:Vani Italic"
       d="M 97.500721,43.594805 C 98.048768,44.573542 98.335349,45.645239 98.360465,46.809898 C 98.385508,47.974589 98.135018,49.330114 97.608992,50.876477 C 96.358644,54.55647 93.967207,57.590497 90.434673,59.978567 C 86.902083,62.366643 83.119642,63.560679 79.087339,63.56068 C 77.227758,63.560679 75.46637,63.271957 73.803172,62.694513 C 72.139951,62.11707 70.77311,61.417286 69.702644,60.59516 L 67.711562,62.738556 L 65.362635,62.738556 L 69.799904,48.468827 L 72.178192,48.468827 C 72.0693,50.230535 72.101414,51.820952 72.274535,53.240084 C 72.447636,54.659235 72.863285,55.985399 73.521485,57.218578 C 74.14663,58.373472 75.022889,59.293467 76.150264,59.978567 C 77.277611,60.663673 78.741713,61.006224 80.542573,61.006222 C 81.893186,61.006224 83.132488,60.830055 84.260483,60.477714 C 85.388434,60.125378 86.375716,59.626231 87.222333,58.980273 C 88.067676,58.334323 88.790092,57.575816 89.389584,56.704751 C 89.989022,55.833697 90.48144,54.830511 90.866839,53.695189 C 91.433243,52.031376 91.491049,50.480108 91.040256,49.041378 C 90.589405,47.602676 89.560221,46.511405 87.952702,45.767562 C 86.854065,45.258645 85.587236,44.695882 84.152212,44.079271 C 82.717144,43.462697 81.496193,42.880359 80.489355,42.332257 C 78.498868,41.275261 77.143955,39.890375 76.424611,38.177593 C 75.705239,36.46486 75.814733,34.228489 76.753094,31.468472 C 77.291374,29.882979 78.11625,28.405114 79.227724,27.034873 C 80.339165,25.664703 81.674809,24.441305 83.234663,23.364675 C 84.716177,22.346847 86.328309,21.549192 88.071066,20.971706 C 89.81377,20.394304 91.526833,20.105582 93.21026,20.10554 C 95.128517,20.105582 96.746461,20.399198 98.064097,20.986387 C 99.38166,21.57366 100.53349,22.258763 101.51959,23.041698 L 103.4024,21.04511 L 105.75133,21.04511 L 101.28653,34.874415 L 98.908242,34.874415 C 99.015864,33.288919 99.046755,31.771905 99.000914,30.32337 C 98.955,28.874899 98.700839,27.563416 98.238431,26.388918 C 97.783291,25.253641 97.063627,24.348326 96.079437,23.672972 C 95.09518,22.997695 93.722221,22.660037 91.960558,22.659997 C 90.100963,22.660037 88.312355,23.257055 86.594729,24.451054 C 84.877054,25.645128 83.725836,27.103419 83.141073,28.825929 C 82.529353,30.626805 82.443103,32.119351 82.882324,33.30357 C 83.321503,34.487849 84.213972,35.461674 85.559733,36.225048 C 86.75497,36.910177 87.957876,37.502302 89.168455,38.001423 C 90.37898,38.500595 91.533562,39.033996 92.632204,39.60163 C 93.634136,40.110586 94.568507,40.68803 95.435317,41.333963 C 96.302062,41.979938 96.990529,42.733552 97.500721,43.594805 L 97.500721,43.594805 z M 116.33251,61.446646 C 114.88031,61.975155 113.52509,62.420472 112.26684,62.782598 C 111.00856,63.144724 109.55731,63.325787 107.91307,63.325787 C 105.48584,63.325787 103.98595,62.714088 103.41341,61.490689 C 102.84085,60.267292 102.93322,58.539854 103.69051,56.308369 L 110.35742,36.694833 L 105.13106,36.694833 L 106.08898,33.876121 L 111.43279,33.876121 L 114.49557,24.862116 L 119.83938,24.862116 L 116.7766,33.876121 L 125.08593,33.876121 L 124.12801,36.694833 L 115.8774,36.694833 L 110.37945,52.873064 C 109.96592,54.086685 109.66527,55.099659 109.47749,55.911988 C 109.28969,56.724331 109.25941,57.433902 109.38666,58.040703 C 109.50654,58.608364 109.82982,59.039 110.35651,59.332612 C 110.88317,59.626231 111.67501,59.773039 112.73204,59.773036 C 113.22138,59.773039 113.95573,59.728997 114.93508,59.640909 C 115.91439,59.552827 116.62304,59.440275 117.06104,59.303251 L 116.33251,61.446646 z M 150.02492,62.180686 L 140.37964,62.826641 L 140.07868,62.415578 L 141.32655,58.745381 L 141.15038,58.745381 C 140.51419,59.234744 139.80768,59.758358 139.03084,60.316225 C 138.25396,60.874097 137.40737,61.378137 136.49107,61.828347 C 135.43036,62.356856 134.44247,62.75813 133.52738,63.032172 C 132.61226,63.306212 131.4011,63.443233 129.89389,63.443234 C 127.32963,63.443233 125.66153,62.606429 124.88957,60.932819 C 124.1176,59.259212 124.27358,56.827097 125.35752,53.636466 L 130.06822,39.777799 C 130.30677,39.073145 130.37558,38.48102 130.27467,38.001423 C 130.17372,37.521876 129.92874,37.105921 129.53971,36.753556 C 129.26688,36.51869 128.88457,36.347414 128.39277,36.239729 C 127.90096,36.132096 127.36817,36.058692 126.7944,36.019517 L 127.44219,34.111014 L 137.34255,33.406336 L 137.64351,33.817398 L 130.80776,53.930081 C 130.09573,56.024547 130.02997,57.600284 130.61049,58.657296 C 131.19098,59.714316 132.13697,60.242824 133.44847,60.242821 C 134.52504,60.242824 135.54077,60.076442 136.49565,59.743674 C 137.4505,59.410913 138.28822,59.019426 139.00882,58.569211 C 139.67677,58.158154 140.28939,57.722624 140.84667,57.262621 C 141.40391,56.802629 141.85687,56.376886 142.20556,55.985392 L 147.78426,39.572268 C 148.00322,38.926337 148.06072,38.353787 147.95676,37.854616 C 147.85274,37.355494 147.6154,36.929751 147.24474,36.577387 C 146.97312,36.34252 146.49814,36.200606 145.81979,36.151644 C 145.14139,36.102734 144.37829,36.058692 143.5305,36.019517 L 144.17829,34.111014 L 154.93014,33.406336 L 155.23109,33.817398 L 147.41724,56.807516 C 147.19088,57.473051 147.13491,58.040707 147.24933,58.510488 C 147.36369,58.980277 147.60929,59.381552 147.98612,59.714313 C 148.26503,59.929634 148.63755,60.071548 149.1037,60.140056 C 149.56978,60.208569 150.09278,60.252611 150.67271,60.272183 L 150.02492,62.180686 z M 185.3469,62.180686 L 175.02631,62.826641 L 174.72535,62.415578 L 175.64474,59.714313 L 175.43003,59.65559 C 174.02554,60.790906 172.45164,61.720689 170.70832,62.44494 C 168.96496,63.169192 167.30053,63.531318 165.71502,63.531318 C 164.07075,63.531318 162.60512,63.164298 161.31812,62.430259 C 160.03109,61.696221 159.04565,60.663673 158.36177,59.332612 C 157.66688,57.981984 157.30414,56.357312 157.27356,54.45859 C 157.24297,52.559884 157.61733,50.465427 158.39664,48.175211 C 159.10743,46.080769 160.14426,44.09397 161.50713,42.21481 C 162.86999,40.335692 164.42738,38.691445 166.1793,37.282065 C 167.81863,35.970607 169.63752,34.923379 171.63596,34.140375 C 173.63436,33.357429 175.53399,32.965942 177.33486,32.965912 C 178.68547,32.965942 179.95352,33.137218 181.13902,33.47974 C 182.32446,33.822321 183.29707,34.25785 184.05683,34.78633 L 187.47929,24.715308 C 187.75941,23.893222 187.87716,23.144503 187.83254,22.469147 C 187.78785,21.793871 187.58079,21.280044 187.21136,20.927664 C 186.78926,20.555793 186.14147,20.286645 185.26799,20.12022 C 184.39445,19.953881 183.43286,19.831541 182.38322,19.753201 L 183.00165,17.932783 L 195.06375,17.257466 L 195.35553,17.69789 L 182.0841,56.748793 C 181.85162,57.433902 181.78586,58.016239 181.88682,58.495807 C 181.98772,58.975383 182.23638,59.381552 182.63279,59.714313 C 182.92393,59.949208 183.41207,60.096016 184.0972,60.154737 C 184.78227,60.213462 185.41477,60.252611 185.99469,60.272183 L 185.3469,62.180686 z M 176.4742,57.101132 L 182.23091,40.1595 C 182.24678,39.650589 182.17857,39.102506 182.02629,38.515251 C 181.87395,37.928044 181.61673,37.389749 181.25463,36.900364 C 180.85333,36.411031 180.32574,36.004863 179.67186,35.681858 C 179.01793,35.358908 178.18204,35.19742 177.1642,35.197392 C 175.98971,35.19742 174.80515,35.500823 173.61053,36.107601 C 172.41586,36.714433 171.24354,37.585493 170.09356,38.720782 C 168.99738,39.816971 167.95107,41.211644 166.95463,42.904808 C 165.95815,44.59801 165.11064,46.472256 164.4121,48.52755 C 163.85421,50.171811 163.50402,51.664357 163.3615,53.005192 C 163.21896,54.346045 163.32326,55.593911 163.67439,56.748793 C 163.98634,57.844964 164.56287,58.72581 165.40397,59.391335 C 166.24504,60.056867 167.39962,60.389632 168.86772,60.389629 C 170.43365,60.389632 171.84667,60.04708 173.10679,59.361974 C 174.36687,58.676874 175.48934,57.923261 176.4742,57.101132 L 176.4742,57.101132 z M 202.04997,62.709194 L 188.0445,62.709194 L 188.7033,60.77133 C 189.16696,60.732183 189.64531,60.693034 190.13835,60.653883 C 190.63137,60.614737 191.07363,60.536439 191.46512,60.418991 C 192.07315,60.242824 192.58422,59.934528 192.99835,59.494101 C 193.41246,59.053681 193.73941,58.481131 193.97921,57.776449 L 200.05522,39.895245 C 200.26808,39.268888 200.32068,38.696338 200.21304,38.177593 C 200.10537,37.658897 199.85702,37.223367 199.46799,36.871003 C 199.17558,36.636136 198.70549,36.435499 198.05772,36.26909 C 197.40991,36.102734 196.79913,35.999969 196.22537,35.960794 L 196.87316,34.052291 L 207.3112,33.406336 L 207.5828,33.817398 L 199.55974,57.42411 C 199.32606,58.109218 199.26489,58.676874 199.37623,59.127081 C 199.48755,59.577295 199.79095,59.91006 200.28644,60.125375 C 200.65712,60.301547 201.02964,60.443461 201.40402,60.551118 C 201.77836,60.658779 202.21328,60.732183 202.70877,60.77133 L 202.04997,62.709194 z M 212.19073,21.984681 C 211.81145,23.10046 211.1135,24.074285 210.09688,24.906158 C 209.08021,25.738107 208.0336,26.154062 206.95703,26.154025 C 205.95871,26.154062 205.22712,25.757681 204.76225,24.964881 C 204.29734,24.172157 204.238,23.266843 204.58425,22.248935 C 204.95002,21.172385 205.63635,20.232816 206.64323,19.430223 C 207.65006,18.627717 208.65264,18.226443 209.65095,18.226398 C 210.76667,18.226443 211.55362,18.603249 212.01181,19.356819 C 212.46994,20.110476 212.52958,20.986429 212.19073,21.984681 L 212.19073,21.984681 z M 238.8382,47.940319 C 238.14695,49.976068 237.14407,51.977547 235.82956,53.944762 C 234.51498,55.911995 233.02764,57.58071 231.36751,58.950912 C 229.48468,60.516865 227.52296,61.68154 225.48235,62.44494 C 223.4417,63.208341 221.31544,63.590041 219.10355,63.590042 C 217.26354,63.590041 215.6297,63.242596 214.202,62.547705 C 212.77428,61.852816 211.64081,60.839842 210.80156,59.508782 C 209.97454,58.197302 209.50506,56.597098 209.39312,54.708163 C 209.28118,52.819245 209.62465,50.700319 210.42353,48.351381 C 211.96011,43.829716 214.53384,40.130161 218.14471,37.252703 C 221.75555,34.375296 225.69459,32.93658 229.96183,32.936551 C 234.0137,32.93658 236.89205,34.301893 238.59689,37.032491 C 240.30166,39.763141 240.3821,43.39908 238.8382,47.940319 L 238.8382,47.940319 z M 232.74017,47.999042 C 233.23929,46.530979 233.61976,44.97971 233.8816,43.345231 C 234.14338,41.710791 234.17335,40.325904 233.97152,39.190567 C 233.75862,37.97698 233.26773,37.003155 232.49885,36.26909 C 231.72992,35.535078 230.61143,35.168058 229.14338,35.168031 C 227.63612,35.168058 226.22279,35.539971 224.90338,36.283771 C 223.58392,37.027623 222.37184,38.04549 221.26713,39.337375 C 220.23579,40.531435 219.33323,41.891854 218.55944,43.418635 C 217.78563,44.945455 217.15588,46.42332 216.67021,47.852234 C 216.03158,49.731388 215.59299,51.468613 215.35444,53.063915 C 215.11587,54.659235 215.11648,56.083271 215.35628,57.336025 C 215.59605,58.58879 216.09856,59.572402 216.86381,60.286864 C 217.62903,61.001331 218.75548,61.358563 220.24315,61.358561 C 222.68992,61.358563 225.03029,60.174314 227.26423,57.80581 C 229.49813,55.437316 231.32344,52.168397 232.74017,47.999042 L 232.74017,47.999042 z"
       id="text3173"
       transform="matrix(1.1679604,0,-0.1045449,0.8561934,0,0)" />
    <path
       style="fill:#0967a8;fill-opacity:1;fill-rule:evenodd;stroke:none;stroke-width:1px;stroke-linecap:butt;stroke-linejoin:miter;stroke-opacity:1"
       d="M 297.32519,76.900677 L 304.28948,68.507817 L 339.1109,68.507817 L 344.1109,120.65068 L 346.07519,120.47211 L 365.71805,75.114957 C 366.26052,71.784997 369.16368,69.635397 374.46805,68.686387 L 402.8609,68.686387 L 397.8609,76.364957 L 374.46805,76.364957 L 345.00376,142.07925 L 322.86091,142.07925 L 318.03948,83.686387 L 291.61091,138.86496 L 278.57519,147.43639 L 274.82519,142.07925 L 284.46805,136.18639 L 313.21804,76.900677 L 297.32519,76.900677 z"
       id="path3194"
       sodipodi:nodetypes="ccccccccccccccccccc" />
  </g>
  <g
     inkscape:groupmode="layer"
     id="layer2"
     inkscape:label="DEEN">
    <path
       style="fill:#0967a8;fill-opacity:1;fill-rule:evenodd;stroke:none;stroke-width:1px;stroke-linecap:butt;stroke-linejoin:miter;stroke-opacity:1"
       d="M 13.039473,141.90068 L 23.218053,135.47211 L 53.753763,86.722107 L 40.896623,87.793537 L 40.896623,81.900677 L 80.896623,75.829257 L 44.110913,135.29354 C 57.319363,135.81748 70.193093,135.82329 79.786693,131.23751 C 89.380293,126.65172 95.60276,117.41768 100.0674,110.34612 C 106.95641,99.43459 106.11986,80.016237 84.646613,70.472107 C 60.952553,66.190397 37.582843,75.060997 14.825193,85.293547 L 12.325193,80.472107 C 35.118743,70.786387 56.227933,61.127637 91.075185,64.400677 C 130.49008,72.642337 146.27812,120.15138 90.896625,139.57926 C 74.656333,142.39775 48.901493,142.49028 25.896623,141.36497 L 16.789473,147.43639 L 13.039473,141.90068 z"
       id="path3182"
       sodipodi:nodetypes="cccccccsscccccccc" />
    <path
       style="fill:#0967a8;fill-opacity:1;fill-rule:evenodd;stroke:none;stroke-width:1px;stroke-linecap:butt;stroke-linejoin:miter;stroke-opacity:1"
       d="M 110.18234,141.1864 L 114.1109,146.54354 L 123.51391,140.82926 L 183.03948,140.82926 L 190.00376,133.15069 L 185.3609,128.86497 L 180.3609,134.57926 L 143.03947,134.57926 L 156.43233,110.47211 L 185.89662,110.47211 L 185.89662,105.11497 L 158.57519,105.11497 L 173.03948,79.222107 L 151.07519,79.222107 L 123.57519,132.97211 L 110.18234,141.1864 z"
       id="path3184"
       sodipodi:nodetypes="cccccccccccccccc" />
    <path
       style="fill:#0967a8;fill-opacity:1;fill-rule:evenodd;stroke:none;stroke-width:1px;stroke-linecap:butt;stroke-linejoin:miter;stroke-opacity:1"
       d="M 133.21805,76.722117 L 137.86091,68.507817 L 203.93234,68.507817 C 211.69191,74.653767 211.4279,80.097677 212.68234,84.936397 L 206.43233,86.543537 C 205.32683,83.063977 205.28228,78.876427 201.96805,76.722117 L 133.21805,76.722117 z"
       id="path3188"
       sodipodi:nodetypes="ccccccc" />
    <path
       style="fill:#0967a8;fill-opacity:1;fill-rule:evenodd;stroke:none;stroke-width:1px;stroke-linecap:butt;stroke-linejoin:miter;stroke-opacity:1"
       d="M 191.28947,141.1864 L 195.21803,146.54354 L 204.3685,140.82926 L 264.14661,140.82926 L 271.11089,133.15069 L 266.46803,128.86497 L 261.46803,134.57926 L 224.1466,134.57926 L 237.53946,110.47211 L 267.00375,110.47211 L 267.00375,105.11497 L 239.68232,105.11497 L 254.14661,79.222107 L 232.18232,79.222107 L 204.68232,132.97211 L 191.28947,141.1864 z"
       id="path3190"
       sodipodi:nodetypes="cccccccccccccccc" />
    <path
       style="fill:#0967a8;fill-opacity:1;fill-rule:evenodd;stroke:none;stroke-width:1px;stroke-linecap:butt;stroke-linejoin:miter;stroke-opacity:1"
       d="M 214.32518,76.722117 L 218.96804,68.507817 L 285.03947,68.507817 C 292.79904,74.653767 292.53503,80.097677 293.78947,84.936397 L 287.53946,86.543537 C 286.43396,83.063977 286.38941,78.876427 283.07518,76.722117 L 214.32518,76.722117 z"
       id="path3192"
       sodipodi:nodetypes="ccccccc" />
  </g>
</svg>
