<?xml version="1.0" encoding="utf-8"?>
<!-- Generator: Adobe Illustrator 22.0.0, SVG Export Plug-In . SVG Version: 6.00 Build 0)  -->
<svg version="1.1" id="图层_1" xmlns="http://www.w3.org/2000/svg" xmlns:xlink="http://www.w3.org/1999/xlink" x="0px" y="0px"
	 viewBox="0 0 1038.01 699.4464" style="enable-background:new 0 0 1038.01 699.4464;" xml:space="preserve">
<style type="text/css">
	.st0{fill-rule:evenodd;clip-rule:evenodd;fill:#E85E4D;}
	.st1{fill-rule:evenodd;clip-rule:evenodd;fill:#FFFFFF;}
	.st2{fill-rule:evenodd;clip-rule:evenodd;}
</style>
<path class="st0" d="M670.8799,62.7367c-1.2598-12.63-5.6897-23.6798-11.38-34.1003l-13.5797-14.8498
	c-36.3201-19.27-91.8902-18.6401-126.0003,3.7903C565.1702,46.7363,613.6101,65.1665,670.8799,62.7367"/>
<path class="st0" d="M724.89,273.4065c-6.3202-25.91-17.7197-47.1701-35.4901-72.4398c23.7-13.2599,51.3403-26.2903,76.59-38.2898
	C770.3398,205.7066,760.46,251.1064,724.89,273.4065 M695.72,388.3665c-34.2499,50.48-90.7897,64.22-70.26,51.59
	c28.41-14.48,64.8901-47.8299,67.2998-90.74c0.8405-14.95-2.16-15.0098-2.5598-22.6999c5.9198,0,8.0902,3.1601,13.8202,2.76
	c4.1296-0.99,3.3496-5.13,0.39-6.7099c-3.75-1.98-11.0602-1.5002-17.37-4.3402c-2.5702-7.11-9.0802-14.22-14.4104-19.1498
	l25.8502-1.7801c5.3198-3.5501,3.1702-6.3199-0.39-7.11c-15.5402,1.85-15.7898,1.59-34.1498,2.3801
	c-17.76-11.4502-53.0901-20.1401-93.9599-11.0602c-0.5902-8.6798-5.8502-15-10.5902-17.63
	c-10.1501-5.6299-22.37-8.9499-37.8998-0.5899c-2.8406,3.1699-6.3104,5.69-7.2705,9.8001
	c-25.5701-10.4202-52.7399-20.5301-83.0597-15.4703l-12.97,3.3603l-42.0502-14.01c-2.76-0.7901-7.7002,3.9499-1.1798,6.9098
	c6.1896,2.4499,34.48,10.6399,33.1598,11.4502c-9.48,5.7199-15.99,11.8399-15.99,11.8399
	c-7.9602,2.03-32.1698-4.5401-32.0398,3.1799c2.8296,6.29,8.5498,1.3602,25.13,4.3201c-23.6902,36.12-11.9702,71.33-3.9502,88.63
	c13.8202,29.8099,30.6,38.0899,29.0198,41.85c-2.1698,3.5599-27.4597-21.68-38.8898-37.7002
	c-20.13-28.2299-28.54-64.14-23.2898-99.2898c7.5897-58.75,55.6799-108.7201,117.8399-127.1899
	c80.1501-23.8202,205.8996,0.4999,242.3998,103.6999C728.09,310.4566,715.7298,358.8865,695.72,388.3665 M658.8102,300.2564
	c3.75,0.99,12.0599,6.89,14.9896,14.8102l-49.5398-12.4402C634.0098,302.6264,648.9402,300.0666,658.8102,300.2564
	 M406.5502,277.9566c1.77-2.7701,7.0996-5.9302,15.5798-8.0902c12.45,2.3602,18.9599,6.3101,30.6103,9.8602
	C439.7802,280.0465,424.11,279.3366,406.5502,277.9566 M476.8199,441.5864c-43.2397-12.4298-78.4301-44.8999-90.8099-81.12
	c-2.6898-7.8998-15.1898-46.98,11.85-75.6c27.4799,0.9399,55.0702,1.38,82.3102,2.9602c2.5702-1.5802,5.5298-2.1701,0.7898-6.7102
	c-14.8102-4.3399-32.5702-9.09-43.0298-14.4098c36.12-4.1501,78.1598,14.2099,103.4302,36.12
	c29.8199-19.01,76.1896-18.5501,102.2497-9.0802c-30.3997,6.7102-54.0801-1.5799-44.2199,10.26
	c14.4,3.75,51.5698,11.77,79.3597,19.35c10.13,22.37,8.0701,60.87-40.1398,98.1701
	C610.7103,443.1064,546.0198,461.5064,476.8199,441.5864 M243.0303,457.8464c-13.3301-3.2001-24.01-8.0399-31.0504-21.0501
	c-6.85-12.6398-2.8497-18.1198,0.3101-22.8497c5.0604-5.6802,12.7502-7.4701,19.6899-5.5801
	c13.3704,3.79,13.6902,15.2701,13.6902,15.2701l11.0498-3.6801c0,0-9.4696-19.48-11.5796-45.8099
	c10.52,4.74,17.3596,3.6899,29.0497,14.22c2.8503-3.1601,5.3802-6.3199,6.3202-10.1099
	c-10.4303-8.2101-19.5898-17.37-29.0601-26.8402c-0.5298-4.6298,5.0598-13.6899,7.8998-19.3799
	c30.5402,40.5398,43.6804,50.01,92.8503,85.3799C336.1999,442.0563,282.4999,467.3163,243.0303,457.8464 M349.2901,126.3566
	c17.0599,13.5797,35.34,32.1698,50.73,46.98c-28.02,22.5-40.8502,44.0198-53.88,73.6301c-4.74-2.1701-6.9202-6.1203-10.0702-11.6501
	C325.6103,217.9466,329.7503,168.7968,349.2901,126.3566 M370.2202,115.8964c10.9399,3.9301,57.6398,26.4502,69.6795,33.1604
	c-18.1598,7.8998-26.8499,17.76-31.5796,17.37l-56.6504-52.1203C349.2901,111.9469,360.3503,112.3363,370.2202,115.8964
	 M763.2298,151.6167c-24.6295,14.8498-53.5999,27.4798-80.1398,41.0602l-28.4302-23.2904
	C700.0602,156.3664,743.5002,148.0668,763.2298,151.6167 M733.0998,68.7364c-42.9596,6.33-91.5997,11.0602-133.2897-1.5698
	c-45.1599-10.1099-83.3698-37.8998-127.9102-49.9103C390.1-6.7433,305.78,22.0067,254.9304,91.4867
	c-40.7403,53.0597-45.8002,139.9096-17.6904,200.2297c0,0,8.9502,18.7402,14.7504,29.27
	c-2.11,9.4702-15.2802,28.9502-15.2802,28.9502l8.96,12.6398c0,0-6.85-4.22-14.7601-3.6899c0.65,13.2599,4.4403,26.64,6.9702,39.27
	c-7.4799-2.9501-17.4799-4.01-25.3802,0.21c-10.3497,5.52-16.6296,18.11-15.6897,29.1602
	c1.9,21.4798,23.7799,35.6799,42.3297,41.3699c42.8503,13.1699,92.11-11.7902,124.9701-45.26
	c52.11,26.8399,108.4301,47.16,168.1201,48.7399c92.5298,0,174.6496-25.2701,240.6597-90.3299
	c63.1702-68.2202,101.3799-172.4398,54.9603-260.8798C808.5801,85.7963,772.2599,67.4767,733.0998,68.7364"/>
<path class="st1" d="M408.3202,166.4268c4.7296,0.39,13.4198-9.4702,31.5796-17.37c-12.0398-6.7102-58.7396-29.2303-69.6795-33.1604
	c-9.87-3.5602-20.9302-3.9496-18.5504-1.59L408.3202,166.4268"/>
<path class="st1" d="M346.14,246.9667c13.0298-29.6103,25.86-51.1301,53.88-73.6301c-15.39-14.8102-33.67-33.4003-50.73-46.98
	c-19.5398,42.4402-23.6798,91.5899-13.2202,108.9599C339.2199,240.8464,341.4001,244.7966,346.14,246.9667"/>
<path class="st1" d="M633.9201,254.1365c-6.3202,11.0501-18.5601,17.89-31.0998,16.3202
	c-12.1704-1.5302-17.0105-7.2702-22.3804-15.7901c-5.3699-9.79-5.1898-22.0801,1.3202-31.33
	c8.1598-11.5698,20.2197-15.0299,32.63-12.63c8.1598,1.5802,15.4296,8.2696,19.2199,15.5298
	C638.0302,233.8163,638.35,246.2364,633.9201,254.1365 M599.9199,175.7066c11.0504-4.48,22.37,2.3602,26.3201,7.8998
	c3.5101,3.5004,8.15,8.9404,3.1598,12.3602c-8.4197,3.1598-5.7897-9.4702-18.1597-12.8998
	c-17.63-1.3104-15.2698,12.8998-22.37,6.0699C585.7103,185.1768,592.4999,178.7065,599.9199,175.7066 M527.4901,172.9765
	c-0.8002,3.2599-2.1002,4.3103-4.6802,4.5703c-3.4198,0.52-8.5901-12.37-19.2096-10.7904
	c-16.3306,1.3104-11.8506,11.8402-19.7504,6.0504c-6.0498-6.3202,14.7504-19.4702,29.22-13.6902
	C522.5701,162.9265,526.3604,170.1768,527.4901,172.9765c0.0098-0.0598,0.0299-0.1001,0.05-0.1697
	c0.08,0.3595,0.1398,0.6299,0.2002,0.8398C527.6799,173.4666,527.5902,173.2463,527.4901,172.9765 M512.3302,244.0266
	c-8.5303,8.53-23.0804,13.0701-34.53,7.2098c-11.85-6.0498-17.63-15-18.1604-27.8998c-0.34-8.2001,2.6904-15.05,8.6902-21.0498
	c5.3699-5.6903,12.11-9.22,19.48-9.74c11.04-0.7904,25.26,6.8396,29.4702,17.37
	C523.5002,225.4863,519.9199,235.5064,512.3302,244.0266 M465.9502,150.9666c-62.16,18.4698-110.2502,68.4399-117.8399,127.1899
	c-5.2502,35.1498,3.1598,71.0599,23.2898,99.2898c11.4301,16.0202,36.72,41.2601,38.8898,37.7002
	c1.5802-3.7601-15.1996-12.0401-29.0198-41.85c-8.02-17.3001-19.74-52.51,3.9502-88.63c-16.5802-2.9599-22.3004,1.9699-25.13-4.3201
	c-0.13-7.72,24.0796-1.1499,32.0398-3.1799c0,0,6.51-6.12,15.99-11.8399c1.3202-0.8102-26.9702-9.0002-33.1598-11.4502
	c-6.5204-2.9599-1.5802-7.6999,1.1798-6.9098l42.0502,14.01l12.97-3.3603c30.3198-5.0598,57.4896,5.05,83.0597,15.4703
	c0.9601-4.1101,4.4299-6.6302,7.2705-9.8001c15.5298-8.36,27.7496-5.04,37.8998,0.5899c4.74,2.63,10,8.9502,10.5902,17.63
	c40.8698-9.0799,76.1999-0.39,93.9599,11.0602c18.36-0.7901,18.6096-0.5301,34.1498-2.3801c3.5602,0.7901,5.7098,3.5599,0.39,7.11
	l-25.8502,1.7801c5.3302,4.9298,11.8402,12.0398,14.4104,19.1498c6.3098,2.84,13.62,2.3602,17.37,4.3402
	c2.9596,1.5799,3.7396,5.7199-0.39,6.7099c-5.73,0.4001-7.9004-2.76-13.8202-2.76c0.3998,7.6901,3.4003,7.7499,2.5598,22.6999
	c-2.4097,42.9101-38.8898,76.26-67.2998,90.74c-20.5297,12.63,36.0101-1.1099,70.26-51.59
	c20.0098-29.4799,32.37-77.9098,12.63-133.6999C671.8498,151.4665,546.1003,127.1464,465.9502,150.9666"/>
<path class="st1" d="M763.2298,151.6167c-19.7296-3.5498-63.1696,4.7497-108.5699,17.7698l28.4302,23.2904
	C709.6299,179.0965,738.6003,166.4665,763.2298,151.6167"/>
<path class="st0" d="M513.0699,159.1166c-14.4696-5.78-35.2698,7.37-29.22,13.6902c7.8998,5.7898,3.4198-4.74,19.7504-6.0504
	c10.6195-1.5796,15.7898,11.3104,19.2096,10.7904c2.58-0.26,3.88-1.3104,4.6802-4.5703
	C526.3604,170.1768,522.5701,162.9265,513.0699,159.1166"/>
<path class="st0" d="M527.4901,172.9765c0.1001,0.2698,0.1898,0.4901,0.2502,0.6702c-0.0604-0.21-0.1202-0.4803-0.2002-0.8398
	C527.52,172.8764,527.4999,172.9167,527.4901,172.9765"/>
<path class="st1" d="M689.3998,200.9666c17.7704,25.2698,29.1699,46.5298,35.4901,72.4398
	c35.5701-22.3001,45.4498-67.6999,41.0999-110.7296C740.7402,174.6763,713.0998,187.7067,689.3998,200.9666"/>
<path class="st0" d="M611.2401,183.0668c12.37,3.4296,9.74,16.0596,18.1597,12.8998c4.9902-3.4198,0.3503-8.8599-3.1598-12.3602
	c-3.9501-5.5396-15.2697-12.3798-26.3201-7.8998c-7.42,2.9999-14.2096,9.4702-11.0498,13.4302
	C595.9703,195.9666,593.6101,181.7564,611.2401,183.0668"/>
<path class="st0" d="M509.6398,233.3464c1.0602-11.3196-6.5796-17.11-9.6198-18.3801c-6.6699-2.7496-11.6901-1.5698-16.12,1.5802
	c-5.3601,5.0598-10.5701,13.6401-3.4601,23.3801l5,4.2099c-4.74,1.5802-13.9001-5.69-15.8002-11.0599
	c-3.1494-7.58-2.7899-17.37,2.9004-23.6798c7.2601-9.79,22.7997-11.8805,34.48-1.3202
	C512.5402,213.0766,513.59,227.8166,509.6398,233.3464 M487.8099,192.5468c-7.37,0.52-14.1101,4.0497-19.48,9.74
	c-5.9998,5.9998-9.0302,12.8497-8.6902,21.0498c0.5304,12.8998,6.3104,21.85,18.1604,27.8998
	c11.4496,5.8603,25.9998,1.3202,34.53-7.2098c7.5897-8.5202,11.17-18.5403,4.95-34.1098
	C513.0699,199.3864,498.85,191.7564,487.8099,192.5468"/>
<path class="st1" d="M472.5402,209.3968c-5.6903,6.3098-6.0498,16.0998-2.9004,23.6798c1.9,5.3699,11.0602,12.6401,15.8002,11.0599
	l-5-4.2099c-7.11-9.74-1.9-18.3203,3.4601-23.3801c4.4299-3.15,9.4501-4.3298,16.12-1.5802
	c3.0402,1.2701,10.6799,7.0605,9.6198,18.3801c3.9502-5.5298,2.9004-20.2698-2.6196-25.2698
	C495.3398,197.5163,479.8003,199.6068,472.5402,209.3968"/>
<path class="st0" d="M616.87,260.4466c-3.8,1.2698-11.9397,3.1699-15.8997,0.5301c5.0598-1.2601,11.7395-3.7701,14.4696-8.4201
	c3.4302-5.7901,3.2404-12.9498-2.37-19.48c-3.1396-3.6798-9.3896-6.33-15.7898-4.7302c-5.2502,1.3202-9.7302,6.5802-11.04,12.37
	c-2.6398-5,2.0898-16.3196,9.22-19.48c11.72-5.2099,20.7898-3.4198,27.0898,2.89c5.7,4.74,6.3201,12.4799,6.3201,19.74
	C628.56,251.1366,623.1902,256.6566,616.87,260.4466 M614.3901,210.7066c-12.4103-2.3999-24.4702,1.0602-32.63,12.63
	c-6.51,9.2499-6.6901,21.5399-1.3202,31.33c5.3699,8.5199,10.21,14.2599,22.3804,15.7901
	c12.5397,1.5698,24.7796-5.2701,31.0998-16.3202c4.4299-7.9001,4.1101-20.3201-0.3101-27.9001
	C629.8198,218.9762,622.5499,212.2868,614.3901,210.7066"/>
<path class="st1" d="M595.4601,221.2364c-7.1301,3.1604-11.8597,14.48-9.22,19.48c1.3098-5.7898,5.7898-11.0498,11.04-12.37
	c6.4001-1.5997,12.6501,1.0504,15.7898,4.7302c5.6104,6.5302,5.8002,13.6899,2.37,19.48c-2.7301,4.6499-9.4098,7.16-14.4696,8.4201
	c3.96,2.6398,12.0996,0.7397,15.8997-0.5301c6.3202-3.79,11.69-9.31,12.0001-16.5802c0-7.2601-0.6201-15-6.3201-19.74
	C616.2499,217.8166,607.1801,216.0264,595.4601,221.2364"/>
<path class="st1" d="M507.9198,418.3665c-56.5497-17.0499-58.75-85.91-83.0694-126.0101
	c33.1598,32.2101,91.8994,5.3601,130.7495,24.9503c30.3101,13.5699,69.4799,24.3198,98.2202,7.89
	c-26.8402,26.2198-49.27,55.2697-74.8602,82.4398C561.2902,426.2665,530.3301,425.6364,507.9198,418.3665 M678.7498,323.3564
	c-27.7899-7.58-64.9597-15.6-79.3597-19.35c-9.8602-11.8399,13.8202-3.5498,44.2199-10.26
	c-26.0601-9.4699-72.4297-9.9298-102.2497,9.0802c-25.2704-21.9101-67.3102-40.2701-103.4302-36.12
	c10.4596,5.3198,28.2196,10.0699,43.0298,14.4098c4.74,4.5401,1.7804,5.13-0.7898,6.7102
	c-27.24-1.5802-54.8303-2.0203-82.3102-2.9602c-27.0398,28.62-14.5398,67.7002-11.85,75.6
	c12.3798,36.2201,47.5702,68.6902,90.8099,81.12c69.1998,19.92,133.8904,1.5201,161.7901-20.0598
	C686.8199,384.2264,688.8798,345.7264,678.7498,323.3564"/>
<path class="st1" d="M422.13,269.8664c-8.4802,2.16-13.8098,5.3201-15.5798,8.0902c17.5598,1.38,33.2299,2.0898,46.1902,1.77
	C441.09,276.1765,434.58,272.2267,422.13,269.8664"/>
<path class="st0" d="M572.5402,400.7365c-14.2102,12.63-27.2601,12.4301-49.3402,10.26
	c-20.1398-1.9699-35.8099-12.2101-42.76-21.0501c0.52-7.37,6.77-14.3399,13.15-18.0298c15-8.6902,41.4502-11.0602,67.1204,2.37
	C572.1501,382.1863,576.8901,397.1766,572.5402,400.7365 M555.5999,317.3066c-38.8501-19.5901-97.5897,7.2598-130.7495-24.9503
	c24.3194,40.1001,26.5197,108.9602,83.0694,126.0101c22.4103,7.2699,53.3704,7.9001,71.04-10.73
	c25.5902-27.1701,48.02-56.2201,74.8602-82.4398C625.0798,341.6264,585.9099,330.8766,555.5999,317.3066"/>
<path class="st1" d="M658.8102,300.2564c-9.87-0.1898-24.8004,2.37-34.5502,2.37l49.5398,12.4402
	C670.8702,307.1464,662.5602,301.2464,658.8102,300.2564"/>
<path class="st1" d="M259.3499,332.0365c-2.84,5.69-8.4296,14.7501-7.8998,19.3799c9.4702,9.4702,18.6298,18.6301,29.0601,26.8402
	c-0.9399,3.79-3.4698,6.9498-6.3202,10.1099c-11.6901-10.5301-18.5297-9.48-29.0497-14.22
	c2.11,26.33,11.5796,45.8099,11.5796,45.8099l-11.0498,3.6801c0,0-0.3198-11.4801-13.6902-15.2701
	c-6.9397-1.89-14.6295-0.1001-19.6899,5.5801c-3.1598,4.7299-7.16,10.21-0.3101,22.8497
	c7.0404,13.0103,17.7203,17.85,31.0504,21.0501c39.4696,9.4699,93.1695-15.7901,109.1699-40.43
	C303.0303,382.0466,289.8901,372.5764,259.3499,332.0365"/>
<path class="st1" d="M560.7103,374.2866c-25.6702-13.4301-52.1204-11.0602-67.1204-2.37c-6.38,3.6898-12.63,10.6598-13.15,18.0298
	c6.9501,8.84,22.6202,19.0802,42.76,21.0501c22.0801,2.1701,35.13,2.37,49.3402-10.26
	C576.8901,397.1766,572.1501,382.1863,560.7103,374.2866"/>
<polyline class="st2" points="1019.3699,593.6465 990.98,535.7865 966.1301,535.9864 965.8896,621.8463 985.7902,622.0364 
	985.7902,565.5765 1014.5402,622.0364 1037.9301,621.8463 1038.01,535.4465 1019.3101,535.2564 1019.3699,593.6465 "/>
<polyline class="st2" points="749.16,550.4066 770.9898,550.4066 770.85,623.4665 793.09,623.5663 793.09,550.4066 
	814.8301,550.3565 814.9199,536.5366 749.16,536.5366 749.16,550.4066 "/>
<polyline class="st2" points="828.5899,622.6566 850.85,622.7463 850.85,535.9864 828.77,535.9864 828.5899,622.6566 "/>
<polyline class="st2" points="463.77,595.0064 434.4903,536.8064 410.2502,536.8064 410.2502,624.1064 429.0502,624.0063 
	429.1503,566.1765 458.4398,624.1064 482.7404,624.0063 482.9399,536.2565 463.5802,536.0566 463.77,595.0064 "/>
<polyline class="st2" points="507.1501,621.9965 529.5299,621.9363 529.5299,536.8064 507.1501,536.8064 507.1501,621.9965 "/>
<polyline class="st2" points="620.3002,537.0765 603.38,594.9564 588.3501,537.6264 555.0402,537.4164 555.0701,623.0264 
	573.98,623.0264 573.98,556.3865 595.54,622.4765 611.79,622.4765 632.83,554.7565 632.7299,623.1964 653.0497,623.5663 
	652.96,536.8665 620.3002,537.0765 "/>
<polyline class="st2" points="224.5703,610.2463 191.95,610.5164 191.95,586.3065 220.44,586.3065 220.2502,572.4765 
	191.6803,572.7063 191.6803,551.7664 222.4102,551.7066 222.5604,537.3466 171.1602,537.4164 171.1804,624.1064 224.6899,624.1064 
	224.5703,610.2463 "/>
<polyline class="st2" points="243.8604,624.6564 266.3799,624.5465 266.4904,537.3466 243.8604,537.3466 243.8604,624.6564 "/>
<polyline class="st2" points="22.1002,624.3863 44.1901,624.3863 44.09,551.9764 65.9399,551.9764 66.0199,536.8064 0,536.8064 
	0,552.8464 21.9702,552.7866 22.1002,624.3863 "/>
<path class="st2" d="M908.0997,612.9663c-14.6497-0.5499-15.1801-7.3499-15.7098-35.91
	c-0.26-20.3896,3.7299-31.5499,16.7798-31.5499c14.3701,0,14.9005,13.3301,15.7001,32.1002
	C923.2798,603.7164,921.4097,612.1463,908.0997,612.9663 M910.7596,533.5465c-30.34,0.5399-42.3297,21.7599-42.0599,47.59
	c0.2802,27.7399,9.3102,43.2498,39.1302,42.97c30.3497-0.2701,39.14-18.7701,39.9298-44.0601
	C948.4598,557.8864,940.3098,533.0164,910.7596,533.5465"/>
<path class="st2" d="M113.6804,614.5865c-16.5204,0-17.5799-10.8701-17.3102-30.1801c0.2802-20.5801,0.8002-36.7901,16.77-36.4498
	c12.7802,0.2798,15.7001,10.3299,15.7001,29.9197C127.5201,599.3564,129.6502,615.6763,113.6804,614.5865 M114.4799,535.4465
	c-35.1495-0.39-40.5597,22.5598-40.73,44.06c-0.2795,31.55,7.71,47.3499,38.8605,47.59
	c33.8098,0.2798,38.1299-25.3201,39.3994-44.8801C153.8702,553.6765,139.2303,535.7264,114.4799,535.4465"/>
<path class="st2" d="M699.1099,581.6864l8.2501-28.5598l8.2599,28.5598H699.1099 M694.0501,536.5366l-28.75,87.2997l21.0297-0.2701
	l9.8505-28.5599h22.0996l8.5101,28.2901h21.3098l-23.9697-86.7599H694.0501"/>
<path class="st2" d="M347.9601,581.9565l8.7799-28.8299l7.03,28.7899L347.9601,581.9565 M342.6299,537.3466l-27.7496,87.1099
	l20.5597-0.0702l8.7903-28.83h23.7l7.97,28.5501h22.0996L373.25,537.3466H342.6299"/>
<path class="st0" d="M409.4201,657.6364c0.5798,2.02,1.4697,2.72,3.4399,2.72c2.6001-0.5701,5.6903-2.72,5.3601-5.3101
	C415.9398,650.4663,409.7399,654.1864,409.4201,657.6364"/>
<path class="st0" d="M394.5299,656.4264c-6.9397-4.48-13.1897-3.3301-17.3199-2.33c-2.7301,0.6601-6.51,1.9699-9.3597,6.7999
	c-9.8102,16.64,22.4396,15.1801,15.2698,31.51c-1.9501,4.01-8.1396,4.83-12.8302,3.9401c-6.4996-1.2399-7.1295-12.71-9.1699-11.46
	c-2.4396,1.2601,1.4203,7.5198-0.7996,10.21c3.4497,3.58,9.9695,4.4699,13.2196,4.2899c8.54-0.47,16.7102-5.8698,18.1403-10.56
	c4.8798-16.1099-20.0604-14.01-17.7899-27.4698c1.6296-4.0201,5.1599-5.86,10.0397-5.2902c4.8901,0.86,6.72,3.0402,7.89,9.2902
	C396.9701,664.8364,393.0999,660.1764,394.5299,656.4264"/>
<path class="st0" d="M561.61,660.2063c1.3098,1.4301,4.5703-0.5698,5.8704,1.4301l-7.1802,33.5101l-7.16,2.59
	c6.51,1.1398,13.6798,0.56,20.5298,0.56c0.6403-2.5702-3.9197-1.1401-5.2197-3.15l7.8198-38.0902
	C572.0403,656.4865,565.5199,657.3364,561.61,660.2063"/>
<path class="st0" d="M636.8303,655.5264c-3.2605,6.6901-5.6903,12.46-7.3303,19.3399l11.6199,0.2402
	c4.2401,0.86,6.8402,4.5798,6.5204,8.2999c0,4.2999-1.3,8.88-5.8704,11.46c-5.5298,2.0102-11.4001-0.86-16.2897-2.58
	c-1.2903,0.8701-2.2698,2.02-1.95,3.4399c2.2796,2.8601,5.5401,3.15,8.8,3.7201c8.4698-0.86,15.9601-4.87,21.1798-10.8801
	c2.29-4.87,3.9099-11.1697-1.6302-14.8898c-4.8798-4.5901-12.0599-2.3001-17.6099-2.02c-1.6998-6.4401,3.3801-9.92,3.3801-9.92
	s20.3699,2.15,20.91-5.73C652.3698,655.1465,643.35,655.5264,636.8303,655.5264"/>
<path class="st0" d="M605.3301,677.4863c-4.5898-0.2698-7.5403-1.2399-8.2001-5.5399c-0.65-5.1501,1.0901-11.7401,6.3-14.0399
	c3.9203-0.8502,7.42,1.47,8.0298,4.8801C613.2,672.2363,613.2,677.9663,605.3301,677.4863 M599.0801,657.0563
	c-5.8502,3.15-10.7501,8.3002-10.7501,14.6002c0.6604,3.7299,2.6099,8.6899,7.1698,9.74c8.6902,2.0099,9.7205-2.0901,13.6304-1.5201
	c-3.2501,9.4501-15.26,15.56-23.7299,18.9999c11.7297,0.5701,21.8396-5.7199,29.3298-14.0399
	c4.2297-6.3,7.1698-14.31,4.2297-22.0499C615.3801,656.1963,605.9203,653.6163,599.0801,657.0563"/>
<path class="st0" d="M472.9399,675.9363c-4.22,4.87-6.5997,10.6003-5.2997,17.1902c0.6598,3.7198,6.6595,6.38,9.5801,5.73
	c5.2997-1.1902,10.39-3.7601,14.4696-7.5201c-3.0597,0-6.12,5.9-15.13,1.8201c-2.1899-1.47-0.1599-20.6201,7.1802-21.7001
	c5.8997-0.5298,4.27,4.3002,8.15,3.7601c0.9698-1.1398,4.0198-2.3898,3.0597-4.1101
	C489.4402,663.5864,478.1603,670.7764,472.9399,675.9363"/>
<path class="st0" d="M410.6103,690.4364l4.6796-15.3299c4.9005-13.3102-12.2095-3.11-14.2499,0.65
	c2.6099,0.2899,4.1199-3.2602,6.72-1.25c1.2305,3.9398-10.3796,24.8798-4.0698,24.7098c4.27-0.5399,12.2198-5.5499,13.2397-7.8799
	C413.8799,692.7664,409.19,696.1664,410.6103,690.4364"/>
<path class="st0" d="M454.4103,692.7664c0-8.3099,8.1396-20.4102,2.6599-24.8801c-9.5898,0.5301-13.0499,7.5101-18.96,10.56
	c-1.2201-1.9699,2.4396-6.9901,0.3998-9.4901c-1.8201-2.33-11.3598,3.7601-13.6297,6.6202c2.2498,1.9901,4.48-4.2902,6.51-1.0699
	l-6.3104,23.9899c2.6105,0,4.8901,0.5402,8.15-1.6101c2.4402-12.71,2.0404-14.87,11.4001-21.21
	c1.85-1.2698,4.5599-3.9999,6.5198-1.7099c-0.3296,8.5901-8.9697,24.53-3.9294,24.91c4.2395-0.2899,9.7894-2.58,12.7197-6.3
	C457.47,693.1265,456.6899,694.4864,454.4103,692.7664"/>
<path class="st0" d="M519.9999,671.6364c3.0499,6.81-6.6797,11.0699-12.2198,11.64
	C507.3699,679.3463,513.0699,667.6965,519.9999,671.6364 M527.9302,673.0664c-0.8002-5.9-11.2-6.08-17.3004-2.5
	c-7.9797,4.6701-12.4298,12.6801-10.7996,21.8399c1.6296,3.4402,4.2596,6.2201,10.1898,6.6302
	c5.2899,0.3497,16.4899-6.4502,14.8602-8.9502c-2.24,3.2199-9.1602,5.1901-13.4399,4.1101
	c-5.7001-1.4301-3.4601-8.9502-3.4601-8.9502S527.73,681.1264,527.9302,673.0664"/>
<path class="st0" d="M687.7299,680.8365c1.0901,5.9399,0,12.89-6.51,15.4599c-4.2499,0.86-6.85-1.72-8.1598-4.5801
	c0-5.4398-3.0402-12.6099,1.5198-15.1797C679.1502,676.2463,686.53,674.3863,687.7299,680.8365 M699.7801,655.6265
	c-8.1403,0.2798-14.9902,2.85-21.5002,6.59c-10.4297,7.16-16.6199,18.0399-13.0298,29.4998
	c3.2501,6.3101,11.0699,8.5901,18.2397,6.5802c5.86-1.42,10.1105-6.8701,12.3901-11.17c1.3-4.2902,0.3198-8.8699-3.5901-12.02
	c-3.9099-5.1602-11.7401-2.0102-16.3-1.4301C678.2798,663.0664,691.9603,659.6365,699.7801,655.6265"/>
</svg>
