<?xml version="1.0" encoding="UTF-8"?>
<svg xmlns="http://www.w3.org/2000/svg" xmlns:xlink="http://www.w3.org/1999/xlink" width="292pt" height="219pt" viewBox="0 0 292 219" version="1.1">
<g id="surface1">
<path style=" stroke:none;fill-rule:nonzero;fill:rgb(100%,100%,100%);fill-opacity:1;" d="M 77.070312 152.71875 C 74.78125 152.71875 72.5625 152.394531 70.476562 151.753906 C 65.484375 150.21875 59.472656 146.324219 58.957031 140.40625 C 58.679688 137.179688 60.523438 133.75 63.339844 132.246094 C 64.332031 131.71875 65.480469 131.449219 66.753906 131.449219 C 67.882812 131.449219 68.882812 131.65625 69.664062 131.894531 C 69.535156 131.296875 69.402344 130.691406 69.265625 130.082031 C 68.695312 127.519531 68.109375 124.871094 67.980469 122.21875 C 67.96875 121.972656 68.160156 121.757812 68.410156 121.742188 C 68.535156 121.734375 68.664062 121.730469 68.789062 121.730469 C 69.621094 121.730469 70.390625 121.898438 71.019531 122.101562 L 69.597656 120.097656 C 69.484375 119.941406 69.484375 119.734375 69.589844 119.578125 C 69.625 119.527344 72.886719 114.683594 73.519531 112.230469 C 72 109.445312 69.71875 104.664062 69.695312 104.613281 C 61.867188 87.828125 63.902344 64.839844 74.425781 51.144531 C 84.671875 37.144531 100.210938 29.109375 117.054688 29.109375 C 122.171875 29.109375 127.316406 29.859375 132.347656 31.332031 C 134.871094 32.019531 137.484375 32.929688 140.546875 34.191406 C 148.488281 28.082031 156.9375 26.792969 162.652344 26.792969 C 168.304688 26.792969 173.929688 28.09375 178.496094 30.453125 C 178.542969 30.476562 178.585938 30.511719 178.625 30.550781 L 182.210938 34.476562 C 182.238281 34.503906 182.257812 34.53125 182.277344 34.5625 C 183.84375 37.425781 185.441406 41.082031 185.515625 46.546875 C 191.492188 46.324219 197.355469 45.527344 201.285156 44.941406 C 201.304688 44.9375 201.320312 44.9375 201.339844 44.9375 C 201.671875 44.925781 202.003906 44.921875 202.335938 44.921875 C 212.859375 44.921875 222.015625 50.207031 226.832031 59.058594 C 232.582031 70.003906 233.839844 82.75 230.480469 95.917969 C 227.53125 107.488281 221.046875 119.109375 212.230469 128.640625 C 195.796875 144.832031 174.855469 152.695312 148.191406 152.695312 C 134.375 152.328125 119.847656 148.140625 103.777344 139.890625 C 95.785156 147.929688 85.824219 152.71875 77.070312 152.71875 Z M 77.070312 152.71875 "/>
<path style=" stroke:none;fill-rule:nonzero;fill:rgb(100%,100%,100%);fill-opacity:1;" d="M 162.652344 27.25 C 168.421875 27.25 173.894531 28.589844 178.285156 30.855469 L 181.875 34.78125 C 183.347656 37.476562 185.074219 41.179688 185.0625 47.019531 C 184.988281 47.167969 184.898438 47.300781 184.824219 47.433594 C 184.90625 47.425781 184.984375 47.433594 185.074219 47.425781 C 185.074219 47.289062 185.0625 47.167969 185.0625 47.019531 C 190.59375 46.839844 196.132812 46.171875 201.351562 45.390625 C 201.679688 45.382812 202.007812 45.375 202.335938 45.375 C 212.320312 45.375 221.5 50.210938 226.433594 59.273438 C 238.71875 82.683594 228.609375 110.265625 211.894531 128.328125 C 194.417969 145.546875 172.679688 152.238281 148.1875 152.238281 C 132.386719 151.816406 117.480469 146.445312 103.6875 139.332031 C 96.609375 146.539062 86.648438 152.261719 77.070312 152.261719 C 74.882812 152.261719 72.714844 151.964844 70.609375 151.316406 C 65.707031 149.808594 59.90625 146.050781 59.410156 140.367188 C 59.160156 137.4375 60.820312 134.105469 63.554688 132.648438 C 64.542969 132.121094 65.652344 131.90625 66.753906 131.90625 C 67.996094 131.90625 69.226562 132.179688 70.273438 132.59375 C 69.601562 129.242188 68.605469 125.710938 68.4375 122.199219 C 68.554688 122.191406 68.671875 122.1875 68.785156 122.1875 C 70.722656 122.1875 72.339844 123.175781 72.339844 123.175781 L 69.96875 119.832031 C 69.96875 119.832031 73.453125 114.675781 74.003906 112.164062 C 72.472656 109.386719 70.105469 104.417969 70.105469 104.417969 C 62.664062 88.457031 64 65.464844 74.789062 51.425781 C 85.101562 37.328125 100.621094 29.566406 117.054688 29.566406 C 122.066406 29.566406 127.160156 30.289062 132.21875 31.773438 C 135.101562 32.554688 137.878906 33.582031 140.613281 34.714844 C 140.613281 34.714844 140.609375 34.71875 140.609375 34.71875 C 140.609375 34.71875 140.617188 34.71875 140.625 34.71875 C 140.621094 34.71875 140.617188 34.71875 140.613281 34.714844 C 147.355469 29.449219 155.25 27.25 162.652344 27.25 M 162.652344 26.335938 L 162.652344 27.25 L 162.652344 26.335938 C 156.917969 26.335938 148.457031 27.621094 140.476562 33.671875 C 137.5 32.453125 134.941406 31.566406 132.460938 30.890625 C 127.402344 29.40625 122.214844 28.652344 117.054688 28.652344 C 100.0625 28.652344 84.390625 36.757812 74.050781 50.882812 C 63.445312 64.6875 61.386719 87.875 69.28125 104.804688 C 69.375 105.007812 71.511719 109.480469 73.03125 112.285156 C 72.433594 114.300781 70.105469 118 69.210938 119.320312 C 69 119.636719 69.003906 120.050781 69.222656 120.359375 L 69.941406 121.371094 C 69.574219 121.3125 69.1875 121.273438 68.789062 121.273438 C 68.652344 121.273438 68.515625 121.28125 68.378906 121.289062 C 67.882812 121.320312 67.5 121.742188 67.527344 122.242188 C 67.652344 124.933594 68.246094 127.601562 68.820312 130.179688 C 68.902344 130.546875 68.980469 130.90625 69.058594 131.261719 C 68.292969 131.082031 67.515625 130.992188 66.753906 130.992188 C 65.40625 130.992188 64.183594 131.277344 63.125 131.84375 C 60.15625 133.425781 58.210938 137.042969 58.5 140.445312 C 59.039062 146.589844 65.214844 150.613281 70.339844 152.1875 C 72.472656 152.84375 74.734375 153.171875 77.070312 153.171875 C 85.855469 153.171875 95.828125 148.425781 103.863281 140.449219 C 119.878906 148.628906 134.375 152.78125 148.164062 153.148438 C 148.171875 153.148438 148.179688 153.148438 148.1875 153.148438 C 174.980469 153.148438 196.027344 145.242188 212.53125 128.980469 C 212.542969 128.96875 212.554688 128.957031 212.5625 128.949219 C 221.433594 119.363281 227.953125 107.671875 230.921875 96.03125 C 234.308594 82.75 233.035156 69.894531 227.238281 58.851562 C 222.335938 49.835938 213.027344 44.464844 202.335938 44.464844 C 202 44.464844 201.660156 44.46875 201.320312 44.480469 C 201.285156 44.480469 201.25 44.484375 201.214844 44.488281 C 197.398438 45.058594 191.75 45.828125 185.960938 46.074219 C 185.800781 40.765625 184.222656 37.175781 182.675781 34.34375 C 182.640625 34.28125 182.597656 34.21875 182.546875 34.167969 L 178.960938 30.242188 C 178.886719 30.160156 178.800781 30.09375 178.703125 30.046875 C 174.074219 27.652344 168.375 26.335938 162.652344 26.335938 Z M 162.652344 26.335938 "/>
<path style=" stroke:none;fill-rule:evenodd;fill:rgb(100%,100%,100%);fill-opacity:1;" d="M 130.648438 67.164062 C 114.1875 72.050781 101.460938 85.277344 99.453125 100.828125 C 98.0625 110.132812 100.292969 119.632812 105.621094 127.105469 C 108.636719 131.347656 115.332031 138.023438 115.910156 137.082031 C 116.332031 136.089844 111.886719 133.898438 108.234375 126.011719 C 106.105469 121.4375 103 112.117188 109.277344 102.550781 C 104.894531 101.769531 103.375 103.078125 102.625 101.414062 C 102.589844 99.367188 109 101.097656 111.105469 100.570312 C 111.105469 100.570312 112.828125 98.945312 115.332031 97.429688 C 115.691406 97.222656 108.199219 95.050781 106.558594 94.398438 C 104.835938 93.617188 106.140625 92.363281 106.867188 92.574219 L 118.003906 96.277344 L 121.441406 95.390625 C 129.460938 94.050781 136.65625 96.726562 143.425781 99.488281 C 143.675781 98.402344 144.59375 97.734375 145.34375 96.894531 C 149.453125 94.679688 152.6875 95.558594 155.375 97.046875 C 156.625 97.746094 158.027344 99.417969 158.175781 101.714844 C 168.996094 99.308594 178.347656 101.609375 183.054688 104.640625 C 187.910156 104.429688 187.972656 104.5 192.089844 104.011719 C 193.03125 104.222656 193.601562 104.957031 192.191406 105.898438 L 185.347656 106.367188 C 186.761719 107.675781 188.488281 109.546875 189.167969 111.429688 C 190.835938 112.183594 192.765625 112.058594 193.761719 112.585938 C 194.546875 113 194.753906 114.097656 193.660156 114.359375 C 192.144531 114.464844 191.570312 113.625 190 113.625 C 190.105469 115.667969 190.898438 115.675781 190.675781 119.632812 C 190.035156 130.992188 180.386719 139.824219 172.863281 143.65625 C 167.425781 146.996094 182.394531 143.355469 191.457031 130.003906 C 196.757812 122.199219 200.03125 109.386719 194.804688 94.609375 C 185.136719 67.292969 151.855469 60.859375 130.648438 67.164062 Z M 142.921875 91.792969 C 140.664062 94.050781 136.816406 95.253906 133.785156 93.703125 C 130.648438 92.101562 129.113281 89.734375 128.976562 86.316406 C 128.886719 84.148438 129.683594 82.335938 131.273438 80.746094 C 132.695312 79.238281 134.484375 78.3125 136.429688 78.164062 C 139.351562 77.960938 143.117188 79.980469 144.238281 82.769531 C 145.875 86.882812 144.925781 89.539062 142.921875 91.792969 Z M 146.929688 72.988281 C 146.722656 73.851562 146.371094 74.132812 145.6875 74.195312 C 144.785156 74.335938 143.425781 70.929688 140.609375 71.339844 C 136.292969 71.691406 137.472656 74.476562 135.382812 72.945312 C 133.785156 71.269531 139.28125 67.789062 143.117188 69.320312 C 145.632812 70.328125 146.632812 72.242188 146.929688 72.988281 C 146.941406 72.96875 146.941406 72.96875 146.953125 72.945312 C 146.964844 73.035156 146.984375 73.105469 146.996094 73.171875 C 146.984375 73.125 146.960938 73.066406 146.929688 72.988281 Z M 166.101562 73.714844 C 169.027344 72.527344 172.023438 74.335938 173.070312 75.804688 C 174 76.734375 175.230469 78.164062 173.910156 79.074219 C 171.679688 79.914062 172.375 76.5625 169.097656 75.664062 C 164.433594 75.3125 165.058594 79.074219 163.171875 77.265625 C 162.339844 76.222656 164.140625 74.503906 166.101562 73.714844 Z M 175.101562 94.472656 C 173.4375 97.394531 170.1875 99.207031 166.871094 98.785156 C 163.648438 98.386719 162.367188 96.871094 160.953125 94.609375 C 159.527344 92.023438 159.574219 88.765625 161.296875 86.316406 C 163.460938 83.257812 166.648438 82.339844 169.9375 82.980469 C 172.09375 83.398438 174.023438 85.164062 175.019531 87.082031 C 176.191406 89.089844 176.273438 92.382812 175.101562 94.472656 Z M 175.101562 94.472656 "/>
<path style=" stroke:none;fill-rule:evenodd;fill:rgb(94.117647%,31.764706%,27.058824%);fill-opacity:1;" d="M 201.351562 45.390625 C 189.984375 47.070312 177.109375 48.320312 166.082031 44.984375 C 154.125 42.304688 144.011719 34.949219 132.21875 31.769531 C 110.570312 25.421875 88.25 33.027344 74.789062 51.421875 C 64 65.464844 62.664062 88.457031 70.105469 104.417969 C 70.105469 104.417969 72.472656 109.386719 74.003906 112.164062 C 73.453125 114.675781 69.96875 119.832031 69.96875 119.832031 L 72.339844 123.175781 C 72.339844 123.175781 70.523438 122.066406 68.4375 122.199219 C 68.605469 125.710938 69.601562 129.242188 70.273438 132.59375 C 68.296875 131.808594 65.652344 131.527344 63.554688 132.648438 C 60.820312 134.105469 59.160156 137.4375 59.410156 140.367188 C 59.90625 146.050781 65.707031 149.808594 70.609375 151.316406 C 81.949219 154.796875 94.996094 148.1875 103.6875 139.332031 C 117.480469 146.445312 132.386719 151.816406 148.191406 152.234375 C 172.679688 152.234375 194.417969 145.546875 211.894531 128.328125 C 228.609375 110.261719 238.71875 82.679688 226.433594 59.273438 C 221.335938 49.914062 211.714844 45.0625 201.351562 45.390625 Z M 209.328125 67.335938 C 202.8125 71.261719 195.140625 74.609375 188.117188 78.207031 L 180.59375 72.035156 C 192.613281 68.59375 204.113281 66.402344 209.328125 67.335938 Z M 105.300781 57.878906 C 108.199219 58.917969 120.558594 64.875 123.75 66.660156 C 118.945312 68.75 116.640625 71.359375 115.390625 71.253906 L 100.398438 57.460938 C 99.769531 56.828125 102.691406 56.941406 105.300781 57.878906 Z M 99.769531 60.652344 C 104.28125 64.242188 109.117188 69.167969 113.195312 73.085938 C 105.777344 79.035156 102.382812 84.738281 98.929688 92.574219 C 97.683594 91.996094 97.101562 90.945312 96.269531 89.488281 C 93.503906 84.890625 94.59375 71.878906 99.769531 60.652344 Z M 71.644531 148.386719 C 68.109375 147.542969 65.285156 146.261719 63.421875 142.8125 C 61.613281 139.472656 62.664062 138.023438 63.503906 136.765625 C 64.839844 135.269531 66.878906 134.789062 68.714844 135.285156 C 72.25 136.292969 72.339844 139.332031 72.339844 139.332031 L 75.261719 138.351562 C 75.261719 138.351562 72.753906 133.199219 72.195312 126.242188 C 74.984375 127.492188 76.792969 127.210938 79.890625 130.003906 C 80.640625 129.160156 81.304688 128.328125 81.554688 127.324219 C 78.804688 125.152344 76.378906 122.722656 73.871094 120.210938 C 73.734375 118.992188 75.207031 116.59375 75.960938 115.089844 C 84.039062 125.824219 87.523438 128.328125 100.535156 137.683594 C 96.296875 144.210938 82.085938 150.898438 71.644531 148.386719 Z M 133.519531 144.078125 C 122.074219 140.796875 112.761719 132.199219 109.480469 122.617188 C 108.773438 120.523438 105.460938 110.179688 112.617188 102.601562 C 119.890625 102.859375 127.199219 102.96875 134.410156 103.382812 C 135.089844 102.96875 135.871094 102.8125 134.613281 101.609375 C 130.695312 100.464844 125.996094 99.207031 123.230469 97.792969 C 132.789062 96.699219 143.921875 101.558594 150.59375 107.359375 C 158.5 102.328125 170.773438 102.449219 177.664062 104.957031 C 169.617188 106.730469 163.347656 104.535156 165.964844 107.675781 C 169.78125 108.667969 179.613281 110.789062 186.972656 112.796875 C 189.65625 118.71875 189.105469 128.90625 176.34375 138.777344 C 168.964844 144.488281 151.835938 149.359375 133.519531 144.078125 Z M 114.914062 100.769531 C 115.390625 100.042969 116.800781 99.207031 119.050781 98.632812 C 122.339844 99.261719 124.066406 100.3125 127.148438 101.242188 C 123.726562 101.332031 119.574219 101.140625 114.914062 100.769531 Z M 181.6875 106.679688 C 182.6875 106.941406 184.886719 108.503906 185.671875 110.601562 L 172.546875 107.308594 C 175.132812 107.308594 179.074219 106.625 181.6875 106.679688 Z M 191.457031 130.003906 C 182.394531 143.355469 167.425781 146.996094 172.863281 143.65625 C 180.386719 139.824219 190.035156 130.992188 190.675781 119.632812 C 190.898438 115.675781 190.105469 115.667969 190 113.625 C 191.570312 113.625 192.144531 114.464844 193.660156 114.359375 C 194.753906 114.097656 194.546875 113 193.761719 112.585938 C 192.765625 112.058594 190.835938 112.183594 189.167969 111.429688 C 188.488281 109.546875 186.761719 107.675781 185.347656 106.367188 L 192.191406 105.898438 C 193.601562 104.957031 193.03125 104.222656 192.089844 104.011719 C 187.972656 104.5 187.910156 104.429688 183.054688 104.640625 C 178.347656 101.609375 168.996094 99.308594 158.175781 101.714844 C 158.027344 99.417969 156.625 97.746094 155.375 97.046875 C 152.6875 95.558594 149.453125 94.679688 145.34375 96.894531 C 144.59375 97.734375 143.675781 98.402344 143.425781 99.488281 C 136.65625 96.726562 129.460938 94.050781 121.441406 95.390625 L 118.003906 96.277344 L 106.867188 92.574219 C 106.140625 92.363281 104.835938 93.617188 106.558594 94.398438 C 108.199219 95.050781 115.691406 97.222656 115.332031 97.429688 C 112.828125 98.945312 111.105469 100.570312 111.105469 100.570312 C 109 101.097656 102.589844 99.367188 102.625 101.414062 C 103.375 103.078125 104.894531 101.769531 109.277344 102.550781 C 103 112.117188 106.105469 121.4375 108.234375 126.011719 C 111.886719 133.898438 116.332031 136.089844 115.910156 137.082031 C 115.332031 138.023438 108.640625 131.347656 105.621094 127.105469 C 100.292969 119.632812 98.0625 110.132812 99.453125 100.828125 C 101.460938 85.277344 114.1875 72.050781 130.648438 67.164062 C 151.855469 60.859375 185.136719 67.292969 194.804688 94.609375 C 200.03125 109.386719 196.757812 122.199219 191.457031 130.003906 Z M 199.179688 99.566406 C 197.507812 92.714844 194.492188 87.082031 189.792969 80.394531 C 196.0625 76.886719 203.378906 73.441406 210.0625 70.265625 C 211.214844 81.648438 208.605469 93.664062 199.179688 99.566406 Z M 199.179688 99.566406 "/>
<path style=" stroke:none;fill-rule:evenodd;fill:rgb(94.117647%,31.764706%,27.058824%);fill-opacity:1;" d="M 184.890625 43.804688 C 184.546875 40.46875 183.386719 37.542969 181.875 34.78125 L 178.285156 30.855469 C 168.671875 25.757812 153.957031 25.921875 144.925781 31.855469 C 156.90625 39.582031 169.726562 44.449219 184.890625 43.804688 Z M 184.890625 43.804688 "/>
<path style=" stroke:none;fill-rule:evenodd;fill:rgb(100%,100%,100%);fill-opacity:1;" d="M 115.390625 71.253906 C 116.640625 71.359375 118.945312 68.75 123.75 66.664062 C 120.558594 64.875 108.199219 58.917969 105.300781 57.878906 C 102.691406 56.941406 99.769531 56.828125 100.398438 57.460938 Z M 115.390625 71.253906 "/>
<path style=" stroke:none;fill-rule:evenodd;fill:rgb(100%,100%,100%);fill-opacity:1;" d="M 98.929688 92.574219 C 102.382812 84.738281 105.777344 79.035156 113.195312 73.085938 C 109.117188 69.167969 104.28125 64.242188 99.769531 60.652344 C 94.59375 71.878906 93.503906 84.890625 96.269531 89.492188 C 97.101562 90.945312 97.683594 91.996094 98.929688 92.574219 Z M 98.929688 92.574219 "/>
<path style=" stroke:none;fill-rule:evenodd;fill:rgb(100%,100%,100%);fill-opacity:1;" d="M 209.328125 67.335938 C 204.113281 66.402344 192.613281 68.59375 180.59375 72.035156 L 188.117188 78.207031 C 195.140625 74.609375 202.8125 71.261719 209.328125 67.335938 Z M 209.328125 67.335938 "/>
<path style=" stroke:none;fill-rule:evenodd;fill:rgb(94.117647%,31.764706%,27.058824%);fill-opacity:1;" d="M 143.117188 69.320312 C 139.28125 67.789062 133.785156 71.269531 135.382812 72.945312 C 137.472656 74.476562 136.292969 71.691406 140.609375 71.339844 C 143.425781 70.929688 144.785156 74.335938 145.6875 74.195312 C 146.371094 74.132812 146.722656 73.851562 146.929688 72.988281 C 146.632812 72.242188 145.632812 70.328125 143.117188 69.320312 Z M 143.117188 69.320312 "/>
<path style=" stroke:none;fill-rule:evenodd;fill:rgb(100%,100%,100%);fill-opacity:1;" d="M 189.792969 80.394531 C 194.492188 87.082031 197.507812 92.714844 199.179688 99.566406 C 208.605469 93.664062 211.210938 81.648438 210.0625 70.265625 C 203.378906 73.441406 196.0625 76.886719 189.792969 80.394531 Z M 189.792969 80.394531 "/>
<path style=" stroke:none;fill-rule:evenodd;fill:rgb(94.117647%,31.764706%,27.058824%);fill-opacity:1;" d="M 169.097656 75.664062 C 172.375 76.5625 171.679688 79.910156 173.910156 79.074219 C 175.230469 78.164062 174 76.734375 173.070312 75.804688 C 172.023438 74.335938 169.027344 72.527344 166.101562 73.714844 C 164.140625 74.503906 162.339844 76.222656 163.171875 77.261719 C 165.058594 79.074219 164.429688 75.3125 169.097656 75.664062 Z M 169.097656 75.664062 "/>
<path style=" stroke:none;fill-rule:evenodd;fill:rgb(94.117647%,31.764706%,27.058824%);fill-opacity:1;" d="M 136.429688 78.164062 C 134.480469 78.3125 132.695312 79.238281 131.273438 80.746094 C 129.683594 82.335938 128.886719 84.148438 128.976562 86.316406 C 129.113281 89.734375 130.648438 92.101562 133.785156 93.703125 C 136.816406 95.253906 140.664062 94.050781 142.921875 91.792969 C 144.925781 89.539062 145.878906 86.882812 144.238281 82.769531 C 143.117188 79.980469 139.351562 77.960938 136.429688 78.164062 Z M 142.210938 88.964844 C 142.488281 85.976562 140.457031 84.4375 139.65625 84.101562 C 137.898438 83.375 136.566406 83.691406 135.398438 84.519531 C 133.980469 85.863281 132.597656 88.128906 134.472656 90.707031 L 135.804688 91.820312 C 134.542969 92.238281 132.125 90.316406 131.625 88.902344 C 130.785156 86.886719 130.875 84.296875 132.386719 82.628906 C 134.304688 80.03125 138.425781 79.484375 141.511719 82.28125 C 142.976562 83.597656 143.253906 87.507812 142.210938 88.964844 Z M 142.210938 88.964844 "/>
<path style=" stroke:none;fill-rule:evenodd;fill:rgb(100%,100%,100%);fill-opacity:1;" d="M 132.386719 82.628906 C 130.875 84.296875 130.785156 86.890625 131.625 88.902344 C 132.125 90.316406 134.542969 92.238281 135.804688 91.820312 L 134.472656 90.707031 C 132.597656 88.128906 133.980469 85.863281 135.402344 84.519531 C 136.566406 83.691406 137.898438 83.375 139.65625 84.101562 C 140.460938 84.4375 142.488281 85.976562 142.210938 88.964844 C 143.253906 87.507812 142.976562 83.597656 141.515625 82.28125 C 138.425781 79.484375 134.304688 80.03125 132.386719 82.628906 Z M 132.386719 82.628906 "/>
<path style=" stroke:none;fill-rule:evenodd;fill:rgb(94.117647%,31.764706%,27.058824%);fill-opacity:1;" d="M 169.9375 82.980469 C 166.648438 82.339844 163.460938 83.253906 161.296875 86.316406 C 159.574219 88.765625 159.527344 92.023438 160.953125 94.609375 C 162.367188 96.871094 163.648438 98.386719 166.871094 98.785156 C 170.1875 99.207031 173.4375 97.394531 175.101562 94.472656 C 176.273438 92.382812 176.191406 89.089844 175.019531 87.082031 C 174.023438 85.164062 172.09375 83.398438 169.9375 82.980469 Z M 170.59375 96.136719 C 169.589844 96.476562 167.425781 96.976562 166.382812 96.277344 C 167.722656 95.949219 169.488281 95.28125 170.214844 94.050781 C 171.113281 92.519531 171.066406 90.621094 169.585938 88.902344 C 168.753906 87.917969 167.097656 87.222656 165.414062 87.644531 C 164.019531 87.992188 162.828125 89.382812 162.480469 90.917969 C 161.78125 89.601562 163.039062 86.597656 164.917969 85.765625 C 168.019531 84.390625 170.421875 84.859375 172.09375 86.523438 C 173.605469 87.785156 173.769531 89.832031 173.769531 91.753906 C 173.6875 93.671875 172.261719 95.140625 170.59375 96.136719 Z M 170.59375 96.136719 "/>
<path style=" stroke:none;fill-rule:evenodd;fill:rgb(100%,100%,100%);fill-opacity:1;" d="M 164.917969 85.765625 C 163.039062 86.597656 161.78125 89.601562 162.480469 90.914062 C 162.832031 89.382812 164.019531 87.992188 165.414062 87.644531 C 167.097656 87.222656 168.753906 87.914062 169.589844 88.902344 C 171.066406 90.621094 171.117188 92.519531 170.214844 94.050781 C 169.488281 95.28125 167.722656 95.949219 166.382812 96.277344 C 167.425781 96.976562 169.589844 96.476562 170.59375 96.136719 C 172.261719 95.140625 173.6875 93.671875 173.769531 91.75 C 173.769531 89.828125 173.605469 87.785156 172.09375 86.523438 C 170.421875 84.859375 168.023438 84.386719 164.917969 85.765625 Z M 164.917969 85.765625 "/>
<path style=" stroke:none;fill-rule:evenodd;fill:rgb(100%,100%,100%);fill-opacity:1;" d="M 186.976562 112.796875 C 179.613281 110.789062 169.78125 108.667969 165.964844 107.675781 C 163.351562 104.539062 169.621094 106.730469 177.664062 104.957031 C 170.773438 102.449219 158.5 102.328125 150.597656 107.359375 C 143.921875 101.558594 132.789062 96.699219 123.230469 97.792969 C 125.996094 99.207031 130.695312 100.464844 134.613281 101.609375 C 135.871094 102.8125 135.089844 102.96875 134.410156 103.382812 C 127.199219 102.96875 119.890625 102.859375 112.617188 102.601562 C 105.460938 110.179688 108.773438 120.523438 109.480469 122.617188 C 112.761719 132.199219 122.074219 140.796875 133.519531 144.078125 C 151.835938 149.359375 168.964844 144.488281 176.34375 138.777344 C 189.105469 128.90625 189.65625 118.71875 186.976562 112.796875 Z M 141.746094 137.941406 C 126.785156 133.425781 126.203125 115.195312 119.761719 104.585938 C 128.546875 113.109375 144.085938 106.011719 154.371094 111.195312 C 162.398438 114.777344 172.761719 117.628906 180.375 113.28125 C 173.265625 120.210938 167.332031 127.910156 160.558594 135.097656 C 155.878906 140.019531 147.6875 139.867188 141.746094 137.941406 Z M 141.746094 137.941406 "/>
<path style=" stroke:none;fill-rule:evenodd;fill:rgb(100%,100%,100%);fill-opacity:1;" d="M 119.050781 98.632812 C 116.800781 99.207031 115.390625 100.042969 114.914062 100.769531 C 119.570312 101.140625 123.726562 101.332031 127.148438 101.246094 C 124.066406 100.3125 122.339844 99.261719 119.050781 98.632812 Z M 119.050781 98.632812 "/>
<path style=" stroke:none;fill-rule:evenodd;fill:rgb(94.117647%,31.764706%,27.058824%);fill-opacity:1;" d="M 154.375 111.195312 C 144.085938 106.011719 128.546875 113.109375 119.765625 104.585938 C 126.203125 115.199219 126.785156 133.425781 141.746094 137.941406 C 147.6875 139.867188 155.878906 140.019531 160.558594 135.097656 C 167.332031 127.910156 173.269531 120.214844 180.375 113.28125 C 172.761719 117.628906 162.398438 114.777344 154.375 111.195312 Z M 158.855469 133.277344 C 155.097656 136.613281 151.636719 136.558594 145.800781 135.984375 C 140.457031 135.472656 136.316406 132.757812 134.472656 130.414062 C 134.613281 128.46875 136.277344 126.621094 137.960938 125.644531 C 141.933594 123.347656 148.925781 122.710938 155.726562 126.273438 C 158.75 128.367188 160.003906 132.332031 158.855469 133.277344 Z M 158.855469 133.277344 "/>
<path style=" stroke:none;fill-rule:evenodd;fill:rgb(100%,100%,100%);fill-opacity:1;" d="M 181.6875 106.679688 C 179.074219 106.625 175.136719 107.308594 172.546875 107.308594 L 185.671875 110.601562 C 184.886719 108.503906 182.683594 106.941406 181.6875 106.679688 Z M 181.6875 106.679688 "/>
<path style=" stroke:none;fill-rule:evenodd;fill:rgb(100%,100%,100%);fill-opacity:1;" d="M 75.960938 115.089844 C 75.207031 116.597656 73.734375 118.992188 73.871094 120.214844 C 76.378906 122.722656 78.804688 125.152344 81.554688 127.324219 C 81.304688 128.328125 80.640625 129.160156 79.886719 130.003906 C 76.792969 127.210938 74.984375 127.492188 72.195312 126.242188 C 72.753906 133.199219 75.261719 138.355469 75.261719 138.355469 L 72.339844 139.332031 C 72.339844 139.332031 72.25 136.292969 68.714844 135.289062 C 66.878906 134.789062 64.839844 135.269531 63.503906 136.769531 C 62.664062 138.023438 61.613281 139.472656 63.421875 142.8125 C 65.285156 146.265625 68.109375 147.546875 71.640625 148.386719 C 82.085938 150.898438 96.296875 144.210938 100.535156 137.683594 C 87.523438 128.328125 84.039062 125.824219 75.960938 115.089844 Z M 75.960938 115.089844 "/>
<path style=" stroke:none;fill-rule:evenodd;fill:rgb(100%,100%,100%);fill-opacity:1;" d="M 155.726562 126.273438 C 148.925781 122.710938 141.933594 123.347656 137.960938 125.644531 C 136.277344 126.621094 134.613281 128.46875 134.472656 130.414062 C 136.316406 132.757812 140.457031 135.472656 145.800781 135.984375 C 151.636719 136.558594 155.097656 136.613281 158.855469 133.277344 C 160.003906 132.332031 158.75 128.367188 155.726562 126.273438 Z M 155.726562 126.273438 "/>
<path style=" stroke:none;fill-rule:evenodd;fill:rgb(100%,100%,100%);fill-opacity:1;" d="M 263.566406 192.144531 L 263.632812 168.742188 L 270.765625 168.675781 L 277.726562 182.855469 L 277.707031 168.542969 L 283.351562 168.59375 L 283.320312 192.144531 L 276.582031 192.203125 L 269.519531 178.332031 L 269.519531 192.203125 Z M 263.566406 192.144531 "/>
<path style=" stroke:none;fill-rule:nonzero;fill:rgb(100%,100%,100%);fill-opacity:1;" d="M 278.050781 168.886719 L 283.007812 168.933594 L 282.980469 191.804688 L 276.792969 191.859375 L 269.175781 176.90625 L 269.175781 191.859375 L 263.910156 191.804688 L 263.972656 169.082031 L 270.554688 169.019531 L 278.070312 184.332031 L 278.050781 168.886719 M 277.363281 168.195312 L 277.367188 168.886719 L 277.382812 181.378906 L 271.167969 168.71875 L 270.976562 168.332031 L 270.546875 168.335938 L 263.96875 168.394531 L 263.292969 168.402344 L 263.289062 169.078125 L 263.226562 191.804688 L 263.222656 192.484375 L 263.902344 192.492188 L 269.171875 192.542969 L 269.863281 192.550781 L 269.863281 179.757812 L 276.183594 192.167969 L 276.375 192.546875 L 276.796875 192.542969 L 282.984375 192.488281 L 283.664062 192.484375 L 283.664062 191.804688 L 283.691406 168.933594 L 283.695312 168.253906 L 283.015625 168.246094 L 278.054688 168.203125 Z M 277.363281 168.195312 "/>
<path style=" stroke:none;fill-rule:evenodd;fill:rgb(100%,100%,100%);fill-opacity:1;" d="M 211.949219 192.570312 L 211.984375 173.230469 L 206.207031 173.230469 L 206.207031 168.871094 L 224.304688 168.871094 L 224.265625 173.214844 L 218.523438 173.230469 L 218.523438 192.59375 Z M 211.949219 192.570312 "/>
<path style=" stroke:none;fill-rule:nonzero;fill:rgb(100%,100%,100%);fill-opacity:1;" d="M 223.957031 169.214844 L 223.925781 172.875 L 218.179688 172.886719 L 218.179688 192.25 L 212.289062 192.230469 L 212.328125 172.886719 L 206.546875 172.886719 L 206.546875 169.214844 L 223.957031 169.214844 M 224.648438 168.53125 L 205.863281 168.53125 L 205.863281 173.574219 L 211.640625 173.574219 L 211.605469 192.226562 L 211.605469 192.910156 L 212.289062 192.914062 L 218.179688 192.933594 L 218.863281 192.9375 L 218.863281 173.570312 L 223.929688 173.558594 L 224.605469 173.558594 L 224.609375 172.882812 L 224.644531 169.222656 Z M 224.648438 168.53125 "/>
<path style=" stroke:none;fill-rule:evenodd;fill:rgb(100%,100%,100%);fill-opacity:1;" d="M 227.226562 192.351562 L 227.277344 168.738281 L 233.808594 168.738281 L 233.808594 192.386719 Z M 227.226562 192.351562 "/>
<path style=" stroke:none;fill-rule:nonzero;fill:rgb(100%,100%,100%);fill-opacity:1;" d="M 233.46875 169.082031 L 233.46875 192.042969 L 227.570312 192.011719 L 227.621094 169.082031 L 233.46875 169.082031 M 234.152344 168.394531 L 226.9375 168.394531 L 226.9375 169.078125 L 226.886719 192.011719 L 226.886719 192.691406 L 227.566406 192.695312 L 233.464844 192.726562 L 234.152344 192.730469 Z M 234.152344 168.394531 "/>
<path style=" stroke:none;fill-rule:evenodd;fill:rgb(100%,100%,100%);fill-opacity:1;" d="M 116.5 168.949219 L 123.464844 168.949219 L 130.664062 183.242188 L 130.617188 168.746094 L 136.425781 168.804688 L 136.367188 192.710938 L 129.386719 192.742188 L 122.1875 178.496094 L 122.164062 192.710938 L 116.5 192.742188 Z M 116.5 168.949219 "/>
<path style=" stroke:none;fill-rule:nonzero;fill:rgb(100%,100%,100%);fill-opacity:1;" d="M 130.960938 169.089844 L 136.082031 169.144531 L 136.023438 192.371094 L 129.597656 192.398438 L 121.847656 177.066406 L 121.824219 192.371094 L 116.84375 192.398438 L 116.84375 169.292969 L 123.257812 169.292969 L 131.011719 184.691406 L 130.960938 169.089844 M 130.273438 168.398438 L 130.277344 169.09375 L 130.316406 181.792969 L 123.867188 168.984375 L 123.675781 168.609375 L 116.15625 168.609375 L 116.15625 193.085938 L 116.84375 193.082031 L 121.828125 193.058594 L 122.507812 193.054688 L 122.507812 192.375 L 122.527344 179.929688 L 128.988281 192.707031 L 129.175781 193.085938 L 129.601562 193.082031 L 136.027344 193.058594 L 136.707031 193.054688 L 136.707031 192.375 L 136.765625 169.148438 L 136.765625 168.46875 L 136.089844 168.460938 L 130.96875 168.40625 Z M 130.273438 168.398438 "/>
<path style=" stroke:none;fill-rule:evenodd;fill:rgb(100%,100%,100%);fill-opacity:1;" d="M 142.152344 168.949219 L 148.753906 168.949219 L 148.753906 192.160156 L 142.152344 192.175781 Z M 142.152344 168.949219 "/>
<path style=" stroke:none;fill-rule:nonzero;fill:rgb(100%,100%,100%);fill-opacity:1;" d="M 148.414062 169.292969 L 148.414062 191.816406 L 142.496094 191.832031 L 142.496094 169.292969 L 148.414062 169.292969 M 149.097656 168.609375 L 141.8125 168.609375 L 141.8125 192.515625 L 142.496094 192.515625 L 148.414062 192.503906 L 149.097656 192.5 Z M 149.097656 168.609375 "/>
<path style=" stroke:none;fill-rule:evenodd;fill:rgb(100%,100%,100%);fill-opacity:1;" d="M 175.386719 192.488281 L 175.40625 176.308594 L 170.4375 192.308594 L 165.640625 192.308594 L 160.527344 176.625 L 160.527344 192.453125 L 154.832031 192.453125 L 154.824219 169.109375 L 164.253906 169.160156 L 167.980469 183.398438 L 172.1875 169.015625 L 181.425781 168.960938 L 181.449219 192.597656 Z M 175.386719 192.488281 "/>
<path style=" stroke:none;fill-rule:nonzero;fill:rgb(100%,100%,100%);fill-opacity:1;" d="M 181.085938 169.304688 L 181.109375 192.25 L 175.730469 192.152344 L 175.753906 174.042969 L 170.1875 191.96875 L 165.890625 191.96875 L 160.183594 174.472656 L 160.183594 192.109375 L 155.175781 192.109375 L 155.164062 169.453125 L 163.992188 169.503906 L 167.960938 184.679688 L 172.445312 169.355469 L 181.085938 169.304688 M 181.769531 168.617188 L 181.082031 168.621094 L 172.441406 168.671875 L 171.933594 168.671875 L 171.789062 169.164062 L 167.996094 182.117188 L 164.652344 169.328125 L 164.519531 168.820312 L 163.996094 168.820312 L 155.167969 168.769531 L 154.480469 168.765625 L 154.480469 169.453125 L 154.492188 192.109375 L 154.492188 192.792969 L 160.871094 192.792969 L 160.871094 178.777344 L 165.238281 192.179688 L 165.394531 192.652344 L 170.691406 192.652344 L 170.839844 192.171875 L 175.0625 178.570312 L 175.046875 192.152344 L 175.042969 192.824219 L 175.71875 192.835938 L 181.09375 192.933594 L 181.792969 192.945312 L 181.792969 192.246094 L 181.769531 169.304688 Z M 181.769531 168.617188 "/>
<path style=" stroke:none;fill-rule:evenodd;fill:rgb(100%,100%,100%);fill-opacity:1;" d="M 53.222656 192.738281 L 53.214844 169.109375 L 67.511719 169.089844 L 67.460938 173.578125 L 59.332031 173.589844 L 59.332031 178.4375 L 66.886719 178.390625 L 66.949219 182.738281 L 59.40625 182.738281 L 59.40625 188.449219 L 68.027344 188.382812 L 68.074219 192.738281 Z M 53.222656 192.738281 "/>
<path style=" stroke:none;fill-rule:nonzero;fill:rgb(100%,100%,100%);fill-opacity:1;" d="M 67.164062 169.433594 L 67.121094 173.238281 L 58.992188 173.25 L 58.992188 178.785156 L 66.550781 178.734375 L 66.601562 182.394531 L 59.0625 182.394531 L 59.0625 188.792969 L 67.6875 188.726562 L 67.730469 192.398438 L 53.566406 192.398438 L 53.558594 169.453125 L 67.164062 169.433594 M 67.859375 168.75 L 67.164062 168.75 L 53.554688 168.765625 L 52.871094 168.769531 L 52.871094 169.453125 L 52.878906 192.398438 L 52.878906 193.082031 L 68.421875 193.082031 L 68.414062 192.390625 L 68.371094 188.71875 L 68.363281 188.039062 L 67.683594 188.042969 L 59.746094 188.101562 L 59.746094 183.078125 L 67.292969 183.078125 L 67.285156 182.382812 L 67.234375 178.722656 L 67.222656 178.042969 L 66.546875 178.046875 L 59.675781 178.09375 L 59.675781 173.933594 L 67.121094 173.921875 L 67.796875 173.921875 L 67.804688 173.246094 L 67.847656 169.441406 Z M 67.859375 168.75 "/>
<path style=" stroke:none;fill-rule:evenodd;fill:rgb(100%,100%,100%);fill-opacity:1;" d="M 72.457031 169.09375 L 79.132812 169.09375 L 79.105469 192.847656 L 72.457031 192.890625 Z M 72.457031 169.09375 "/>
<path style=" stroke:none;fill-rule:nonzero;fill:rgb(100%,100%,100%);fill-opacity:1;" d="M 78.789062 169.433594 L 78.761719 192.507812 L 72.796875 192.546875 L 72.796875 169.433594 L 78.789062 169.433594 M 79.476562 168.75 L 72.113281 168.75 L 72.113281 193.234375 L 72.800781 193.230469 L 78.765625 193.191406 L 79.445312 193.1875 L 79.445312 192.507812 L 79.472656 169.433594 Z M 79.476562 168.75 "/>
<path style=" stroke:none;fill-rule:evenodd;fill:rgb(100%,100%,100%);fill-opacity:1;" d="M 13.761719 192.8125 L 13.722656 173.863281 L 7.910156 173.882812 L 7.910156 168.949219 L 26.074219 168.949219 L 26.042969 173.648438 L 20.261719 173.648438 L 20.289062 192.8125 Z M 13.761719 192.8125 "/>
<path style=" stroke:none;fill-rule:nonzero;fill:rgb(100%,100%,100%);fill-opacity:1;" d="M 25.730469 169.292969 L 25.703125 173.308594 L 19.917969 173.308594 L 19.949219 192.46875 L 14.101562 192.46875 L 14.066406 173.519531 L 8.253906 173.539062 L 8.253906 169.292969 L 25.730469 169.292969 M 26.421875 168.609375 L 7.570312 168.609375 L 7.570312 174.226562 L 8.253906 174.222656 L 13.382812 174.207031 L 13.417969 192.46875 L 13.417969 193.152344 L 20.632812 193.152344 L 20.632812 192.46875 L 20.605469 173.992188 L 26.382812 173.992188 L 26.390625 173.3125 L 26.414062 169.296875 Z M 26.421875 168.609375 "/>
<path style=" stroke:none;fill-rule:evenodd;fill:rgb(100%,100%,100%);fill-opacity:1;" d="M 248.351562 192.742188 C 241.070312 192.742188 237.929688 189.238281 237.847656 181.027344 C 237.761719 172.9375 241.941406 168.214844 249.316406 168.082031 L 249.558594 168.078125 C 252.394531 168.078125 254.683594 168.957031 256.367188 170.6875 C 259.234375 173.644531 259.539062 178.257812 259.464844 180.746094 C 259.207031 188.863281 255.742188 192.675781 248.554688 192.738281 Z M 248.898438 171.9375 C 247.816406 171.9375 246.988281 172.242188 246.371094 172.871094 C 245.25 174.003906 244.753906 176.25 244.804688 179.9375 C 244.945312 187.535156 245.082031 188.972656 248.628906 189.109375 C 251.753906 188.910156 252.285156 187.113281 252.707031 180.070312 C 252.488281 174.734375 252.21875 171.9375 248.898438 171.9375 Z M 248.898438 171.9375 "/>
<path style=" stroke:none;fill-rule:nonzero;fill:rgb(100%,100%,100%);fill-opacity:1;" d="M 249.558594 168.421875 C 257.183594 168.421875 259.292969 174.929688 259.121094 180.734375 C 258.910156 187.429688 256.578125 192.324219 248.550781 192.398438 C 248.484375 192.398438 248.417969 192.398438 248.351562 192.398438 C 240.621094 192.398438 238.265625 188.300781 238.191406 181.023438 C 238.117188 174.183594 241.289062 168.570312 249.320312 168.421875 C 249.402344 168.421875 249.480469 168.421875 249.558594 168.421875 M 248.617188 189.449219 C 252.140625 189.230469 252.632812 186.996094 253.050781 180.089844 C 252.84375 175.121094 252.703125 171.597656 248.898438 171.597656 C 245.445312 171.597656 244.386719 174.542969 244.460938 179.941406 C 244.601562 187.5 244.742188 189.300781 248.617188 189.449219 M 249.558594 167.734375 C 249.476562 167.734375 249.394531 167.738281 249.308594 167.738281 C 245.304688 167.8125 242.230469 169.175781 240.179688 171.792969 C 238.390625 174.070312 237.464844 177.261719 237.507812 181.03125 C 237.546875 185.121094 238.296875 187.929688 239.867188 189.871094 C 241.617188 192.03125 244.390625 193.082031 248.351562 193.082031 L 248.558594 193.082031 C 258.296875 192.996094 259.640625 186.003906 259.804688 180.757812 C 259.882812 178.214844 259.566406 173.496094 256.613281 170.449219 C 254.863281 168.648438 252.492188 167.734375 249.558594 167.734375 Z M 248.609375 188.765625 C 245.492188 188.636719 245.289062 187.625 245.148438 179.929688 C 245.097656 176.34375 245.5625 174.175781 246.613281 173.109375 C 247.164062 172.550781 247.910156 172.28125 248.898438 172.28125 C 251.90625 172.28125 252.148438 174.816406 252.363281 180.082031 C 251.929688 187.265625 251.363281 188.582031 248.609375 188.765625 Z M 248.609375 188.765625 "/>
<path style=" stroke:none;fill-rule:evenodd;fill:rgb(100%,100%,100%);fill-opacity:1;" d="M 38.0625 193.53125 C 33.894531 193.5 31.179688 192.4375 29.523438 190.199219 C 28.039062 188.1875 27.390625 185.226562 27.429688 180.589844 C 27.476562 175.4375 28.652344 168.589844 38.316406 168.589844 L 38.558594 168.589844 C 41.628906 168.621094 44.210938 169.671875 46.019531 171.625 C 48.125 173.898438 49.09375 177.257812 48.824219 181.335938 C 48.4375 187.367188 46.871094 193.53125 38.214844 193.53125 C 38.214844 193.53125 38.0625 193.53125 38.0625 193.53125 Z M 38.074219 172.585938 C 34.421875 172.585938 34.183594 176.125 34.101562 181.898438 C 34.0625 184.949219 34.125 187.378906 35.308594 188.578125 C 35.945312 189.226562 36.9375 189.539062 38.339844 189.539062 C 38.488281 189.546875 38.609375 189.550781 38.726562 189.550781 C 41.496094 189.550781 41.722656 187.152344 41.902344 182.550781 C 41.933594 181.78125 41.96875 180.972656 42.019531 180.132812 C 42.019531 174.550781 41.054688 172.644531 38.195312 172.589844 Z M 38.074219 172.585938 "/>
<path style=" stroke:none;fill-rule:nonzero;fill:rgb(100%,100%,100%);fill-opacity:1;" d="M 38.316406 168.929688 C 38.394531 168.929688 38.472656 168.929688 38.554688 168.933594 C 45.105469 169.003906 48.984375 173.753906 48.484375 181.316406 C 48.152344 186.460938 47.023438 193.191406 38.214844 193.191406 C 38.164062 193.191406 38.113281 193.191406 38.0625 193.191406 C 29.820312 193.125 27.703125 188.941406 27.773438 180.59375 C 27.820312 174.953125 29.226562 168.929688 38.316406 168.929688 M 38.726562 189.894531 C 42.53125 189.894531 42.019531 185.664062 42.359375 180.15625 C 42.359375 174.976562 41.582031 172.3125 38.203125 172.246094 C 38.160156 172.246094 38.117188 172.246094 38.074219 172.246094 C 33.972656 172.246094 33.835938 176.5 33.761719 181.894531 C 33.691406 186.996094 33.96875 189.878906 38.339844 189.878906 C 38.476562 189.890625 38.601562 189.894531 38.726562 189.894531 M 38.316406 168.246094 C 28.347656 168.246094 27.132812 175.289062 27.089844 180.589844 C 27.050781 185.300781 27.714844 188.328125 29.25 190.402344 C 30.976562 192.738281 33.773438 193.839844 38.058594 193.875 L 38.214844 193.875 C 48.359375 193.875 48.925781 185.105469 49.167969 181.359375 C 49.441406 177.183594 48.441406 173.738281 46.269531 171.390625 C 44.398438 169.367188 41.730469 168.28125 38.558594 168.246094 C 38.480469 168.246094 38.394531 168.246094 38.316406 168.246094 Z M 38.339844 189.195312 C 37.035156 189.195312 36.121094 188.917969 35.550781 188.339844 C 34.460938 187.234375 34.402344 184.871094 34.445312 181.902344 C 34.53125 175.804688 34.917969 172.929688 38.074219 172.929688 C 38.113281 172.929688 38.148438 172.929688 38.1875 172.929688 C 40.792969 172.980469 41.675781 174.800781 41.675781 180.132812 C 41.625 180.96875 41.59375 181.765625 41.5625 182.539062 C 41.382812 187.042969 41.1875 189.210938 38.726562 189.210938 C 38.617188 189.210938 38.503906 189.207031 38.386719 189.199219 L 38.339844 189.199219 Z M 38.339844 189.195312 "/>
<path style=" stroke:none;fill-rule:evenodd;fill:rgb(100%,100%,100%);fill-opacity:1;" d="M 191.71875 168.871094 L 200.179688 168.871094 L 206.71875 192.519531 L 200.375 192.519531 L 198.125 185.035156 L 192.765625 185.035156 L 190.160156 192.585938 L 183.878906 192.675781 Z M 197.214844 180.832031 L 195.484375 174.839844 L 193.757812 180.832031 Z M 197.214844 180.832031 "/>
<path style=" stroke:none;fill-rule:nonzero;fill:rgb(100%,100%,100%);fill-opacity:1;" d="M 199.917969 169.214844 L 206.269531 192.175781 L 200.632812 192.175781 L 198.378906 184.691406 L 192.523438 184.691406 L 189.914062 192.25 L 184.351562 192.324219 L 191.964844 169.214844 L 199.917969 169.214844 M 193.300781 181.171875 L 197.667969 181.171875 L 195.484375 173.605469 L 193.300781 181.171875 M 200.441406 168.53125 L 191.46875 168.53125 L 191.316406 169 L 183.703125 192.109375 L 183.402344 193.023438 L 184.359375 193.007812 L 189.921875 192.933594 L 190.402344 192.925781 L 190.5625 192.472656 L 193.007812 185.375 L 197.867188 185.375 L 199.976562 192.375 L 200.121094 192.859375 L 207.167969 192.859375 L 206.925781 191.996094 L 200.578125 169.03125 Z M 194.210938 180.488281 L 195.484375 176.074219 L 196.757812 180.488281 Z M 194.210938 180.488281 "/>
<path style=" stroke:none;fill-rule:evenodd;fill:rgb(100%,100%,100%);fill-opacity:1;" d="M 98.695312 169.09375 L 107.308594 169.09375 L 114.054688 192.738281 L 107.5 192.738281 L 105.375 185.183594 L 99.617188 185.183594 L 97.296875 192.808594 L 91.132812 192.832031 Z M 100.816406 180.898438 L 104.101562 180.894531 L 102.644531 174.898438 Z M 100.816406 180.898438 "/>
<path style=" stroke:none;fill-rule:nonzero;fill:rgb(100%,100%,100%);fill-opacity:1;" d="M 107.050781 169.433594 L 113.601562 192.398438 L 107.757812 192.398438 L 105.636719 184.839844 L 99.363281 184.839844 L 97.042969 192.46875 L 91.601562 192.488281 L 98.945312 169.433594 L 107.050781 169.433594 M 100.355469 181.242188 L 104.539062 181.238281 L 102.683594 173.605469 L 100.355469 181.242188 M 107.566406 168.75 L 98.445312 168.75 L 98.292969 169.226562 L 90.949219 192.277344 L 90.664062 193.175781 L 91.605469 193.171875 L 97.046875 193.152344 L 97.550781 193.152344 L 97.699219 192.667969 L 99.871094 185.523438 L 105.117188 185.523438 L 107.097656 192.582031 L 107.238281 193.082031 L 114.507812 193.082031 L 114.257812 192.210938 L 107.707031 169.246094 Z M 101.28125 180.558594 L 102.609375 176.195312 L 103.667969 180.554688 Z M 101.28125 180.558594 "/>
<path style=" stroke:none;fill-rule:evenodd;fill:rgb(0%,0%,0%);fill-opacity:1;" d="M 278.070312 184.332031 L 270.550781 169.019531 L 263.972656 169.082031 L 263.910156 191.804688 L 269.175781 191.859375 L 269.175781 176.90625 L 276.792969 191.859375 L 282.980469 191.804688 L 283.007812 168.933594 L 278.050781 168.886719 Z M 278.070312 184.332031 "/>
<path style=" stroke:none;fill-rule:evenodd;fill:rgb(0%,0%,0%);fill-opacity:1;" d="M 206.546875 172.890625 L 212.328125 172.890625 L 212.289062 192.230469 L 218.179688 192.25 L 218.179688 172.890625 L 223.925781 172.875 L 223.957031 169.214844 L 206.546875 169.214844 Z M 206.546875 172.890625 "/>
<path style=" stroke:none;fill-rule:evenodd;fill:rgb(0%,0%,0%);fill-opacity:1;" d="M 227.570312 192.011719 L 233.46875 192.042969 L 233.46875 169.082031 L 227.621094 169.082031 Z M 227.570312 192.011719 "/>
<path style=" stroke:none;fill-rule:evenodd;fill:rgb(0%,0%,0%);fill-opacity:1;" d="M 131.011719 184.691406 L 123.253906 169.292969 L 116.84375 169.292969 L 116.84375 192.398438 L 121.824219 192.371094 L 121.847656 177.066406 L 129.597656 192.398438 L 136.023438 192.371094 L 136.082031 169.144531 L 130.960938 169.089844 Z M 131.011719 184.691406 "/>
<path style=" stroke:none;fill-rule:evenodd;fill:rgb(0%,0%,0%);fill-opacity:1;" d="M 142.496094 191.832031 L 148.414062 191.816406 L 148.414062 169.292969 L 142.496094 169.292969 Z M 142.496094 191.832031 "/>
<path style=" stroke:none;fill-rule:evenodd;fill:rgb(0%,0%,0%);fill-opacity:1;" d="M 172.445312 169.355469 L 167.960938 184.679688 L 163.992188 169.503906 L 155.164062 169.453125 L 155.175781 192.109375 L 160.183594 192.109375 L 160.183594 174.472656 L 165.890625 191.96875 L 170.1875 191.96875 L 175.753906 174.042969 L 175.730469 192.152344 L 181.109375 192.25 L 181.085938 169.304688 Z M 172.445312 169.355469 "/>
<path style=" stroke:none;fill-rule:evenodd;fill:rgb(0%,0%,0%);fill-opacity:1;" d="M 67.6875 188.726562 L 59.0625 188.792969 L 59.0625 182.394531 L 66.601562 182.394531 L 66.550781 178.734375 L 58.992188 178.785156 L 58.992188 173.25 L 67.121094 173.238281 L 67.164062 169.433594 L 53.558594 169.453125 L 53.566406 192.398438 L 67.730469 192.398438 Z M 67.6875 188.726562 "/>
<path style=" stroke:none;fill-rule:evenodd;fill:rgb(0%,0%,0%);fill-opacity:1;" d="M 72.796875 192.546875 L 78.761719 192.507812 L 78.789062 169.433594 L 72.796875 169.433594 Z M 72.796875 192.546875 "/>
<path style=" stroke:none;fill-rule:evenodd;fill:rgb(0%,0%,0%);fill-opacity:1;" d="M 14.101562 192.46875 L 19.945312 192.46875 L 19.917969 173.308594 L 25.703125 173.308594 L 25.730469 169.292969 L 8.253906 169.292969 L 8.253906 173.539062 L 14.066406 173.519531 Z M 14.101562 192.46875 "/>
<path style=" stroke:none;fill-rule:evenodd;fill:rgb(0%,0%,0%);fill-opacity:1;" d="M 249.320312 168.421875 C 241.289062 168.570312 238.117188 174.183594 238.191406 181.023438 C 238.265625 188.363281 240.65625 192.46875 248.550781 192.398438 C 256.578125 192.324219 258.910156 187.429688 259.121094 180.734375 C 259.296875 174.871094 257.140625 168.285156 249.320312 168.421875 Z M 248.617188 189.449219 C 244.742188 189.300781 244.601562 187.5 244.460938 179.941406 C 244.390625 174.542969 245.445312 171.597656 248.898438 171.597656 C 252.707031 171.597656 252.84375 175.121094 253.050781 180.089844 C 252.632812 186.996094 252.140625 189.230469 248.617188 189.449219 Z M 248.617188 189.449219 "/>
<path style=" stroke:none;fill-rule:evenodd;fill:rgb(0%,0%,0%);fill-opacity:1;" d="M 38.554688 168.933594 C 29.253906 168.828125 27.820312 174.902344 27.773438 180.59375 C 27.703125 188.941406 29.820312 193.125 38.0625 193.191406 C 47.011719 193.265625 48.148438 186.488281 48.484375 181.316406 C 48.984375 173.753906 45.105469 169.003906 38.554688 168.933594 Z M 38.339844 189.882812 C 33.96875 189.882812 33.691406 187 33.761719 181.894531 C 33.835938 176.445312 33.972656 172.15625 38.203125 172.246094 C 41.582031 172.3125 42.359375 174.976562 42.359375 180.15625 C 42.007812 185.84375 42.566406 190.167969 38.339844 189.882812 Z M 38.339844 189.882812 "/>
<path style=" stroke:none;fill-rule:evenodd;fill:rgb(0%,0%,0%);fill-opacity:1;" d="M 191.964844 169.214844 L 184.351562 192.324219 L 189.914062 192.25 L 192.519531 184.691406 L 198.378906 184.691406 L 200.632812 192.175781 L 206.269531 192.175781 L 199.917969 169.214844 Z M 193.300781 181.171875 L 195.484375 173.605469 L 197.667969 181.171875 Z M 193.300781 181.171875 "/>
<path style=" stroke:none;fill-rule:evenodd;fill:rgb(0%,0%,0%);fill-opacity:1;" d="M 98.945312 169.433594 L 91.601562 192.488281 L 97.042969 192.46875 L 99.367188 184.839844 L 105.636719 184.839844 L 107.757812 192.398438 L 113.601562 192.398438 L 107.050781 169.433594 Z M 100.355469 181.242188 L 102.683594 173.605469 L 104.539062 181.238281 Z M 100.355469 181.242188 "/>
</g>
</svg>
