<?xml version="1.0" encoding="UTF-8"?>
<!-- Generator: Adobe Illustrator 15.1.0, SVG Export Plug-In . SVG Version: 6.00 Build 0)  -->
<svg width="540.73px" height="398.84px" enable-background="new 35.633 217.923 540.734 398.839" version="1.1" viewBox="35.633 217.92 540.73 398.84" xml:space="preserve" xmlns="http://www.w3.org/2000/svg">
<g id="LOGO">
	<g>
		<path d="m258.98 399.51s7.329 0.823 13.094-6.177c3.953-4.776 12.271-6.506 18.282-8.813 6.095-2.388 28.001-16.059 36.482-33.271 8.4-17.211 19.519-44.388 21.33-62.012 1.895-17.706 1.895-19.024 1.895-19.024s-8.152 2.635-19.271 3.707c-11.034 1.07-37.964 5.27-50.153 10.541-12.188 5.271-28.247 14.248-32.776 22.73-4.529 8.4-5.023 9.718-5.023 9.718s0.988-10.294 5.023-18.365c4.364-8.565 8.317-13.67 13.588-17.377 1.647-1.153 4.448-2.965 4.448-2.965s4.693-9.059 5.765-18.529c1.07-9.471-3.13-25.365-3.13-27.424v-2.141s-31.377 5.847-40.436 10.542c-8.977 4.776-33.517 19.765-54.353 45.376-20.835 25.612-42.247 70.989-49.907 90.836-7.659 19.765-29.317 93.225-33.765 139.92-4.447 46.695-4.2 66.378-4.2 66.378s5.353-0.906 9.965 2.388c4.612 3.377 5.93 7.906 5.93 7.906s8.565-0.412 22.4-3.953c13.835-3.54 34.012-9.636 49.083-19.93 15.153-10.294 25.612-21.823 31.459-30.883 5.848-9.058 11.53-31.211 11.53-31.211s-0.33 21.823-6.753 35c-7.082 14.494-22.482 34.835-52.047 48.424-29.565 13.67-56.989 16.307-56.989 16.307s-3.871 9.223-17.047 6.506c-13.177-2.719-11.53-17.625-10.047-21.166 2.635-6.423 6.67-8.482 10.541-9.059l0.495-0.164s0.412-13.424 0.988-24.048c0.576-10.623 2.388-32.859 3.293-42.823 0.906-9.966 4.448-35.742 6.26-46.201 1.812-10.458 7.412-37.801 10.376-49.905 2.964-12.024 10.952-38.625 17.788-55.837 6.835-17.212 16.717-41.012 32.036-65.553 15.235-24.542 37.141-51.553 57.813-63.33 20.67-11.776 25.941-14.906 45.624-17.047l11.447-0.659s-0.082 7.824 0.411 13.012c0.495 5.188 2.472 15.895 2.636 24.871s-2.471 19.682-2.471 19.682 10.706-5.105 25.2-8.4c14.494-3.294 22.813-4.859 36.236-6.341 13.423-1.483 18.693-2.224 18.693-2.224s0.412 5.436 0.412 10.624-1.482 19.765-2.8 28.494-4.118 26.271-8.977 39.118c-4.859 12.848-12.436 31.295-24.376 43.153-11.942 11.859-22.401 17.294-37.472 19.436-15.072 2.223-18.53 0.165-18.53 0.165"/>
		<path d="m136.68 554.5s4.2-18.282 58.882-7.412c54.683 10.87 55.095 14.906 55.095 14.906s-24.376-8.564-55.506-11.53c-42.906-4.199-58.471 4.036-58.471 4.036"/>
		<path d="m129.52 568.34s10.211-15.729 51.142 7.495c40.847 23.224 43.895 30.307 43.895 30.307s-21.083-17.049-45.459-27.343c-33.767-14.164-49.578-10.459-49.578-10.459"/>
		<path d="m95.175 549.23s-3.871-21.495-30.388-22.648c-26.518-1.151-29.153 4.036-29.153 4.036s14.329-4.446 29.729-0.164c21.164 5.847 29.812 18.776 29.812 18.776"/>
		<path d="m91.963 564.88s-6.095-13.836-27.506-8.565c-21.33 5.271-22.73 9.472-22.73 9.472s10.789-6.342 23.718-6.919c17.788-0.824 26.518 6.012 26.518 6.012"/>
		<path d="m141.62 498.75s14-14.823 38.294-20.672c21.495-5.188 39.612-4.034 39.612-4.034s-17.87-9.224-39.612-6.26c-24.788 3.377-38.294 30.966-38.294 30.966"/>
		<path d="m74.01 454.94s14.906 3.623 26.354 16.636c10.212 11.529 14.247 22.977 14.247 22.977s0.658-16.224-8.153-28.576c-10.048-14.084-32.448-11.037-32.448-11.037"/>
		<path d="m327.58 407.67c-1.153 2.307-22.4 61.436-25.283 66.46l-1.729-2.306c-2.883-6.671-17.87-28.083-20.012-32.859-5.518 8.563-18.447 30.883-21.33 35.329h-0.164c-2.389-7.576-24.212-58.553-27.259-69.341l12.682 0.905c1.729 8.235 15.236 38.212 17.13 46.529 2.635-4.94 11.365-18.117 18.529-29.234l1.071-0.907c4.776 10.048 14.165 21.66 18.612 30.801 1.811-4.365 12.6-39.529 14.823-44.553l12.93-0.824z"/>
		<path d="m337.29 472.31c0.166-4.035-0.493-27.258-0.493-29.646l-0.166-9.964c0-1.566-0.576-24.296-0.823-26.52l11.53 0.824c-0.165 1.646 0.329 20.012 0.329 21.659l0.083 7.164 39.776-2.141-0.083-7.412c0-1.564 0.66-17.459 0.413-19.518l11.364-1.4c-0.247 2.224-0.411 27.094-0.33 29.317l0.083 9.225c0 1.235 0.083 28.658 0.412 27.341l-11.695-0.246c0.247-3.13 0.166-19.848 0.083-21.66l-0.494-7-39.776 2.143 0.494 3.376c0.082 4.117 0.576 21.082 0.659 23.223l-11.366 1.235z"/>
		<path d="m429.78 441.92c0.166 9.225 0.659 25.695 0.741 27.836l-11.858 0.165c0.164-4.035-0.083-25.612-0.083-28.001l-0.164-9.964c0-1.564-0.742-26.519-0.988-28.742l12.188-0.164c-0.165 1.646-0.165 17.871 0 28.906l0.164 9.964z"/>
		<path d="m466.59 471.41c0.577-9.47 0.988-24.787 0.823-39.529l-0.576-16.882c-10.623 0.823-22.729 1.481-25.117 2.059l-1.236-11.035c3.788 0.411 18.694-0.577 25.941-0.577l9.883-1.153c1.729-0.164 20.917-1.976 24.953-3.047l1.235 11.035c-1.318-0.246-17.13 1.483-24.871 2.06l0.329 17.377c-0.083 18.942 0.083 37.224 0.412 39.036l-11.776 0.656z"/>
		<path d="m561.38 472.73c-1.482 0-50.729 0.164-52.625 0.164 0.249-4.859-0.081-24.541-0.081-26.683l-0.165-12.354c0-1.482-0.494-23.636-0.577-25.364 2.224 0 47.766-2.389 50.73-2.801l1.235 10.541c-2.966 0-41.013 1.4-42.494 1.483l0.577 19.353c1.728 0 34.834-1.318 39.364-1.977l-0.247 10.048c-2.06 0-37.8 0.576-39.694 0.576l-0.412 18.693c2.224 0 35.989-0.657 43.565-1.316l0.824 9.637z"/>
		<path d="m255.68 610.83c2.225-13.094 0.824-61.271 0.824-57.813v-21.411c0-5.354-1.647-43.729-1.977-46.778 4.776 0 85.978-3.458 93.636-4.034l-0.658 15.07-73.789 2.06-0.33 40.353c2.389 2.471 50.895-2.059 59.871-2.553l-0.577 16.635-59.787 1.648-0.33 8.151c0 2.553 1.318 46.778 2.059 49.002l-18.942-0.33z"/>
		<path d="m340.1 563.31c0.329-29.812 17.376-47.601 50.729-47.601 26.189 0 46.365 18.942 46.365 48.013 0 20.917-8.647 44.8-47.93 44.8-30.224 0.083-49.494-18.282-49.164-45.212m82.188-0.988c0-20.094-16.717-31.706-33.188-31.706-22.481 0-34.341 15.483-34.341 34.589 0 16.635 14.659 29.812 34.424 29.812 18.859 0.083 33.105-10.624 33.105-32.695"/>
		<path d="m440.4 606.22c4.282-3.953 47.436-51.718 52.871-58.06-7.906-7.164-45.789-42.33-53.612-49.494l12.93-11.612c5.188 5.683 38.047 34.342 52.46 48.013 5.928-6.507 41.834-47.848 46.693-54.023l12.848 10.953c-6.177 5.681-43.978 49.823-47.931 55.423 5.848 5.106 52.624 43.4 59.707 50.4l-12.765 11.695c-4.612-5.024-54.602-45.131-59.542-49.412-2.06 2.553-49.166 53.611-51.389 56.659l-12.27-10.542z"/>
	</g>
</g>
</svg>
