<?xml version="1.0" encoding="UTF-8" standalone="no"?>
<!-- Created with Inkscape (http://www.inkscape.org/) -->

<svg
   xmlns:dc="http://purl.org/dc/elements/1.1/"
   xmlns:cc="http://creativecommons.org/ns#"
   xmlns:rdf="http://www.w3.org/1999/02/22-rdf-syntax-ns#"
   xmlns:svg="http://www.w3.org/2000/svg"
   xmlns="http://www.w3.org/2000/svg"
   xmlns:sodipodi="http://sodipodi.sourceforge.net/DTD/sodipodi-0.dtd"
   xmlns:inkscape="http://www.inkscape.org/namespaces/inkscape"
   width="72.458015mm"
   height="54.30867mm"
   viewBox="0 0 256.741 192.43229"
   id="svg2"
   version="1.1"
   inkscape:version="0.91 r13725"
   sodipodi:docname="logo.svg">
  <defs
     id="defs4" />
  <sodipodi:namedview
     id="base"
     pagecolor="#ffffff"
     bordercolor="#666666"
     borderopacity="1.0"
     inkscape:pageopacity="0.0"
     inkscape:pageshadow="2"
     inkscape:zoom="1"
     inkscape:cx="74.418357"
     inkscape:cy="-105.07947"
     inkscape:document-units="px"
     inkscape:current-layer="layer1"
     showgrid="false"
     fit-margin-top="0"
     fit-margin-left="0"
     fit-margin-right="0"
     fit-margin-bottom="0"
     inkscape:window-width="1858"
     inkscape:window-height="1053"
     inkscape:window-x="-8"
     inkscape:window-y="-8"
     inkscape:window-maximized="1" />
  <metadata
     id="metadata7">
    <rdf:RDF>
      <cc:Work
         rdf:about="">
        <dc:format>image/svg+xml</dc:format>
        <dc:type
           rdf:resource="http://purl.org/dc/dcmitype/StillImage" />
        <dc:title></dc:title>
      </cc:Work>
    </rdf:RDF>
  </metadata>
  <g
     inkscape:label="Calque 1"
     inkscape:groupmode="layer"
     id="layer1"
     transform="translate(-220.09228,-1694.1972)">
    <path
       style="fill:#000000"
       d="m 245.32362,1885.5613 c -0.4523,-0.1036 -3.75623,-1.3787 -4.31689,-1.6661 -0.24561,-0.1262 -1.01688,-0.8793 -1.71393,-1.6744 -1.13863,-1.2989 -1.29335,-1.5602 -1.5233,-2.571 -0.67063,-2.9487 -0.50602,-5.3329 0.50745,-7.35 0.68105,-1.3555 1.31546,-2.0791 2.50321,-2.8545 1.64188,-1.0723 1.90765,-1.6662 2.11093,-4.7181 0.0679,-1.0179 0.2242,-2.1772 0.34774,-2.576 0.28667,-0.9262 0.0158,-1.4859 -0.94655,-1.9629 -0.62064,-0.3075 -1.07291,-0.335 -6.05555,-0.3667 -6.00968,-0.039 -5.74635,-0.082 -7.57239,1.2234 -0.80879,0.5778 -0.8886,0.5988 -2.05992,0.5399 -1.45259,-0.072 -1.96188,-0.4335 -1.96188,-1.389 0,-0.7419 0.28047,-1.046 2.17293,-2.3565 1.68853,-1.169 2.04902,-1.3178 4.12057,-1.7007 0.86038,-0.16 1.96678,-0.5207 2.77655,-0.9081 2.33026,-1.1138 2.41013,-1.1226 8.72326,-0.9613 0.86058,0.022 1.02509,-0.027 1.3251,-0.3957 0.30528,-0.375 0.33231,-0.5803 0.24863,-1.889 -0.12541,-1.9594 -0.30112,-2.2775 -1.65204,-2.991 -0.61328,-0.3241 -1.44624,-0.8427 -1.85103,-1.1528 -0.98004,-0.7504 -1.23976,-0.8393 -3.59668,-1.2307 -1.11062,-0.185 -2.92799,-0.64 -4.03861,-1.0122 -1.64623,-0.5516 -2.33023,-0.6923 -3.70206,-0.7616 -1.56673,-0.079 -1.793,-0.047 -3.28137,0.4527 -1.94708,0.655 -3.25719,0.6575 -3.94929,0 -0.66111,-0.6212 -0.67597,-0.9424 -0.0978,-2.1165 0.84042,-1.7072 1.30431,-1.9472 4.3595,-2.2558 2.14628,-0.2166 10.14838,-0.2262 11.61948,-0.023 0.75946,0.1106 1.64368,0.4383 2.99226,1.1118 1.09676,0.5477 2.22821,0.9913 2.64948,1.0386 1.02907,0.1151 1.19908,-0.2278 1.14355,-2.3129 -0.0487,-1.8284 0.21878,-5.323 0.45507,-5.9441 0.0875,-0.2303 0.24443,-1.202 0.34868,-2.1595 0.1042,-0.9571 0.33042,-2.3842 0.50265,-3.1709 0.17954,-0.8196 0.39432,-2.8672 0.50327,-4.7958 0.33198,-5.8761 0.40371,-6.4686 0.90041,-7.4407 0.55003,-1.0761 0.58442,-2.017 0.0965,-2.6375 -0.6136,-0.7801 -3.81611,-2.7545 -5.23356,-3.2265 -0.9872,-0.3287 -1.39803,-0.5606 -1.66993,-0.9424 -0.66932,-0.94 -0.40416,-2.5099 0.51569,-3.0532 0.64673,-0.3822 1.77574,-0.365 4.67068,0.07 1.31453,0.1984 2.50276,0.3166 2.64055,0.2637 0.40055,-0.1534 0.74093,-0.7956 1.03912,-1.9596 0.1527,-0.596 0.38846,-1.2528 0.524,-1.4596 0.4141,-0.632 0.71174,-2.0481 0.97363,-4.6329 0.13757,-1.3581 0.35934,-2.7589 0.49275,-3.1131 0.13353,-0.3543 0.51217,-1.3366 0.84166,-2.1828 0.42705,-1.0968 0.65034,-2.0149 0.77768,-3.1972 0.26226,-2.435 0.43399,-3.1401 1.0953,-4.4963 0.44728,-0.917 0.70155,-1.8083 1.01805,-3.5675 0.34804,-1.9345 0.56578,-2.6545 1.24373,-4.112 0.56958,-1.2247 0.92287,-2.2857 1.15105,-3.4572 0.24762,-1.2714 0.51675,-2.043 1.08585,-3.113 0.51144,-0.9618 0.87555,-1.952 1.12347,-3.055 0.21135,-0.9408 0.53995,-1.8872 0.77549,-2.2344 0.70242,-1.035 0.92694,-1.5796 1.23771,-3.0015 0.31688,-1.4503 0.59364,-2.1005 1.38842,-3.2625 0.30032,-0.439 0.66569,-1.4075 0.96415,-2.5558 0.36409,-1.401 0.63048,-2.0534 1.09892,-2.6915 0.34009,-0.4633 0.83997,-1.4981 1.11085,-2.2994 0.2709,-0.8014 0.74883,-1.8469 1.06209,-2.323 0.49318,-0.7499 1.45929,-2.8868 1.45929,-3.2277 0,-0.065 0.33409,-0.6572 0.74245,-1.3175 0.40836,-0.6605 0.94672,-1.693 1.19633,-2.2945 0.24964,-0.6016 0.70879,-1.4422 1.02034,-1.8681 0.31155,-0.4258 0.80419,-1.3967 1.09475,-2.1576 0.31022,-0.8123 0.79255,-1.6889 1.16847,-2.1232 0.35208,-0.4067 0.88089,-1.2153 1.17511,-1.7968 0.29423,-0.5815 0.82377,-1.4821 1.17676,-2.0013 0.35298,-0.5192 0.83918,-1.3143 1.08042,-1.7667 0.24127,-0.4527 0.75904,-1.2119 1.15061,-1.6873 0.7832,-0.951 2.75287,-3.9651 3.28387,-5.0253 0.18539,-0.37 0.50583,-0.8246 0.71202,-1.0096 0.20616,-0.185 0.68112,-0.791 1.05535,-1.3462 0.83035,-1.2322 1.61445,-2.2021 3.48278,-4.3076 0.78821,-0.8882 1.96047,-2.2512 2.60502,-3.0288 1.96952,-2.3763 8.59419,-8.5919 10.35494,-9.7158 0.50905,-0.3249 1.26628,-0.8726 1.68278,-1.2172 0.41647,-0.3447 1.24943,-0.8718 1.85102,-1.1714 0.6016,-0.2994 1.39667,-0.7515 1.7669,-1.0045 0.37022,-0.2529 1.08957,-0.6683 1.59862,-0.9232 0.50901,-0.2548 1.38255,-0.7874 1.94114,-1.1832 0.55858,-0.396 1.59503,-0.9449 2.30319,-1.2201 0.70813,-0.2748 1.65199,-0.7628 2.09744,-1.0844 0.96384,-0.6953 1.03601,-0.7235 2.89444,-1.13 0.79712,-0.1736 2.16043,-0.6303 3.02961,-1.0131 1.88045,-0.8284 2.70912,-0.9545 7.34892,-1.1171 5.70839,-0.2008 6.10889,0.071 6.39073,4.3054 0.0648,0.9716 0.26581,2.2971 0.447,2.9448 0.28299,1.012 0.3398,1.8775 0.40323,6.1421 0.0405,2.7303 0.15269,5.4046 0.24882,5.9428 0.12473,0.6983 0.11774,1.6506 -0.0248,3.3219 -0.2172,2.5485 -0.15247,2.8511 0.611,2.8511 0.21382,0 0.76554,-0.234 1.22582,-0.5204 0.6492,-0.4034 1.20854,-0.5753 2.49327,-0.7663 0.91097,-0.1354 2.18636,-0.4398 2.83422,-0.6766 0.64786,-0.2369 1.58955,-0.5792 2.09267,-0.7608 0.50313,-0.1827 1.94188,-0.4793 3.19724,-0.6618 1.25535,-0.1827 3.34263,-0.5959 4.63833,-0.9183 3.48522,-0.8678 5.99376,-1.2322 9.84413,-1.4299 2.13851,-0.1105 3.99846,-0.2985 4.89355,-0.4969 0.80447,-0.1781 1.70458,-0.2775 2.03253,-0.2255 0.91645,0.1488 2.00024,0.7695 2.56837,1.4713 l 0.51795,0.6396 0.0485,5.5176 c 0.0517,5.8667 -0.053,7.0184 -0.78208,8.6189 -0.44135,0.9689 -0.6219,2.1711 -0.95531,6.3625 -0.32686,4.1089 -0.56958,5.4177 -1.27618,6.8828 -0.3823,0.7927 -0.6433,1.7578 -0.93602,3.4606 -0.33021,1.9211 -0.51575,2.5613 -0.99488,3.4333 -0.32395,0.5896 -0.77994,1.7634 -1.01329,2.6082 -0.52346,1.8953 -0.83602,2.6783 -1.43581,3.5963 -0.73145,1.1193 -0.78294,1.2499 -1.14323,2.9008 -0.29186,1.3372 -0.43105,1.6564 -0.98398,2.2563 -0.44239,0.48 -0.79903,1.141 -1.13901,2.1115 -0.31841,0.909 -0.69655,1.6279 -1.06027,2.016 -0.31092,0.3315 -1.42909,1.9037 -2.48482,3.4931 -1.05573,1.5896 -2.12656,3.0664 -2.37957,3.2815 -0.25304,0.2143 -0.79779,0.7935 -1.21058,1.2855 -0.41278,0.4916 -1.78881,1.7033 -3.05782,2.6923 -3.04741,2.375 -3.90904,2.9703 -5.14575,3.5551 -0.56898,0.2691 -1.43735,0.743 -1.92977,1.0528 -1.30731,0.8229 -1.67154,0.9525 -3.47275,1.2366 -0.89618,0.142 -1.9702,0.366 -2.38668,0.4995 -1.44842,0.4637 -6.63196,1.428 -7.67686,1.428 -1.18023,0 -1.82113,-0.1918 -2.3776,-0.7136 -0.45942,-0.4305 -0.5059,-1.371 -0.10781,-2.1834 0.31811,-0.6494 1.70249,-1.8042 3.25393,-2.714 0.60661,-0.3559 1.40585,-0.8923 1.77603,-1.192 0.37022,-0.3 1.05174,-0.759 1.5145,-1.0202 0.46275,-0.2612 1.29571,-0.7519 1.85102,-1.0904 1.19334,-0.7271 1.62014,-0.8946 3.23113,-1.2697 0.79713,-0.185 1.63207,-0.5434 2.43998,-1.0455 0.6755,-0.4199 1.63185,-0.9445 2.12523,-1.1659 0.86453,-0.3874 2.99016,-1.8201 4.89859,-3.3015 0.5036,-0.3909 2.02391,-1.8087 3.37844,-3.1507 2.63599,-2.6117 4.26567,-4.8029 5.09912,-6.8562 0.23455,-0.5776 0.57353,-1.2593 0.75327,-1.5143 0.55751,-0.7914 0.98946,-1.7713 1.20576,-2.7358 0.11412,-0.5088 0.58329,-1.5866 1.04248,-2.3946 0.60443,-1.0639 0.95182,-1.9465 1.25846,-3.1973 0.26966,-1.1 0.6864,-2.2172 1.14691,-3.074 0.90145,-1.6776 1.05356,-2.1599 1.25767,-3.9864 0.13714,-1.2279 0.28652,-1.6999 0.93159,-2.945 0.88691,-1.7116 1.31028,-3.4989 1.60683,-6.7832 0.27459,-3.041 0.78488,-5.9638 1.17459,-6.7279 0.45447,-0.8908 0.42703,-1.4441 -0.0977,-1.9687 -0.43039,-0.4304 -0.45938,-0.4347 -2.31379,-0.3393 -1.17389,0.06 -2.26194,0.221 -2.90216,0.4301 -0.56331,0.1827 -1.6613,0.4202 -2.43998,0.5258 -0.77868,0.106 -2.43808,0.3721 -3.68752,0.5923 -1.24944,0.221 -3.44544,0.4714 -4.87999,0.5587 -1.91169,0.115 -2.85543,0.2506 -3.5338,0.5036 -0.50901,0.1894 -1.4502,0.5434 -2.0915,0.7854 -0.68319,0.2576 -1.95495,0.5377 -3.07124,0.6762 -1.78941,0.221 -2.05833,0.3083 -4.42384,1.422 -1.38525,0.6523 -2.54967,1.1861 -2.58758,1.1861 -0.0379,0 -0.66505,0.3288 -1.39359,0.7308 -0.72853,0.402 -1.83614,0.9005 -2.46131,1.1078 -0.64259,0.212 -1.44721,0.6379 -1.85103,0.977 -0.39288,0.3302 -1.20655,0.9202 -1.80814,1.3111 -1.49731,0.9736 -4.18199,3.7696 -4.86853,5.0708 -0.30075,0.57 -0.67245,1.1757 -0.82603,1.3464 -0.15361,0.1691 -0.72488,0.8221 -1.26955,1.4482 -0.54468,0.6259 -1.175,1.1846 -1.40069,1.2412 -0.97797,0.2457 -1.66513,-0.5993 -1.8388,-2.2609 -0.1148,-1.0987 0.25241,-2.6954 0.70664,-3.0724 0.41058,-0.3409 0.83639,-1.3039 1.14907,-2.5994 0.19713,-0.8173 0.52708,-1.5366 1.07682,-2.3485 0.43584,-0.6437 1.09537,-1.6777 1.46558,-2.2975 0.81417,-1.3629 1.96513,-2.8651 2.81577,-3.6748 3.34386,-3.1827 3.6399,-3.5348 4.58737,-5.4559 0.50811,-1.0302 1.01423,-2.3274 1.1247,-2.8826 0.30576,-1.5369 0.24026,-8.5677 -0.0966,-10.3651 -0.60304,-3.2181 -1.68141,-4.1839 -3.82462,-3.4252 -0.40497,0.142 -1.83432,0.3682 -3.17631,0.4998 -2.77709,0.2724 -3.00106,0.3262 -4.86904,1.1697 -0.83195,0.3755 -2.06722,0.7501 -3.16923,0.9609 -1.80044,0.3443 -2.69996,0.69 -3.65689,1.4049 -0.27764,0.2074 -0.84558,0.5464 -1.26208,0.7535 -0.41647,0.2076 -1.24943,0.7367 -1.85101,1.177 -0.6016,0.4405 -1.51027,1.0071 -2.01931,1.2594 -0.50904,0.2522 -1.26627,0.7383 -1.68276,1.08 -0.4165,0.3416 -1.09799,0.8205 -1.51449,1.0641 -0.41647,0.2435 -1.55365,1.1484 -2.52705,2.0113 -0.97339,0.8624 -2.18497,1.8647 -2.69241,2.227 -0.50743,0.3623 -1.22548,0.9392 -1.5957,1.2815 -0.37018,0.3426 -1.3647,1.2577 -2.21001,2.0339 -1.88196,1.7275 -3.49319,3.4617 -5.03484,5.4189 -0.6429,0.816 -1.49193,1.8764 -1.88673,2.356 -0.39482,0.4794 -1.16106,1.4409 -1.70278,2.137 -0.54173,0.6958 -1.11525,1.3733 -1.27449,1.5055 -0.15923,0.1331 -0.6696,1.0014 -1.13411,1.9318 -0.46446,0.9306 -1.06364,1.9948 -1.33147,2.3649 -1.08949,1.5061 -2.32487,3.4412 -3.00769,4.7117 -0.39794,0.7405 -0.92814,1.6113 -1.17825,1.9353 -0.25009,0.3239 -0.611,0.9424 -0.80208,1.3746 -0.19103,0.4322 -0.66545,1.2543 -1.05423,1.8268 -0.3888,0.5726 -0.95326,1.6686 -1.25435,2.4355 -0.3011,0.7671 -0.81688,1.8379 -1.14619,2.3801 -0.3293,0.542 -0.755,1.4034 -0.94601,1.9138 -0.19104,0.5107 -0.72537,1.527 -1.18743,2.2587 -0.46209,0.7319 -0.96391,1.7151 -1.11518,2.1849 -0.15135,0.4701 -0.61465,1.498 -1.02977,2.2849 -0.4151,0.7866 -0.9307,1.9457 -1.14575,2.5758 -0.21518,0.63 -0.69088,1.6524 -1.05734,2.2718 -0.42464,0.7177 -0.79945,1.6728 -1.03342,2.6335 -0.21833,0.8968 -0.66216,2.0559 -1.09519,2.8608 -0.76655,1.4246 -0.89577,1.784 -1.34876,3.7521 -0.15451,0.6714 -0.58634,1.8722 -0.95949,2.6687 -0.47672,1.0171 -0.80376,2.0793 -1.10011,3.5729 -0.32558,1.6409 -0.56881,2.3942 -1.06698,3.3051 -0.42519,0.7773 -0.71129,1.5817 -0.83882,2.3578 -0.48758,2.9675 -0.73059,3.9245 -1.34034,5.2788 -0.78627,1.7463 -0.93121,2.3546 -1.25238,5.2556 -0.22284,2.0137 -0.3148,2.3724 -0.92,3.5919 -0.78303,1.5781 -0.97942,2.3592 -1.20423,4.7901 -0.0981,1.0597 -0.33518,2.2801 -0.5855,3.0128 -0.56992,1.6679 -0.43093,2.1535 1.08388,3.7873 0.93695,1.0104 1.24988,1.4984 1.68574,2.6286 0.29433,0.7632 0.79015,1.7584 1.10179,2.2115 0.77537,1.1273 1.06834,2.1147 1.2481,4.2069 0.11053,1.2864 0.25825,1.9876 0.53151,2.5232 0.20818,0.4081 0.37222,0.9593 0.36467,1.2252 -0.0284,1.0012 -1.22787,1.697 -2.51855,1.4609 -0.99216,-0.1804 -1.65278,-0.7304 -1.98614,-1.6501 -0.64222,-1.7724 -1.44848,-3.2481 -2.84892,-5.2144 -0.3029,-0.4255 -1.10839,-0.5162 -1.40538,-0.1579 -0.10061,0.1217 -0.29421,0.8974 -0.43007,1.7248 -0.13579,0.8273 -0.35792,1.9965 -0.49338,2.5981 -0.13554,0.6014 -0.29158,1.9644 -0.34694,3.0288 -0.10331,1.9882 -0.39671,3.821 -0.84821,5.3008 -0.1412,0.4626 -0.30312,1.4092 -0.3598,2.1033 -0.0566,0.6943 -0.24756,1.7969 -0.42419,2.4508 -0.21066,0.7794 -0.32113,1.7419 -0.32113,2.7957 0,0.8839 -0.079,2.0148 -0.17548,2.5133 -0.0965,0.4987 -0.18608,1.588 -0.19939,2.421 -0.0262,1.6634 0.20481,2.4005 1.211,3.8628 1.44554,2.1011 1.32837,3.7098 -0.33142,4.5509 -0.52215,0.2645 -0.9365,0.6213 -1.10889,0.9547 -0.29422,0.5691 -0.27689,0.7728 0.38287,4.4949 0.30794,1.7374 0.2039,2.3771 -0.57233,3.5203 -0.46057,0.6779 -0.61632,1.0909 -0.64836,1.7182 -0.0233,0.4541 -0.12901,1.0891 -0.23532,1.4109 -0.15789,0.4788 -0.14457,0.6792 0.0733,1.1003 0.14661,0.2834 0.32839,0.5151 0.40416,0.5151 0.0758,0 0.5665,0.3753 1.09052,0.8338 0.52402,0.4587 1.43858,1.1055 2.03236,1.4374 1.0253,0.5735 1.76855,1.2545 2.55041,2.3364 0.55617,0.7697 1.45064,0.781 6.95899,0.088 0.6885,-0.086 1.90009,-0.3884 2.69242,-0.6703 2.76352,-0.9841 3.80609,-1.2958 5.21246,-1.5593 0.98219,-0.185 1.86908,-0.4986 2.89473,-1.0276 1.20284,-0.6202 1.78745,-0.8087 3.13349,-1.0109 2.50453,-0.3762 4.15591,-1.084 4.35202,-1.8655 0.14368,-0.5728 -0.007,-0.7079 -0.98749,-0.8904 -1.16575,-0.2165 -6.15728,-0.5365 -8.33211,-0.5341 -2.59979,0 -3.40594,-0.4744 -3.39848,-2.0126 0.007,-1.5142 1.09536,-2.9613 2.56029,-3.4051 0.98544,-0.2989 8.24431,-0.2869 9.60991,0.023 0.54098,0.1195 1.60111,0.5034 2.35586,0.8525 1.81648,0.8404 3.19316,1.3412 4.22494,1.5369 1.03565,0.1962 2.30517,-0.1511 3.39515,-0.9302 4.56699,-3.263 5.46281,-4.1659 4.73217,-4.7701 -0.12856,-0.1061 -1.58499,-0.1805 -3.74414,-0.1918 -1.94359,0 -3.78803,-0.063 -4.0988,-0.1216 -0.66471,-0.1219 -7.44188,0.3532 -9.86806,0.6924 -0.92552,0.1285 -2.28856,0.3666 -3.02896,0.5275 -1.27388,0.2767 -1.37885,0.2767 -1.95391,0 -0.82091,-0.3908 -1.02537,-0.8869 -0.81751,-1.9831 0.24181,-1.2751 0.6414,-1.8425 1.68458,-2.3919 0.50522,-0.2661 1.38194,-0.7797 1.9483,-1.1413 1.38303,-0.8829 1.69226,-0.957 5.19646,-1.2402 1.66592,-0.1354 3.20804,-0.287 3.42692,-0.3386 0.21878,-0.051 1.7712,-0.022 3.44963,0.088 1.67844,0.099 4.60406,0.25 6.50136,0.3346 2.42811,0.1083 3.69991,0.2376 4.2948,0.4363 0.71205,0.2375 0.99196,0.2515 1.77708,0.088 1.36745,-0.2839 2.05907,-0.9245 2.5157,-2.3296 0.20276,-0.6242 0.58423,-1.4102 0.84772,-1.7472 0.79035,-1.0106 1.13604,-1.8437 1.31644,-3.1737 0.2127,-1.5675 0.53634,-2.5086 1.27884,-3.7174 0.31782,-0.5176 0.80726,-1.6488 1.08762,-2.5138 0.57603,-1.7771 1.13501,-2.5192 1.89784,-2.5192 0.57839,0 1.1982,0.6115 1.50934,1.4889 0.1448,0.4085 0.2181,1.5464 0.2181,3.3911 0,2.9558 -0.0902,3.4164 -1.18579,6.0619 -0.21179,0.511 -0.54736,1.6214 -0.74596,2.4672 -0.25769,1.0979 -0.52668,1.7709 -0.93948,2.3516 -0.59441,0.8359 -0.73885,1.5695 -0.36808,1.8687 0.11571,0.092 0.55112,0.2211 0.96759,0.2808 1.44906,0.212 2.44477,0.4804 3.21209,0.8648 1.36978,0.6861 2.80686,1.0814 4.57083,1.2576 2.12962,0.2121 2.63672,0.3652 3.91223,1.1756 0.5553,0.3525 1.57757,0.8092 2.2717,1.0147 0.69415,0.2053 1.46212,0.4744 1.70659,0.5973 0.88731,0.4461 0.94129,1.8238 0.10647,2.7158 -0.36021,0.3848 -0.45663,0.4024 -1.6447,0.3015 -2.31188,-0.1962 -3.85322,-0.5909 -5.37223,-1.3746 -1.44079,-0.7432 -1.44666,-0.7447 -3.96707,-0.913 -2.9855,-0.2008 -4.08803,-0.451 -5.69876,-1.2972 -1.39851,-0.7349 -2.36972,-0.8305 -2.97291,-0.2925 -0.20751,0.1849 -1.13916,1.2832 -2.07028,2.44 -0.93107,1.1569 -2.70017,3.1082 -3.9313,4.3365 -1.90395,1.8994 -2.23844,2.3106 -2.23844,2.7511 0,0.722 0.7756,1.4057 1.89288,1.6687 1.19678,0.2816 2.03506,0.7254 2.38831,1.2646 0.17232,0.263 0.79216,0.6796 1.49811,1.0069 0.66228,0.3069 1.46918,0.8379 1.79312,1.1793 0.32391,0.3417 1.05425,0.833 1.62296,1.0915 0.56869,0.2584 1.28526,0.7461 1.59234,1.0834 0.30711,0.3377 1.05339,0.8759 1.65842,1.1964 0.70886,0.3755 1.26817,0.8205 1.57284,1.2514 0.26006,0.3676 0.80257,0.8614 1.20561,1.0979 0.90158,0.5282 1.24139,1.0263 1.37733,2.0178 0.15112,1.1017 -0.15067,1.3002 -1.77818,1.1699 -1.36854,-0.1105 -1.90417,-0.3221 -2.53962,-1.0077 -0.23138,-0.2495 -0.98862,-0.741 -1.68276,-1.0922 -0.70455,-0.3561 -1.42646,-0.862 -1.63425,-1.1451 -0.20479,-0.2789 -0.81048,-0.7157 -1.34621,-0.9705 -0.53569,-0.2549 -1.33321,-0.7581 -1.77222,-1.1183 -0.43901,-0.3604 -1.33547,-0.8767 -1.9921,-1.1474 -0.65668,-0.2709 -1.54692,-0.7506 -1.97834,-1.0664 -0.43146,-0.3158 -1.36897,-0.8004 -2.08338,-1.0772 -0.72685,-0.2814 -1.66071,-0.8058 -2.12035,-1.1909 -0.45176,-0.3782 -1.02576,-0.7653 -1.27556,-0.8602 -0.56556,-0.2143 -1.671,0 -2.15908,0.4412 -0.19307,0.1692 -0.58273,0.5174 -0.86568,0.7713 -0.28294,0.2537 -0.78024,0.5494 -1.1051,0.6566 -0.69969,0.231 -1.13406,0.494 -2.36936,1.4347 -0.50697,0.3859 -1.41397,0.8873 -2.01556,1.1138 -0.6016,0.2265 -1.51027,0.6593 -2.01931,0.9617 -0.50903,0.3025 -1.66556,0.8002 -2.57008,1.1062 -0.9045,0.3057 -2.09661,0.8306 -2.64914,1.1661 -0.73457,0.4462 -1.44319,0.6987 -2.63651,0.9387 -0.93363,0.1871 -2.39221,0.6551 -3.40877,1.092 -1.36683,0.5878 -2.26224,0.8437 -3.8803,1.1097 -1.15689,0.1895 -3.14827,0.6787 -4.42527,1.0854 -1.48096,0.4718 -2.9131,0.8053 -3.95448,0.9209 -0.89795,0.099 -1.8746,0.2143 -2.17032,0.2568 -0.38496,0.054 -0.86533,0.4014 -1.69143,1.2225 -0.97126,0.9656 -1.36912,1.2302 -2.51509,1.672 -1.98968,0.7674 -2.84704,0.9438 -3.66957,0.7552 z m 170.17016,-0.1149 c -0.99596,-0.37 -1.39594,-0.6988 -2.14016,-1.7597 -0.38276,-0.5457 -1.14467,-1.3173 -1.6931,-1.7145 -2.17923,-1.5788 -1.82181,-2.6508 2.3674,-7.1007 1.24501,-1.3224 2.90728,-3.1595 3.69397,-4.0824 0.7867,-0.9232 2.30118,-2.5922 3.36552,-3.7094 2.02566,-2.126 3.21769,-3.4674 4.33456,-4.8775 0.36654,-0.4625 1.4911,-1.6785 2.49903,-2.7016 1.00793,-1.0231 2.24908,-2.3781 2.75812,-3.0111 0.50901,-0.6331 1.39879,-1.667 1.97723,-2.2979 1.41808,-1.5466 1.39759,-1.9395 -0.16533,-3.1723 -0.48757,-0.3848 -2.02233,-1.815 -3.41061,-3.1787 -1.38828,-1.3634 -3.0542,-2.9272 -3.70207,-3.4746 -0.64787,-0.5474 -2.02021,-1.7937 -3.04969,-2.7699 -1.02947,-0.9759 -2.42178,-2.2668 -3.09402,-2.8683 -0.67228,-0.6015 -1.76096,-1.6274 -2.41927,-2.2795 -0.65835,-0.6522 -1.46202,-1.3832 -1.78595,-1.6248 -0.32395,-0.2416 -1.57339,-1.4029 -2.77655,-2.5811 l -2.18758,-2.1421 0,-0.7896 c 0,-0.6647 0.11006,-0.9356 0.69441,-1.7095 0.38196,-0.5059 0.97903,-1.1437 1.32684,-1.4174 0.34784,-0.2735 1.12001,-0.9725 1.71594,-1.5533 1.4955,-1.4575 1.72799,-1.586 2.87096,-1.586 1.3396,0 2.01933,0.3288 3.26493,1.5795 1.566,1.5725 6.85181,6.4243 8.9056,8.1745 0.98058,0.8357 3.02511,2.6823 4.54344,4.1032 1.51833,1.4212 3.21492,2.9597 3.77023,3.4189 0.55531,0.4592 1.51343,1.3109 2.12916,1.8928 1.0868,1.027 1.14576,1.0578 2.01975,1.0578 l 0.90026,0 1.42989,-1.5504 c 3.19416,-3.4635 4.18923,-4.6086 6.54919,-7.5365 0.55952,-0.6939 1.59215,-1.9056 2.29476,-2.6924 2.19255,-2.4548 2.95444,-3.355 3.71901,-4.3937 0.40713,-0.553 0.85423,-1.0492 0.99356,-1.1027 0.13939,-0.054 0.47255,-0.4098 0.7405,-0.7921 0.26796,-0.3821 0.82828,-1.0555 1.24518,-1.4965 0.41693,-0.441 0.99968,-1.2241 1.29501,-1.74 0.72255,-1.2629 1.2776,-1.5798 2.76644,-1.5796 1.78327,0 2.30836,0.2143 3.67102,1.4872 0.66494,0.6219 1.48576,1.3138 1.82403,1.5381 0.78627,0.5211 1.142,1.1313 1.26513,2.1711 0.18969,1.6024 0.0203,1.9488 -1.85262,3.8116 -1.63991,1.63 -3.14017,3.242 -5.2666,5.6584 -0.54292,0.6172 -1.44714,1.6394 -2.00934,2.2719 -0.56221,0.6323 -1.40671,1.7177 -1.87668,2.412 -0.46996,0.694 -1.44873,1.9128 -2.17504,2.7084 -3.045,3.335 -3.78322,4.1714 -4.25224,4.8189 -0.27181,0.3754 -0.64488,0.7879 -0.82899,0.9168 -0.18404,0.1285 -0.75703,0.8753 -1.27308,1.6587 -1.39089,2.1109 -1.29388,2.5718 0.88814,4.2209 0.61414,0.4638 1.84661,1.5182 2.73884,2.3425 0.8922,0.8241 2.08574,1.8066 2.65231,2.1829 0.56658,0.3764 1.42678,1.0239 1.91159,1.4392 2.8458,2.4373 3.83918,3.2981 4.93875,4.2798 0.67388,0.6016 1.76976,1.5481 2.4353,2.1034 0.66553,0.5554 1.59724,1.3558 2.07047,1.7788 0.47322,0.423 1.50405,1.305 2.29071,1.9599 2.58264,2.1501 4.45361,3.8047 4.79587,4.2405 0.26375,0.3361 0.33085,0.6568 0.31029,1.483 -0.0314,1.2613 -0.54817,2.21 -1.62971,2.9921 -0.38247,0.2767 -1.18864,0.9615 -1.79146,1.5221 -1.35854,1.2636 -1.81578,1.5522 -2.67478,1.6896 -1.2013,0.1917 -1.83917,-0.043 -2.95057,-1.0906 -1.21234,-1.1419 -3.67942,-3.2622 -4.62383,-3.9739 -1.20957,-0.9116 -2.88494,-2.3292 -4.72906,-4.0012 -1.93897,-1.7585 -3.2052,-2.7788 -5.20846,-4.198 -0.68941,-0.4883 -1.99782,-1.5694 -2.90756,-2.4023 -0.90976,-0.8328 -1.97377,-1.761 -2.36446,-2.0624 -0.39069,-0.3013 -1.11099,-0.9015 -1.60066,-1.3336 -1.27578,-1.1258 -2.80697,-2.2124 -3.28768,-2.3331 -0.23653,-0.058 -0.61901,0 -0.89422,0.1466 -0.51289,0.2672 -2.23274,2.0148 -4.67067,4.7462 -2.1634,2.4238 -6.9296,7.5484 -8.43088,9.0653 -0.46276,0.4675 -1.18215,1.2774 -1.59862,1.8001 -1.22316,1.5344 -3.05087,3.6669 -4.42169,5.1594 -0.70226,0.7646 -1.56593,1.8247 -1.91929,2.3559 -0.7429,1.1166 -1.5408,1.5891 -2.82436,1.6717 -0.46589,0.03 -1.13033,-0.049 -1.47654,-0.1782 z m -85.77998,-1.4584 c -0.60159,-0.067 -1.83588,-0.1309 -2.74283,-0.1422 -2.01869,-0.024 -2.53824,-0.2472 -2.99838,-1.2873 -0.31776,-0.7184 -0.3268,-1.2981 -0.32357,-20.728 0.002,-19.592 -0.15744,-30.179 -0.50113,-33.0305 -0.0947,-0.7867 -0.21878,-2.2721 -0.27541,-3.3011 -0.0968,-1.7565 -0.0771,-1.9275 0.31942,-2.7937 0.35598,-0.7775 0.55133,-0.9858 1.24251,-1.3241 0.81711,-0.4005 0.84807,-0.4022 8.56076,-0.5105 7.41261,-0.1036 11.49504,-0.2695 16.0703,-0.6513 8.89995,-0.7433 10.70587,-0.8445 14.30341,-0.8021 3.39739,0.041 3.85423,0.08 4.44846,0.3807 1.37885,0.6995 1.73551,1.9569 1.44475,5.0929 -0.22951,2.4759 -0.4045,3.13 -0.9526,3.5612 -0.89451,0.7035 -0.76658,0.6927 -13.94333,1.1864 -2.40634,0.09 -5.66248,0.2443 -7.23586,0.3424 -1.57338,0.097 -4.80802,0.2373 -7.18812,0.309 -4.76896,0.1443 -4.7937,0.1488 -5.26965,1.2867 -0.22149,0.529 -0.31473,4.2681 -0.27025,10.8287 l 0.0233,3.4244 0.59044,0.5904 c 0.66709,0.667 0.10736,0.6412 5.13092,0.2383 1.1569,-0.093 3.20144,-0.2478 4.54345,-0.3446 1.342,-0.097 3.19722,-0.2865 4.12274,-0.4213 4.2898,-0.6254 11.38253,-0.7762 12.42383,-0.2643 1.1124,0.5468 1.51849,2.7454 1.14303,6.1884 -0.22676,2.08 -0.49293,2.7795 -1.23054,3.2336 -1.3284,0.8176 -2.85114,0.9956 -9.30736,1.0876 -1.57338,0.023 -4.67807,0.1308 -6.89929,0.2394 -2.22125,0.1107 -5.32592,0.2606 -6.8993,0.336 -1.57336,0.077 -3.05965,0.2188 -3.30278,0.3193 -0.24592,0.1011 -0.5179,0.3994 -0.61291,0.6721 -0.27035,0.7755 0.0911,14.8568 0.56283,21.9249 0.16848,2.5258 -0.24483,3.5612 -1.68219,4.2142 -0.71309,0.3239 -1.42382,0.355 -3.29458,0.1444 z m 54.68953,-1.7932 c -0.50903,-0.03 -1.90991,-0.1668 -3.11309,-0.3052 -2.04054,-0.2343 -2.30068,-0.3068 -3.87035,-1.078 -0.9255,-0.4548 -2.13233,-0.9891 -2.68185,-1.1875 -0.54951,-0.1986 -1.44677,-0.6972 -1.9939,-1.1086 -0.54717,-0.4112 -1.07363,-0.7478 -1.16999,-0.7478 -0.29719,0 -3.49155,-3.2276 -4.16365,-4.2068 -0.34936,-0.5091 -0.79567,-1.0696 -0.99186,-1.2458 -0.19623,-0.1759 -0.92005,-1.4635 -1.60864,-2.8606 l -1.25197,-2.5406 -0.34698,-2.8685 c -0.4137,-3.4202 -0.42719,-4.5717 -0.0924,-7.901 0.27072,-2.693 0.68404,-4.4969 1.3229,-5.7734 0.21721,-0.4341 0.60551,-1.4272 0.86275,-2.207 0.32617,-0.9884 0.65656,-1.6252 1.09154,-2.1034 0.34309,-0.3774 0.88919,-1.1022 1.21356,-1.6113 0.7212,-1.1319 2.94944,-3.3194 4.76233,-4.6754 0.96466,-0.7218 1.68007,-1.1082 2.52414,-1.363 0.64785,-0.1963 1.48082,-0.544 1.85102,-0.7741 1.54486,-0.9592 2.05648,-1.114 4.25645,-1.2881 1.17591,-0.093 3.05805,-0.3151 4.18249,-0.4935 2.5579,-0.4059 2.96185,-0.4044 5.67706,0.022 4.42486,0.6955 4.83404,0.7949 5.85511,1.4253 0.53444,0.3297 1.51139,0.8224 2.17101,1.0942 0.65961,0.272 1.85394,0.9688 2.65406,1.5485 1.6766,1.2148 4.37036,3.9015 5.02143,5.0086 0.24496,0.4163 0.80316,1.3007 1.24044,1.965 0.43725,0.6644 0.92534,1.6108 1.08458,2.1035 0.15924,0.4925 0.66466,1.7517 1.12322,2.7983 0.8324,1.8996 0.83397,1.9068 0.99402,4.4594 0.16353,2.6076 0.0753,6.9328 -0.18742,9.2034 -0.10579,0.9142 -0.33745,1.67 -0.84038,2.7422 -0.38188,0.814 -0.83936,1.902 -1.01666,2.4172 -0.41895,1.2176 -2.87741,5.106 -3.69593,5.8454 -1.215,1.0977 -3.79244,2.6992 -5.46579,3.3961 -0.92552,0.3854 -2.04437,0.8948 -2.48638,1.132 -1.02158,0.5481 -1.9081,0.7208 -5.32791,1.038 -2.52112,0.2339 -5.14811,0.2825 -7.58293,0.1398 z m 7.9181,-9.8154 c 2.45396,-0.8218 2.72954,-0.9682 4.45488,-2.3672 0.84581,-0.6856 1.53023,-1.4179 1.94247,-2.0783 0.35005,-0.561 0.8411,-1.2688 1.09118,-1.5726 0.73477,-0.8933 0.94111,-1.7764 1.12898,-4.8322 0.28938,-4.7062 -0.1633,-7.57 -1.43847,-9.1001 -0.3024,-0.3629 -0.74588,-0.9645 -0.98552,-1.3369 -0.23962,-0.3723 -0.88137,-1.0134 -1.42609,-1.4241 -0.54471,-0.4107 -1.38711,-1.1129 -1.87205,-1.5604 -0.4849,-0.4474 -1.16642,-0.9324 -1.51446,-1.0778 -0.76195,-0.3187 -4.74261,-1.0707 -6.27505,-1.1857 -1.16242,-0.088 -5.99806,0.6327 -6.98517,1.0397 -0.51663,0.2143 -2.99286,2.0372 -3.79179,2.7932 -0.23798,0.2256 -0.73751,0.826 -1.11007,1.3351 -0.37257,0.5092 -0.80803,1.0341 -0.96772,1.1667 -0.46028,0.3821 -0.89759,1.3751 -1.08316,2.4601 -0.094,0.5503 -0.33779,1.8909 -0.54149,2.9795 -0.27829,1.4867 -0.34841,2.3443 -0.2821,3.4495 0.1001,1.67 0.79333,4.3333 1.39002,5.3412 0.55818,0.9431 2.20496,2.782 2.92705,3.2687 0.33291,0.2255 0.92665,0.6685 1.31942,0.987 0.49923,0.4048 1.43588,0.8275 3.11309,1.4051 3.09586,1.066 3.61164,1.1519 6.44675,1.075 2.24378,-0.061 2.47235,-0.099 4.4593,-0.7655 z m -120.99498,-43.5755 c -0.6791,-0.6792 -0.64456,-1.897 0.0818,-2.8881 0.22806,-0.3113 0.7569,-1.0723 1.17523,-1.6912 0.83157,-1.2305 4.0954,-4.6376 5.30128,-5.5341 0.41646,-0.3095 1.14218,-0.9067 1.61269,-1.3269 0.47049,-0.4202 1.34131,-1.0373 1.93516,-1.3713 0.59385,-0.3342 1.42897,-0.808 1.85584,-1.0532 0.42685,-0.2451 1.22195,-0.5281 1.76688,-0.6288 0.54492,-0.1011 1.55869,-0.3608 2.25285,-0.5782 1.12122,-0.3511 3.06397,-0.7454 5.02736,-1.0197 0.86756,-0.1219 3.48996,0.1939 5.86283,0.7036 1.03809,0.2233 3.07366,0.5564 4.5235,0.7405 2.78886,0.3539 3.37521,0.5594 4.00454,1.4038 0.47485,0.637 0.49185,2.3346 0.0302,3.0251 -0.61879,0.9256 -1.09651,1.0481 -3.88305,0.9953 -1.38827,-0.026 -3.35709,0.03 -4.37514,0.124 -1.01809,0.095 -2.91118,0.2545 -4.20689,0.3542 -2.15547,0.1669 -2.6135,0.2649 -5.38481,1.1599 -1.66593,0.5383 -3.54889,1.0998 -4.18429,1.2485 -0.63545,0.1488 -1.46839,0.4561 -1.85104,0.6834 -0.38264,0.2276 -1.42166,0.7907 -2.30892,1.2518 -0.88727,0.461 -1.83382,1.0222 -2.10344,1.2468 -0.26962,0.2255 -1.17345,0.8302 -2.00849,1.345 -0.83503,0.515 -1.668,1.1043 -1.85104,1.3096 -0.75425,0.8459 -2.63909,1.1336 -3.27332,0.4993 z m 173.57194,-10.7675 c -1.81285,-0.2075 -2.48045,-0.7718 -2.77495,-2.3432 -0.0935,-0.4985 -0.16826,-2.5052 -0.16623,-4.4594 0.002,-1.9538 -0.0772,-5.7108 -0.17593,-8.3486 -0.0988,-2.6377 -0.23316,-6.6298 -0.29881,-8.8714 -0.14615,-4.9884 -0.062,-4.8057 -2.01174,-4.3795 -0.71682,0.1581 -2.62854,0.4428 -4.24818,0.6352 -3.60733,0.4288 -4.12693,0.5579 -4.4922,1.1154 -0.24621,0.3758 -0.27723,0.8441 -0.23072,3.4852 0.0296,1.6781 0.0631,6.9507 0.0746,11.7172 l 0.0203,8.666 -0.41327,0.7218 c -0.61917,1.0813 -2.03841,1.7376 -3.81522,1.7643 -2.16559,0.032 -2.89435,-0.3672 -3.61041,-1.9813 -0.30007,-0.6762 -0.37096,-1.1386 -0.36124,-2.3558 0.007,-0.8329 0.0627,-5.9067 0.12451,-11.275 l 0.11232,-9.7604 -0.37615,-0.4782 -0.37614,-0.4781 -4.81316,0.058 -4.81317,0.058 -0.719,-0.4117 c -1.93956,-1.1107 -2.19077,-4.796 -0.43875,-6.4367 0.92566,-0.8668 1.36217,-0.945 5.87778,-1.0543 8.18986,-0.1986 12.78364,-0.4169 14.04269,-0.6672 0.69412,-0.1376 2.17075,-0.4525 3.28138,-0.6988 2.90677,-0.6444 4.02746,-0.6982 5.08321,-0.2441 1.17057,0.5037 1.73916,1.1602 2.23483,2.5806 0.37205,1.0659 0.47725,1.2172 0.87925,1.2634 0.25115,0.03 0.81908,-0.1104 1.26209,-0.3098 0.52581,-0.2367 1.38959,-0.4126 2.48818,-0.5068 0.92552,-0.08 2.25068,-0.2211 2.94483,-0.316 1.84562,-0.2516 5.2068,-0.5198 8.75032,-0.698 1.7122,-0.086 3.84617,-0.2212 4.74213,-0.2967 1.91654,-0.1646 3.67013,0 4.40024,0.4358 0.99288,0.5798 1.20657,1.213 1.20657,3.5742 0,2.3704 -0.19803,2.9863 -1.11207,3.459 -0.56103,0.2901 -0.16261,0.2691 -10.91962,0.5788 -5.7948,0.1669 -6.52303,0.2188 -6.89931,0.4902 -0.41172,0.2969 -0.42169,0.3563 -0.4673,2.7762 l -0.0467,2.4724 0.52166,0.5218 0.52166,0.5216 2.38563,-0.115 c 5.25573,-0.2515 7.84473,-0.4209 9.3691,-0.6133 2.72289,-0.3435 4.3401,-0.024 5.34676,1.0543 1.06474,1.1413 0.92498,4.1548 -0.24952,5.3807 -0.79943,0.8345 -1.44022,0.9428 -6.27516,1.0608 -2.45263,0.061 -5.87704,0.095 -7.6098,0.077 l -3.15051,-0.032 -0.49296,0.4928 c -0.40967,0.4098 -0.51359,0.686 -0.61518,1.6346 -0.0672,0.6279 -0.0821,1.6422 -0.033,2.2538 0.076,0.9467 0.15835,1.1714 0.55335,1.5113 0.38169,0.3282 0.58624,0.382 1.15228,0.3026 0.93963,-0.1308 2.41367,-0.2296 6.66203,-0.4424 1.98986,-0.099 3.86216,-0.2143 4.16065,-0.2553 0.29851,-0.041 1.58581,-0.088 2.86071,-0.1061 2.84699,-0.039 3.62133,0.2144 4.30347,1.3995 0.76585,1.3319 1.02047,3.5633 0.52559,4.6062 -0.5152,1.0858 -0.88243,1.1557 -6.71802,1.2807 -6.65927,0.1421 -15.85676,0.1353 -17.16411,-0.022 z m -120.02397,-0.3868 c -0.61385,-0.3587 -0.8367,-0.8102 -1.29841,-2.6317 -0.24004,-0.9469 -0.69012,-2.228 -1.0002,-2.8467 -0.31006,-0.6184 -0.77433,-1.7682 -1.03173,-2.555 -0.25737,-0.7868 -0.7866,-2.0362 -1.17601,-2.7765 -0.38943,-0.7404 -0.87451,-1.8709 -1.07797,-2.5123 -0.38922,-1.2271 -0.85875,-2.2459 -1.36859,-2.9701 -0.16804,-0.2386 -0.49624,-1.2044 -0.72923,-2.1461 -0.23299,-0.9417 -0.76418,-2.4313 -1.18041,-3.3101 -0.41623,-0.8788 -0.84036,-1.9197 -0.9425,-2.3131 -0.34725,-1.3373 -0.85621,-2.5479 -1.35803,-3.2303 -0.68777,-0.9353 -1.16167,-2.5662 -1.16167,-3.9978 0,-2.2296 0.65222,-2.8264 3.0882,-2.8264 1.70212,0 3.01235,0.2459 3.77428,0.7085 0.60461,0.367 0.97129,0.9935 1.7218,2.9428 0.27193,0.7061 0.67338,1.5556 0.89204,1.8873 0.21878,0.3318 0.53559,1.1688 0.70421,1.8597 0.1687,0.691 0.66516,1.9782 1.10343,2.8606 0.43825,0.8825 0.99531,2.3127 1.2379,3.1784 0.2426,0.8657 0.73477,2.0773 1.09373,2.6925 0.35894,0.6152 0.7049,1.4186 0.7688,1.7858 0.41755,2.3983 1.44266,2.1181 3.02432,-0.8265 0.34528,-0.6428 0.95083,-1.5893 1.34567,-2.1033 0.39484,-0.514 0.89127,-1.2756 1.10318,-1.6921 0.64575,-1.2692 2.40964,-3.6612 2.92447,-3.9657 0.6171,-0.3648 1.65089,-0.3685 2.20173,0 0.23457,0.1534 0.62761,0.5995 0.87344,0.9906 0.24582,0.3911 0.65245,1.0139 0.90361,1.3842 0.25116,0.3702 0.73371,1.2349 1.07231,1.922 0.33862,0.6868 0.91578,1.5743 1.28256,1.9721 0.36679,0.398 0.88124,1.1612 1.1432,1.6961 0.52988,1.0818 1.29096,2.2438 1.5974,2.4386 0.7659,0.4871 1.26779,-0.2231 1.45231,-2.0528 0.11705,-1.16 0.2709,-1.6379 0.99392,-3.0854 0.61273,-1.2267 0.92998,-2.1188 1.1178,-3.1429 0.28413,-1.5498 0.65046,-2.6394 1.32951,-3.9546 0.2389,-0.4628 0.65349,-1.584 0.92124,-2.4916 0.67195,-2.2778 1.31696,-2.8868 3.51535,-3.3191 1.21511,-0.2391 3.62103,-0.1422 4.28196,0.1714 0.95524,0.4544 1.22403,1.9193 0.65544,3.5719 -0.17615,0.5121 -0.41236,1.3757 -0.52494,1.9195 -0.11255,0.5437 -0.53609,1.6489 -0.94112,2.4561 -0.40506,0.8073 -0.92397,2.1895 -1.15309,3.0713 -0.22917,0.8822 -0.70787,2.2283 -1.06379,2.9918 -0.35593,0.7635 -0.77667,1.8423 -0.93497,2.3975 -0.72385,2.5396 -1.02579,3.4297 -1.45523,4.2911 -0.25377,0.5091 -0.73599,1.7806 -1.07161,2.8253 -0.33559,1.045 -0.91426,2.4837 -1.2859,3.1974 -0.46968,0.9016 -0.75192,1.7335 -0.92569,2.7277 -0.38208,2.1865 -1.17658,2.9553 -3.02822,2.931 -1.63313,-0.022 -2.40284,-0.6289 -2.94526,-2.3236 -0.25936,-0.8104 -2.57942,-4.9138 -3.10249,-5.4873 -0.49612,-0.5441 -1.56423,-2.1676 -2.26939,-3.4498 -0.6879,-1.2507 -1.1502,-1.7668 -1.58234,-1.7668 -0.47779,0 -1.54578,1.1929 -2.15513,2.4076 -0.28755,0.5731 -0.92913,1.6679 -1.42574,2.4327 -0.49659,0.765 -1.06625,1.7115 -1.2659,2.1035 -0.1996,0.392 -0.54835,0.9563 -0.77491,1.2538 -0.22658,0.2975 -0.73246,1.282 -1.12423,2.1876 -0.90844,2.1001 -1.48722,2.5794 -3.23827,2.6825 -0.761,0.045 -1.27951,0 -1.53084,-0.1535 z m 38.32741,-0.056 c -0.71835,-0.3115 -1.28962,-0.8291 -1.65422,-1.4988 -0.2449,-0.4499 -0.28928,-2.0363 -0.4071,-14.556 -0.11751,-12.4816 -0.10263,-14.1863 0.13262,-15.2644 0.20841,-0.955 0.37038,-1.3024 0.76044,-1.6305 0.59947,-0.5043 1.65903,-0.6877 3.0702,-0.5315 1.78212,0.1986 2.48342,0.4421 3.13384,1.0924 0.94306,0.943 1.03148,1.4807 1.00335,6.1008 -0.0377,6.1699 -0.0512,5.9729 0.44693,6.4711 0.36123,0.361 0.54133,0.4164 1.13585,0.3476 3.39915,-0.3925 5.84916,-0.6249 8.27896,-0.7848 5.1447,-0.3387 5.2763,-0.3545 5.67613,-0.6782 0.35104,-0.2844 0.38549,-0.4865 0.4917,-2.8886 0.0627,-1.4205 0.12067,-3.5361 0.12833,-4.7015 0.0226,-3.3025 0.51276,-4.3787 2.27098,-4.9806 1.05463,-0.3609 3.51872,-0.402 4.13765,-0.067 0.72957,0.3929 1.17644,0.9 1.33963,1.5198 0.25277,0.9604 0.27148,29.7611 0.0203,30.3848 -0.31354,0.7763 -0.82531,1.2267 -1.8141,1.5968 -1.73733,0.6501 -4.22514,0.3415 -5.13797,-0.6369 -0.81172,-0.8702 -0.88295,-1.4148 -0.88448,-6.7655 -0.002,-3.8804 -0.0515,-5.0522 -0.23087,-5.3675 -0.22797,-0.4005 -0.24263,-0.4025 -2.27172,-0.2965 -1.12325,0.058 -4.27613,0.1511 -7.00642,0.2052 -6.78941,0.1353 -6.69575,0.083 -6.49828,3.4869 0.0603,1.0383 0.11322,2.9859 0.11773,4.328 0.0113,3.5108 -0.34585,4.4732 -1.90394,5.1244 -0.83413,0.3484 -3.52467,0.3437 -4.335,0 z m 38.81242,-0.4822 c -0.83568,-0.298 -1.29936,-0.7446 -1.89423,-1.8246 l -0.48188,-0.8747 -0.12428,-7.4041 c -0.10803,-6.436 -0.29311,-12.533 -0.59482,-19.5878 -0.0988,-2.3108 0.0753,-3.0309 0.88213,-3.6463 0.76394,-0.5828 2.90307,-1.2504 4.00224,-1.2493 2.59656,0 3.80315,1.3521 3.60805,4.0351 -0.093,1.2784 0.32058,20.9683 0.50548,24.066 0.20232,3.3909 0.16534,4.2221 -0.21765,4.878 -0.43043,0.7368 -1.11767,1.1349 -2.64413,1.5315 -1.4335,0.3724 -2.1593,0.3906 -3.04095,0.078 z"
       id="path4147"
       inkscape:connector-curvature="0" />
  </g>
</svg>
