<?xml version="1.0" encoding="UTF-8"?>
<svg version="1.1" viewBox="0 0 479.8 177.2" xmlns="http://www.w3.org/2000/svg" xmlns:cc="http://creativecommons.org/ns#" xmlns:dc="http://purl.org/dc/elements/1.1/" xmlns:rdf="http://www.w3.org/1999/02/22-rdf-syntax-ns#">
<title>Xebec logo</title>
 <metadata>
  <rdf:RDF>
   <cc:Work rdf:about="">
    <dc:format>image/svg+xml</dc:format>
    <dc:type rdf:resource="http://purl.org/dc/dcmitype/StillImage"/>
    <cc:license rdf:resource=""/>
   </cc:Work>
  </rdf:RDF>
 </metadata>
 <g transform="translate(-9.276 -10.05)">
  <g transform="matrix(.9937 0 0 .9894 1.826 1.105)">
   <path d="m47.66 40.61h45.96l11.83 28.37 42.45-53.2h38.56l-65.56 97.06 29.8 72.73h-42.19l-13.85-30.69-20.74 30.69h-64.65l67.18-80.81z" style="fill-rule:evenodd;fill:#0073c9"/>
   <path d="m180.5 44.27-28.22 141.3h66.31l7.398-35.29h-34.88l4.367-19.46h34.61l6.122-31.82h-34.49l3.683-18.36h34.52l7.367-36.37z" style="fill-rule:evenodd;fill:#0073c9"/>
   <path d="m480 81.09 9.091-39.4c-35.7-3.55-74.08 4.798-88.89 60.61-16.18 70.82 22.35 86.61 58.34 84.85l9.344-41.92c-10.73 6.748-18.96 5.332-24.18 1.65-7.64-5.395-10.17-17.66-8.147-35.87 3.509-19.71 24.1-42.04 44.45-29.93z" style="fill-rule:evenodd;fill:#0073c9"/>
   <path d="m195.3 18.26-2.923 17.52h2.385c0.8717 0 1.465 0.1135 1.779 0.3404 0.3141 0.2269 0.4711 0.5511 0.4711 0.9726-2e-5 0.6592-0.3718 1.21-1.115 1.653-0.4103 0.2378-1.07 0.3566-1.981 0.3566h-6.327l4.596-24.16h6.307c0.8717 1.8e-5 1.465 0.1162 1.779 0.3485 0.3141 0.2324 0.4711 0.5539 0.4711 0.9645-2e-5 0.6592-0.3718 1.21-1.115 1.653-0.3974 0.2378-1.058 0.3566-1.981 0.3566z" style="fill:#0073c9"/>
   <path d="m251.4 18.04h11.61l-7.054 8.482z" style="fill-rule:evenodd;fill:#0073c9"/>
   <path d="m260 37.34h-11.61l7.054-8.482z" style="fill-rule:evenodd;fill:#0073c9"/>
   <path d="m328.5 32.37-1.732 5.748h-5.693c-1.075 0-1.807-0.1208-2.194-0.3624-0.3874-0.2416-0.5812-0.5759-0.5812-1.003 0-0.6855 0.4586-1.259 1.376-1.719 0.506-0.2472 1.32-0.3708 2.443-0.3708h0.8302l4.459-14.95h-0.8302c-1.075 2e-5 -1.807-0.1208-2.194-0.3624-0.3875-0.2416-0.5812-0.5759-0.5812-1.003-2e-5 -0.6854 0.4586-1.259 1.376-1.719 0.506-0.2472 1.32-0.3708 2.443-0.3708h5.693l-3.487 11.65 4.459-2.174c-0.2056-0.3821-0.3084-0.663-0.3084-0.8428-1e-5 -0.663 0.4507-1.225 1.352-1.686 0.506-0.2584 1.328-0.3877 2.467-0.3877h5.551c1.075 0 1.807 0.1208 2.194 0.3624 0.3874 0.2416 0.5811 0.5759 0.5811 1.003-3e-5 0.6855-0.4507 1.259-1.352 1.719-0.5061 0.2472-1.328 0.3708-2.467 0.3708h-1.352l-6.926 3.405 6.452 4.989h1.447c1.075 1e-5 1.807 0.118 2.194 0.354 0.3874 0.236 0.5811 0.5731 0.5812 1.011-2e-5 0.6967-0.4744 1.275-1.423 1.736-0.4902 0.236-1.289 0.354-2.396 0.354h-5.598c-1.091 0-1.83-0.1208-2.218-0.3624-0.3874-0.2416-0.5812-0.5759-0.5812-1.003-1e-5 -0.5731 0.4111-1.129 1.233-1.669l-4.151-3.236z" style="fill:#0073c9"/>
   <path d="m208.1 34.38h10.13l0.8347-2.77c0.2782-0.8991 0.726-1.54 1.343-1.923 0.6173-0.3827 1.326-0.5741 2.126-0.5741 0.6086 1e-5 1.113 0.1367 1.513 0.4101 0.3999 0.2734 0.5999 0.5923 0.5999 0.9568-3e-5 0.2552-0.0696 0.6318-0.2087 1.13l-2.008 6.506h-22.31l1.148-3.736 18.74-14.62h-9.834l-0.8347 2.679c-0.2609 0.8991-0.6999 1.54-1.317 1.923-0.6174 0.3828-1.326 0.5741-2.126 0.5741-0.6086 1e-5 -1.117-0.1367-1.526-0.41-0.4087-0.2734-0.613-0.5984-0.613-0.9751-1e-5 -0.2308 0.0782-0.6014 0.2348-1.112l1.956-6.415h22.12l-1.122 3.645z" style="fill:#0073c9"/>
   <path d="m353.7 35.82 2.904-17.52h-2.365c-0.8846 1e-5 -1.484-0.1162-1.798-0.3485-0.3141-0.2323-0.4712-0.5538-0.4711-0.9645-1e-5 -0.6484 0.3654-1.194 1.096-1.637 0.4102-0.2485 1.077-0.3728 2-0.3728h6.327l-4.596 24.16h-6.307c-0.8718-1e-5 -1.465-0.1162-1.779-0.3485-0.3141-0.2324-0.4711-0.5593-0.4711-0.9807 0-0.6592 0.3718-1.205 1.115-1.637 0.4102-0.2378 1.07-0.3566 1.981-0.3566z" style="fill:#0073c9"/>
   <path d="m241.6 21.48-3.259 12.88h5.367c0.985 2e-5 1.655 0.1282 2.01 0.3846 0.3549 0.2564 0.5323 0.6228 0.5323 1.099-2e-5 0.7571-0.4346 1.386-1.304 1.887-0.4346 0.2564-1.166 0.3846-2.195 0.3846h-15.17c-0.985 0-1.655-0.1313-2.01-0.3938-0.3549-0.2625-0.5323-0.6258-0.5323-1.09 0-0.7571 0.4201-1.38 1.26-1.868 0.4635-0.2686 1.21-0.4029 2.238-0.403h5.345l2.303-9.121h-3.585c-0.985 3e-5 -1.655-0.1312-2.01-0.3938-0.3549-0.2625-0.5324-0.6258-0.5323-1.09-2e-5 -0.7326 0.4128-1.349 1.238-1.85 0.449-0.2808 1.202-0.4213 2.26-0.4213z" style="fill:#0073c9"/>
   <path d="m277.2 13.71-2.112 8.442c2.467-1.199 4.869-1.799 7.206-1.799 2.642 1e-5 4.797 0.6882 6.466 2.065 1.669 1.376 2.504 3.08 2.504 5.111-4e-5 1.75-0.5552 3.459-1.665 5.13-1.11 1.67-2.765 2.998-4.964 3.982-2.199 0.9849-4.518 1.477-6.956 1.477-2.38 0-4.463-0.5078-6.248-1.523l-0.2395 0.9176h-5.225c-0.987 0-1.658-0.1315-2.014-0.3946-0.3556-0.263-0.5334-0.627-0.5334-1.092 0-0.7463 0.4209-1.37 1.263-1.872 0.4644-0.2692 1.212-0.4037 2.242-0.4038h0.762l4.093-16.28h-0.762c-0.987 2e-5 -1.658-0.1315-2.014-0.3946-0.3556-0.263-0.5334-0.627-0.5334-1.092-1e-5 -0.7463 0.4209-1.37 1.263-1.872 0.4644-0.2692 1.212-0.4037 2.242-0.4038zm1.437 20.65c2.438 1e-5 4.387-0.5689 5.846-1.707 1.459-1.138 2.188-2.557 2.188-4.258-3e-5 -1.211-0.5008-2.227-1.502-3.047-1.001-0.8197-2.308-1.23-3.919-1.23-2.148 1e-5 -4.049 0.679-5.704 2.037-1.655 1.358-2.482 2.869-2.482 4.533-1e-5 1.077 0.4644 1.958 1.393 2.643 0.9289 0.6852 2.322 1.028 4.18 1.028z" style="fill:#0073c9"/>
   <path d="m317.3 31.1h-18.28c0.2029 0.9651 0.8115 1.75 1.826 2.355 1.014 0.6047 2.536 0.9071 4.565 0.907 1.681 2e-5 3.963-0.2993 6.847-0.8979 1.203-0.2443 2.029-0.3665 2.478-0.3665 0.4782 0 0.8767 0.1313 1.196 0.394 0.3188 0.2626 0.4782 0.6078 0.4782 1.035-2e-5 0.623-0.3297 1.176-0.9891 1.658-0.6594 0.4825-2.214 0.9254-4.663 1.329-2.449 0.4031-4.659 0.6047-6.63 0.6047-3.101 0-5.496-0.6566-7.184-1.97-1.688-1.313-2.532-2.99-2.532-5.03 0-1.698 0.6123-3.402 1.837-5.112 1.225-1.71 2.971-3.075 5.239-4.095 2.268-1.02 4.598-1.53 6.989-1.53 2.811 2e-5 5.09 0.6536 6.837 1.961 1.746 1.307 2.619 3.133 2.619 5.479-2e-5 0.5009-0.0725 1.063-0.2174 1.686zm-4-3.756c-0.3913-1.026-1.072-1.817-2.043-2.373-0.971-0.5558-2.217-0.8338-3.739-0.8338-1.522 1e-5 -2.898 0.2657-4.13 0.7971-1.232 0.5314-2.326 1.335-3.282 2.41z" style="fill:#0073c9"/>
   <path d="m253.7 43.89-28.72 141.7 58.41-0.2812c9.189-1.473 26.02-13.18 31.28-35 3.302-21.51-0.5366-30.02-8.062-36.81 8.168-5.949 15.04-16.43 16.47-33.97-1.555-24.51-14.18-33.68-25.59-35.44zm29 29.09c9.078-0.06757 14 4.99 11.44 14.22-1.914 4.607-4.986 11.9-18.44 10.56l5.156-24.69c0.6413-0.05009 1.239-0.08925 1.844-0.09375zm-11.69 51.47c14.33 0.284 15.5 3.734 12.22 16.56-1.914 4.607-5.017 11.9-18.47 10.56z" style="fill-rule:evenodd;fill:#0073c9"/>
   <path d="m339.7 46.44-27.68 139.1h66.31l7.398-35.29h-34.88l4.367-19.46h34.61l6.122-30.86h-34.49l3.141-17.69h34.52l7.367-35.82z" style="fill-rule:evenodd;fill:#0073c9"/>
   <path d="m244.1 10.06c2.947-0.04958 2.17 5.742 0.2878 7.291-0.7196 0.5677-2.62 1.236-3.933 1.247-1.511 0.1307-2.016 0.05171-3.933 1.919-0.6221 0.597-2.156 1.147-1.679-1.439 0.7692-1.812 2.305-2.725 3.166-2.878 2.164-0.5673 2.921-0.5428 3.55-1.919 0.3191-3.696 1.441-4.178 2.542-4.221z" style="fill-rule:evenodd;fill:#0073c9"/>
  </g>
 </g>
</svg>
