<?xml version="1.0" encoding="UTF-8" standalone="no"?>
<!-- Created with Inkscape (http://www.inkscape.org/) -->
<svg
   xmlns:dc="http://purl.org/dc/elements/1.1/"
   xmlns:cc="http://creativecommons.org/ns#"
   xmlns:rdf="http://www.w3.org/1999/02/22-rdf-syntax-ns#"
   xmlns:svg="http://www.w3.org/2000/svg"
   xmlns="http://www.w3.org/2000/svg"
   xmlns:sodipodi="http://sodipodi.sourceforge.net/DTD/sodipodi-0.dtd"
   xmlns:inkscape="http://www.inkscape.org/namespaces/inkscape"
   width="500"
   height="200"
   id="svg2"
   sodipodi:version="0.32"
   inkscape:version="0.45+0.46pre0+devel"
   sodipodi:docname="Xebec logo.svg"
   inkscape:output_extension="org.inkscape.output.svg.inkscape"
   version="1.0">
  <defs
     id="defs4">
    <inkscape:perspective
       sodipodi:type="inkscape:persp3d"
       inkscape:vp_x="-50 : 600 : 1"
       inkscape:vp_y="0 : 1000 : 0"
       inkscape:vp_z="700 : 600 : 1"
       inkscape:persp3d-origin="300 : 400 : 1"
       id="perspective10" />
    <inkscape:perspective
       id="perspective2395"
       inkscape:persp3d-origin="300 : 400 : 1"
       inkscape:vp_z="700 : 600 : 1"
       inkscape:vp_y="0 : 1000 : 0"
       inkscape:vp_x="-50 : 600 : 1"
       sodipodi:type="inkscape:persp3d" />
  </defs>
  <sodipodi:namedview
     id="base"
     pagecolor="#ffffff"
     bordercolor="#666666"
     borderopacity="1.0"
     inkscape:pageopacity="0.0"
     inkscape:pageshadow="2"
     inkscape:zoom="0.92135504"
     inkscape:cx="375.01416"
     inkscape:cy="-9.1642751"
     inkscape:document-units="px"
     inkscape:current-layer="layer2"
     showgrid="false"
     inkscape:window-width="1280"
     inkscape:window-height="748"
     inkscape:window-x="-8"
     inkscape:window-y="-8" />
  <metadata
     id="metadata7">
    <rdf:RDF>
      <cc:Work
         rdf:about="">
        <dc:format>image/svg+xml</dc:format>
        <dc:type
           rdf:resource="http://purl.org/dc/dcmitype/StillImage" />
        <dc:title></dc:title>
        <dc:date></dc:date>
        <dc:creator>
          <cc:Agent>
            <dc:title></dc:title>
          </cc:Agent>
        </dc:creator>
        <dc:rights>
          <cc:Agent>
            <dc:title></dc:title>
          </cc:Agent>
        </dc:rights>
        <dc:publisher>
          <cc:Agent>
            <dc:title></dc:title>
          </cc:Agent>
        </dc:publisher>
        <dc:identifier></dc:identifier>
        <dc:source></dc:source>
        <dc:relation></dc:relation>
        <dc:language></dc:language>
        <dc:subject>
          <rdf:Bag />
        </dc:subject>
        <dc:coverage></dc:coverage>
        <dc:description></dc:description>
        <dc:contributor>
          <cc:Agent>
            <dc:title></dc:title>
          </cc:Agent>
        </dc:contributor>
        <cc:license
           rdf:resource="" />
      </cc:Work>
    </rdf:RDF>
  </metadata>
  <g
     inkscape:label="1. réteg"
     inkscape:groupmode="layer"
     id="layer1"
     style="display:inline" />
  <g
     inkscape:groupmode="layer"
     id="layer2"
     inkscape:label="Xebec"
     style="display:inline">
    <path
       style="fill:#0073c9;fill-opacity:1;fill-rule:evenodd;stroke:none;stroke-width:1px;stroke-linecap:butt;stroke-linejoin:miter;stroke-opacity:1"
       d="M 47.661827,40.609113 L 93.623762,40.609113 L 105.44973,68.982679 L 147.89644,15.778793 L 186.4608,15.778793 L 120.89788,112.83502 L 150.69738,185.566 L 108.51082,185.566 L 94.664542,154.87364 L 73.925787,185.566 L 9.2760274,185.566 L 76.451167,104.7538 L 47.661827,40.609113 z"
       id="path2402"
       sodipodi:nodetypes="ccccccccccccc" />
    <path
       style="fill:#0073c9;fill-opacity:1;fill-rule:evenodd;stroke:none;stroke-width:1px;stroke-linecap:butt;stroke-linejoin:miter;stroke-opacity:1"
       d="M 180.49688,44.267203 L 152.27388,185.566 L 218.58681,185.566 L 225.98438,150.27194 L 191.10348,150.27194 L 195.4706,130.81381 L 230.08101,130.81381 L 236.2032,98.993998 L 201.71008,98.993998 L 205.39355,80.632688 L 239.91731,80.632688 L 247.28424,44.267203 L 180.49688,44.267203 z"
       id="path2404"
       sodipodi:nodetypes="ccccccccccccc" />
    <path
       style="fill:#0073c9;fill-opacity:1;fill-rule:evenodd;stroke:none;stroke-width:1px;stroke-linecap:butt;stroke-linejoin:miter;stroke-opacity:1"
       d="M 480.00711,81.094168 L 489.09848,41.698223 C 453.40263,38.147823 415.01435,46.496393 400.20506,102.30738 C 384.02563,173.12903 422.55834,188.91269 458.54137,187.16018 L 467.88528,145.23886 C 457.15564,151.98679 448.9218,150.57042 443.70777,146.88872 C 436.06808,141.49421 433.53757,129.22396 435.5604,111.01994 C 439.06905,91.312848 459.66102,68.981019 480.00711,81.094168 z"
       id="path2406"
       sodipodi:nodetypes="cccccscc" />
    <path
       style="font-size:54.35823059px;font-style:italic;font-variant:normal;font-weight:normal;font-stretch:normal;text-align:start;line-height:125%;writing-mode:lr-tb;text-anchor:start;fill:#0073c9;fill-opacity:1;stroke:none;stroke-width:1px;stroke-linecap:butt;stroke-linejoin:miter;stroke-opacity:1;font-family:Vani;-inkscape-font-specification:Vani Italic"
       d="M 195.2842,18.257514 L 192.36132,35.77479 L 194.74584,35.77479 C 195.61758,35.77479 196.2105,35.888262 196.5246,36.115207 C 196.83869,36.342152 196.99572,36.666355 196.99574,37.087834 C 196.99572,37.747047 196.62395,38.298203 195.88041,38.741287 C 195.47015,38.979038 194.80992,39.097909 193.89972,39.097918 L 187.57305,39.097918 L 192.16894,14.934386 L 198.47637,14.934386 C 199.34811,14.934404 199.94104,15.050585 200.25515,15.28291 C 200.56921,15.515281 200.72626,15.836785 200.72628,16.24743 C 200.72626,16.90667 200.35448,17.457818 199.61094,17.900882 C 199.2135,18.138652 198.55327,18.257532 197.63026,18.257514 L 195.2842,18.257514 z"
       id="text2408"
       sodipodi:nodetypes="cccsssccccssscc" />
    <path
       style="fill:#0073c9;fill-opacity:1;fill-rule:evenodd;stroke:none;stroke-width:1px;stroke-linecap:butt;stroke-linejoin:miter;stroke-opacity:1"
       d="M 251.39455,18.040113 L 263.0017,18.040113 L 255.94813,26.522253 L 251.39455,18.040113 z"
       id="path2412"
       sodipodi:nodetypes="cccc" />
    <path
       style="fill:#0073c9;fill-opacity:1;fill-rule:evenodd;stroke:none;stroke-width:1px;stroke-linecap:butt;stroke-linejoin:miter;stroke-opacity:1"
       d="M 259.97589,37.344313 L 248.36874,37.344313 L 255.42231,28.862173 L 259.97589,37.344313 z"
       id="path2414"
       sodipodi:nodetypes="cccc" />
    <path
       style="font-size:54.35823059px;font-style:italic;font-variant:normal;font-weight:normal;font-stretch:normal;text-align:start;line-height:125%;writing-mode:lr-tb;text-anchor:start;fill:#0073c9;fill-opacity:1;stroke:none;stroke-width:1px;stroke-linecap:butt;stroke-linejoin:miter;stroke-opacity:1;font-family:Vani;-inkscape-font-specification:Vani Italic"
       d="M 328.50956,32.367703 L 326.77797,38.115533 L 321.08505,38.115533 C 320.00971,38.115533 319.27834,37.994733 318.89091,37.753143 C 318.50348,37.511543 318.30976,37.177243 318.30976,36.750223 C 318.30976,36.064753 318.76835,35.491643 319.68555,35.030923 C 320.19157,34.783703 321.00597,34.660093 322.12874,34.660083 L 322.95896,34.660083 L 327.41841,19.708953 L 326.58819,19.708953 C 325.51286,19.708973 324.78148,19.588173 324.39406,19.346553 C 324.0066,19.104973 323.81289,18.770673 323.81291,18.343633 C 323.81289,17.658183 324.27149,17.085083 325.18869,16.624333 C 325.69472,16.377143 326.50911,16.253533 327.6319,16.253503 L 333.3248,16.253503 L 329.8379,27.900903 L 334.29734,25.726493 C 334.09175,25.344433 333.98897,25.063513 333.98898,24.883693 C 333.98897,24.220713 334.43966,23.658863 335.34104,23.198113 C 335.84706,22.939673 336.66938,22.810433 337.80797,22.810433 L 343.35856,22.810433 C 344.43385,22.810433 345.16524,22.931243 345.55272,23.172833 C 345.94011,23.414453 346.13382,23.748753 346.13385,24.175753 C 346.13382,24.861253 345.68313,25.434343 344.78179,25.895063 C 344.27573,26.142283 343.45341,26.265893 342.31486,26.265873 L 340.9628,26.265873 L 334.03643,29.670763 L 340.48839,34.660083 L 341.93534,34.660083 C 343.01063,34.660093 343.74202,34.778093 344.12947,35.014053 C 344.51688,35.250053 344.71061,35.587163 344.71063,36.025423 C 344.71061,36.722133 344.23618,37.300833 343.2874,37.761573 C 342.79715,37.997543 341.99857,38.115533 340.89163,38.115533 L 335.2936,38.115533 C 334.20245,38.115533 333.46315,37.994733 333.07575,37.753143 C 332.6883,37.511543 332.49458,37.177243 332.49459,36.750223 C 332.49458,36.177113 332.90573,35.620883 333.72805,35.081493 L 329.57698,31.845173 L 328.50956,32.367703 z"
       id="path2437"
       sodipodi:nodetypes="cccsssccccsssccccssccssscccccsssccssccc" />
    <path
       style="font-size:54.35823059px;font-style:italic;font-variant:normal;font-weight:normal;font-stretch:normal;text-align:start;line-height:125%;writing-mode:lr-tb;text-anchor:start;fill:#0073c9;fill-opacity:1;stroke:none;stroke-width:1px;stroke-linecap:butt;stroke-linejoin:miter;stroke-opacity:1;font-family:Vani;-inkscape-font-specification:Vani Italic"
       d="M 208.11032,34.379353 L 218.23954,34.379353 L 219.07425,31.609113 C 219.35245,30.710003 219.80023,30.069083 220.41759,29.686343 C 221.0349,29.303633 221.74351,29.112253 222.54346,29.112243 C 223.15207,29.112253 223.65638,29.248943 224.05637,29.522323 C 224.45631,29.795703 224.65628,30.114653 224.65631,30.479153 C 224.65628,30.734313 224.58672,31.110963 224.44762,31.609113 L 222.43914,38.115533 L 200.12848,38.115533 L 201.27619,34.379353 L 220.01328,19.762693 L 210.17946,19.762693 L 209.34477,22.441803 C 209.08391,23.340933 208.64483,23.981863 208.0275,24.364563 C 207.41015,24.747323 206.70155,24.938673 205.90163,24.938663 C 205.29299,24.938673 204.78434,24.801983 204.37569,24.528613 C 203.96703,24.255233 203.7627,23.930213 203.76271,23.553543 C 203.7627,23.322713 203.84095,22.952133 203.99747,22.441803 L 205.9538,16.026503 L 228.07335,16.026503 L 226.95172,19.671563 L 208.11032,34.379353 z"
       id="path2439"
       sodipodi:nodetypes="cccsssscccccccssssccccc" />
    <path
       style="font-size:54.35823059px;font-style:italic;font-variant:normal;font-weight:normal;font-stretch:normal;text-align:start;line-height:125%;writing-mode:lr-tb;text-anchor:start;fill:#0073c9;fill-opacity:1;stroke:none;stroke-width:1px;stroke-linecap:butt;stroke-linejoin:miter;stroke-opacity:1;font-family:Vani;-inkscape-font-specification:Vani Italic"
       d="M 353.66976,35.818473 L 356.5734,18.301203 L 354.20812,18.301203 C 353.32352,18.301213 352.72419,18.185043 352.41012,17.952673 C 352.09601,17.720343 351.93897,17.398833 351.93898,16.988153 C 351.93897,16.339763 352.30434,15.794013 353.03509,15.350903 C 353.44531,15.102373 354.11196,14.978093 355.035,14.978073 L 361.36167,14.978073 L 356.76578,39.141603 L 350.45835,39.141603 C 349.58658,39.141593 348.99366,39.025423 348.67958,38.793083 C 348.36548,38.560723 348.20844,38.233813 348.20844,37.812353 C 348.20844,37.153123 348.58022,36.607373 349.32378,36.175103 C 349.73401,35.937343 350.39424,35.818473 351.30446,35.818473 L 353.66976,35.818473 z"
       id="path2441"
       sodipodi:nodetypes="cccsssccccssscc" />
    <path
       style="font-size:54.35823059px;font-style:italic;font-variant:normal;font-weight:normal;font-stretch:normal;text-align:start;line-height:125%;writing-mode:lr-tb;text-anchor:start;fill:#0073c9;fill-opacity:1;stroke:none;stroke-width:1px;stroke-linecap:butt;stroke-linejoin:miter;stroke-opacity:1;font-family:Vani;-inkscape-font-specification:Vani Italic"
       d="M 241.55832,21.484513 L 238.29912,34.360733 L 243.66592,34.360733 C 244.6509,34.360753 245.32084,34.488963 245.67577,34.745363 C 246.03064,35.001813 246.20809,35.368123 246.20811,35.844343 C 246.20809,36.601413 245.77352,37.230253 244.90442,37.730903 C 244.46985,37.987323 243.73834,38.115533 242.70989,38.115533 L 227.54377,38.115533 C 226.55876,38.115533 225.88881,37.984273 225.53393,37.721743 C 225.17903,37.459223 225.00159,37.095943 225.00159,36.631943 C 225.00159,35.874873 225.42165,35.252113 226.26182,34.763693 C 226.72534,34.495063 227.47134,34.360753 228.4998,34.360733 L 233.84488,34.360733 L 236.14805,25.239303 L 232.56293,25.239303 C 231.57792,25.239333 230.90797,25.108063 230.55309,24.845523 C 230.1982,24.582993 230.02074,24.219733 230.02076,23.755713 C 230.02074,23.023073 230.43358,22.406443 231.25925,21.905783 C 231.70829,21.624943 232.46152,21.484523 233.51895,21.484513 L 241.55832,21.484513 z"
       id="path2443"
       sodipodi:nodetypes="cccsssccsssccccssscc" />
    <path
       style="font-size:54.35823059px;font-style:italic;font-variant:normal;font-weight:normal;font-stretch:normal;text-align:start;line-height:125%;writing-mode:lr-tb;text-anchor:start;fill:#0073c9;fill-opacity:1;stroke:none;stroke-width:1px;stroke-linecap:butt;stroke-linejoin:miter;stroke-opacity:1;font-family:Vani;-inkscape-font-specification:Vani Italic"
       d="M 277.23239,13.706683 L 275.12058,22.148853 C 277.58797,20.949833 279.99005,20.350313 282.32684,20.350303 C 284.9684,20.350313 287.12373,21.038533 288.79289,22.414953 C 290.46198,23.791413 291.29654,25.495143 291.29658,27.526133 C 291.29654,29.275753 290.74138,30.985583 289.63109,32.655663 C 288.52072,34.325743 286.86611,35.653233 284.66726,36.638163 C 282.46833,37.623083 280.14972,38.115533 277.71136,38.115533 C 275.33103,38.115533 273.24825,37.607773 271.46303,36.592273 L 271.22355,37.509903 L 265.99847,37.509903 C 265.0115,37.509903 264.34022,37.378383 263.98463,37.115323 C 263.62902,36.852273 263.45124,36.488283 263.45124,36.023343 C 263.45124,35.277013 263.87214,34.653033 264.71396,34.151383 C 265.17841,33.882223 265.92589,33.747643 266.95639,33.747633 L 267.71838,33.747633 L 271.81136,17.468953 L 271.04937,17.468953 C 270.0624,17.468973 269.39114,17.337453 269.03553,17.074363 C 268.67994,16.811343 268.50213,16.447363 268.50214,15.982403 C 268.50213,15.236083 268.92305,14.612093 269.76487,14.110443 C 270.22931,13.841293 270.97679,13.706713 272.00731,13.706683 L 277.23239,13.706683 z M 278.66929,34.353263 C 281.10764,34.353273 283.05617,33.784343 284.51486,32.646483 C 285.97349,31.508643 286.70283,30.089373 286.70286,28.388703 C 286.70283,27.177443 286.2021,26.161943 285.20063,25.342173 C 284.19915,24.522443 282.89288,24.112573 281.28183,24.112563 C 279.13372,24.112573 277.23238,24.791613 275.57778,26.149703 C 273.92316,27.507793 273.09585,29.018823 273.09586,30.682773 C 273.09585,31.759443 273.56031,32.640383 274.48922,33.325533 C 275.41811,34.010683 276.81147,34.353273 278.66929,34.353263 L 278.66929,34.353263 z"
       id="path2445"
       sodipodi:nodetypes="ccsssssscccsssccccssscccssssssscc" />
    <path
       style="font-size:54.35823059px;font-style:italic;font-variant:normal;font-weight:normal;font-stretch:normal;text-align:start;line-height:125%;writing-mode:lr-tb;text-anchor:start;fill:#0073c9;fill-opacity:1;stroke:none;stroke-width:1px;stroke-linecap:butt;stroke-linejoin:miter;stroke-opacity:1;font-family:Vani;-inkscape-font-specification:Vani Italic"
       d="M 317.26595,31.097313 L 298.98451,31.097313 C 299.18738,32.062393 299.79604,32.847283 300.81047,33.451983 C 301.82489,34.056703 303.34654,34.359053 305.37541,34.359033 C 307.05644,34.359053 309.33889,34.059753 312.22279,33.461143 C 313.42559,33.216843 314.25161,33.094663 314.7009,33.094663 C 315.1791,33.094663 315.57762,33.225983 315.89646,33.488643 C 316.21527,33.751293 316.37468,34.096403 316.3747,34.523963 C 316.37468,35.146993 316.04499,35.699783 315.38563,36.182323 C 314.72624,36.664853 313.17198,37.107693 310.72288,37.510833 C 308.27375,37.913973 306.06375,38.115533 304.09288,38.115533 C 300.9916,38.115533 298.59683,37.458913 296.90854,36.145673 C 295.22024,34.832423 294.3761,33.155743 294.3761,31.115633 C 294.3761,29.417593 294.98837,27.713423 296.21294,26.003143 C 297.43748,24.292883 299.18376,22.927723 301.45172,21.907653 C 303.7197,20.887613 306.04926,20.377583 308.44043,20.377563 C 311.25181,20.377583 313.53065,21.031153 315.27695,22.338283 C 317.02318,23.645423 317.89631,25.471753 317.89633,27.817253 C 317.89631,28.318123 317.82386,28.880083 317.67897,29.503093 L 317.26595,31.097313 z M 313.2662,27.340813 C 312.8749,26.314663 312.1938,25.523673 311.22285,24.967823 C 310.25188,24.411993 309.00558,24.134073 307.48396,24.134063 C 305.9623,24.134073 304.58558,24.399773 303.35378,24.931173 C 302.12197,25.462583 301.02784,26.265793 300.07138,27.340813 L 313.2662,27.340813 z"
       id="path2447"
       sodipodi:nodetypes="ccsscssssssssssssscccssscc" />
    <path
       style="fill:#0073c9;fill-opacity:1;fill-rule:evenodd;stroke:none;stroke-width:1px;stroke-linecap:butt;stroke-linejoin:miter;stroke-opacity:1"
       d="M 253.69366,43.887753 L 224.97491,185.57525 L 283.38116,185.294 C 292.5703,183.82094 309.40048,172.11521 314.66241,150.294 C 317.96437,128.78603 314.12584,120.27581 306.59991,113.4815 C 314.76768,107.53222 321.64389,97.048648 323.06866,79.512748 C 321.51387,55.007523 308.88626,45.830033 297.47491,44.075253 L 253.69366,43.887753 z M 282.69366,72.981499 C 291.7718,72.913929 296.6952,77.971599 294.13116,87.200248 C 292.2173,91.807278 289.14559,99.096898 275.69366,97.762748 L 280.84991,73.075249 C 281.49118,73.025159 282.08845,72.985999 282.69366,72.981499 z M 271.00616,124.45025 C 285.33653,124.73423 286.50256,128.18416 283.22491,141.01275 C 281.31105,145.61978 278.20808,152.90937 264.75616,151.57525 L 271.00616,124.45025 z"
       id="path2449" />
    <path
       style="fill:#0073c9;fill-opacity:1;fill-rule:evenodd;stroke:none;stroke-width:1px;stroke-linecap:butt;stroke-linejoin:miter;stroke-opacity:1"
       d="M 339.69995,46.437923 L 312.01963,185.566 L 378.33256,185.566 L 385.73013,150.27194 L 350.84923,150.27194 L 355.21635,130.81381 L 389.82676,130.81381 L 395.94895,99.953328 L 361.45583,99.953328 L 364.59662,82.260728 L 399.12038,82.260728 L 406.48731,46.437923 L 339.69995,46.437923 z"
       id="path2457"
       sodipodi:nodetypes="ccccccccccccc" />
    <path
       style="fill:#0073c9;fill-opacity:1;fill-rule:evenodd;stroke:none;stroke-width:0.1;stroke-linecap:butt;stroke-linejoin:miter;stroke-miterlimit:4;stroke-dasharray:none;stroke-opacity:1"
       d="M 244.05934,10.055183 C 247.00591,10.005603 246.22918,15.796803 244.34714,17.346093 C 243.62759,17.913793 241.72664,18.582323 240.41389,18.593223 C 238.90301,18.723903 238.39834,18.644933 236.48064,20.511883 C 235.8585,21.108853 234.32503,21.658393 234.80181,19.072883 C 235.57104,17.260963 237.10672,16.348333 237.9676,16.194893 C 240.13197,15.627583 240.88868,15.652103 241.51712,14.276233 C 241.83625,10.580073 242.95775,10.098383 244.05934,10.055183 z"
       id="path3231"
       sodipodi:nodetypes="cccccccc" />
  </g>
</svg>
